<?xml version="1.0" encoding="UTF-8"?>
<svg version="1.1" xmlns="http://www.w3.org/2000/svg" width="259" height="194">
<path d="M0 0 C85.47 0 170.94 0 259 0 C259 64.02 259 128.04 259 194 C173.53 194 88.06 194 0 194 C0 129.98 0 65.96 0 0 Z " fill="#FDFEFD" transform="translate(0,0)"/>
<path d="M0 0 C0.825 0.928125 1.65 1.85625 2.5 2.8125 C6.17729887 5.99406643 9.74932799 6.74758296 14.4375 7.4375 C32.72757899 10.22704142 47.94230791 20.08727836 60 34 C62.59513705 37.53606394 64.8498863 41.17941335 67 45 C67.69222656 46.20076172 67.69222656 46.20076172 68.3984375 47.42578125 C72.33847867 54.72082718 76 63.62993243 76 72 C75.25129639 71.97905273 74.50259277 71.95810547 73.73120117 71.93652344 C50.01282423 71.36258921 29.80274825 73.39116198 8.70703125 84.77734375 C6 86 6 86 3 85 C2.33296789 77.11913909 2.34765532 70.53474108 6.8984375 63.81640625 C10.30833376 60.86919108 13.67032525 61.19048556 18.02734375 61.1796875 C24.00017732 60.81864894 27.62767769 57.34113317 31.75 53.3125 C36.86232804 46.58212875 38.67727354 38.18001889 40 30 C31.68091782 30.89936024 24.39837279 31.99188798 17 36 C16.0925 36.4125 15.185 36.825 14.25 37.25 C10.78362647 39.9460683 8.5978768 42.89878287 7 47 C6.60936696 50.71101384 6.69272921 54.28543762 7 58 C7.34289062 57.55011719 7.68578125 57.10023437 8.0390625 56.63671875 C13.75792433 49.60787133 20.81163473 44.42367643 28 39 C28.66 39.33 29.32 39.66 30 40 C29.2265625 40.70125 28.453125 41.4025 27.65625 42.125 C19.27780917 49.74421627 11.12076471 57.17883211 4.34765625 66.3125 C3.90292969 66.869375 3.45820313 67.42625 3 68 C2.67 68 2.34 68 2 68 C1.65705308 64.27369815 1.38476136 60.5454499 1.125 56.8125 C1.02703125 55.75740234 0.9290625 54.70230469 0.828125 53.61523438 C0.3413552 45.89993307 0.3413552 45.89993307 2.24755859 43.29541016 C3.84375 42.02734375 3.84375 42.02734375 7 40 C10.73227719 34.53131577 12.07410887 28.51041498 11 22 C9.06219628 15.01084276 5.62778497 9.52249007 1 4 C-4.80626646 7.6496532 -7.60300619 13.58200707 -9.625 19.9765625 C-10.63836716 25.4445228 -10.66385619 31.04531234 -8.875 36.3125 C-7.05488065 39.20037606 -7.05488065 39.20037606 -3.90625 41.42578125 C-0.94310515 44.34803345 -0.54988947 46.4981164 -0.4140625 50.6171875 C-0.45368426 52.70393358 -0.52487187 54.79028096 -0.625 56.875 C-0.66560547 58.47988281 -0.66560547 58.47988281 -0.70703125 60.1171875 C-0.77746948 62.74688153 -0.87590567 65.3723822 -1 68 C-2.98 66.35 -4.96 64.7 -7 63 C-6.6390625 63.47566406 -6.278125 63.95132813 -5.90625 64.44140625 C-1.07485631 71.7287584 -1.49985753 78.56426361 -2 87 C-6.0458422 85.52674508 -9.51331501 83.546861 -13.1875 81.3125 C-26.21153841 73.68338542 -40.30790898 69.18129095 -55 66 C-55.78487793 65.82202881 -56.56975586 65.64405762 -57.37841797 65.46069336 C-60.07939391 64.98604803 -62.56050225 64.88631873 -65.30078125 64.90234375 C-66.27724609 64.90556641 -67.25371094 64.90878906 -68.25976562 64.91210938 C-69.77086914 64.92467773 -69.77086914 64.92467773 -71.3125 64.9375 C-72.33923828 64.94201172 -73.36597656 64.94652344 -74.42382812 64.95117188 C-76.94927882 64.96291816 -79.47460905 64.97934435 -82 65 C-82 64.34 -82 63.68 -82 63 C-79.36 62.67 -76.72 62.34 -74 62 C-73.48953125 60.58460937 -73.48953125 60.58460937 -72.96875 59.140625 C-65.01430825 37.76638765 -51.09835931 22.23882999 -30.5625 12.25 C-23.7140244 9.27154995 -16.57550366 7.28834707 -9.125 6.6875 C-4.63219629 5.69908318 -2.99133213 3.42908806 0 0 Z " fill="#FCFDF8" transform="translate(129,15)"/>
<path d="M0 0 C2.5925451 1.99516706 5.07483495 4.08479951 7.54907227 6.22583008 C8.22196289 6.79817383 8.89485352 7.37051758 9.58813477 7.96020508 C20.41121101 17.94313385 28.28726526 32.37235475 31.92407227 46.47583008 C32.09205322 47.12527588 32.26003418 47.77472168 32.43310547 48.44384766 C33.54003136 53.15321632 33.68770036 57.42716512 33.54907227 62.22583008 C32.7252002 62.22993896 31.90132812 62.23404785 31.05249023 62.23828125 C13.64810613 62.38955006 -2.66199276 63.15217558 -19.45092773 68.22583008 C-20.2153418 68.45431641 -20.97975586 68.68280273 -21.76733398 68.91821289 C-30.72488074 71.67168487 -39.06819415 75.24565878 -47.27661133 79.77392578 C-51.84157255 82.22583008 -51.84157255 82.22583008 -54.52124023 82.22583008 C-57.41876828 80.72427708 -59.93212964 78.76498977 -62.51342773 76.78833008 C-82.35738637 62.18181876 -104.99790838 53.72103613 -129.45092773 51.22583008 C-129.45092773 50.89583008 -129.45092773 50.56583008 -129.45092773 50.22583008 C-101.30415504 49.40778609 -75.91635696 57.58221059 -52.45092773 73.22583008 C-52.57928616 64.26407805 -52.91575232 57.65461813 -58.45092773 50.22583008 C-58.12092773 49.56583008 -57.79092773 48.90583008 -57.45092773 48.22583008 C-55.80092773 49.87583008 -54.15092773 51.52583008 -52.45092773 53.22583008 C-52.24604316 49.70586807 -52.12278932 46.18745129 -52.01342773 42.66333008 C-51.95477539 41.67268555 -51.89612305 40.68204102 -51.83569336 39.66137695 C-51.63825777 34.05235722 -51.63825777 34.05235722 -53.9699707 29.12475586 C-55.20431654 27.94417463 -56.47311746 26.79838386 -57.77636719 25.69433594 C-60.69042012 23.13885724 -61.28903765 20.4343584 -61.78686523 16.71801758 C-61.94425182 6.17311667 -59.1482941 -1.75109047 -51.84155273 -9.41088867 C-51.38264648 -9.86077148 -50.92374023 -10.3106543 -50.45092773 -10.77416992 C-44.48573114 -7.08978379 -40.86327004 -0.28182531 -38.79858398 6.30786133 C-37.49525604 13.4981312 -38.26643902 20.09454714 -42.45092773 26.22583008 C-43.49249023 26.90516602 -44.53405273 27.58450195 -45.60717773 28.28442383 C-47.82769006 30.04847109 -48.38972853 30.84209662 -48.84301758 33.68432617 C-48.81690832 36.6643651 -48.61436981 39.57231054 -48.32592773 42.53833008 C-48.2137793 44.0784375 -48.2137793 44.0784375 -48.09936523 45.6496582 C-47.91116297 48.17862618 -47.69422827 50.70166639 -47.45092773 53.22583008 C-46.96366211 52.59418945 -46.47639648 51.96254883 -45.97436523 51.31176758 C-39.38176653 42.99310666 -32.04036764 35.627619 -24.45092773 28.22583008 C-24.12092773 27.89583008 -23.79092773 27.56583008 -23.45092773 27.22583008 C-30.8267633 32.84307522 -37.93265382 38.62122141 -44.45092773 45.22583008 C-45.13813239 37.70475685 -45.01259276 32.2349519 -40.27514648 26.12817383 C-34.0547455 19.64137452 -25.64539426 16.63760097 -16.74780273 16.04614258 C-14.64800036 16.03953943 -12.54820567 16.12268526 -10.45092773 16.22583008 C-10.68395645 25.80119178 -13.14109241 35.19689561 -19.88842773 42.28833008 C-24.97346105 46.75403242 -28.74237269 48.2514992 -35.51342773 48.35083008 C-39.80929364 48.60747348 -39.80929364 48.60747348 -43.33764648 50.82739258 C-47.35594572 57.15995584 -46.95552548 63.97083585 -46.45092773 71.22583008 C-42.33020882 69.94152921 -38.6101553 68.35980504 -34.76342773 66.41333008 C-20.75094156 59.82681584 -5.70792521 57.04556542 9.67407227 57.10083008 C10.75817383 57.09696289 11.84227539 57.0930957 12.95922852 57.08911133 C14.00208008 57.09040039 15.04493164 57.09168945 16.11938477 57.09301758 C17.06571777 57.09414551 18.01205078 57.09527344 18.98706055 57.09643555 C21.32530963 57.21452893 23.31165446 57.56335441 25.54907227 58.22583008 C21.49638398 42.7994682 16.43352923 29.29154593 5.54907227 17.22583008 C4.94579102 16.52973633 4.34250977 15.83364258 3.72094727 15.11645508 C-6.80515004 3.70581178 -22.65746887 -3.81628517 -38.01342773 -5.77416992 C-43.81623799 -6.51832294 -46.44333977 -8.58441886 -50.45092773 -12.77416992 C-51.11092773 -11.84604492 -51.77092773 -10.91791992 -52.45092773 -9.96166992 C-55.83352622 -6.53097761 -59.47733438 -5.92129621 -64.07592773 -5.21166992 C-84.10534109 -2.10974932 -100.05852638 9.46098257 -112.45092773 25.22583008 C-116.965049 31.59682393 -119.82899523 38.3099849 -122.47045898 45.63598633 C-123.45092773 48.22583008 -123.45092773 48.22583008 -124.45092773 49.22583008 C-127.12151624 49.36698169 -129.77525011 49.26830115 -132.45092773 49.22583008 C-129.80040889 30.67219815 -116.40601596 12.04553131 -101.76831055 0.95043945 C-71.20551807 -20.7458973 -30.81916964 -22.58691769 0 0 Z " fill="#87C833" transform="translate(179.450927734375,28.774169921875)"/>
<path d="M0 0 C18.36290022 0.06955644 34.87969032 8.90425806 47.9375 21.375 C52.78968521 26.4836884 56.57761227 31.85587085 60 38 C60.46019531 38.79921875 60.92039062 39.5984375 61.39453125 40.421875 C65.3391641 47.71527471 69 56.62951119 69 65 C68.25129639 64.97905273 67.50259277 64.95810547 66.73120117 64.93652344 C43.01282423 64.36258921 22.80274825 66.39116198 1.70703125 77.77734375 C-1 79 -1 79 -4 78 C-4.66703211 70.11913909 -4.65234468 63.53474108 -0.1015625 56.81640625 C3.30833376 53.86919108 6.67032525 54.19048556 11.02734375 54.1796875 C17.00017732 53.81864894 20.62767769 50.34113317 24.75 46.3125 C29.86232804 39.58212875 31.67727354 31.18001889 33 23 C24.68091782 23.89936024 17.39837279 24.99188798 10 29 C9.0925 29.4125 8.185 29.825 7.25 30.25 C3.78362647 32.9460683 1.5978768 35.89878287 0 40 C-0.39063304 43.71101384 -0.30727079 47.28543762 0 51 C0.34289062 50.55011719 0.68578125 50.10023437 1.0390625 49.63671875 C6.75792433 42.60787133 13.81163473 37.42367643 21 32 C21.66 32.33 22.32 32.66 23 33 C22.2265625 33.70125 21.453125 34.4025 20.65625 35.125 C12.27780917 42.74421627 4.12076471 50.17883211 -2.65234375 59.3125 C-3.09707031 59.869375 -3.54179687 60.42625 -4 61 C-4.33 61 -4.66 61 -5 61 C-5.34294692 57.27369815 -5.61523864 53.5454499 -5.875 49.8125 C-5.97296875 48.75740234 -6.0709375 47.70230469 -6.171875 46.61523438 C-6.6586448 38.89993307 -6.6586448 38.89993307 -4.75244141 36.29541016 C-3.15625 35.02734375 -3.15625 35.02734375 0 33 C3.70995848 27.56401806 5.12869834 21.47916259 4 15 C3.08875607 12.37231814 2.05905077 9.87548288 0.875 7.359375 C-0.09071886 4.75538307 -0.15629802 2.75475255 0 0 Z " fill="#FCFDF9" transform="translate(136,22)"/>
<path d="M0 0 C1.71509766 -0.00580078 1.71509766 -0.00580078 3.46484375 -0.01171875 C5.09099609 -0.00978516 5.09099609 -0.00978516 6.75 -0.0078125 C7.73484375 -0.00668457 8.7196875 -0.00555664 9.734375 -0.00439453 C12 0.125 12 0.125 13 1.125 C13.04092937 3.45797433 13.04241723 5.79205225 13 8.125 C11.78570312 8.12757812 10.57140625 8.13015625 9.3203125 8.1328125 C-11.34605962 8.48062789 -31.55462292 12.64312583 -50 22.125 C-50.99773437 22.61871094 -51.99546875 23.11242187 -53.0234375 23.62109375 C-77.4976226 36.26951714 -93.78174909 55.96255713 -104 81.125 C-122.76604523 75.37859266 -137.66307954 59.97097818 -147 43.125 C-148.17927762 40.47371627 -149.11222302 37.8927753 -150 35.125 C-137.33524681 39.74499164 -127.30079975 49.69893696 -118 59.125 C-117.53851563 58.51914063 -117.07703125 57.91328125 -116.6015625 57.2890625 C-93.26535126 27.31171605 -55.70723612 5.42178051 -17.81640625 0.53125 C-11.88791175 -0.07311418 -5.95321343 -0.02069483 0 0 Z " fill="#0B6928" transform="translate(201,92.875)"/>
<path d="M0 0 C-0.33 3.3 -0.66 6.6 -1 10 C-2.00675781 10.13535156 -3.01351562 10.27070312 -4.05078125 10.41015625 C-29.48816847 14.16527205 -54.81344915 25.53457643 -71.390625 45.8046875 C-78.60530016 55.64606478 -83.11291205 65.53014579 -87 77 C-94.47394574 77.37369729 -100.82140651 76.04061541 -108 74 C-107.52384462 67.97093396 -106.2362749 63.5243925 -103.4375 58.1875 C-103.07817383 57.49172852 -102.71884766 56.79595703 -102.34863281 56.07910156 C-88.51766208 29.9270914 -63.87355469 13.5966798 -36.19824219 4.64941406 C-24.27604413 1.12730757 -12.4348291 -0.74114875 0 0 Z " fill="#04A640" transform="translate(213,104)"/>
<path d="M0 0 C5.96519659 3.68438613 9.58765769 10.49234461 11.65234375 17.08203125 C12.95567169 24.27230112 12.18448872 30.86871706 8 37 C6.9584375 37.67933594 5.916875 38.35867187 4.84375 39.05859375 C2.62323768 40.82264101 2.0611992 41.61626654 1.60791016 44.45849609 C1.63401941 47.43853502 1.83655792 50.34648047 2.125 53.3125 C2.23714844 54.85260742 2.23714844 54.85260742 2.3515625 56.42382812 C2.53976477 58.9527961 2.75669946 61.47583632 3 64 C3.48726563 63.36835937 3.97453125 62.73671875 4.4765625 62.0859375 C11.06916121 53.76727659 18.41056009 46.40178892 26 39 C26.33 38.67 26.66 38.34 27 38 C19.62416444 43.61724514 12.51827392 49.39539133 6 56 C5.31279534 48.47892677 5.43833497 43.00912182 10.17578125 36.90234375 C16.39618223 30.41554444 24.80553348 27.4117709 33.703125 26.8203125 C35.80292737 26.81370935 37.90272206 26.89685518 40 27 C39.76697129 36.5753617 37.30983533 45.97106553 30.5625 53.0625 C24.5187051 58.37019167 19.83890289 59.31424335 11.90234375 59.0078125 C7.8351054 60.39822776 6.79171786 62.56412482 4.92651367 66.33105469 C3.33672195 70.91066025 3.47066457 75.26876911 3.6875 80.0625 C3.71005859 81.02349609 3.73261719 81.98449219 3.75585938 82.97460938 C3.81415521 85.3181018 3.89589741 87.65817223 4 90 C-1.30164756 93.01229975 -1.30164756 93.01229975 -3.99609375 92.96484375 C-6.96131083 91.53714664 -9.46253489 89.55345418 -12.0625 87.5625 C-31.90645864 72.95598868 -54.54698065 64.49520606 -79 62 C-79 61.67 -79 61.34 -79 61 C-50.85322731 60.18195601 -25.46542923 68.35638051 -2 84 C-2.12835843 75.03824797 -2.46482459 68.42878806 -8 61 C-7.505 60.01 -7.505 60.01 -7 59 C-5.35 60.65 -3.7 62.3 -2 64 C-1.79511543 60.48003799 -1.67186158 56.96162121 -1.5625 53.4375 C-1.50384766 52.44685547 -1.44519531 51.45621094 -1.38476562 50.43554688 C-1.18733004 44.82652715 -1.18733004 44.82652715 -3.51904297 39.89892578 C-4.7533888 38.71834456 -6.02218972 37.57255378 -7.32543945 36.46850586 C-10.23949239 33.91302716 -10.83810991 31.20852832 -11.3359375 27.4921875 C-11.49332408 16.94728659 -8.69736637 9.02307945 -1.390625 1.36328125 C-0.93171875 0.91339844 -0.4728125 0.46351562 0 0 Z " fill="#74C035" transform="translate(129,18)"/>
<path d="M0 0 C-4.75222717 20.04987272 -18.226385 36.30189854 -35.375 47.25 C-41.37173595 50.7944867 -47.45596391 53.62609449 -54 56 C-54.84175781 56.30808594 -55.68351562 56.61617187 -56.55078125 56.93359375 C-62.95821101 59.06940367 -69.27571997 59.66494137 -76 60 C-71.61911439 40.13229946 -58.77459816 24.70770909 -41.8125 13.8125 C-29.13452246 6.38317509 -14.98935231 -0.37806972 0 0 Z " fill="#096827" transform="translate(210,121)"/>
<path d="M0 0 C-2.87448788 4.23059709 -5.59551651 6.62719561 -10.60546875 7.95703125 C-12.66835639 8.32139589 -14.73560808 8.63222563 -16.80712891 8.94335938 C-35.78383982 11.86487191 -51.37887759 24.21632592 -63 39 C-67.51412127 45.37099385 -70.37806749 52.08415483 -73.01953125 59.41015625 C-74 62 -74 62 -75 63 C-77.67058851 63.14115161 -80.32432238 63.04247107 -83 63 C-80.34948115 44.44636807 -66.95508822 25.81970123 -52.31738281 14.72460938 C-39.90102616 5.91031482 -15.38416923 -8.50894316 0 0 Z " fill="#87C934" transform="translate(130,15)"/>
<path d="M0 0 C23.58960398 3.80477484 46.57736074 14.60222188 64 31 C60.83047153 34.26008643 57.60062011 37.22237877 54 40 C51.04429311 38.66412374 48.96105338 37.1731348 46.625 34.9375 C33.35329165 23.15672022 16.66637356 15.63370374 0 10 C0 6.7 0 3.4 0 0 Z " fill="#86C933" transform="translate(45,91)"/>
<path d="M0 0 C18.00721411 6.18013405 36.25588392 14.39626264 50 28 C50 28.66 50 29.32 50 30 C49.34 30 48.68 30 48 30 C47.74476562 30.57234375 47.48953125 31.1446875 47.2265625 31.734375 C45.86912841 34.24173733 44.28025896 36.1330456 42.375 38.25 C41.74335937 38.95640625 41.11171875 39.6628125 40.4609375 40.390625 C39.97882813 40.92171875 39.49671875 41.4528125 39 42 C38.27683594 41.27296875 37.55367187 40.5459375 36.80859375 39.796875 C27.73745015 30.7635804 18.5331064 22.89270359 7.07202148 17.01049805 C2.2597645 14.50595245 2.2597645 14.50595245 0.87890625 11.81640625 C0.77449219 11.07261719 0.67007813 10.32882813 0.5625 9.5625 C0.44003906 8.82128906 0.31757812 8.08007812 0.19140625 7.31640625 C-0.01099992 4.86687852 -0.03899654 2.45678176 0 0 Z " fill="#86C932" transform="translate(46,105)"/>
<path d="M0 0 C5.96519659 3.68438613 9.58765769 10.49234461 11.65234375 17.08203125 C12.96963767 24.3493494 12.10726422 30.75197989 8 37 C6.39125 38.051875 6.39125 38.051875 4.75 39.125 C1.23631759 42.79839525 1.64322204 44.32876973 1.6875 49.3125 C1.74292969 50.62992188 1.79835937 51.94734375 1.85546875 53.3046875 C2.01449902 57.37070456 1.65302218 61.00023915 1 65 C0.67 65 0.34 65 0 65 C-0.02392822 64.33991943 -0.04785645 63.67983887 -0.07250977 62.99975586 C-0.20158494 59.97642835 -0.38158986 56.9581512 -0.5625 53.9375 C-0.59923828 52.89916016 -0.63597656 51.86082031 -0.67382812 50.79101562 C-1.03590123 45.3599191 -1.43287726 41.92275169 -5.46484375 38.06640625 C-6.09044189 37.53329834 -6.71604004 37.00019043 -7.3605957 36.45092773 C-10.24594137 33.89730014 -10.84107921 31.18636219 -11.3359375 27.4921875 C-11.49332408 16.94728659 -8.69736637 9.02307945 -1.390625 1.36328125 C-0.93171875 0.91339844 -0.4728125 0.46351562 0 0 Z " fill="#A3D663" transform="translate(129,18)"/>
<path d="M0 0 C10.62204334 -0.9578997 20.30333096 1.56639712 28.625 8.4375 C32.43829232 12.19447787 34.83907478 15.2979533 35.16796875 20.8203125 C35.18545546 23.55523445 35.13122622 26.26855056 35 29 C34.34 29 33.68 29 33 29 C31.58984375 27.53125 31.58984375 27.53125 29.9375 25.5 C24.43671317 19.03657547 18.23488026 13.452234 11 9 C12.04447741 10.04447741 13.15306579 11.02339576 14.2578125 12.00390625 C28.74696574 24.93360022 28.74696574 24.93360022 32 32 C24.01815418 32.66618188 18.24648752 32.70317871 11.79296875 27.625 C4.33424491 20.86502371 0.61649373 11.76771528 0.04296875 1.80078125 C0.02878906 1.20652344 0.01460938 0.61226562 0 0 Z " fill="#6DBD2B" transform="translate(89,45)"/>
<path d="M0 0 C23.72068757 -1.45228699 55.48848762 10.95625595 73.625 25.875 C74.40875 26.57625 75.1925 27.2775 76 28 C74.85343125 31.43970626 74.15481722 31.8782229 71.1875 33.75 C70.50042969 34.19859375 69.81335938 34.6471875 69.10546875 35.109375 C67 36 67 36 64.96484375 35.8515625 C62.55390235 34.80666146 61.22690672 33.49214876 59.375 31.625 C43.96688599 17.55343271 20.64585383 6.10895167 0 3 C0 2.01 0 1.02 0 0 Z " fill="#86C932" transform="translate(46,84)"/>
<path d="M0 0 C1.05896484 -0.01224609 2.11792969 -0.02449219 3.20898438 -0.03710938 C16.65564253 -0.06227467 16.65564253 -0.06227467 20.74584961 3.76098633 C21.18034424 4.23173584 21.61483887 4.70248535 22.0625 5.1875 C21.29921387 5.19160889 20.53592773 5.19571777 19.74951172 5.19995117 C-5.37703108 5.4353595 -29.73384362 8.47738783 -52.26025391 20.41577148 C-53.9375 21.1875 -53.9375 21.1875 -55.9375 21.1875 C-55.9375 19.2075 -55.9375 17.2275 -55.9375 15.1875 C-43.55800837 8.82446903 -31.57695333 4.06288164 -17.9375 1.1875 C-17.01453125 0.98511719 -16.0915625 0.78273438 -15.140625 0.57421875 C-10.09958666 -0.03439441 -5.07281209 0.0030763 0 0 Z " fill="#EFC61A" transform="translate(188.9375,85.8125)"/>
<path d="M0 0 C25.61792066 -0.74454667 46.57242584 6.00623457 69 18 C69.91394531 18.42925781 70.82789062 18.85851562 71.76953125 19.30078125 C74 20.4375 74 20.4375 77 23 C77.632448 26.109536 77.4896653 28.87838369 77 32 C72.87197021 31.4330176 70.14264534 29.01687813 66.9375 26.5625 C47.09354136 11.95598868 24.45301935 3.49520606 0 1 C0 0.67 0 0.34 0 0 Z " fill="#EDC51A" transform="translate(50,79)"/>
<path d="M0 0 C-2.34527488 5.24894854 -6.65426084 8.89817437 -12 11 C-15.01916183 11.10382262 -18.00788787 11.06045332 -21.02734375 10.97265625 C-25.14254062 12.39485964 -26.19088955 14.51427795 -28.07788086 18.33325195 C-29.66132188 22.91252817 -29.52924475 27.27077386 -29.3125 32.0625 C-29.28994141 33.02349609 -29.26738281 33.98449219 -29.24414062 34.97460938 C-29.18584479 37.3181018 -29.10410259 39.65817223 -29 42 C-30.98 42.66 -32.96 43.32 -35 44 C-35.00410889 43.34515625 -35.00821777 42.6903125 -35.01245117 42.015625 C-35.04562215 39.00953862 -35.11629026 36.00541639 -35.1875 33 C-35.19330078 31.97003906 -35.19910156 30.94007812 -35.20507812 29.87890625 C-35.38510355 23.59801924 -36.17089333 19.56149062 -40.0324707 14.5234375 C-40.35175537 14.02070312 -40.67104004 13.51796875 -41 13 C-40.67 12.34 -40.34 11.68 -40 11 C-38.35 12.65 -36.7 14.3 -35 16 C-34.67 13.69 -34.34 11.38 -34 9 C-33.01 9 -32.02 9 -31 9 C-30.67 11.31 -30.34 13.62 -30 16 C-29.41992188 15.27554688 -28.83984375 14.55109375 -28.2421875 13.8046875 C-26.62712088 11.80584268 -24.99339242 9.82196872 -23.34375 7.8515625 C-21.07452205 5.18570279 -21.07452205 5.18570279 -19.59375 2.8984375 C-14.98827817 -3.33075838 -6.78135257 -0.94904425 0 0 Z " fill="#459521" transform="translate(162,66)"/>
<path d="M0 0 C0.495 1.485 0.495 1.485 1 3 C-1.89833923 3.82197247 -4.52683953 4.14318122 -7.53515625 4.2109375 C-37.71179702 5.09872903 -66.56297091 11.64942636 -91.62475586 29.29443359 C-93.03624477 30.26809463 -94.51444093 31.14359413 -96 32 C-96.99 31.67 -97.98 31.34 -99 31 C-94.25 26.125 -94.25 26.125 -92 25 C-93.44253657 21.63408134 -95.33264727 19.48952921 -98 17 C-94 17 -94 17 -91.5625 19.0625 C-89.25433479 21.24070952 -89.25433479 21.24070952 -86.89453125 20.88671875 C-82.7460377 19.6158577 -79.00260522 17.67911634 -75.125 15.75 C-66.88815565 11.77058635 -58.83491216 8.46218863 -50 6 C-49.34257812 5.80535156 -48.68515625 5.61070313 -48.0078125 5.41015625 C-32.26969913 0.86688956 -16.21382449 1.59547122 0 2 C0 1.34 0 0.68 0 0 Z " fill="#F1F5E5" transform="translate(213,89)"/>
<path d="M0 0 C0.99 0.495 0.99 0.495 2 1 C2.61875 0.773125 3.2375 0.54625 3.875 0.3125 C4.57625 0.209375 5.2775 0.10625 6 0 C9.10476932 2.39510776 10.27455084 4.21929381 11 8 C11.78449086 14.72604458 10.65329116 20.25911389 7 26 C5.10167036 28.03088134 3.31147256 29.40765224 1 31 C0.67 31 0.34 31 0 31 C0 20.77 0 10.54 0 0 Z " fill="#309C2C" transform="translate(130,29)"/>
<path d="M0 0 C2.7215399 1.99377733 4.82114871 4.3751912 7 6.9375 C7.87591797 7.90719727 7.87591797 7.90719727 8.76953125 8.89648438 C13 13.66690757 13 13.66690757 13 16 C5.02581812 16.66554223 -0.72695808 16.69342718 -7.19140625 11.65234375 C-10.65951696 8.48385383 -13.29462733 5.76126549 -14 1 C-9.21218605 -1.03482093 -4.9777659 -1.63282298 0 0 Z " fill="#4B9B23" transform="translate(108,61)"/>
<path d="M0 0 C-9.71717877 8.81459497 -9.71717877 8.81459497 -13.375 11.8125 C-15.72691113 13.77242594 -17.85378977 15.82182494 -20 18 C-20.68902754 6.17169389 -20.68902754 6.17169389 -18.0625 2.3125 C-14.9231419 -1.20738635 -13.91068307 -1.24565636 -9.125 -1.6875 C-8.05507812 -1.79449219 -6.98515625 -1.90148438 -5.8828125 -2.01171875 C-3 -2 -3 -2 0 0 Z " fill="#58A827" transform="translate(155,56)"/>
<path d="M0 0 C0 6.93 0 13.86 0 21 C-4.32075807 18.83962096 -6.85109348 17.01058642 -9.25 12.8125 C-10.30409571 8.85964107 -10.15945331 5.06605938 -10 1 C-8.5209084 0.83266843 -7.04172444 0.66615314 -5.5625 0.5 C-4.32693359 0.36078125 -4.32693359 0.36078125 -3.06640625 0.21875 C-1 0 -1 0 0 0 Z " fill="#43A723" transform="translate(128,38)"/>
<path d="M0 0 C2.97 0 5.94 0 9 0 C9.02505615 0.87325928 9.0501123 1.74651855 9.07592773 2.64624023 C9.17087709 5.87602552 9.27012029 9.10564154 9.37231445 12.33520508 C9.41571434 13.73489199 9.45738564 15.13463359 9.49731445 16.53442383 C9.55489445 18.54261495 9.61914 20.55061149 9.68359375 22.55859375 C9.72025146 23.76829834 9.75690918 24.97800293 9.79467773 26.22436523 C9.68938266 28.90705456 9.68938266 28.90705456 11 30 C11.34067242 37.38457563 11.16803601 44.69977492 10 52 C9.67 52 9.34 52 9 52 C7.56785273 37.29001922 6.70570167 22.78031621 7 8 C4.03 8 1.06 8 -2 8 C-1.34 5.36 -0.68 2.72 0 0 Z " fill="#78BE49" transform="translate(120,31)"/>
<path d="M0 0 C0.94875 0.350625 1.8975 0.70125 2.875 1.0625 C2.29083782 5.96946232 1.22005819 8.37238363 -1.125 13.0625 C-8.055 12.5675 -8.055 12.5675 -15.125 12.0625 C-15.125 9.0625 -15.125 9.0625 -13.0078125 6.8359375 C-11.64269531 5.64871094 -11.64269531 5.64871094 -10.25 4.4375 C-9.34507812 3.64085937 -8.44015625 2.84421875 -7.5078125 2.0234375 C-3.70018248 -1.11005474 -3.70018248 -1.11005474 0 0 Z " fill="#56A724" transform="translate(164.125,53.9375)"/>
<path d="M0 0 C2.5 2.5625 2.5 2.5625 4 5 C2.18182999 7.31459868 1.24384457 7.95377187 -1.69921875 8.51171875 C-2.68535156 8.56972656 -3.67148438 8.62773438 -4.6875 8.6875 C-5.68136719 8.75324219 -6.67523438 8.81898437 -7.69921875 8.88671875 C-8.45847656 8.92410156 -9.21773438 8.96148437 -10 9 C-14 3.25 -14 3.25 -14 1 C-8.78453742 -1.21657159 -5.41706845 -1.31058108 0 0 Z " fill="#58A827" transform="translate(108,61)"/>
<path d="M0 0 C0.99 0.495 0.99 0.495 2 1 C2.61875 0.773125 3.2375 0.54625 3.875 0.3125 C6 0 6 0 8.1875 1.5 C10.46954688 4.64765087 10.70535939 7.16967201 11 11 C9.35567294 11.36109542 7.7094792 11.71370076 6.0625 12.0625 C4.68771484 12.35833984 4.68771484 12.35833984 3.28515625 12.66015625 C2.53105469 12.77230469 1.77695313 12.88445313 1 13 C0 12 0 12 -0.09765625 9.27734375 C-0.08605469 8.17519531 -0.07445312 7.07304688 -0.0625 5.9375 C-0.05347656 4.83277344 -0.04445312 3.72804687 -0.03515625 2.58984375 C-0.02355469 1.73519531 -0.01195312 0.88054688 0 0 Z " fill="#57AF26" transform="translate(130,29)"/>
<path d="M0 0 C-0.46590233 5.59082796 -1.68028526 10.3794566 -5 15 C-9.6875 18 -9.6875 18 -13 18 C-12.25778375 10.20672935 -8.25866593 5.9205133 -2.48828125 1.1015625 C-1 0 -1 0 0 0 Z " fill="#EFC71F" transform="translate(188,66)"/>
<path d="M0 0 C0.33 5.94 0.66 11.88 1 18 C-0.98 18.66 -2.96 19.32 -5 20 C-5.10787818 17.22813012 -5.18723327 14.46044463 -5.25 11.6875 C-5.28351563 10.90181641 -5.31703125 10.11613281 -5.3515625 9.30664062 C-5.45088196 3.47162253 -5.45088196 3.47162253 -3.046875 0.95703125 C-1 0 -1 0 0 0 Z " fill="#0D6816" transform="translate(132,90)"/>
<path d="M0 0 C5.69815615 3.73278716 10.30093174 7.58971289 13 14 C13 15.32 13 16.64 13 18 C8.00918871 16.75229718 5.7138982 15.39838674 3 11 C0 3.55793991 0 3.55793991 0 0 Z " fill="#EFC61D" transform="translate(70,63)"/>
<path d="M0 0 C0.99 0 1.98 0 3 0 C3.33 2.31 3.66 4.62 4 7 C4.99 6.67 5.98 6.34 7 6 C4.84682713 14.35010941 4.84682713 14.35010941 1.3125 17.0625 C0.1678125 17.5265625 0.1678125 17.5265625 -1 18 C-1.37125 16.4840625 -1.37125 16.4840625 -1.75 14.9375 C-2.5500811 12.06421604 -3.64082728 9.73496095 -5.1875 7.1875 C-6.0846875 5.6096875 -6.0846875 5.6096875 -7 4 C-6.67 3.34 -6.34 2.68 -6 2 C-4.35 3.65 -2.7 5.3 -1 7 C-0.67 4.69 -0.34 2.38 0 0 Z " fill="#30821A" transform="translate(128,75)"/>
<path d="M0 0 C-0.6442428 10.19680851 -0.6442428 10.19680851 -4 14 C-6.29856455 15.26446647 -8.51423326 16.10887607 -11 17 C-10.68949346 10.94512238 -7.70382165 6.60674335 -4 2 C-1 0 -1 0 0 0 Z " fill="#EFC721" transform="translate(174,71)"/>
<path d="M0 0 C0.69867188 0.19980469 1.39734375 0.39960937 2.1171875 0.60546875 C2.82101563 0.79753906 3.52484375 0.98960938 4.25 1.1875 C5.9921875 1.79296875 5.9921875 1.79296875 6.9921875 2.79296875 C7.06445252 4.64584377 7.0759997 6.50130753 7.0546875 8.35546875 C7.04566406 9.36738281 7.03664063 10.37929687 7.02734375 11.421875 C7.01574219 12.20433594 7.00414063 12.98679687 6.9921875 13.79296875 C4.9921875 13.79296875 4.9921875 13.79296875 3.37109375 12.18359375 C2.77167969 11.4771875 2.17226562 10.77078125 1.5546875 10.04296875 C0.95785156 9.346875 0.36101562 8.65078125 -0.25390625 7.93359375 C-1.89862348 5.92623286 -3.46907358 3.88226563 -5.0078125 1.79296875 C-2.0078125 -0.20703125 -2.0078125 -0.20703125 0 0 Z " fill="#59A82A" transform="translate(117.0078125,60.20703125)"/>
<path d="M0 0 C0.495 1.485 0.495 1.485 1 3 C-1.97858124 3.8457647 -4.72534786 4.16853174 -7.81640625 4.28125 C-9.20351807 4.33647827 -9.20351807 4.33647827 -10.61865234 4.39282227 C-12.07585693 4.44587524 -12.07585693 4.44587524 -13.5625 4.5 C-21.0654689 4.80318119 -28.53389479 5.1605097 -36 6 C-36.33 5.01 -36.66 4.02 -37 3 C-32.48631748 2.12217076 -28.22780021 1.8833562 -23.6328125 1.90234375 C-22.95322479 1.9037587 -22.27363708 1.90517365 -21.57345581 1.90663147 C-19.42392388 1.91218482 -17.27449992 1.92472831 -15.125 1.9375 C-13.65885568 1.94252104 -12.19270971 1.94708289 -10.7265625 1.95117188 C-7.15100717 1.96213889 -3.57551414 1.97937081 0 2 C0 1.34 0 0.68 0 0 Z " fill="#E4ECDB" transform="translate(213,89)"/>
<path d="M0 0 C7.42390761 -0.28192054 13.12819723 0.14947441 20 3 C20 3.33 20 3.66 20 4 C16.7 4.33 13.4 4.66 10 5 C10 5.99 10 6.98 10 8 C9.34 8 8.68 8 8 8 C7.34 7.01 6.68 6.02 6 5 C2.52859548 5.76429774 2.52859548 5.76429774 1 10 C0.67 6.7 0.34 3.4 0 0 Z " fill="#85CB3F" transform="translate(89,45)"/>
<path d="M0 0 C4.06921267 1.5071158 6.79860056 4.33375958 9 8 C9.8125 11.875 9.8125 11.875 10 15 C6.68311259 14.42812286 5.18625369 13.54093846 3 11 C2.05078125 9.0625 2.05078125 9.0625 1.3125 7 C1.06113281 6.319375 0.80976562 5.63875 0.55078125 4.9375 C0 3 0 3 0 0 Z " fill="#EFC721" transform="translate(84,69)"/>
<path d="M0 0 C-1.1875 1.5 -1.1875 1.5 -3 3 C-5.6875 3.1875 -5.6875 3.1875 -8 3 C-8.33 3.66 -8.66 4.32 -9 5 C-9.721875 4.79375 -10.44375 4.5875 -11.1875 4.375 C-14.44641585 3.94047789 -16.08304504 4.58319331 -19 6 C-17.92598892 3.08482708 -17.22189824 1.22189824 -15 -1 C-12.28515625 -1.484375 -12.28515625 -1.484375 -9.0625 -1.75 C-8.00160156 -1.84796875 -6.94070312 -1.9459375 -5.84765625 -2.046875 C-3 -2 -3 -2 0 0 Z " fill="#60B228" transform="translate(155,56)"/>
<path d="M0 0 C0 3.63 0 7.26 0 11 C-3.62628014 9.18685993 -5.47421623 8.04835972 -8 5 C-8.75 2.25 -8.75 2.25 -9 0 C-3.375 -1.125 -3.375 -1.125 0 0 Z " fill="#279A20" transform="translate(128,48)"/>
<path d="M0 0 C1.6875 0.8125 1.6875 0.8125 2.9375 3.375 C3.185 4.179375 3.4325 4.98375 3.6875 5.8125 C0.64363276 5.89476668 -1.38425348 5.78858217 -4.3125 4.8125 C-4.951875 5.039375 -5.59125 5.26625 -6.25 5.5 C-6.930625 5.603125 -7.61125 5.70625 -8.3125 5.8125 C-10.5625 3.875 -10.5625 3.875 -12.3125 1.8125 C-8.16591344 -0.95189104 -4.83659705 -0.39215652 0 0 Z " fill="#63B32C" transform="translate(119.3125,56.1875)"/>
<path d="M0 0 C0 1.98 0 3.96 0 6 C-1.45736087 6.19491452 -2.91594593 6.38069358 -4.375 6.5625 C-5.18710938 6.66691406 -5.99921875 6.77132812 -6.8359375 6.87890625 C-9 7 -9 7 -11 6 C-11 4.35 -11 2.7 -11 1 C-3.375 0 -3.375 0 0 0 Z " fill="#43A626" transform="translate(141,40)"/>
<path d="M0 0 C4.95 0.33 9.9 0.66 15 1 C14.34 2.32 13.68 3.64 13 5 C8.05 5 3.1 5 -2 5 C-1.34 3.35 -0.68 1.7 0 0 Z " fill="#4C9E20" transform="translate(147,65)"/>
<path d="M0 0 C1.6396875 0.2475 1.6396875 0.2475 3.3125 0.5 C6.87525873 1.06718184 6.87525873 1.06718184 10 1 C12.1875 3 12.1875 3 14 5 C10.42355152 6.2380014 7.66305234 5.74926071 4 5 C3.67 5.66 3.34 6.32 3 7 C2.01 6.67 1.02 6.34 0 6 C-0.75 4.0625 -0.75 4.0625 -1 2 C-0.67 1.34 -0.34 0.68 0 0 Z " fill="#62B329" transform="translate(93,56)"/>
<path d="M0 0 C1.65 1.65 3.3 3.3 5 5 C3.30820672 7.04219706 2.36272334 7.91793306 -0.26171875 8.51171875 C-1.06222656 8.56972656 -1.86273438 8.62773437 -2.6875 8.6875 C-3.49574219 8.75324219 -4.30398437 8.81898437 -5.13671875 8.88671875 C-5.75160156 8.92410156 -6.36648437 8.96148437 -7 9 C-2.85714286 2.57142857 -2.85714286 2.57142857 0 0 Z " fill="#98D034" transform="translate(129,18)"/>
<path d="M0 0 C0.66 0.33 1.32 0.66 2 1 C0.10600285 2.75202288 -1.79011738 4.50164978 -3.6875 6.25 C-4.21794922 6.74113281 -4.74839844 7.23226562 -5.29492188 7.73828125 C-14.66075863 16.35714943 -14.66075863 16.35714943 -19 17 C-15.34034888 12.28373833 -11.43413283 8.72285969 -6.6875 5.125 C-6.04232422 4.62742187 -5.39714844 4.12984375 -4.73242188 3.6171875 C-3.15953426 2.40548149 -1.5804084 1.20188027 0 0 Z " fill="#E4F2DB" transform="translate(157,54)"/>
<path d="M0 0 C0.99 0.495 0.99 0.495 2 1 C2.61875 0.773125 3.2375 0.54625 3.875 0.3125 C4.57625 0.209375 5.2775 0.10625 6 0 C8.25 1.8125 8.25 1.8125 10 4 C10 4.66 10 5.32 10 6 C4.25 7.125 4.25 7.125 2 6 C1.67 6.66 1.34 7.32 1 8 C-0.35439668 5.29120665 -0.06501451 2.99066732 0 0 Z " fill="#6DBD2C" transform="translate(130,29)"/>
<path d="M0 0 C1.343231 2.686462 0.67960047 3.69297114 -0.25 6.5 C-0.62898437 7.69109375 -0.62898437 7.69109375 -1.015625 8.90625 C-2 11 -2 11 -5 13 C-5.99 12.67 -6.98 12.34 -8 12 C-5.86793788 7.32760855 -3.97497544 3.40712181 0 0 Z " fill="#EEC51A" transform="translate(161,77)"/>
<path d="M0 0 C5.15171623 -0.09038099 9.91913204 0.15318867 15 1 C14.01 1.495 14.01 1.495 13 2 C13 2.66 13 3.32 13 4 C9.72814447 5.07310858 7.57052408 4.89263102 4.25 4.0625 C3.45078125 3.86785156 2.6515625 3.67320313 1.828125 3.47265625 C1.22484375 3.31667969 0.6215625 3.16070312 0 3 C0 2.01 0 1.02 0 0 Z " fill="#8ECA40" transform="translate(46,84)"/>
<path d="M0 0 C0 1.65 0 3.3 0 5 C-3.3125 5.6875 -3.3125 5.6875 -7 6 C-8.9375 4.6875 -8.9375 4.6875 -10 3 C-10 2.34 -10 1.68 -10 1 C-8.5209084 0.83266843 -7.04172444 0.66615314 -5.5625 0.5 C-4.32693359 0.36078125 -4.32693359 0.36078125 -3.06640625 0.21875 C-1 0 -1 0 0 0 Z " fill="#51AD24" transform="translate(128,38)"/>
<path d="M0 0 C0.66 0 1.32 0 2 0 C2.09377123 7.41834582 2.17402193 14.66236293 1 22 C0.67 22 0.34 22 0 22 C-0.94450945 14.48751716 -0.94450945 7.51248284 0 0 Z " fill="#5AA334" transform="translate(129,61)"/>
<path d="M0 0 C0.57234375 0.22558594 1.1446875 0.45117188 1.734375 0.68359375 C1.734375 2.00359375 1.734375 3.32359375 1.734375 4.68359375 C0.29711629 4.85232853 -1.14044338 5.01850112 -2.578125 5.18359375 C-3.37863281 5.27640625 -4.17914063 5.36921875 -5.00390625 5.46484375 C-7.265625 5.68359375 -7.265625 5.68359375 -10.265625 5.68359375 C-9.02827516 4.64746342 -7.77517863 3.63011573 -6.515625 2.62109375 C-5.81953125 2.05261719 -5.1234375 1.48414063 -4.40625 0.8984375 C-2.265625 -0.31640625 -2.265625 -0.31640625 0 0 Z " fill="#62B32B" transform="translate(163.265625,53.31640625)"/>
<path d="M0 0 C1.65 0.33 3.3 0.66 5 1 C3.82744291 4.33727786 2.81131596 6.77437487 0 9 C-0.66 9 -1.32 9 -2 9 C-2.25 3.375 -2.25 3.375 0 0 Z " fill="#1B921E" transform="translate(133,50)"/>
<path d="M0 0 C0.33 0 0.66 0 1 0 C1.33 2.31 1.66 4.62 2 7 C2.99 7 3.98 7 5 7 C5.33 8.32 5.66 9.64 6 11 C4.02 11.66 2.04 12.32 0 13 C0 8.71 0 4.42 0 0 Z " fill="#055C12" transform="translate(127,97)"/>
<path d="M0 0 C4.92307692 4.18461538 4.92307692 4.18461538 5.3125 8.3125 C5.209375 9.199375 5.10625 10.08625 5 11 C2.5 10 2.5 10 0 8 C-0.46837899 5.20625708 -0.23424505 2.85778964 0 0 Z " fill="#EDC20B" transform="translate(98,77)"/>
<path d="M0 0 C-0.33 0.66 -0.66 1.32 -1 2 C-5.29581527 3.26761762 -8.50944298 4 -13 4 C-13 3.34 -13 2.68 -13 2 C-8.46298506 0.54815522 -4.81938524 -0.23509196 0 0 Z " fill="#F7FAF1" transform="translate(178,93)"/>
<path d="M0 0 C-1 3 -1 3 -3.875 4.75 C-7 6 -7 6 -10 5 C-6.99385784 1.69324363 -4.54252119 0 0 0 Z " fill="#F7FAEF" transform="translate(140,105)"/>
<path d="M0 0 C1.53445094 3.06890187 0.54984289 5.70094266 0 9 C-1.32 8.34 -2.64 7.68 -4 7 C-3.6875 4.625 -3.6875 4.625 -3 2 C-2.01 1.34 -1.02 0.68 0 0 Z " fill="#1B7018" transform="translate(131,90)"/>
<path d="M0 0 C5.27112904 2.79692561 9.59398317 5.98235547 14 10 C13.34 10.66 12.68 11.32 12 12 C11.30132812 11.36191406 10.60265625 10.72382812 9.8828125 10.06640625 C8.97273438 9.24011719 8.06265625 8.41382813 7.125 7.5625 C6.22007813 6.73878906 5.31515625 5.91507813 4.3828125 5.06640625 C2.18862073 2.99092058 2.18862073 2.99092058 0 2 C0 1.34 0 0.68 0 0 Z " fill="#E2F2D1" transform="translate(99,53)"/>
<path d="M0 0 C0 2.31 0 4.62 0 7 C-3.16115776 5.63016497 -3.9927092 5.0109362 -6 2 C-1.125 0 -1.125 0 0 0 Z " fill="#128D13" transform="translate(128,52)"/>
<path d="M0 0 C1.15224028 0.92961422 2.29659176 1.8690125 3.4375 2.8125 C4.07558594 3.33457031 4.71367187 3.85664063 5.37109375 4.39453125 C7 6 7 6 8 9 C5 9 5 9 2.375 6.625 C0 4 0 4 -1 2 C-0.67 1.34 -0.34 0.68 0 0 Z " fill="#F2F9E6" transform="translate(129,15)"/>
<path d="M0 0 C0.66 0.33 1.32 0.66 2 1 C-0.51407619 5.28324091 -2.12314139 7.64531705 -7 9 C-6.02180976 7.68677212 -5.0424189 6.37443848 -4.0625 5.0625 C-3.51722656 4.33160156 -2.97195312 3.60070312 -2.41015625 2.84765625 C-1 1 -1 1 0 0 Z " fill="#EDF4EA" transform="translate(106,124)"/>
<path d="M0 0 C0.99 0.66 1.98 1.32 3 2 C1.35830472 4.02054804 -0.30911778 6.02043058 -2 8 C-2.33 8 -2.66 8 -3 8 C-3 6.02 -3 4.04 -3 2 C-2.01 2 -1.02 2 0 2 C0 1.34 0 0.68 0 0 Z " fill="#4C9A1E" transform="translate(138,66)"/>
<path d="M0 0 C1.32 1.32 2.64 2.64 4 4 C3.34 5.32 2.68 6.64 2 8 C-0.1519437 4.77208445 -0.20086443 3.71599191 0 0 Z " fill="#F0C61B" transform="translate(99,78)"/>
<path d="M0 0 C0.33 0 0.66 0 1 0 C1 2.31 1 4.62 1 7 C0.34 7 -0.32 7 -1 7 C-2.625 4.5 -2.625 4.5 -4 2 C-2.68 2 -1.36 2 0 2 C0 1.34 0 0.68 0 0 Z " fill="#4C9A1E" transform="translate(123,67)"/>
<path d="M0 0 C0 0.99 0 1.98 0 3 C-2.64 3 -5.28 3 -8 3 C-4.93882432 0.37613513 -4.26826873 0 0 0 Z " fill="#61B328" transform="translate(127,36)"/>
</svg>
