<?xml version="1.0" standalone="no"?>
<!DOCTYPE svg PUBLIC "-//W3C//DTD SVG 20010904//EN"
 "http://www.w3.org/TR/2001/REC-SVG-20010904/DTD/svg10.dtd">
<svg version="1.0" xmlns="http://www.w3.org/2000/svg"
 width="490.000000pt" height="490.000000pt" viewBox="0 0 490.000000 490.000000"
 preserveAspectRatio="xMidYMid meet">

<g transform="translate(0.000000,490.000000) scale(0.100000,-0.100000)"
fill="#000000" stroke="none">
<path d="M36 4860 l-36 -40 0 -108 c0 -105 1 -108 31 -145 42 -52 90 -72 170
-72 55 0 73 5 115 30 122 75 139 260 32 350 -28 24 -36 25 -153 25 l-123 0
-36 -40z m239 10 c111 -54 134 -194 46 -281 -87 -88 -227 -65 -280 44 -25 51
-27 94 -6 144 21 50 42 72 90 94 52 24 99 24 150 -1z"/>
<path d="M872 4892 c15 -6 9 -16 -37 -61 -66 -65 -104 -138 -112 -215 l-6 -56
-42 0 c-62 0 -137 -26 -167 -57 -73 -79 -59 -259 27 -345 l24 -25 -44 -117
c-67 -177 -185 -396 -268 -499 -17 -21 -47 -17 -165 23 l-82 29 0 -38 c0 -38
1 -38 83 -76 45 -21 83 -39 85 -41 2 -1 -1 -11 -7 -22 -6 -11 -17 -45 -25 -75
-28 -108 23 -210 114 -226 l45 -7 -53 -12 c-29 -7 -88 -12 -130 -13 -42 0 -86
-4 -97 -9 -26 -11 -11 -13 95 -11 136 4 178 16 259 78 24 18 46 31 49 28 8 -7
41 -212 48 -295 5 -62 4 -78 -9 -89 -21 -17 -33 -8 -55 42 -28 61 -54 81 -112
82 -29 1 -46 -3 -43 -8 3 -6 1 -7 -6 -3 -12 8 -162 -14 -156 -23 2 -3 -10 -6
-26 -6 -33 0 -34 2 -14 29 26 34 12 107 -23 121 -22 8 -27 -3 -10 -22 24 -27
28 -85 6 -81 -8 2 -13 -15 -16 -49 l-4 -52 33 9 c45 13 47 6 4 -18 -19 -12
-35 -27 -35 -33 0 -8 4 -8 15 1 11 10 18 9 30 -3 13 -14 11 -19 -15 -47 -17
-18 -30 -37 -30 -44 0 -6 13 4 28 22 42 50 48 38 8 -17 -37 -50 -44 -71 -25
-71 6 0 26 -7 44 -15 25 -12 32 -22 31 -42 -1 -20 4 -27 23 -30 13 -2 32 4 43
13 36 34 26 6 -23 -61 -40 -55 -49 -75 -45 -96 5 -24 2 -27 -20 -24 -13 1 -22
0 -19 -3 14 -14 119 -11 135 3 9 8 19 12 22 9 3 -3 5 3 4 13 0 10 5 17 12 15
6 -1 11 4 10 10 -2 7 3 12 10 10 8 -1 11 1 8 6 -6 10 21 52 33 52 5 0 0 -17
-10 -37 -17 -33 -17 -38 -3 -46 19 -11 79 -28 71 -21 -3 3 5 15 17 28 14 15
25 19 33 13 7 -5 10 -13 7 -18 -3 -5 -1 -8 4 -7 18 6 83 -79 125 -162 39 -80
42 -90 42 -170 0 -81 -1 -85 -23 -88 -26 -4 -65 25 -55 41 3 5 1 7 -4 4 -6 -4
-28 7 -49 24 -22 17 -46 34 -54 39 -12 7 -12 10 0 27 14 16 14 17 -2 4 -16
-12 -22 -10 -53 13 -20 15 -33 30 -31 34 2 4 -2 16 -10 27 -8 10 -14 14 -14 9
0 -6 5 -15 12 -22 7 -7 8 -12 3 -12 -16 1 -210 162 -207 172 1 5 -2 7 -7 4 -5
-3 -20 3 -34 14 -27 22 -37 25 -37 11 0 -4 108 -93 239 -197 132 -104 239
-189 238 -190 -1 -2 -23 2 -49 7 -28 6 -50 17 -53 27 -7 18 -292 242 -324 254
-11 4 -26 20 -35 35 l-14 28 0 -46 c1 -43 2 -45 28 -41 22 3 54 -18 178 -117
149 -119 170 -144 140 -169 -15 -11 -42 -8 -100 14 -24 8 -51 18 -60 21 -10 3
-18 9 -18 14 0 5 -7 9 -15 9 -8 0 -15 5 -15 12 0 6 -3 9 -6 5 -7 -7 -21 4 -85
67 l-49 50 0 -30 c1 -25 17 -41 130 -129 72 -55 140 -102 151 -103 12 -2 33 5
48 15 20 15 33 18 56 11 17 -4 70 -11 118 -15 48 -3 89 -9 91 -12 3 -5 -132
-181 -164 -214 -4 -5 -101 64 -215 153 -113 89 -209 159 -212 156 -4 -3 1 -14
10 -24 10 -10 14 -22 10 -27 -5 -4 -2 -5 4 -1 15 8 58 -19 58 -37 0 -6 5 -12
10 -12 20 -1 55 -26 52 -38 -1 -7 4 -11 11 -9 17 3 83 -53 74 -64 -4 -4 -2 -5
3 -1 6 3 21 -2 34 -12 23 -17 22 -17 -40 -10 -69 8 -120 27 -180 65 -21 13
-41 24 -44 24 -3 0 -5 -13 -5 -29 0 -32 12 -44 145 -146 89 -69 126 -100 106
-89 -9 5 -12 3 -7 -5 4 -6 11 -9 15 -7 9 6 51 -21 51 -32 0 -4 -4 -13 -9 -21
-8 -12 -16 -10 -45 13 -20 15 -34 31 -31 37 3 5 0 6 -8 3 -9 -3 -22 4 -31 18
-9 13 -20 22 -24 22 -13 -3 -52 33 -44 41 4 3 2 5 -3 3 -14 -4 -56 27 -47 36
4 4 2 7 -3 6 -24 -5 -27 1 -9 16 18 14 18 15 -4 4 -18 -9 -27 -8 -38 1 -11 9
-14 9 -13 -2 0 -11 237 -204 283 -231 8 -4 34 21 70 68 32 41 60 74 61 72 2
-2 -6 -39 -19 -83 l-23 -80 -69 -7 c-134 -12 -222 -57 -282 -145 -19 -27 -29
-63 -19 -63 10 0 812 -222 816 -225 8 -9 -18 -55 -31 -55 -10 0 -9 3 1 9 17
11 -10 21 -72 26 -84 8 -450 105 -471 125 -5 5 -15 6 -22 3 -8 -3 -20 -1 -27
5 -10 8 -184 82 -194 82 -2 0 -3 -18 -3 -40 0 -22 2 -40 5 -40 10 0 739 -201
743 -205 10 -10 -10 -75 -23 -75 -15 0 -181 43 -496 130 -118 33 -218 60 -222
60 -4 0 -7 -9 -7 -19 0 -12 12 -24 33 -32 l32 -13 -34 -4 -34 -3 27 -15 c15
-7 46 -18 67 -24 22 -6 47 -14 56 -17 11 -4 14 -2 9 5 -4 7 -1 12 9 12 9 0 14
-4 11 -8 -3 -5 30 -19 72 -31 42 -13 95 -32 116 -43 32 -16 43 -18 64 -9 13 7
27 10 29 7 2 -2 -5 -7 -16 -11 -21 -6 -29 -25 -11 -25 5 0 27 -17 48 -39 62
-63 78 -150 45 -251 -9 -29 -22 -54 -29 -57 -9 -3 -306 73 -476 123 -13 4 -18
0 -18 -15 0 -13 8 -23 22 -26 13 -3 132 -36 265 -73 l243 -67 4 -141 c2 -78 1
-146 -3 -151 -3 -6 -107 18 -256 58 -137 38 -256 69 -262 69 -7 0 -13 -9 -13
-20 0 -11 6 -20 13 -20 34 0 483 -132 493 -145 14 -18 50 -20 57 -2 4 9 6 9 6
0 1 -7 8 -13 17 -13 13 0 15 6 9 27 -17 59 -12 75 25 88 81 28 77 29 84 -11
11 -55 37 -104 57 -104 16 0 15 6 -8 56 -22 48 -25 66 -21 128 6 83 29 134 85
188 64 63 124 74 234 44 16 -5 29 -3 33 3 4 6 4 11 -1 12 -41 3 -99 11 -102
15 -2 2 11 4 31 4 55 0 130 -27 168 -60 19 -17 29 -29 23 -25 -7 3 -13 2 -13
-4 0 -5 10 -11 23 -13 15 -2 21 -9 19 -21 -2 -10 3 -16 10 -15 7 2 12 -3 11
-9 -2 -7 1 -13 6 -13 6 0 6 -12 2 -27 -5 -17 -3 -45 4 -68 l11 -40 1 42 c0 23
-3 40 -7 38 -5 -3 -6 5 -2 17 5 21 5 21 14 -3 15 -38 11 -142 -6 -180 -9 -19
-13 -24 -10 -12 8 34 -2 28 -15 -7 -8 -24 -7 -29 2 -25 7 4 3 -1 -7 -9 -19
-15 -18 -16 12 -16 20 0 35 6 38 15 4 8 29 22 57 30 63 19 61 19 43 -7 -9 -12
-16 -26 -16 -30 0 -5 39 -8 86 -8 l87 0 -5 38 -5 37 153 49 c85 28 156 48 158
45 2 -2 6 -31 8 -63 l3 -59 -65 -23 -65 -23 79 2 78 2 -6 74 c-4 41 -10 86
-12 101 -5 24 -3 26 25 24 47 -3 113 -67 147 -141 16 -35 34 -63 41 -63 11 0
10 6 -2 30 -26 50 -17 53 35 10 27 -23 55 -40 61 -38 10 3 -72 80 -143 135
-15 11 -44 35 -63 52 l-36 32 30 38 31 38 95 -38 c110 -44 168 -54 245 -42 30
5 62 7 71 6 20 -5 111 -187 103 -207 -5 -13 1 -16 26 -16 17 0 30 3 28 8 -1 4
-33 66 -70 139 -36 72 -64 134 -61 137 4 3 0 6 -8 6 -8 1 3 10 24 21 41 21 51
46 15 34 -47 -14 -67 -14 -61 1 3 8 -1 14 -10 14 -8 0 -18 7 -21 16 -5 14 -4
15 8 5 12 -10 20 -9 40 4 34 23 33 39 -1 30 -52 -13 -64 -14 -58 -4 4 5 11 7
16 4 12 -8 11 10 -2 56 -8 24 -16 36 -23 31 -17 -10 -35 -11 -41 -2 -3 5 2 7
12 6 26 -5 48 20 25 29 -14 5 -14 7 -2 15 18 11 7 23 -22 25 -12 1 -24 8 -26
16 -2 8 0 10 5 4 4 -5 20 -11 34 -13 24 -2 525 -194 535 -205 8 -7 -8 -37 -19
-37 -6 0 -102 37 -214 81 -112 45 -206 79 -209 76 -3 -3 47 -108 112 -233 99
-192 115 -230 105 -246 -10 -15 -8 -18 10 -18 12 0 28 8 36 18 54 69 129 182
173 262 29 52 54 97 56 99 1 2 30 -18 64 -44 55 -42 61 -50 55 -74 -4 -14 -13
-34 -22 -43 -8 -9 -12 -21 -9 -26 3 -5 -11 -24 -31 -43 -20 -19 -32 -27 -28
-19 8 13 6 13 -8 1 -9 -7 -14 -18 -10 -24 3 -5 2 -7 -4 -4 -15 9 -57 -39 -48
-54 5 -7 4 -10 -2 -6 -6 4 -16 0 -23 -8 -7 -8 -9 -15 -4 -15 5 0 2 -5 -6 -10
-11 -7 -3 -10 30 -10 36 0 72 14 190 75 80 41 153 77 163 81 29 9 20 19 -49
50 -62 27 -65 30 -51 49 14 19 18 18 141 -30 69 -28 126 -52 126 -55 -1 -3
-15 -14 -33 -26 -18 -11 -31 -26 -29 -33 1 -7 -2 -9 -9 -5 -7 4 -17 0 -23 -8
-6 -8 -42 -33 -81 -56 -123 -74 -37 -48 144 42 l169 85 -6 -85 c-3 -59 -1 -84
7 -84 6 0 11 17 11 41 0 40 1 41 28 34 164 -42 213 -48 347 -48 134 0 183 6
348 48 26 7 27 6 27 -34 0 -24 5 -41 11 -41 14 0 5 132 -11 176 -15 38 -54 80
-108 115 l-44 28 31 15 c77 40 149 3 229 -119 49 -75 50 -76 37 -118 -25 -85
-26 -97 -11 -97 8 0 16 16 20 40 4 24 12 40 20 40 7 0 21 -18 31 -40 12 -26
25 -40 37 -40 17 0 12 15 -37 108 -97 187 -167 261 -253 270 -27 2 -59 -1 -71
-7 -20 -11 -21 -10 -21 37 0 60 2 62 190 184 215 140 269 170 312 178 21 4 37
5 34 3 -3 -3 2 -12 10 -20 20 -21 10 -50 -36 -98 -52 -55 -73 -100 -67 -145 6
-48 47 -133 96 -200 22 -30 66 -93 98 -140 31 -47 62 -89 68 -93 5 -5 1 -5
-10 -1 -11 5 -46 9 -77 9 -51 0 -60 -3 -92 -34 -20 -19 -36 -39 -36 -43 0 -16
30 -7 56 17 15 14 38 25 51 25 13 0 35 -11 49 -25 17 -17 36 -25 59 -25 l35 0
-1 189 0 188 -106 28 c-83 22 -106 32 -113 49 -4 12 -7 22 -6 23 1 1 51 -11
111 -28 129 -34 115 -32 115 -16 0 7 -46 24 -117 42 -84 22 -119 35 -121 46
-3 14 12 12 100 -12 57 -16 111 -32 121 -35 15 -5 17 3 17 69 0 58 -3 76 -15
81 -16 6 -12 51 6 71 5 5 9 24 9 42 0 28 -4 34 -32 41 -44 11 -45 25 -3 48 21
11 35 26 35 38 0 17 -2 18 -17 4 -10 -8 -27 -18 -38 -21 -14 -5 -11 0 10 18
17 14 33 25 38 25 4 0 7 7 7 15 0 21 -10 19 -53 -11 -58 -39 -55 -22 3 20 42
30 50 41 50 68 l0 33 -30 -37 c-16 -20 -44 -45 -63 -55 l-32 -20 -23 59 c-30
76 -26 97 22 124 38 22 72 66 62 82 -3 4 -1 13 3 20 5 8 17 -4 34 -35 l27 -48
0 46 c0 25 -5 50 -11 56 -8 8 -8 13 0 17 6 4 11 14 11 22 0 11 -4 12 -19 4
-16 -8 -23 -6 -36 12 -15 22 -15 23 20 26 27 3 35 8 35 23 0 16 -5 19 -20 14
-18 -6 -20 -2 -20 32 -1 21 -3 70 -6 108 -5 66 -4 71 20 94 20 19 26 34 26 65
l0 40 -30 -48 c-18 -29 -35 -44 -42 -40 -6 4 -8 3 -4 -4 9 -14 -50 -58 -103
-77 -53 -18 -133 -19 -184 -1 -49 18 -109 64 -101 78 4 6 3 8 -3 5 -12 -8 -34
16 -57 60 -19 38 -21 67 -4 57 7 -4 8 -3 4 5 -4 6 -12 9 -17 6 -12 -8 -11 2 5
56 14 46 43 109 50 109 2 0 -2 -17 -10 -37 -17 -49 -17 -98 1 -147 8 -22 11
-44 8 -49 -3 -6 -1 -7 5 -3 11 7 17 -7 12 -29 -1 -5 1 -7 5 -3 4 3 26 -8 49
-26 24 -18 64 -38 89 -46 165 -46 329 114 287 280 -6 25 -12 53 -14 62 -1 10
-6 21 -11 25 -4 5 -5 1 0 -7 4 -8 -7 2 -25 23 -33 38 -95 76 -127 78 -11 0
-13 3 -6 6 7 2 35 -3 62 -12 52 -17 121 -81 144 -133 11 -26 12 -25 15 27 3
46 0 58 -21 80 -28 30 -38 86 -30 167 4 40 10 54 21 54 13 0 13 -3 4 -12 -19
-19 -15 -66 8 -78 19 -10 20 -8 20 44 0 52 -1 55 -27 59 l-28 4 28 2 c20 1 27
6 27 21 0 11 -6 20 -14 20 -12 0 -14 40 -15 230 -2 201 0 230 14 230 8 0 15 7
15 15 0 11 -11 15 -40 15 -28 0 -40 4 -40 14 0 33 13 46 46 46 28 0 34 4 34
21 0 18 -5 20 -52 17 l-53 -3 -3 -53 c-3 -46 -6 -54 -32 -67 -40 -21 -70 -74
-70 -126 -1 -57 -10 -41 -54 93 -40 122 -52 173 -38 164 15 -9 62 70 68 117
12 83 -29 135 -119 152 -33 6 -37 10 -37 37 0 52 -21 105 -61 153 -22 26 -39
48 -39 49 0 2 -11 1 188 17 136 10 161 10 213 -5 92 -25 89 -27 89 59 0 56 -4
77 -14 81 -13 5 -13 12 0 52 7 26 14 70 14 97 l-1 50 -14 -34 c-19 -43 3 -49
-351 86 l-92 34 29 76 c81 209 33 313 -201 432 -58 30 -108 58 -111 63 -3 6
-9 9 -13 9 -20 -3 -26 0 -20 11 4 7 3 8 -4 4 -10 -6 -69 18 -82 33 -3 3 -9 6
-15 7 -29 2 -115 50 -115 63 0 12 -2 13 -9 3 -6 -10 -13 -11 -34 -1 -15 7 -27
16 -27 20 0 5 -6 6 -12 4 -7 -3 -19 -1 -26 4 -10 6 -2 32 34 115 41 94 50 107
68 103 12 -3 68 -19 126 -36 133 -40 329 -76 490 -91 142 -13 243 -32 324 -60
53 -18 56 -18 56 -1 0 12 -12 22 -32 29 l-33 10 33 1 c36 1 47 31 12 31 -28 0
-71 23 -95 51 l-20 23 29 -22 c27 -21 96 -46 104 -37 9 9 -10 24 -38 30 -38 8
-80 42 -80 63 1 15 2 15 11 -1 10 -17 79 -57 99 -57 22 0 8 20 -22 34 -18 7
-44 26 -58 42 -14 16 -18 23 -10 17 23 -21 35 -15 15 7 -12 13 -14 20 -5 20 7
0 10 7 6 17 -5 13 0 11 19 -7 14 -14 21 -26 15 -28 -8 -3 -7 -8 1 -18 10 -12
9 -13 -6 -8 -12 5 -16 4 -12 -3 4 -6 20 -16 37 -21 37 -14 42 7 8 32 l-23 17
25 -7 c21 -5 18 0 -17 31 -53 45 -58 68 -6 26 20 -17 39 -28 42 -25 3 3 -6 15
-22 26 -28 21 -61 68 -36 53 9 -6 10 -3 5 11 -6 15 -2 14 19 -6 14 -14 21 -26
16 -28 -6 -2 -9 -8 -5 -13 10 -17 20 -9 22 19 1 21 -4 32 -22 41 -46 25 -57
13 -104 -112 -48 -129 -48 -131 13 -169 34 -20 24 -22 -38 -9 -23 6 -54 12
-68 15 l-27 6 20 40 c27 53 18 102 -27 147 -27 27 -40 33 -77 33 -41 0 -67
-11 -168 -73 -21 -13 -31 -15 -24 -7 49 69 86 131 81 137 -4 3 -8 4 -10 2 -1
-2 -37 -57 -80 -122 -69 -104 -80 -116 -97 -107 -30 16 -32 26 -15 89 8 32 15
78 14 102 -1 38 -3 34 -15 -32 -20 -112 -27 -125 -68 -133 -54 -10 -292 55
-283 78 3 6 12 27 21 47 14 34 14 38 -3 58 -16 19 -28 22 -73 19 l-53 -3 53
-18 c28 -10 52 -22 52 -27 0 -11 -261 -583 -271 -594 -7 -8 -123 27 -141 43
-10 9 2 52 12 46 5 -3 12 0 16 6 4 8 3 9 -4 5 -17 -10 -15 8 8 83 40 131 130
445 130 454 0 5 -7 7 -17 5 -9 -2 -21 -20 -27 -42 -7 -26 -18 -40 -30 -42 -11
-1 -31 -18 -45 -36 -41 -53 -60 -68 -81 -68 -31 0 -24 30 20 90 22 29 40 57
40 62 0 15 -30 21 -45 8 -17 -14 -38 -3 -31 16 3 8 -1 14 -10 14 -21 0 -14
-40 8 -54 13 -8 23 -8 38 2 20 12 21 12 4 -13 -9 -13 -20 -22 -25 -19 -5 3 -8
2 -7 -3 1 -4 -6 -23 -16 -42 -10 -18 -16 -42 -13 -52 3 -10 0 -20 -7 -23 -6
-3 -4 -5 4 -5 37 3 51 -2 45 -13 -4 -7 0 -5 8 5 8 10 19 16 23 15 5 -2 9 0 9
3 0 13 38 48 46 43 5 -3 6 1 4 9 -3 7 3 21 14 31 20 18 20 18 11 -10 -4 -16
-16 -63 -25 -104 -20 -87 -25 -97 -36 -79 -4 8 -14 14 -21 14 -7 1 -12 6 -10
13 1 7 -4 11 -10 10 -7 -2 -12 3 -10 10 1 8 -2 11 -8 7 -12 -8 -102 64 -95 75
3 5 0 12 -6 16 -8 4 -9 3 -5 -4 4 -7 3 -12 -2 -12 -12 0 -22 50 -22 111 0 35
5 51 18 58 15 9 15 10 -5 11 -18 0 -24 -7 -29 -37 -9 -48 8 -152 34 -203 16
-32 17 -42 6 -51 -28 -23 -73 110 -75 221 0 51 -3 69 -9 55 -5 -11 -9 -32 -9
-47 -1 -18 -28 -61 -82 -130 -117 -148 -103 -138 -146 -97 -21 20 -55 46 -75
58 -41 25 -39 9 -23 157 3 26 10 53 15 60 8 9 3 12 -22 11 l-33 -1 3 -99 c3
-93 2 -99 -15 -92 -39 15 -151 35 -200 35 l-53 0 0 78 c0 72 -2 78 -21 79 -20
2 -21 -2 -17 -47 6 -58 -3 -58 -22 0 -13 39 -26 57 -36 47 -2 -2 10 -37 26
-77 17 -39 30 -74 28 -76 -3 -2 -14 -5 -27 -6 -19 -3 -27 8 -55 77 -19 43 -39
81 -46 83 -15 5 -9 -16 30 -101 l28 -62 -41 -12 c-22 -7 -41 -12 -42 -10 -1 1
-9 42 -19 92 -9 49 -19 91 -22 94 -12 12 -13 -11 -3 -58 6 -29 9 -54 6 -57 -2
-2 -10 23 -17 56 -7 33 -17 60 -21 60 -13 0 -12 -5 16 -105 14 -50 25 -93 25
-96 0 -8 -59 -34 -63 -28 -11 16 -47 118 -47 132 0 9 -4 17 -10 17 -5 0 -7 7
-4 15 4 8 2 15 -3 15 -5 0 -9 10 -9 21 1 15 -6 23 -21 25 -13 2 -23 0 -23 -5
0 -5 22 -60 49 -122 l48 -114 -53 -52 c-29 -29 -57 -53 -62 -53 -4 0 -8 -10
-8 -22 -1 -77 -5 -111 -13 -102 -5 5 -53 113 -106 239 -54 127 -99 232 -101
234 -2 2 -6 2 -9 -1 -3 -3 44 -123 105 -268 110 -260 111 -263 108 -333 l-3
-71 -195 -83 c-107 -46 -220 -94 -251 -107 l-57 -24 -32 76 c-57 137 -251 595
-282 666 -34 79 -38 72 67 113 46 19 63 29 49 31 -12 2 -47 -8 -79 -22 -32
-15 -59 -26 -61 -26 -3 0 -9 11 -14 25 -7 19 -17 25 -39 25 -26 0 -31 -5 -40
-37 -10 -34 -7 -63 3 -32 13 40 14 42 15 17 1 -17 6 -27 14 -25 19 3 22 -74 3
-85 -8 -5 -13 -15 -10 -23 8 -21 -13 -19 -25 2 -7 14 -26 17 -96 19 -50 1 -81
-2 -73 -7 10 -7 8 -9 -7 -10 -11 0 -15 -3 -8 -5 7 -3 21 0 32 6 12 6 21 7 21
2 0 -5 -11 -14 -24 -20 -20 -9 -27 -7 -40 7 -17 19 -22 36 -7 27 4 -3 6 7 4
22 -4 26 -4 26 11 8 15 -19 16 -18 16 18 0 31 -3 37 -16 32 -13 -5 -15 -2 -11
13 3 13 0 18 -7 15 -7 -3 -20 4 -30 14 -16 18 -16 20 0 26 10 4 22 1 28 -5 8
-9 7 -10 -6 -6 -10 4 -18 2 -18 -4 0 -17 33 -6 35 12 3 14 -10 17 -89 17 -50
1 -83 -2 -74 -6z m2035 -79 c-2 -16 -4 -5 -4 22 0 28 2 40 4 28 2 -13 2 -35 0
-50z m1697 7 c41 -15 68 -67 63 -119 -5 -49 -24 -73 -58 -74 -34 -1 -250 22
-276 29 l-23 6 20 27 c10 15 56 50 102 78 103 63 127 70 172 53z m-3664 -20
c41 -6 50 -32 26 -79 -23 -43 -20 -97 5 -122 11 -11 27 -18 36 -15 8 3 19 6
24 6 6 0 23 14 39 32 l29 32 10 -27 c17 -44 33 -45 102 -9 4 1 9 -8 13 -21 3
-15 18 -30 36 -37 34 -14 34 -23 -1 -91 -38 -75 -116 -130 -229 -160 -45 -12
-47 -11 -135 37 -105 58 -115 74 -122 214 -4 70 -1 93 15 132 24 55 90 131
105 121 6 -4 27 -9 47 -13z m2326 -88 c8 -29 23 -70 34 -91 12 -25 16 -42 10
-46 -6 -3 -10 -19 -10 -35 0 -24 14 -39 84 -95 82 -65 84 -68 74 -96 -6 -17
-14 -29 -18 -27 -30 12 -338 266 -335 276 8 23 130 171 139 168 5 -1 15 -25
22 -54z m-2068 2 c-20 -19 -50 -21 -53 -4 -2 11 7 15 32 16 27 0 31 -2 21 -12z
m1392 -43 c0 -21 3 -53 7 -71 4 -24 3 -31 -5 -26 -7 4 -12 1 -12 -8 0 -10 9
-16 23 -16 21 0 22 3 18 80 l-3 81 28 -6 c103 -24 142 -38 137 -51 -4 -10 3
-14 24 -14 16 0 35 -6 41 -12 10 -10 14 -10 21 0 5 8 9 -8 10 -39 1 -31 -3
-55 -10 -60 -18 -11 -1 -29 27 -29 l25 0 -18 -31 c-20 -34 -63 -63 -108 -75
l-30 -8 25 -6 c60 -15 -227 3 -350 21 -74 12 -153 22 -175 24 -22 1 -46 3 -52
4 -19 2 -15 40 7 86 24 51 44 74 100 111 77 52 74 54 104 -59 18 -66 24 -103
17 -105 -6 -2 -11 -8 -11 -13 0 -16 63 -6 68 10 3 9 0 12 -10 8 -13 -4 -19 15
-36 101 -11 59 -17 110 -13 115 8 9 83 24 124 26 25 1 27 -2 27 -38z m143 32
c-7 -2 -19 -2 -25 0 -7 3 -2 5 12 5 14 0 19 -2 13 -5z m-1348 -94 c7 -24 7
-24 -14 3 -11 14 -21 39 -21 55 l1 28 13 -31 c7 -17 17 -41 21 -55z m2057 7
c48 -37 74 -64 71 -73 -4 -10 -17 -4 -49 22 -24 20 -56 42 -70 50 -15 8 -33
28 -40 45 -16 37 -16 37 88 -44z m-3 -53 c25 -20 50 -40 55 -44 10 -9 -12
-109 -24 -109 -5 0 -21 10 -35 23 -81 66 -117 125 -95 152 20 24 50 18 99 -22z
m-521 -18 c1 -14 -3 -25 -8 -25 -6 0 -10 11 -10 25 0 14 4 25 8 25 4 0 9 -11
10 -25z m219 -12 c25 -21 55 -45 67 -53 72 -48 125 -93 120 -101 -3 -5 -1 -8
4 -7 6 2 34 -14 62 -35 38 -29 49 -42 41 -50 -6 -6 -11 -21 -11 -34 0 -13 -4
-23 -10 -23 -5 0 -10 5 -10 12 0 6 -3 8 -6 5 -7 -6 -93 49 -106 68 -4 6 -11
10 -16 10 -5 0 -43 27 -83 61 -65 53 -75 66 -85 107 -7 32 -7 44 0 41 6 -3 3
1 -6 9 -18 14 -23 27 -12 27 4 0 27 -17 51 -37z m657 -59 c26 -10 20 -58 -9
-74 -38 -20 -50 -2 -29 44 10 20 19 36 20 36 1 0 9 -3 18 -6z m-3049 -34 c4
-6 -4 -23 -17 -39 -13 -16 -31 -43 -40 -60 -20 -36 -38 -41 -38 -10 0 26 16
57 48 92 28 29 37 33 47 17z m3130 -77 c-94 -46 -115 -51 -115 -30 0 16 30 44
83 79 37 25 39 25 79 10 l41 -16 -88 -43z m-2412 -10 l32 5 75 -179 c41 -98
80 -180 87 -183 6 -3 127 45 268 105 142 60 262 109 269 109 6 0 32 -24 57
-53 90 -102 220 -150 409 -151 183 -1 311 50 385 152 19 28 44 52 55 55 17 4
20 14 20 57 l0 52 44 -34 c185 -140 296 -233 296 -245 0 -8 6 -13 13 -10 7 2
24 -5 37 -16 14 -11 18 -18 10 -15 -8 3 -61 22 -118 43 -73 27 -106 34 -115
27 -19 -16 -52 -121 -41 -130 11 -10 29 -17 629 -237 264 -97 545 -200 624
-229 l144 -53 -66 -7 c-36 -3 -99 -15 -141 -26 l-76 -19 -72 30 c-40 16 -76
36 -81 44 -8 15 -46 21 -48 8 -1 -5 -3 -21 -5 -38 -1 -16 -11 -50 -22 -75 -11
-25 -23 -66 -27 -90 -5 -32 -20 -60 -50 -95 -50 -59 -65 -86 -65 -115 0 -32
26 -35 79 -10 l48 22 45 -45 c25 -24 61 -50 81 -58 32 -11 38 -19 58 -81 12
-38 20 -70 18 -72 -2 -2 -33 -11 -69 -20 -223 -56 -252 -165 -81 -302 103 -82
202 -125 363 -159 20 -4 32 -16 43 -42 8 -20 14 -37 13 -38 -2 -1 -22 -5 -45
-9 -33 -5 -43 -3 -43 8 0 7 -9 25 -21 40 -27 35 -74 34 -160 -3 -127 -54 -242
-166 -284 -276 -22 -55 -14 -91 25 -113 28 -16 29 -18 23 -77 -3 -33 0 -93 6
-134 30 -189 149 -310 355 -359 l75 -18 -452 -284 c-249 -156 -464 -295 -479
-308 -36 -33 -62 -102 -55 -145 4 -27 23 -78 45 -119 2 -4 -8 -13 -22 -19 -14
-7 -27 -17 -30 -24 -2 -7 13 -40 35 -74 38 -60 38 -63 23 -87 -10 -14 -22 -23
-28 -20 -9 4 -242 99 -333 136 -22 9 -22 10 -5 40 12 21 25 30 42 30 36 0 120
43 152 76 63 68 93 208 71 330 -5 28 -6 60 -2 71 4 11 3 26 -1 34 -8 11 -15
11 -45 0 -20 -7 -66 -17 -103 -22 -74 -10 -170 -51 -219 -93 -50 -42 -76 -106
-76 -189 0 -69 0 -70 -46 -119 l-46 -49 -215 86 c-486 195 -543 215 -557 204
-10 -9 11 -58 112 -255 69 -134 125 -245 125 -248 0 -2 -36 -7 -80 -10 -68 -6
-92 -4 -156 15 -60 18 -78 27 -85 46 -7 19 -16 24 -37 23 -41 -3 -45 -1 -33
14 17 20 6 38 -45 70 -43 27 -51 41 -196 330 -82 165 -162 313 -176 328 -27
30 -60 36 -80 16 -26 -26 -12 -97 48 -263 34 -91 58 -170 55 -175 -12 -19 -35
-10 -35 13 0 32 -66 80 -91 66 -26 -14 -29 -12 -29 19 0 22 -11 35 -62 69 -82
55 -111 67 -142 59 -39 -10 -44 -48 -13 -94 l25 -38 -45 22 c-24 13 -78 30
-119 40 -62 13 -80 14 -105 4 -32 -13 -49 -37 -49 -67 0 -14 -16 -22 -72 -35
-39 -10 -89 -27 -112 -37 -22 -11 -41 -19 -43 -18 -1 2 12 53 28 114 26 94 35
112 53 117 38 9 61 111 31 136 -8 7 -15 29 -15 49 0 77 -76 190 -169 253 -25
17 -48 33 -50 34 -6 5 22 109 36 130 7 12 13 34 13 50 0 16 2 43 6 61 7 37 0
42 -101 68 -38 10 -71 19 -73 21 -7 5 161 204 172 204 27 0 119 52 161 91 57
53 122 173 105 194 -7 8 -9 18 -6 23 3 5 -73 71 -170 147 -96 76 -173 140
-170 142 2 2 26 7 53 11 43 6 48 10 51 35 3 21 8 27 29 27 15 0 38 13 59 34
42 42 42 50 8 296 -14 102 -36 256 -48 342 l-22 156 35 7 c163 28 380 138 504
254 165 154 93 285 -213 388 -47 15 -87 29 -89 30 -1 1 4 12 13 25 9 12 16 29
16 38 0 8 11 37 25 65 13 27 26 58 29 68 3 9 14 17 24 17 39 0 162 71 198 115
l36 43 70 -40 c54 -31 76 -39 101 -35z m1635 -36 l-3 -81 -44 -13 c-85 -24
-263 -43 -409 -43 -156 1 -249 10 -374 36 l-78 17 0 85 0 84 28 -5 c15 -2 86
-17 157 -32 210 -45 404 -38 640 23 39 10 74 16 78 14 5 -2 7 -41 5 -85z m45
40 c-4 -6 -1 -7 6 -2 14 8 63 -33 55 -46 -3 -5 1 -7 8 -4 16 6 90 -53 83 -66
-4 -5 0 -7 7 -4 7 3 39 -16 70 -43 31 -26 69 -57 85 -69 15 -13 22 -23 15 -23
-7 0 -10 -4 -7 -10 12 -20 -6 -9 -63 35 -31 25 -57 51 -57 57 0 7 -7 13 -16
13 -8 0 -23 7 -32 15 -9 8 -52 42 -96 75 -60 45 -80 66 -81 84 0 20 2 21 15
11 8 -7 12 -17 8 -23z m827 28 c0 -6 -56 -35 -67 -35 -4 1 8 9 27 20 39 22 40
22 40 15z m26 -37 c0 -21 -7 -36 -18 -40 -22 -9 -68 -99 -68 -133 0 -14 6 -28
14 -31 25 -10 55 15 113 94 31 42 59 81 63 85 4 4 46 -11 95 -34 230 -107 295
-183 274 -321 -7 -41 -76 -231 -98 -266 -5 -9 -104 24 -384 126 -207 76 -379
141 -383 144 -3 4 45 71 108 150 63 79 125 158 138 176 13 17 29 32 34 32 8 0
78 31 112 49 1 1 1 -14 0 -31z m-253 2 c-6 -22 -33 -28 -33 -7 0 17 10 27 26
27 7 0 10 -8 7 -20z m312 8 c14 -6 25 -15 25 -20 0 -9 -109 -168 -115 -168 -2
0 -10 -3 -19 -6 -23 -9 -21 26 6 81 16 32 28 45 43 45 29 0 36 9 23 30 -10 16
-6 50 6 50 3 0 17 -5 31 -12z m-3245 -51 c99 -49 179 -117 137 -117 -9 0 -201
102 -215 115 -5 4 10 35 17 32 3 -2 31 -15 61 -30z m2983 3 c20 0 37 -2 37 -5
0 -10 -131 -175 -139 -175 -3 0 -17 7 -29 16 -16 11 -21 22 -16 36 3 11 7 26
8 32 1 6 11 33 21 59 19 46 22 48 50 42 17 -3 47 -6 68 -5z m-2921 -147 l67
-37 -17 -28 c-9 -15 -19 -28 -23 -28 -4 0 -51 25 -104 55 -54 30 -101 55 -105
55 -4 0 -13 7 -20 15 -10 12 -10 21 0 44 l12 30 61 -35 c34 -19 92 -51 129
-71z m2690 63 l57 -22 -16 -34 c-9 -19 -17 -36 -18 -38 -4 -6 -65 21 -65 30 0
6 -8 7 -17 4 -10 -4 -14 -4 -11 0 4 3 -3 21 -16 38 -13 17 -21 37 -19 44 5 14
13 12 105 -22z m-1172 -72 c80 -53 270 -79 392 -53 54 12 121 41 148 64 8 7
37 17 64 21 l50 7 -33 -41 c-45 -58 -151 -109 -256 -123 -188 -26 -388 30
-485 136 l-25 27 55 -7 c30 -4 70 -18 90 -31z m379 4 c64 5 118 8 120 6 8 -7
-71 -35 -127 -46 -96 -18 -298 7 -334 41 -4 3 45 2 109 -2 71 -6 162 -5 232 1z
m-2050 -49 c60 -33 91 -57 91 -68 0 -9 6 -23 13 -30 8 -9 8 -12 0 -7 -7 4 -16
-7 -22 -27 -6 -19 -44 -77 -84 -130 -106 -140 -150 -217 -134 -236 8 -9 8 -12
1 -8 -7 4 -16 1 -21 -6 -16 -20 -44 -99 -33 -92 6 3 7 0 4 -9 -3 -9 -10 -14
-16 -13 -5 1 -22 -28 -37 -65 -15 -38 -31 -65 -34 -61 -4 3 -7 0 -7 -8 0 -8
-25 -41 -55 -75 -37 -42 -51 -64 -44 -71 8 -8 7 -13 -2 -18 -7 -5 -10 -4 -5 3
9 15 -12 26 -27 14 -7 -5 -30 -15 -51 -22 -37 -12 -38 -14 -21 -26 10 -8 14
-14 8 -14 -17 0 -63 51 -69 77 -17 65 17 154 100 261 28 37 67 89 85 115 44
65 162 304 195 395 27 76 67 172 71 172 1 0 43 -23 94 -51z m2834 -58 c14 -11
15 -16 5 -23 -9 -6 -6 -7 9 -3 24 7 36 -5 23 -24 -6 -11 -18 -6 -54 19 -25 19
-46 35 -46 36 0 1 3 10 6 18 7 17 10 16 57 -23z m-2414 -186 c48 -24 56 -81
16 -120 -49 -50 -135 -15 -135 55 0 36 38 80 70 80 12 0 34 -7 49 -15z m-280
-33 c10 -20 21 -48 22 -62 4 -23 0 -25 -42 -30 -52 -6 -73 -20 -95 -61 -19
-38 -18 -85 4 -121 16 -28 16 -30 -3 -41 -22 -13 -165 -47 -165 -39 0 32 235
392 255 392 3 0 13 -17 24 -38z m-131 -12 c-7 -10 -14 -17 -17 -15 -4 4 18 35
25 35 2 0 -1 -9 -8 -20z m-36 -52 c-8 -8 -9 -4 -5 13 4 13 8 18 11 10 2 -7 -1
-18 -6 -23z m-19 -33 c-3 -9 -8 -14 -10 -11 -3 3 -2 9 2 15 9 16 15 13 8 -4z
m3979 -61 c123 -46 208 -82 208 -90 0 -41 -9 -43 -78 -19 -37 13 -100 36 -140
53 -118 49 -247 132 -205 132 3 0 100 -34 215 -76z m-3748 5 c52 -41 18 -139
-49 -139 -30 0 -85 49 -85 75 0 22 27 72 42 78 29 12 67 6 92 -14z m-271 -6
c-3 -7 -9 -10 -14 -7 -14 8 -11 21 5 21 8 0 12 -6 9 -14z m3597 -295 c0 -5 5
-6 10 -3 6 4 24 -1 42 -9 17 -9 37 -16 43 -16 7 0 18 -7 25 -15 10 -12 10 -15
-3 -15 -9 0 -22 -8 -29 -18 -7 -11 -20 -21 -28 -25 -13 -4 -12 -6 1 -6 21 -1
34 -32 18 -42 -14 -8 -49 10 -49 26 0 5 -7 2 -14 -8 -11 -14 -20 -16 -52 -8
-22 5 -33 9 -26 10 17 1 15 21 -3 21 -21 0 -19 16 6 56 24 40 32 42 47 12 10
-22 11 -22 11 -3 1 11 -6 30 -14 43 -14 20 -14 21 0 16 8 -3 15 -10 15 -16z
m-3487 -350 c26 -189 47 -357 47 -374 0 -36 -26 -48 -79 -38 -38 8 -45 18 -31
43 20 38 3 51 -66 51 -35 0 -64 4 -64 9 0 13 26 21 66 21 37 0 74 29 74 58 -1
9 -7 28 -15 42 -8 14 -14 49 -15 78 0 29 -7 66 -15 81 -10 20 -12 44 -9 78 7
59 -3 70 -66 75 -59 4 -59 26 -1 54 55 26 64 42 45 78 -7 16 -14 41 -14 57 0
28 2 29 48 29 l48 0 47 -342z m-203 266 c0 -31 -18 -66 -30 -59 -5 3 -11 1
-15 -5 -3 -5 -10 -10 -14 -10 -4 0 4 24 18 54 27 56 41 63 41 20z m3931 -98
c12 -43 5 -109 -16 -159 -11 -26 -25 -37 -74 -56 -55 -22 -66 -23 -102 -12
-57 17 -124 81 -137 131 -8 32 -7 40 4 40 7 0 22 10 34 22 11 12 20 16 20 10
0 -18 50 -15 56 3 5 13 11 11 30 -10 52 -56 91 -10 69 82 -7 30 -6 32 26 35
41 4 74 -27 90 -86z m-4043 54 c-7 -10 -14 -17 -17 -15 -4 4 18 35 25 35 2 0
-1 -9 -8 -20z m-28 -44 c0 -2 -15 -15 -34 -30 -26 -19 -37 -23 -42 -14 -4 7
-4 10 1 6 4 -4 21 4 37 17 28 24 38 29 38 21z m76 -73 c7 -7 19 -13 27 -13 8
0 29 -5 47 -11 32 -12 32 -12 26 -63 -4 -40 -2 -58 13 -81 19 -33 35 -143 23
-162 -6 -10 -37 -23 -107 -43 -1 0 -1 8 -2 18 -1 9 -14 98 -28 197 -25 182
-28 212 -18 185 4 -8 12 -20 19 -27z m3604 -17 c0 -2 -8 -10 -17 -17 -16 -13
-17 -12 -4 4 13 16 21 21 21 13z m460 -152 c0 -13 -2 -24 -4 -24 -9 0 -54 89
-48 95 11 11 52 -45 52 -71z m-51 -17 c-7 -5 -149 -67 -154 -67 -3 0 -5 4 -5
10 0 15 144 80 154 70 5 -5 8 -11 5 -13z m35 -53 c4 -9 5 -18 4 -20 -13 -12
-162 -73 -169 -68 -25 15 -3 38 64 69 84 39 93 41 101 19z m-4158 -77 c12 -14
25 -44 29 -65 3 -22 15 -49 26 -61 22 -23 45 -128 25 -113 -6 5 -76 60 -156
122 -80 63 -153 113 -164 112 -35 -2 -7 11 51 24 32 7 82 12 112 10 44 -2 59
-8 77 -29z m4205 -49 c39 -137 100 -283 155 -373 30 -50 58 -105 63 -123 l10
-32 -75 0 -74 0 -17 35 c-9 19 -19 32 -23 30 -10 -6 -30 64 -23 81 3 8 0 14
-7 14 -6 0 -9 4 -5 9 3 5 -2 16 -10 24 -9 9 -12 23 -8 33 4 10 2 15 -4 11 -5
-3 -9 4 -9 16 1 12 -4 21 -11 20 -7 -2 -15 9 -18 25 -11 49 -35 93 -47 86 -7
-4 -8 -3 -4 4 4 7 -4 31 -18 55 -15 24 -26 57 -26 73 0 27 6 33 58 56 31 15
60 27 64 27 4 1 17 -32 29 -71z m-4481 13 c-5 -11 -15 -23 -21 -27 -6 -3 -3 5
6 20 20 30 30 35 15 7z m93 -31 c8 -11 17 -17 20 -13 4 3 7 2 7 -3 0 -5 -8
-17 -19 -25 -17 -15 -20 -14 -44 24 -15 22 -24 44 -21 49 7 11 39 -7 57 -32z
m137 -98 c47 -37 98 -77 114 -89 l28 -23 -62 -77 c-70 -88 -85 -100 -105 -83
-13 10 -12 16 1 41 33 65 -20 66 -71 2 -65 -82 -105 -105 -119 -67 -7 19 5 43
57 111 51 68 39 109 -19 68 -24 -16 -34 -11 -34 19 0 19 106 166 120 166 3 0
43 -31 90 -68z m3869 64 c-2 -2 -15 -9 -29 -15 -24 -11 -24 -11 -6 3 16 13 49
24 35 12z m239 -31 c-3 -3 -9 2 -12 12 -6 14 -5 15 5 6 7 -7 10 -15 7 -18z
m-166 -31 c15 -31 -13 -74 -47 -74 -31 0 -59 40 -50 70 14 43 78 45 97 4z
m578 -79 c0 -63 -2 -115 -5 -115 -19 0 -72 30 -73 41 0 8 -4 32 -8 55 -4 30
-1 50 12 75 10 19 17 38 16 42 -1 5 2 6 7 3 5 -4 12 -2 16 4 3 5 13 10 21 10
11 0 14 -22 14 -115z m-4232 93 c7 -7 12 -23 12 -37 0 -14 10 -35 22 -48 l21
-23 -42 0 c-54 0 -101 42 -101 89 0 29 2 31 38 31 21 0 43 -5 50 -12z m-111
-35 c-3 -10 -5 -4 -5 12 0 17 2 24 5 18 2 -7 2 -21 0 -30z m3976 -102 c60
-114 64 -131 37 -131 -11 0 -37 7 -56 15 -36 15 -36 15 -20 40 9 13 16 35 16
48 0 34 -37 77 -65 77 -33 0 -37 11 -17 53 l17 36 21 -26 c12 -14 42 -64 67
-112z m-346 97 c-3 -8 -6 -5 -6 6 -1 11 2 17 5 13 3 -3 4 -12 1 -19z m-3650
-35 c-3 -10 -5 -2 -5 17 0 19 2 27 5 18 2 -10 2 -26 0 -35z m120 -54 c18 -1 8
-5 -25 -11 -30 -5 -55 -8 -57 -6 -2 2 -7 23 -11 46 l-7 43 36 -36 c22 -22 45
-35 64 -36z m3817 -21 c20 -57 -57 -93 -90 -43 -15 23 -15 27 0 51 24 36 76
31 90 -8z m-3744 7 c0 -9 -9 -15 -22 -14 -17 1 -19 2 -5 6 9 2 17 9 17 14 0 5
2 9 5 9 3 0 5 -7 5 -15z m-62 -105 c39 -30 68 -58 66 -62 -3 -5 0 -7 7 -6 7 2
15 -5 17 -16 3 -13 0 -16 -9 -11 -7 5 -10 4 -6 -2 4 -6 1 -18 -6 -27 -11 -15
-14 -15 -35 -1 -12 9 -19 21 -16 27 4 7 2 8 -4 4 -10 -6 -80 42 -165 115 l-31
26 25 30 24 30 31 -26 c17 -14 63 -51 102 -81z m0 83 c-10 -2 -26 -2 -35 0
-10 3 -2 5 17 5 19 0 27 -2 18 -5z m4197 -69 c49 -9 49 -40 0 -46 -34 -4 -37
-2 -70 53 -19 31 -35 59 -35 61 0 3 16 -10 35 -28 20 -18 51 -36 70 -40z m35
-151 c0 -64 -9 -63 -26 2 -10 43 -8 51 19 54 4 1 7 -24 7 -56z m-4062 10 c26
-20 51 -40 56 -44 9 -7 -123 -187 -167 -228 -26 -23 -47 -22 -47 4 0 7 15 33
34 58 43 56 54 79 49 95 -6 14 -39 16 -48 2 -8 -13 -25 -13 -25 1 0 10 91 148
98 149 2 0 25 -17 50 -37z m3852 -48 c0 -5 -5 -3 -10 5 -5 8 -10 20 -10 25 0
6 5 3 10 -5 5 -8 10 -19 10 -25z m-170 -14 c0 -14 -10 -21 -35 -25 -20 -4 -56
-16 -81 -27 -25 -10 -51 -16 -56 -12 -7 3 -8 1 -4 -5 4 -6 -5 -17 -21 -26 -15
-8 -39 -26 -52 -40 -13 -14 -29 -23 -35 -19 -6 3 -8 3 -4 -1 3 -4 -4 -23 -17
-42 -12 -18 -31 -54 -41 -79 -17 -40 -44 -62 -44 -34 0 5 4 7 10 4 6 -3 7 1 4
9 -8 21 35 108 48 99 7 -3 8 -1 4 6 -27 43 196 202 294 209 24 2 30 -2 30 -17z
m-3587 -29 c-2 -7 4 -9 13 -5 14 5 15 3 5 -15 -13 -25 -31 -38 -31 -22 0 6 -4
8 -10 5 -5 -3 -10 -1 -10 5 0 6 -5 8 -12 4 -6 -4 -3 5 8 19 18 25 41 31 37 9z
m3937 -90 l0 -89 -52 26 c-43 21 -67 26 -130 26 l-78 0 0 56 c0 30 3 59 7 62
3 4 62 7 130 7 l123 0 0 -88z m-290 8 c0 -59 0 -60 -37 -79 -52 -26 -110 -86
-141 -146 -36 -69 -37 -186 -3 -262 25 -57 99 -133 155 -160 36 -17 36 -17 36
-81 l0 -64 -42 7 c-184 31 -325 145 -351 283 -11 56 44 237 90 300 13 17 21
37 17 44 -4 7 -3 8 5 4 7 -4 19 2 30 16 15 18 17 26 8 37 -10 12 -9 12 10 3
17 -10 24 -9 30 1 10 16 129 91 161 101 12 4 22 15 22 26 0 11 -9 20 -22 23
-20 4 -19 4 5 6 27 1 27 0 27 -59z m-75 40 c-11 -5 -27 -9 -35 -9 -9 0 -8 4 5
9 11 5 27 9 35 9 9 0 8 -4 -5 -9z m-3545 -30 c-6 -12 -14 -20 -17 -17 -2 3 1
14 8 26 17 26 24 19 9 -9z m3595 20 c3 -5 2 -10 -4 -10 -5 0 -13 5 -16 10 -3
6 -2 10 4 10 5 0 13 -4 16 -10z m-95 -15 c7 -8 19 -15 28 -15 8 0 13 -3 9 -6
-3 -4 -14 -3 -24 1 -10 4 -30 9 -45 11 -21 3 -26 0 -22 -11 4 -8 1 -15 -6 -15
-6 0 -8 5 -5 10 9 15 -8 12 -31 -5 -18 -14 -18 -14 0 -15 15 0 16 -3 6 -15 -7
-8 -9 -15 -4 -16 5 0 -1 -4 -14 -10 -17 -6 -27 -5 -37 5 -12 11 -10 17 13 36
25 20 98 59 113 60 4 0 12 -7 19 -15z m63 -2 c-7 -2 -19 -2 -25 0 -7 3 -2 5
12 5 14 0 19 -2 13 -5z m414 -15 c-3 -8 -6 -5 -6 6 -1 11 2 17 5 13 3 -3 4
-12 1 -19z m-4067 -53 c-17 -25 -36 -45 -41 -45 -6 0 6 20 27 45 20 25 38 45
41 45 2 0 -10 -20 -27 -45z m3585 35 c3 -6 -1 -7 -9 -4 -18 7 -21 14 -7 14 6
0 13 -4 16 -10z m-3516 -9 c17 -11 4 -37 -47 -93 -85 -94 -261 -140 -412 -107
-39 8 -50 15 -48 27 3 12 12 16 33 15 17 -2 71 -4 120 -5 137 -2 236 41 297
127 34 48 36 49 57 36z m3498 -7 c-3 -3 -12 -4 -19 -1 -8 3 -5 6 6 6 11 1 17
-2 13 -5z m-138 -47 c0 -8 -2 -8 -6 1 -4 10 -8 10 -21 0 -15 -12 -16 -11 -3 4
14 19 32 15 30 -5z m-47 -39 c-7 -7 -12 -19 -12 -27 0 -11 4 -10 15 5 8 10 15
14 15 9 0 -17 -21 -34 -36 -28 -11 4 -11 10 3 34 9 15 19 26 22 24 2 -3 -1
-11 -7 -17z m83 12 c4 -6 -1 -7 -11 -3 -13 5 -16 3 -11 -10 4 -11 2 -14 -9
-10 -11 4 -12 9 -3 19 13 16 25 18 34 4z m-42 -50 c3 -11 1 -18 -4 -14 -5 3
-9 0 -9 -6 0 -6 -4 -8 -10 -5 -6 4 -5 13 3 25 15 24 14 24 20 0z m-69 -35
c-11 -7 -14 -17 -9 -25 5 -9 4 -11 -3 -6 -7 4 -12 0 -12 -10 0 -10 -3 -15 -6
-11 -3 3 -1 21 6 41 8 24 16 33 26 29 12 -5 12 -7 -2 -18z m555 -57 c7 -1 36
-22 64 -48 49 -45 50 -46 43 -92 -14 -94 -101 -168 -198 -168 -96 0 -186 82
-196 178 -4 47 -3 50 34 81 66 54 120 64 253 49z m-547 -25 c-2 -12 -6 -23 -7
-23 -1 0 -5 11 -7 23 -3 14 0 24 7 24 7 0 10 -10 7 -24z m-32 -23 c-9 -6 -11
-23 -7 -62 4 -29 3 -59 -2 -66 -5 -8 -9 18 -10 64 -1 54 2 80 11 85 7 5 15 4
17 -2 2 -6 -2 -15 -9 -19z m20 -29 c0 -6 -4 -13 -10 -16 -5 -3 -10 1 -10 9 0
9 5 16 10 16 6 0 10 -4 10 -9z m-3600 -177 c19 -8 25 -13 13 -11 -12 1 -33 -9
-47 -22 -44 -41 -30 -118 25 -138 18 -7 29 -18 29 -30 0 -12 -3 -14 -8 -6 -10
16 -27 4 -34 -24 -4 -15 -1 -23 11 -26 9 -3 -4 -5 -27 -6 -45 -1 -112 24 -112
41 0 5 14 63 32 129 36 132 29 126 118 93z m53 -75 c15 -24 1 -49 -26 -49 -33
0 -51 23 -38 48 12 23 50 24 64 1z m4207 -129 c0 -54 -4 -90 -10 -90 -6 0 -27
9 -47 20 -46 25 -129 27 -161 4 -13 -9 -25 -14 -28 -11 -3 2 -7 29 -10 58 l-5
55 73 0 c59 0 83 5 123 25 28 15 53 27 58 28 4 0 7 -39 7 -89z m-4250 -31 c0
-5 -4 -9 -8 -9 -5 0 -9 7 -9 15 0 8 4 12 9 9 4 -3 8 -9 8 -15z m-270 -28 c0
-19 110 -63 181 -72 112 -16 159 -49 159 -114 0 -23 -8 -35 -33 -53 l-33 -22
-130 36 c-71 19 -181 49 -244 66 -63 16 -120 34 -126 39 -6 5 -14 5 -19 1 -4
-4 -3 3 4 15 16 31 71 73 123 94 46 19 118 25 118 10z m4421 -67 c11 -24 23
-62 26 -84 l6 -40 -42 0 c-27 0 -47 -6 -60 -19 -23 -23 -20 -39 23 -134 14
-32 26 -64 26 -73 0 -28 -37 4 -70 61 -63 111 -113 120 -190 36 -32 -35 -59
-53 -95 -65 -50 -16 -73 -33 -131 -98 -26 -29 -42 -36 -84 -42 -57 -8 -100
-40 -100 -75 0 -11 12 -45 27 -75 29 -61 26 -86 -13 -86 -17 0 -41 15 -75 49
-71 70 -83 71 -143 6 -58 -62 -98 -82 -117 -59 -9 11 -24 13 -53 9 -31 -4 -47
-1 -65 14 -24 18 -24 20 -8 44 19 29 35 40 352 239 127 80 329 207 450 283
215 136 276 168 302 158 6 -3 22 -25 34 -49z m-3140 -236 c11 -13 86 -153 166
-312 102 -205 141 -292 134 -299 -8 -8 -11 -3 -11 16 0 34 -79 91 -116 84 -19
-3 -24 0 -24 17 0 11 -16 35 -34 51 -30 26 -45 57 -100 212 -61 169 -76 230
-59 246 11 12 21 8 44 -15z m2967 -92 c15 -8 41 -29 58 -47 16 -19 41 -41 54
-50 l23 -15 -77 -47 c-42 -26 -82 -44 -88 -41 -6 4 -8 2 -5 -3 9 -14 -40 -46
-55 -37 -6 4 -8 3 -5 -3 8 -13 -91 -75 -106 -66 -7 3 -9 2 -4 -2 10 -12 -81
-68 -95 -59 -6 4 -8 3 -5 -3 11 -17 -40 -44 -68 -37 -14 3 -28 11 -32 17 -4 6
-1 7 8 2 12 -7 12 -6 1 7 -15 19 -27 107 -18 141 7 30 24 38 91 46 47 6 52 9
88 62 27 42 48 61 77 73 22 9 59 29 81 46 49 35 43 34 77 16z m-4362 -53 c-5
-6 -96 18 -101 27 -2 4 20 0 50 -8 30 -8 53 -17 51 -19z m-91 7 c25 -11 -1
-11 -35 0 -20 6 -21 8 -5 8 11 0 29 -3 40 -8z m210 -34 c56 -16 56 -17 2 -20
-21 -2 -33 0 -27 4 7 4 -6 10 -29 14 -22 3 -43 11 -47 18 -8 12 12 9 101 -16z
m3130 6 c-6 -4 -10 -14 -10 -22 0 -8 -9 -18 -20 -22 -19 -6 -18 -6 3 -7 24 -1
42 -34 42 -78 0 -18 -4 -24 -15 -20 -8 4 -17 2 -20 -3 -4 -6 -1 -10 4 -10 6 0
11 -5 11 -12 0 -9 -3 -9 -12 0 -7 7 -20 12 -30 12 -10 0 -18 5 -18 11 0 5 4 8
9 4 5 -3 13 0 16 6 11 17 -1 22 -25 9 -12 -6 -34 -12 -50 -12 -16 -1 -27 -5
-24 -10 7 -10 -7 -10 -25 1 -10 7 -11 13 -1 31 6 12 9 34 6 48 -6 26 -6 26 10
7 10 -12 15 -14 12 -5 -3 8 -15 20 -28 27 l-24 12 27 10 c15 6 55 15 90 20 85
12 84 12 72 3z m-3050 -32 c3 -5 11 -8 18 -6 7 1 9 1 5 -1 -18 -10 -7 -23 12
-13 15 8 46 3 132 -21 62 -17 117 -35 122 -40 16 -15 -3 -23 -20 -8 -10 8 -26
12 -37 11 -11 -2 -23 2 -28 10 -6 10 -11 10 -21 0 -9 -9 -9 -12 2 -12 7 0 11
-2 8 -5 -3 -3 -13 -3 -22 1 -15 6 -15 7 1 19 16 12 1 18 -77 30 -3 0 -11 4
-18 9 -8 5 -24 3 -38 -4 -18 -10 -29 -11 -46 -1 -13 6 -15 9 -5 7 9 -3 17 0
17 6 0 6 -12 8 -32 4 -31 -5 -32 -5 -14 9 23 17 33 19 41 5z m948 -26 c18 -9
51 -30 74 -47 34 -24 41 -34 38 -57 -5 -43 7 -55 42 -37 26 14 31 14 50 -1 12
-10 23 -30 25 -47 3 -28 5 -30 40 -27 56 4 98 -30 98 -80 0 -42 3 -44 39 -24
22 12 29 11 63 -11 31 -21 38 -31 38 -59 0 -41 12 -49 43 -29 22 14 26 13 58
-11 19 -14 41 -29 49 -34 12 -7 12 -12 -5 -30 -11 -12 -19 -25 -17 -29 3 -9
-39 -63 -45 -57 -4 3 -12 1 -20 -6 -11 -9 -18 -8 -30 5 -15 15 -15 16 3 11 12
-3 27 3 38 15 16 18 17 25 8 46 -21 46 -92 23 -79 -25 5 -21 -7 -28 -18 -10
-4 6 -128 118 -276 251 -148 132 -273 249 -279 259 -26 49 3 65 63 34z m1907
-35 c0 -5 -10 -29 -22 -53 -20 -42 -20 -46 -4 -70 20 -31 35 -32 69 -6 26 21
38 25 36 13 -5 -29 3 -35 36 -31 24 3 35 0 35 -9 0 -7 9 -18 20 -25 26 -17 25
-26 -5 -71 -31 -45 -86 -74 -157 -85 -50 -7 -56 -6 -98 26 -84 63 -80 55 -80
137 0 86 19 136 69 178 27 23 34 24 66 14 19 -5 35 -14 35 -18z m-2710 -30
c19 -6 16 -7 -15 -3 -38 5 -39 5 -20 -10 11 -8 15 -16 9 -16 -15 0 -36 25 -27
33 8 9 21 8 53 -4z m190 1 c0 -5 -4 -10 -9 -10 -5 0 -8 -6 -8 -12 3 -28 -15
-98 -24 -92 -5 3 -5 13 1 24 13 23 13 50 1 50 -5 0 -11 -12 -13 -27 -3 -28 -4
-28 -9 4 -3 18 -2 30 2 27 4 -2 10 2 12 8 4 10 8 9 17 -2 8 -12 9 -9 4 13 -5
21 -3 27 10 27 9 0 16 -4 16 -10z m415 -6 c33 -8 65 -20 70 -25 7 -7 3 -8 -10
-3 -29 10 -17 1 39 -29 35 -20 45 -22 35 -9 -13 16 -12 16 6 3 34 -25 65 -59
65 -72 0 -7 3 -9 6 -6 11 11 44 -13 38 -27 -3 -8 0 -17 7 -22 8 -5 10 -3 4 6
-5 8 -4 11 3 6 6 -4 9 -13 6 -21 -3 -8 4 -20 15 -27 26 -16 27 -40 2 -62 -18
-16 -20 -15 -45 29 -37 62 -121 144 -182 177 -31 17 -81 32 -128 39 -77 12
-90 21 -58 45 23 18 55 17 127 -2z m3697 -6 c-16 -16 -15 -40 3 -74 13 -25 13
-30 0 -37 -8 -4 -24 -3 -36 3 -17 10 -20 18 -15 42 6 29 47 89 55 82 3 -3 -1
-10 -7 -16z m-4188 4 c3 -5 -8 -6 -25 -4 -16 2 -29 6 -29 8 0 8 49 4 54 -4z
m4228 -37 c0 -5 -5 -11 -11 -13 -6 -2 -11 4 -11 13 0 9 5 15 11 13 6 -2 11 -8
11 -13z m-4332 -5 c0 -5 -4 -10 -10 -10 -5 0 -10 5 -10 10 0 6 5 10 10 10 6 0
10 -4 10 -10z m705 0 c3 -6 -1 -7 -9 -4 -18 7 -21 14 -7 14 6 0 13 -4 16 -10z
m1335 -135 c190 -75 346 -138 348 -140 2 -1 -4 -10 -13 -19 -14 -14 -20 -14
-49 -2 -19 8 -123 49 -232 91 -110 42 -227 90 -260 106 -34 16 -64 29 -67 29
-3 0 -21 14 -39 30 -18 17 -38 28 -45 26 -6 -3 -14 2 -17 11 -8 21 -22 26 374
-132z m2175 95 c-3 -5 -12 -10 -18 -10 -7 0 -6 4 3 10 19 12 23 12 15 0z
m-858 -16 c6 -16 -15 -37 -29 -28 -4 3 -8 14 -8 25 0 23 28 26 37 3z m-3337
-38 c0 -26 -6 -18 -14 19 -5 22 -4 26 4 15 5 -8 10 -24 10 -34z m108 18 c15
-15 12 -20 -30 -60 -25 -23 -43 -45 -40 -48 3 -4 0 -6 -6 -6 -7 0 -12 6 -12
13 0 8 -4 7 -11 -3 -9 -13 -10 -13 -6 0 2 8 10 14 16 12 10 -2 15 11 12 31 0
4 4 7 9 7 6 0 10 -5 10 -12 0 -6 11 -1 25 12 23 22 35 48 17 36 -4 -2 -8 4 -8
15 0 23 3 24 24 3z m4062 -9 c9 -8 41 -19 70 -25 78 -15 111 -50 75 -80 -13
-11 -33 -8 -116 15 -92 25 -99 29 -93 49 6 21 33 56 42 56 3 0 13 -7 22 -15z
m-2452 -30 c-3 -3 -9 2 -12 12 -6 14 -5 15 5 6 7 -7 10 -15 7 -18z m-1286 4
c65 -14 127 -41 193 -84 58 -38 147 -124 140 -135 -12 -20 -55 -16 -76 6 -116
123 -316 135 -441 26 -19 -17 -38 -29 -42 -27 -3 3 -4 2 -1 -1 8 -12 -16 -45
-28 -38 -7 4 -9 4 -5 -1 4 -4 1 -19 -6 -34 -8 -14 -19 -52 -25 -83 l-12 -57
-54 -15 c-29 -9 -55 -16 -58 -16 -12 0 -17 141 -7 204 13 85 45 149 102 203
39 37 50 43 113 51 99 13 146 14 207 1z m704 -232 c47 -44 67 -70 79 -107 9
-28 22 -53 28 -57 10 -6 -231 -92 -260 -93 -6 0 -21 33 -33 72 -12 40 -37 110
-56 156 l-34 83 27 23 c37 32 35 83 -3 134 -28 36 110 -79 252 -211z m2191
186 c-3 -10 -5 -2 -5 17 0 19 2 27 5 18 2 -10 2 -26 0 -35z m-179 -6 c-5 -37
-67 -33 -68 5 0 4 7 14 16 22 21 22 56 3 52 -27z m-3134 21 c-3 -4 -9 -8 -15
-8 -5 0 -9 4 -9 8 0 5 7 9 15 9 8 0 12 -4 9 -9z m1726 -10 c0 -6 -6 -5 -15 2
-8 7 -15 14 -15 16 0 2 7 1 15 -2 8 -4 15 -11 15 -16z m1675 -34 c16 -14 39
-27 52 -30 12 -4 20 -11 16 -17 -4 -6 -1 -7 7 -2 13 8 60 16 60 10 0 -6 -180
-115 -190 -115 -6 0 -10 39 -10 94 0 105 6 111 65 60z m-105 -58 c0 -41 2 -81
6 -89 4 -11 -7 -16 -43 -20 -26 -4 -58 -9 -69 -13 -19 -5 -22 -1 -29 41 -3 26
-9 54 -13 63 -3 10 -1 13 6 8 13 -8 77 30 106 63 11 11 23 21 28 21 4 0 8 -33
8 -74z m294 65 c9 -14 -4 -41 -19 -41 -21 0 -28 19 -15 35 14 17 26 19 34 6z
m-3594 -32 c0 8 3 12 6 9 3 -4 -1 -19 -9 -34 -16 -30 -33 -17 -22 17 6 17 9
19 16 8 7 -12 9 -12 9 0z m2583 -101 c-2 -3 3 -8 9 -11 7 -2 10 -8 6 -12 -7
-8 -148 91 -148 104 0 22 18 15 75 -27 34 -26 60 -50 58 -54z m550 65 c9 -51
2 -53 -11 -3 -5 22 -6 40 -2 40 4 0 10 -17 13 -37z m-1359 1 c3 -8 2 -12 -4
-9 -6 3 -10 10 -10 16 0 14 7 11 14 -7z m1803 -16 c-3 -8 -6 -5 -6 6 -1 11 2
17 5 13 3 -3 4 -12 1 -19z m-3607 -19 c0 -21 -15 -25 -26 -7 -5 7 -3 8 6 3 9
-6 10 -2 5 15 -5 15 -4 20 4 16 6 -4 11 -16 11 -27z m2298 -124 c3 -13 -90
-169 -127 -214 l-28 -34 -102 195 c-55 108 -101 198 -101 201 0 9 356 -138
358 -148z m272 46 c32 -27 34 -31 19 -45 -14 -15 -22 -11 -90 39 -81 61 -87
69 -69 90 10 12 19 8 58 -20 26 -19 63 -47 82 -64z m583 36 c14 -52 13 -57 -1
-45 -18 16 -72 88 -72 98 0 4 13 7 29 6 28 -1 31 -5 44 -59z m433 -10 c-4 -45
-6 -46 -70 -29 l-30 8 42 30 c25 17 40 35 37 43 -4 11 -3 11 9 2 10 -8 14 -27
12 -54z m-529 9 c-6 -14 -30 -16 -43 -3 -7 6 10 11 29 8 4 0 7 4 7 11 0 6 3 9
6 5 4 -3 4 -13 1 -21z m1156 1 c15 3 18 2 9 -4 -19 -14 28 -36 64 -30 l29 4
-32 2 c-17 0 -34 5 -38 10 -3 6 4 8 17 6 60 -12 78 -17 83 -26 4 -5 -1 -6 -10
-3 -11 5 -14 2 -9 -10 3 -9 1 -16 -6 -16 -6 0 -9 4 -6 9 3 5 -6 9 -20 9 l-25
0 30 -30 c17 -17 31 -39 31 -49 0 -10 5 -21 10 -24 6 -3 10 -11 10 -16 0 -6
-5 -7 -11 -3 -8 4 -9 -1 -5 -17 7 -23 6 -23 -5 -4 -7 11 -12 35 -10 53 1 20
-2 32 -9 32 -7 0 -10 -8 -7 -20 10 -40 -13 -29 -56 27 -46 61 -68 96 -66 110
0 4 3 3 5 -3 3 -7 15 -10 27 -7z m-3315 -94 c31 -81 56 -163 50 -168 -2 -1
-34 -13 -73 -25 -38 -13 -75 -25 -81 -27 -8 -3 -10 18 -7 69 4 53 0 86 -12
118 -25 69 -24 71 30 91 28 9 53 18 57 18 3 1 20 -34 36 -76z m2168 36 c14
-22 23 -43 21 -46 -6 -5 -57 67 -57 79 0 17 11 7 36 -33z m49 1 c19 -20 24
-30 14 -30 -8 0 -23 14 -32 30 -10 17 -16 30 -14 30 2 0 16 -13 32 -30z m-169
-120 c18 -11 18 -11 -1 -5 -44 16 -99 26 -112 21 -8 -3 -12 -2 -9 2 3 5 -17
14 -45 20 -85 20 -147 51 -142 71 4 16 21 11 147 -39 79 -32 152 -63 162 -70z
m396 74 c1 -31 0 -58 -4 -61 -5 -2 -8 -8 -8 -14 0 -12 37 -12 45 1 3 6 1 10
-6 10 -8 0 -10 16 -5 53 3 28 6 55 6 59 0 3 23 0 50 -7 28 -7 50 -10 50 -7 0
4 4 1 8 -6 7 -10 15 -10 36 -2 17 6 25 6 21 0 -3 -6 -13 -10 -21 -10 -23 0
-16 -20 9 -21 12 -1 25 -1 30 0 4 0 7 -4 7 -10 0 -5 5 -7 10 -4 6 4 10 -12 10
-39 0 -26 -5 -46 -11 -46 -5 0 -7 -4 -4 -10 3 -5 17 -10 30 -10 24 0 24 0 7
-30 -9 -16 -23 -30 -29 -30 -7 0 -13 -4 -13 -9 0 -14 -84 -31 -159 -31 -39 0
-117 7 -173 15 -89 12 -175 23 -200 24 -5 1 -8 13 -8 29 0 32 32 87 67 116 32
27 86 57 91 52 10 -11 41 -153 36 -169 -5 -15 -1 -18 22 -15 15 2 30 9 32 17
3 9 0 12 -11 8 -12 -4 -18 12 -32 84 -10 49 -16 92 -13 94 2 3 29 9 59 14 30
5 57 9 61 10 3 0 8 -24 10 -55z m-1982 16 c0 -11 -6 -20 -14 -20 -18 0 -29 16
-21 30 11 18 35 11 35 -10z m-74 -67 c-4 -4 -11 -1 -16 7 -16 25 -11 35 7 17
9 -9 13 -20 9 -24z m1258 28 c3 -5 -2 -15 -12 -22 -16 -13 -16 -13 -2 5 14 18
13 19 -3 13 -11 -4 -16 -3 -12 3 8 12 22 13 29 1z m1069 -61 c3 -11 1 -20 -4
-20 -5 0 -9 9 -9 20 0 11 2 20 4 20 2 0 6 -9 9 -20z m-1010 -6 c26 -9 47 -19
47 -22 0 -4 -59 -37 -131 -74 -72 -37 -125 -60 -118 -50 10 13 151 161 155
162 0 0 21 -7 47 -16z m272 -51 c-15 -8 -29 -12 -32 -10 -2 3 5 8 16 12 12 3
19 11 16 16 -3 5 2 6 11 2 14 -5 12 -8 -11 -20z m-45 -17 c0 -3 -4 -8 -10 -11
-5 -3 -10 -1 -10 4 0 6 5 11 10 11 6 0 10 -2 10 -4z"/>
<path d="M4521 4764 c-25 -32 -26 -42 -5 -72 24 -35 84 -28 103 12 12 25 11
31 -6 55 -28 37 -65 39 -92 5z m77 -6 c7 -7 12 -21 12 -33 0 -12 -5 -26 -12
-33 -7 -7 -21 -12 -33 -12 -12 0 -26 5 -33 12 -7 7 -12 21 -12 33 0 12 5 26
12 33 7 7 21 12 33 12 12 0 26 -5 33 -12z"/>
<path d="M2508 4652 c-10 -2 -18 -10 -18 -18 0 -16 9 -18 29 -5 18 12 10 28
-11 23z"/>
<path d="M2266 4470 c-13 -4 -16 -9 -8 -14 7 -4 19 -3 28 2 21 12 5 22 -20 12z"/>
<path d="M2707 4473 c-21 -6 -13 -23 12 -23 10 0 18 7 18 15 0 8 -3 14 -6 14
-3 -1 -14 -3 -24 -6z"/>
<path d="M3203 4445 c0 -8 4 -12 9 -9 5 3 6 10 3 15 -9 13 -12 11 -12 -6z"/>
<path d="M3363 4335 c0 -8 4 -12 9 -9 5 3 6 10 3 15 -9 13 -12 11 -12 -6z"/>
<path d="M3370 4285 c-11 -13 -10 -14 4 -9 9 3 16 10 16 15 0 13 -6 11 -20 -6z"/>
<path d="M2910 2840 l0 -130 -35 0 -35 0 0 -55 c0 -50 2 -55 24 -61 14 -3 29
-3 34 0 6 3 11 -38 14 -102 4 -117 15 -147 70 -203 41 -40 99 -66 158 -71 l45
-3 3 56 3 57 -38 7 c-96 18 -123 55 -123 175 l0 80 33 0 c46 0 52 8 52 68 l0
52 -42 0 -42 0 -3 128 -3 127 -57 3 -58 3 0 -131z"/>
<path d="M1549 2706 c-183 -39 -259 -250 -143 -401 29 -39 108 -80 172 -90 41
-7 42 -6 42 23 0 16 3 43 6 59 6 29 4 31 -32 38 -56 10 -92 31 -109 65 -17 34
-20 89 -4 122 15 33 70 68 107 68 29 0 32 3 33 33 1 17 2 45 3 61 1 36 -4 37
-75 22z"/>
<path d="M2719 2706 c-93 -33 -149 -89 -170 -169 -12 -44 -15 -47 -46 -47
l-33 0 0 -60 0 -60 35 0 35 0 2 -201 3 -202 55 0 55 0 3 202 2 201 40 0 40 0
0 60 0 60 -40 0 c-51 0 -53 19 -7 65 21 21 47 35 74 39 l41 7 4 60 3 59 -30 0
c-16 -1 -46 -7 -66 -14z"/>
<path d="M1650 2460 l0 -251 58 3 57 3 5 150 c3 83 9 158 14 167 4 9 37 27 72
40 l64 23 0 57 0 58 -35 0 c-20 0 -52 -7 -72 -15 -19 -8 -37 -15 -39 -15 -2 0
-4 7 -4 15 0 12 -13 15 -60 15 l-60 0 0 -250z"/>
<path d="M2101 2698 c-47 -13 -134 -103 -149 -154 -36 -122 11 -240 119 -299
44 -24 66 -29 119 -29 40 0 77 6 98 16 31 16 32 16 32 -3 0 -17 7 -19 60 -19
l60 0 0 146 c0 170 -9 209 -62 268 -67 77 -171 105 -277 74z m175 -141 c31
-28 37 -42 41 -84 5 -47 3 -53 -31 -91 -42 -46 -85 -58 -142 -40 -51 17 -84
66 -84 126 0 38 5 50 39 83 35 35 44 39 90 39 44 0 56 -5 87 -33z"/>
<path d="M3270 2688 c-49 -34 -72 -83 -67 -141 7 -81 59 -132 147 -144 41 -6
56 -13 58 -26 7 -38 -16 -47 -114 -47 l-94 0 0 -60 0 -60 98 1 c118 0 156 12
196 62 25 31 30 47 30 92 1 83 -55 144 -141 155 -48 5 -71 25 -60 54 5 13 21
16 77 16 70 0 70 0 71 28 0 15 1 42 2 60 l2 32 -86 0 c-73 0 -91 -3 -119 -22z"/>
<path d="M705 1550 c-4 -6 5 -10 20 -10 15 0 24 4 20 10 -3 6 -12 10 -20 10
-8 0 -17 -4 -20 -10z"/>
<path d="M854 1542 c8 -13 123 -15 131 -2 4 6 -18 10 -65 10 -39 0 -69 -4 -66
-8z"/>
<path d="M1090 1540 c0 -5 14 -10 30 -10 17 0 30 5 30 10 0 6 -13 10 -30 10
-16 0 -30 -4 -30 -10z"/>
<path d="M1258 1539 c-7 -5 19 -8 62 -8 82 1 83 5 3 12 -28 2 -58 0 -65 -4z"/>
<path d="M1500 1530 c0 -5 9 -10 20 -10 11 0 20 5 20 10 0 6 -9 10 -20 10 -11
0 -20 -4 -20 -10z"/>
<path d="M690 1491 c0 -12 48 -27 57 -17 9 8 2 13 -30 21 -17 5 -27 3 -27 -4z"/>
<path d="M670 1450 c0 -12 40 -33 48 -25 4 4 -2 13 -12 21 -23 16 -36 18 -36
4z"/>
<path d="M860 1442 c0 -5 21 -14 48 -20 26 -6 57 -14 70 -18 12 -3 22 -2 22 3
0 5 -27 17 -60 26 -68 19 -80 20 -80 9z"/>
<path d="M1115 1370 c3 -5 15 -10 26 -10 11 0 17 5 14 10 -3 6 -15 10 -26 10
-11 0 -17 -4 -14 -10z"/>
<path d="M810 1361 c0 -10 108 -81 123 -81 16 0 -13 28 -62 59 -51 33 -61 37
-61 22z"/>
<path d="M1270 1331 c0 -7 112 -41 137 -41 20 0 -18 20 -66 34 -63 18 -71 19
-71 7z"/>
<path d="M1030 1220 c0 -9 31 -30 44 -30 16 0 3 18 -19 28 -14 7 -25 8 -25 2z"/>
<path d="M1170 1126 c0 -9 113 -77 123 -73 13 4 -91 77 -110 77 -7 0 -13 -2
-13 -4z"/>
<path d="M4268 3348 c5 -5 16 -8 23 -6 8 3 3 7 -10 11 -17 4 -21 3 -13 -5z"/>
<path d="M4191 3334 c0 -11 3 -14 6 -6 3 7 2 16 -1 19 -3 4 -6 -2 -5 -13z"/>
<path d="M4314 3331 c4 -5 1 -12 -4 -14 -6 -3 -5 -4 2 -3 15 3 23 26 8 26 -6
0 -9 -4 -6 -9z"/>
<path d="M4253 3324 c-7 -3 -9 -12 -6 -20 3 -8 0 -14 -7 -14 -12 0 -40 -24
-40 -34 0 -3 7 -6 15 -6 8 0 15 5 15 10 0 6 6 10 13 10 7 0 18 9 25 20 10 16
10 20 0 20 -9 0 -8 3 2 10 15 10 4 12 -17 4z"/>
<path d="M4167 3303 c-4 -3 -7 -11 -7 -17 0 -6 5 -5 12 2 6 6 9 14 7 17 -3 3
-9 2 -12 -2z"/>
<path d="M4280 3250 c0 -6 7 -10 15 -10 8 0 15 2 15 4 0 2 -7 6 -15 10 -8 3
-15 1 -15 -4z"/>
<path d="M465 2501 c-3 -5 -2 -12 3 -15 5 -3 9 1 9 9 0 17 -3 19 -12 6z"/>
<path d="M4275 2079 c-10 -15 3 -25 16 -12 7 7 7 13 1 17 -6 3 -14 1 -17 -5z"/>
<path d="M496 1588 c-9 -12 -16 -36 -15 -53 l1 -30 8 35 c5 19 18 43 30 52 17
14 18 18 7 18 -9 0 -23 -10 -31 -22z"/>
<path d="M535 1430 c3 -5 11 -10 16 -10 6 0 7 5 4 10 -3 6 -11 10 -16 10 -6 0
-7 -4 -4 -10z"/>
<path d="M590 1510 c-9 -6 -10 -10 -3 -10 6 0 15 5 18 10 8 12 4 12 -15 0z"/>
<path d="M3315 855 c-23 -10 -26 -13 -10 -14 11 0 29 6 39 14 24 19 11 19 -29
0z"/>
<path d="M3388 863 c7 -3 16 -2 19 1 4 3 -2 6 -13 5 -11 0 -14 -3 -6 -6z"/>
<path d="M3350 840 c-8 -5 -10 -10 -5 -10 6 0 17 5 25 10 8 5 11 10 5 10 -5 0
-17 -5 -25 -10z"/>
<path d="M1038 753 c12 -2 30 -2 40 0 9 3 -1 5 -23 4 -22 0 -30 -2 -17 -4z"/>
<path d="M3802 283 c-6 -2 -10 -9 -7 -13 7 -11 35 -2 35 11 0 10 -8 10 -28 2z"/>
<path d="M3613 143 c-20 -7 -15 -23 7 -23 11 0 20 4 20 9 0 13 -12 19 -27 14z"/>
<path d="M3970 130 c0 -5 7 -10 15 -10 8 0 15 5 15 10 0 6 -7 10 -15 10 -8 0
-15 -4 -15 -10z"/>
<path d="M1205 4879 c-6 -19 0 -38 9 -28 10 12 16 49 7 49 -5 0 -13 -9 -16
-21z"/>
<path d="M1753 4883 c10 -39 260 -619 269 -628 7 -7 9 -3 5 13 -11 45 -262
632 -271 632 -4 0 -6 -8 -3 -17z"/>
<path d="M1860 4879 c7 -11 14 -18 17 -15 8 8 -5 36 -17 36 -7 0 -7 -6 0 -21z"/>
<path d="M2096 4748 c61 -144 84 -188 84 -161 0 21 -127 307 -138 311 -6 2 18
-66 54 -150z"/>
<path d="M4348 4893 c6 -2 18 -2 25 0 6 3 1 5 -13 5 -14 0 -19 -2 -12 -5z"/>
<path d="M1653 4860 c10 -48 270 -649 278 -644 5 3 3 19 -5 37 -7 18 -69 163
-136 322 -116 275 -149 344 -137 285z"/>
<path d="M1100 4861 c0 -5 7 -11 15 -15 8 -3 15 -1 15 3 0 5 -7 11 -15 15 -8
3 -15 1 -15 -3z"/>
<path d="M4850 4850 c0 -5 5 -10 11 -10 5 0 7 5 4 10 -3 6 -8 10 -11 10 -2 0
-4 -4 -4 -10z"/>
<path d="M1880 4843 c0 -5 48 -122 106 -259 58 -137 110 -260 116 -274 6 -14
12 -20 15 -13 2 7 -46 131 -107 275 -102 242 -130 300 -130 271z"/>
<path d="M1554 4823 c20 -63 135 -318 144 -321 6 -2 -9 45 -34 105 -25 59 -57
136 -72 171 -14 34 -30 62 -34 62 -5 0 -7 -8 -4 -17z"/>
<path d="M1440 4783 c0 -20 43 -123 52 -123 5 0 6 10 2 23 -10 33 -53 114 -54
100z"/>
<path d="M4820 4770 c0 -5 5 -10 11 -10 5 0 7 5 4 10 -3 6 -8 10 -11 10 -2 0
-4 -4 -4 -10z"/>
<path d="M3475 4670 c-3 -6 1 -7 9 -4 18 7 21 14 7 14 -6 0 -13 -4 -16 -10z"/>
<path d="M1503 4616 c51 -131 212 -494 218 -490 5 3 3 19 -5 37 -105 252 -201
467 -209 467 -5 0 -7 -6 -4 -14z"/>
<path d="M1700 4483 c0 -14 121 -298 131 -307 20 -22 6 22 -53 165 -54 128
-78 171 -78 142z"/>
<path d="M0 4243 l0 -187 30 29 c88 84 94 233 13 318 -15 15 -30 27 -35 27 -4
0 -8 -84 -8 -187z"/>
<path d="M4566 4009 c-33 -26 -34 -62 -1 -94 58 -59 148 2 110 74 -23 46 -66
54 -109 20z m61 -15 c-3 -3 -12 -4 -19 -1 -8 3 -5 6 6 6 11 1 17 -2 13 -5z m3
-34 c0 -11 -7 -20 -15 -20 -8 0 -15 9 -15 20 0 11 7 20 15 20 8 0 15 -9 15
-20z m-25 -38 c-3 -3 -11 0 -18 7 -9 10 -8 11 6 5 10 -3 15 -9 12 -12z m40 8
c-3 -5 -12 -10 -18 -10 -7 0 -6 4 3 10 19 12 23 12 15 0z"/>
<path d="M70 4005 c-53 -24 -70 -44 -70 -82 l0 -34 34 34 c35 36 101 59 138
49 12 -3 34 -18 49 -33 15 -15 30 -25 34 -21 4 4 6 0 4 -8 -2 -8 3 -26 11 -40
41 -73 -5 -217 -76 -240 -50 -17 -116 3 -160 47 l-34 34 0 -34 c0 -38 18 -59
73 -82 95 -40 220 1 272 88 63 108 33 234 -71 305 -48 32 -151 41 -204 17z"/>
<path d="M4766 3931 c-25 -28 -17 -79 16 -104 24 -18 30 -18 58 -7 17 7 35 21
41 32 14 26 2 76 -21 88 -30 16 -75 12 -94 -9z m27 -26 c-3 -9 -8 -14 -10 -11
-3 3 -2 9 2 15 9 16 15 13 8 -4z m58 -2 c13 -16 12 -17 -3 -4 -17 13 -22 21
-14 21 2 0 10 -8 17 -17z m-18 -10 c9 -9 -13 -34 -24 -27 -14 8 -11 34 4 34 8
0 17 -3 20 -7z m27 -17 c0 -9 -32 -36 -42 -36 -6 0 0 9 13 20 25 21 29 23 29
16z"/>
<path d="M4648 3858 c-55 -19 -53 -105 3 -128 38 -16 72 0 90 42 10 25 9 33
-7 55 -25 33 -52 43 -86 31z m45 -55 c9 -9 -13 -34 -24 -27 -14 8 -11 34 4 34
8 0 17 -3 20 -7z"/>
<path d="M4810 3319 c-78 -32 -122 -128 -89 -192 32 -62 104 -105 155 -93 40
10 29 33 -16 33 -78 0 -133 70 -111 143 16 55 53 84 107 85 34 0 44 4 42 15
-4 18 -53 23 -88 9z"/>
<path d="M96 2458 c3 -5 10 -6 15 -3 13 9 11 12 -6 12 -8 0 -12 -4 -9 -9z"/>
<path d="M175 2239 c-4 -6 -5 -11 -4 -12 2 -2 13 -9 24 -17 19 -14 19 -14 2 6
-9 11 -14 24 -10 27 3 4 4 7 0 7 -3 0 -9 -5 -12 -11z"/>
<path d="M225 2191 c-6 -11 13 -26 22 -17 4 3 1 6 -6 6 -7 0 -9 5 -6 10 3 6 4
10 1 10 -3 0 -7 -4 -11 -9z"/>
<path d="M1096 412 c-7 -11 30 -27 54 -24 13 3 13 2 0 -8 -12 -9 -10 -10 10
-5 20 5 22 4 8 -4 -12 -8 -27 -6 -60 9 -171 78 -368 -87 -319 -267 16 -63 51
-113 79 -113 23 0 23 0 -6 38 -67 85 -67 181 0 258 43 49 83 67 148 67 117 0
200 -79 200 -192 0 -62 -10 -89 -51 -136 l-33 -37 29 4 c20 2 37 14 52 37 59
88 52 199 -18 290 -14 17 -16 27 -8 37 11 14 -8 29 -46 35 -11 2 -23 8 -26 13
-4 4 -9 3 -13 -2z"/>
<path d="M1216 307 c9 -16 18 -26 21 -23 3 3 0 12 -6 20 -7 8 -10 19 -7 24 3
5 -1 9 -9 9 -12 0 -11 -5 1 -30z"/>
<path d="M2482 264 c-32 -22 -17 -37 19 -19 16 9 27 20 24 25 -8 14 -17 12
-43 -6z"/>
<path d="M2519 191 c-13 -11 -21 -23 -16 -27 10 -10 57 16 57 33 0 18 -14 16
-41 -6z"/>
<path d="M2980 170 c-14 -10 -22 -21 -19 -24 3 -3 16 5 29 19 28 30 24 32 -10
5z"/>
<path d="M2344 153 c-12 -2 -32 -15 -44 -28 -38 -40 -25 -125 19 -125 10 0 12
3 5 8 -26 17 -36 53 -24 82 24 57 97 56 129 -1 12 -23 12 -29 -2 -58 -11 -22
-12 -31 -4 -28 19 6 38 54 31 81 -11 46 -63 78 -110 69z"/>
<path d="M1272 120 c0 -19 2 -27 5 -17 2 9 2 25 0 35 -3 9 -5 1 -5 -18z"/>
<path d="M2553 123 c-7 -2 -13 -11 -13 -19 0 -8 6 -14 13 -14 14 1 47 24 47
34 0 7 -29 7 -47 -1z"/>
<path d="M3210 116 c0 -8 9 -24 20 -37 17 -21 19 -22 20 -6 0 23 -18 57 -30
57 -6 0 -10 -6 -10 -14z"/>
<path d="M3136 81 c-7 -11 30 -58 39 -50 7 8 -15 59 -26 59 -4 0 -10 -4 -13
-9z"/>
<path d="M2589 40 c-21 -17 -22 -19 -6 -20 23 0 57 18 57 30 0 16 -26 11 -51
-10z"/>
<path d="M3060 44 c0 -16 23 -44 35 -44 18 0 19 10 1 33 -12 16 -36 24 -36 11z"/>
<path d="M480 10 c0 -5 5 -10 10 -10 6 0 10 5 10 10 0 6 -4 10 -10 10 -5 0
-10 -4 -10 -10z"/>
</g>
</svg>
