<?xml version="1.0" standalone="no"?>
<!DOCTYPE svg PUBLIC "-//W3C//DTD SVG 20010904//EN"
 "http://www.w3.org/TR/2001/REC-SVG-20010904/DTD/svg10.dtd">
<svg version="1.0" xmlns="http://www.w3.org/2000/svg"
 width="225.000000pt" height="225.000000pt" viewBox="0 0 225.000000 225.000000"
 preserveAspectRatio="xMidYMid meet">

<g transform="translate(0.000000,225.000000) scale(0.100000,-0.100000)"
fill="#000000" stroke="none">
<path d="M986 2239 c-451 -58 -821 -379 -942 -819 -108 -389 7 -814 298 -1096
439 -428 1127 -428 1566 0 387 376 449 974 147 1426 -233 349 -654 542 -1069
489z m394 -47 c381 -101 664 -362 784 -722 46 -140 60 -244 53 -399 -13 -304
-145 -575 -379 -778 -126 -110 -277 -187 -462 -236 -116 -31 -394 -31 -508 1
-416 114 -702 401 -810 812 -25 98 -35 299 -19 411 67 462 428 836 894 925
105 20 349 12 447 -14z"/>
<path d="M1072 2193 c-12 -2 -20 -8 -17 -13 3 -4 -5 -15 -18 -23 -19 -12 -27
-13 -48 -2 -21 12 -22 14 -7 20 9 4 21 4 27 1 5 -4 13 -1 17 5 5 9 -6 10 -42
6 -87 -12 -154 -30 -152 -41 3 -26 -15 -46 -43 -46 -30 0 -40 17 -14 25 8 3
22 7 31 10 9 3 15 8 12 10 -2 3 -26 -2 -52 -11 -29 -10 -43 -19 -36 -24 21
-13 -11 -50 -42 -50 -35 0 -36 17 -2 31 15 5 24 12 21 15 -3 3 -33 -9 -67 -26
-34 -17 -59 -34 -56 -37 4 -4 12 -1 18 5 7 7 18 12 25 12 10 0 10 -5 1 -25 -8
-18 -19 -25 -41 -25 -22 0 -28 4 -23 15 9 24 -39 -6 -126 -80 -102 -86 -260
-277 -213 -259 11 5 15 -1 15 -23 0 -22 -7 -33 -25 -41 -20 -9 -25 -9 -25 1 0
7 5 18 12 25 6 6 9 14 5 18 -3 3 -20 -22 -37 -56 -17 -34 -29 -64 -26 -67 3
-3 10 6 15 21 13 32 31 34 31 3 0 -31 -38 -67 -49 -48 -6 9 -14 -2 -25 -35
-19 -56 -19 -57 -6 -49 6 3 10 15 10 25 0 29 19 34 26 6 4 -17 0 -30 -15 -45
-13 -13 -21 -16 -24 -8 -8 21 -15 4 -31 -75 -18 -88 -20 -122 -6 -113 5 3 7
12 4 20 -11 27 8 39 21 14 11 -19 10 -27 -2 -46 -8 -13 -19 -21 -23 -18 -5 3
-11 -12 -15 -34 -7 -43 3 -114 15 -106 4 3 15 -5 23 -18 12 -19 13 -27 2 -48
-12 -21 -14 -22 -20 -7 -4 9 -4 21 -1 27 4 5 1 13 -5 17 -9 5 -10 -6 -6 -42
12 -87 30 -154 41 -152 26 3 46 -15 46 -43 0 -30 -17 -40 -25 -14 -3 8 -7 22
-10 31 -3 9 -8 15 -10 12 -3 -2 2 -26 11 -52 10 -29 19 -43 24 -36 13 21 50
-11 50 -42 0 -35 -17 -36 -31 -2 -5 15 -12 24 -15 21 -3 -3 9 -33 26 -67 17
-34 34 -59 37 -56 4 4 1 12 -5 18 -7 7 -12 18 -12 25 0 10 5 10 25 1 18 -8 25
-19 25 -41 0 -22 -4 -28 -15 -23 -47 18 111 -173 213 -259 87 -74 135 -104
126 -80 -5 11 1 15 23 15 22 0 33 -7 41 -25 9 -20 9 -25 -1 -25 -7 0 -18 5
-25 12 -6 6 -14 9 -18 5 -3 -3 22 -20 56 -37 34 -17 64 -29 67 -26 3 3 -6 10
-21 15 -32 13 -34 31 -3 31 31 0 67 -38 48 -49 -9 -6 2 -14 35 -25 56 -19 57
-19 49 -6 -3 5 -15 10 -25 10 -29 0 -34 19 -6 26 17 4 30 0 45 -15 12 -12 16
-21 11 -21 -5 0 -10 -4 -10 -9 0 -4 37 -16 83 -25 94 -18 121 -20 112 -6 -3 5
-12 7 -20 4 -27 -11 -39 8 -14 21 19 11 27 10 46 -2 13 -8 21 -19 18 -23 -8
-12 63 -22 106 -15 22 4 37 10 34 15 -3 4 5 15 18 23 19 12 27 13 48 2 21 -12
22 -14 7 -20 -9 -4 -21 -4 -27 -1 -5 4 -13 1 -17 -5 -5 -9 6 -10 42 -6 87 12
154 30 152 41 -3 26 15 46 43 46 29 0 40 -17 17 -24 -39 -12 -50 -17 -46 -21
2 -3 26 2 52 11 29 10 43 19 36 24 -21 13 11 50 42 50 35 0 36 -17 2 -31 -15
-5 -24 -12 -21 -15 3 -3 33 9 67 26 34 17 59 34 56 37 -4 4 -12 1 -18 -5 -7
-7 -18 -12 -25 -12 -10 0 -10 5 -1 25 8 18 19 25 41 25 22 0 28 -4 23 -15 -9
-24 39 6 126 80 102 86 260 277 213 259 -11 -5 -15 1 -15 23 0 22 7 33 25 41
20 9 25 9 25 -1 0 -7 -5 -18 -12 -25 -6 -6 -9 -14 -5 -18 3 -3 20 22 37 56 17
34 29 64 26 67 -3 3 -10 -6 -15 -21 -13 -32 -31 -34 -31 -3 0 31 38 67 49 48
6 -9 14 2 25 35 19 56 19 57 6 49 -5 -3 -10 -15 -10 -25 0 -29 -19 -34 -26 -6
-4 17 0 30 15 45 13 13 21 16 24 8 8 -21 15 -4 31 75 18 87 21 142 7 119 -5
-8 -7 -20 -4 -27 3 -7 1 -18 -3 -25 -4 -8 -11 -4 -19 12 -11 19 -10 27 2 46 8
13 19 21 23 18 5 -3 11 12 15 34 7 43 -3 114 -15 106 -4 -3 -15 5 -23 18 -12
19 -13 27 -2 48 12 21 14 22 20 7 4 -9 4 -21 1 -27 -4 -5 -1 -13 5 -17 9 -5
10 6 6 42 -12 87 -30 154 -41 152 -26 -3 -46 15 -46 43 0 16 5 29 10 29 10 0
13 -7 26 -49 3 -8 7 -12 9 -9 3 2 -2 26 -11 52 -11 33 -19 44 -25 35 -11 -19
-49 17 -49 48 0 31 18 29 31 -3 5 -15 12 -24 15 -21 3 3 -9 33 -26 67 -17 34
-34 59 -37 56 -4 -4 -1 -12 5 -18 7 -7 12 -18 12 -25 0 -10 -5 -10 -25 -1 -18
8 -25 19 -25 41 0 22 4 28 15 23 47 -18 -111 173 -213 259 -87 74 -135 104
-126 80 5 -11 -1 -15 -23 -15 -22 0 -33 7 -41 25 -9 20 -9 25 1 25 7 0 18 -5
25 -12 6 -6 14 -9 18 -5 3 3 -22 20 -56 37 -34 17 -64 29 -67 26 -3 -3 6 -10
21 -15 32 -13 34 -31 3 -31 -31 0 -67 38 -48 49 9 6 -2 14 -35 25 -56 19 -57
19 -49 6 3 -5 15 -10 25 -10 29 0 34 -19 6 -26 -17 -4 -30 0 -45 15 -13 13
-16 21 -8 24 21 8 4 15 -75 31 -88 18 -122 20 -113 6 3 -5 12 -7 20 -4 27 11
39 -8 14 -21 -19 -11 -27 -10 -46 2 -13 8 -21 19 -18 23 9 15 -69 23 -123 13z
m91 -10 c5 -3 -1 -12 -13 -20 -18 -13 -26 -13 -46 -3 -13 7 -21 17 -18 21 5 8
63 10 77 2z m-213 -19 c0 -4 -8 -13 -17 -20 -10 -7 -16 -15 -13 -18 3 -3 51 0
107 6 74 8 127 8 199 0 102 -12 121 -9 91 12 -27 21 -20 27 21 20 48 -8 60
-20 28 -28 -42 -10 -31 -20 43 -39 173 -45 378 -182 503 -337 78 -95 158 -249
185 -351 19 -74 29 -85 39 -43 8 32 20 20 28 -28 7 -41 1 -48 -20 -21 -21 30
-24 11 -12 -91 8 -72 8 -125 0 -199 -6 -56 -9 -104 -6 -107 3 -3 11 3 18 13
21 27 27 20 20 -20 -8 -49 -20 -61 -28 -29 -10 42 -20 31 -39 -43 -45 -173
-182 -378 -337 -503 -95 -78 -249 -158 -351 -185 -74 -19 -85 -29 -43 -39 32
-8 20 -20 -28 -28 -41 -7 -48 -1 -21 20 30 21 11 24 -91 12 -72 -8 -125 -8
-199 0 -56 6 -104 9 -107 6 -3 -3 3 -11 13 -18 27 -21 20 -27 -20 -20 -49 8
-61 20 -29 28 42 10 31 20 -43 39 -102 27 -256 107 -351 185 -155 125 -292
330 -337 503 -19 74 -29 85 -39 43 -8 -32 -20 -20 -28 29 -7 40 -1 47 20 20
21 -30 24 -11 12 91 -8 72 -8 125 0 199 6 56 9 104 6 107 -3 3 -11 -3 -18 -13
-21 -27 -27 -20 -20 21 8 48 20 60 28 28 10 -42 20 -31 39 43 27 102 107 256
185 351 125 155 330 292 503 337 74 19 85 29 43 39 -29 7 -21 20 16 27 41 7
50 7 50 1z m-413 -188 c-7 -15 -22 -26 -39 -28 -33 -5 -39 17 -8 27 11 3 20
11 20 16 0 5 9 9 19 9 17 0 18 -3 8 -24z m1203 15 c0 -5 9 -13 20 -16 31 -10
25 -32 -8 -27 -34 5 -62 52 -31 52 10 0 19 -4 19 -9z m-1289 -78 c-5 -18 -16
-29 -34 -34 -36 -10 -35 8 1 38 36 29 42 29 33 -4z m1379 5 c36 -26 39 -47 6
-41 -13 3 -29 16 -35 29 -19 42 -14 44 29 12z m-1457 -82 c-4 -22 -49 -53 -60
-42 -7 7 39 66 52 66 7 0 10 -10 8 -24z m1545 -6 c28 -37 28 -40 -5 -31 -18 5
-29 16 -34 34 -10 37 11 35 39 -3z m-1616 -78 c-5 -34 -52 -62 -52 -31 0 10 4
19 9 19 5 0 13 9 16 20 10 31 32 25 27 -8z m1673 8 c3 -11 11 -20 16 -20 5 0
9 -9 9 -19 0 -31 -47 -3 -52 31 -5 33 17 39 27 8z m-1885 -656 c-17 -30 -29
-22 -28 19 1 45 8 52 25 27 13 -18 13 -26 3 -46z m2096 23 c3 -44 -5 -53 -23
-27 -13 18 -13 26 -3 46 16 29 24 23 26 -19z m-1884 -629 c5 -33 -17 -39 -27
-8 -3 11 -11 20 -16 20 -5 0 -9 9 -9 19 0 31 47 3 52 -31z m1684 6 c-9 -8 -16
-20 -16 -25 0 -5 -6 -9 -13 -9 -22 0 -8 55 16 65 28 12 36 -8 13 -31z m-1615
-87 c10 -37 -11 -35 -39 3 -28 37 -28 40 5 31 18 -5 29 -16 34 -34z m1569 38
c0 -13 -45 -65 -55 -65 -20 0 -5 47 18 58 25 12 37 14 37 7z m-1491 -112 c7
-14 10 -28 7 -30 -7 -7 -66 39 -66 52 0 22 47 4 59 -22z m1385 -9 c-38 -30
-44 -30 -35 3 5 18 16 30 32 33 35 9 36 -8 3 -36z m-1297 -60 c10 -21 9 -24
-8 -24 -10 0 -19 4 -19 9 0 5 -9 13 -20 16 -31 10 -25 32 8 27 17 -2 32 -13
39 -28z m1234 8 c-6 -2 -18 -10 -25 -18 -8 -8 -21 -14 -29 -14 -27 0 4 49 33
52 26 3 42 -13 21 -20z m-618 -196 c22 -17 13 -24 -28 -24 -16 0 -34 2 -38 5
-9 6 22 32 38 32 6 0 18 -6 28 -13z"/>
<path d="M949 2084 c-396 -71 -715 -394 -785 -796 -20 -117 -14 -289 15 -400
93 -356 366 -624 729 -715 93 -24 341 -24 434 0 368 92 643 367 735 735 12 48
17 110 17 217 0 218 -43 368 -155 535 -219 327 -607 494 -990 424z m151 -19
c0 -22 -4 -25 -34 -25 -25 0 -35 5 -39 19 -6 26 0 31 40 31 29 0 33 -3 33 -25z
m122 19 c3 -3 4 -14 1 -25 -4 -14 -14 -19 -39 -19 -30 0 -34 3 -34 25 0 22 4
25 33 25 19 0 36 -3 39 -6z m-242 -34 c0 -24 -58 -39 -71 -19 -13 21 -5 33 27
40 36 7 44 3 44 -21z m154 9 c-3 -5 -10 -7 -15 -3 -5 3 -7 10 -3 15 3 5 10 7
15 3 5 -3 7 -10 3 -15z m213 -4 c7 -23 -15 -37 -46 -30 -28 6 -42 31 -26 47 9
8 68 -6 72 -17z m-335 0 c0 -5 -5 -11 -11 -13 -6 -2 -11 4 -11 13 0 9 5 15 11
13 6 -2 11 -8 11 -13z m248 0 c0 -8 -4 -15 -9 -15 -13 0 -22 16 -14 24 11 11
23 6 23 -9z m-402 -32 c2 -16 -5 -23 -29 -32 -36 -13 -34 -13 -43 15 -5 16 0
22 21 31 36 14 47 11 51 -14z m33 4 c-13 -13 -26 -3 -16 12 3 6 11 8 17 5 6
-4 6 -10 -1 -17z m486 -3 c-9 -9 -28 6 -21 18 4 6 10 6 17 -1 6 -6 8 -13 4
-17z m62 15 c35 -12 35 -13 21 -39 -9 -16 -15 -17 -40 -8 -28 9 -40 35 -23 51
8 9 4 9 42 -4z m-134 -28 c175 -36 326 -118 456 -246 168 -167 254 -363 266
-605 20 -442 -286 -831 -727 -922 -117 -25 -284 -20 -401 11 -392 102 -678
468 -679 867 -1 577 525 1011 1085 895z m-525 -22 c0 -5 -7 -9 -15 -9 -15 0
-20 12 -9 23 8 8 24 -1 24 -14z m720 0 c0 -5 -7 -9 -15 -9 -15 0 -20 12 -9 23
8 8 24 -1 24 -14z m-760 7 c0 -2 3 -11 6 -20 8 -21 -55 -54 -67 -34 -14 22
-10 34 14 46 23 11 47 15 47 8z m813 -7 c30 -16 30 -15 17 -38 -10 -20 -12
-20 -40 -6 -33 17 -33 17 -24 39 7 19 18 20 47 5z m-885 -50 c-2 -6 -8 -10
-13 -10 -5 0 -11 4 -13 10 -2 6 4 11 13 11 9 0 15 -5 13 -11z m940 0 c-2 -6
-8 -10 -13 -10 -5 0 -11 4 -13 10 -2 6 4 11 13 11 9 0 15 -5 13 -11z m-974
-16 c5 -11 -1 -23 -16 -35 -28 -22 -32 -22 -49 -2 -11 14 -9 19 11 35 31 23
46 24 54 2z m1036 -2 c20 -16 22 -21 11 -35 -17 -20 -21 -20 -49 2 -15 12 -21
24 -16 35 8 22 23 21 54 -2z m-1100 -51 c0 -5 -7 -10 -15 -10 -8 0 -15 5 -15
10 0 6 7 10 15 10 8 0 15 -4 15 -10z m1140 0 c0 -5 -7 -10 -15 -10 -8 0 -15 5
-15 10 0 6 7 10 15 10 8 0 15 -4 15 -10z m-1176 -17 c4 -10 -2 -25 -15 -40
-21 -22 -23 -22 -42 -6 -18 17 -18 18 8 40 31 27 41 29 49 6z m1229 -6 c28
-22 28 -23 10 -40 -19 -16 -21 -16 -42 6 -13 15 -19 30 -15 40 8 22 13 21 47
-6z m-1293 -57 c0 -5 -4 -10 -10 -10 -5 0 -10 5 -10 10 0 6 5 10 10 10 6 0 10
-4 10 -10z m1330 0 c0 -5 -4 -10 -10 -10 -5 0 -10 5 -10 10 0 6 5 10 10 10 6
0 10 -4 10 -10z m-1362 -57 c-24 -26 -27 -27 -47 -14 -11 7 -10 15 9 41 21 30
23 30 41 14 19 -17 19 -18 -3 -41z m1432 -2 c0 -21 -35 -20 -57 0 -22 21 -22
23 -6 42 17 18 18 18 40 -8 13 -14 23 -30 23 -34z m-1480 -36 c0 -8 -4 -15
-10 -15 -5 0 -10 7 -10 15 0 8 5 15 10 15 6 0 10 -7 10 -15z m1490 0 c0 -8 -4
-15 -10 -15 -5 0 -10 7 -10 15 0 8 5 15 10 15 6 0 10 -7 10 -15z m-1511 -19
c10 -12 9 -20 -4 -40 -19 -29 -18 -28 -39 -20 -20 8 -20 18 0 49 19 29 27 31
43 11z m1559 -19 c15 -24 15 -29 2 -37 -22 -14 -26 -13 -45 16 -13 20 -14 28
-4 40 16 19 27 15 47 -19z m-1606 -62 c0 -5 -5 -11 -11 -13 -6 -2 -11 4 -11
13 0 9 5 15 11 13 6 -2 11 -8 11 -13z m1628 0 c0 -8 -4 -15 -9 -15 -13 0 -22
16 -14 24 11 11 23 6 23 -9z m-1649 -25 c18 -10 18 -13 4 -40 -17 -32 -22 -35
-44 -21 -12 8 -12 14 -1 40 14 35 14 35 41 21z m1689 -21 c11 -26 11 -32 -1
-40 -22 -14 -27 -11 -45 22 -13 26 -14 33 -2 40 23 15 35 10 48 -22z m-1720
-64 c0 -8 -4 -15 -9 -15 -13 0 -22 16 -14 24 11 11 23 6 23 -9z m1732 0 c0 -5
-5 -11 -11 -13 -6 -2 -11 4 -11 13 0 9 5 15 11 13 6 -2 11 -8 11 -13z m-1752
-25 c16 -9 17 -15 8 -40 -9 -27 -35 -40 -50 -24 -6 5 12 74 19 74 3 0 13 -5
23 -10z m1787 -21 c14 -36 10 -49 -17 -49 -14 0 -40 42 -40 66 0 2 18 8 40 13
3 0 11 -13 17 -30z m-1807 -67 c0 -13 -12 -22 -22 -16 -10 6 -1 24 13 24 5 0
9 -4 9 -8z m1811 -5 c-1 -12 -15 -9 -19 4 -3 6 1 10 8 8 6 -3 11 -8 11 -12z
m-1822 -26 c9 -6 11 -18 6 -40 -5 -26 -11 -32 -28 -29 -18 2 -21 9 -18 33 5
46 13 53 40 36z m1852 -29 c7 -35 4 -42 -22 -42 -23 0 -37 59 -18 71 22 13 33
5 40 -29z m-1863 -63 c-2 -6 -8 -10 -13 -10 -5 0 -11 4 -13 10 -2 6 4 11 13
11 9 0 15 -5 13 -11z m1860 0 c-2 -6 -8 -10 -13 -10 -5 0 -11 4 -13 10 -2 6 4
11 13 11 9 0 15 -5 13 -11z m-1858 -65 c0 -30 -3 -34 -25 -34 -22 0 -25 4 -25
33 0 40 5 46 31 40 14 -4 19 -14 19 -39z m1880 0 c0 -30 -3 -34 -25 -34 -22 0
-25 4 -25 34 0 25 5 36 18 39 26 6 32 -1 32 -39z m-1896 -65 c-3 -5 -10 -7
-15 -3 -5 3 -7 10 -3 15 3 5 10 7 15 3 5 -3 7 -10 3 -15z m1880 0 c-3 -5 -10
-7 -15 -3 -5 3 -7 10 -3 15 3 5 10 7 15 3 5 -3 7 -10 3 -15z m-1864 -53 c0
-25 -5 -35 -19 -39 -26 -6 -31 0 -31 40 0 29 3 33 25 33 22 0 25 -4 25 -34z
m1880 1 c0 -40 -5 -46 -31 -40 -14 4 -19 14 -19 39 0 30 3 34 25 34 22 0 25
-4 25 -33z m-1889 -70 c-13 -13 -26 -3 -16 12 3 6 11 8 17 5 6 -4 6 -10 -1
-17z m1869 2 c0 -5 -7 -9 -15 -9 -15 0 -20 12 -9 23 8 8 24 -1 24 -14z m-1845
-50 c7 -31 -7 -53 -30 -46 -11 4 -25 63 -17 72 16 16 41 2 47 -26z m1847 26
c8 -9 -6 -68 -17 -72 -23 -7 -37 15 -30 46 6 28 31 42 47 26z m-1845 -101 c-9
-9 -28 6 -21 18 4 6 10 6 17 -1 6 -6 8 -13 4 -17z m1814 3 c-13 -13 -26 -3
-16 12 3 6 11 8 17 5 6 -4 6 -10 -1 -17z m-1782 -49 c12 -35 13 -33 -14 -42
-16 -5 -23 0 -32 25 -14 36 -10 49 17 49 11 0 22 -12 29 -32z m1784 26 c4 -5
-10 -61 -19 -72 -1 -2 -11 1 -23 7 -17 10 -19 15 -9 41 9 28 35 40 51 24z
m-1773 -89 c0 -8 -4 -15 -9 -15 -13 0 -22 16 -14 24 11 11 23 6 23 -9z m1732
0 c0 -5 -5 -11 -11 -13 -6 -2 -11 4 -11 13 0 9 5 15 11 13 6 -2 11 -8 11 -13z
m-1696 -46 c13 -26 14 -33 2 -40 -23 -15 -35 -10 -48 22 -11 26 -11 32 1 40
22 14 27 11 45 -22z m1683 22 c12 -8 12 -14 1 -40 -14 -35 -14 -35 -41 -21
-18 10 -18 13 -4 40 17 32 22 35 44 21z m-1667 -86 c0 -5 -5 -11 -11 -13 -6
-2 -11 4 -11 13 0 9 5 15 11 13 6 -2 11 -8 11 -13z m1628 0 c0 -8 -4 -15 -9
-15 -13 0 -22 16 -14 24 11 11 23 6 23 -9z m-1585 -41 c16 -24 16 -27 1 -43
-16 -15 -18 -14 -36 9 -23 29 -25 46 -7 53 21 9 24 8 42 -19z m1559 20 c21 -8
20 -23 -4 -54 -18 -23 -20 -24 -36 -9 -15 16 -15 19 1 43 19 29 18 28 39 20z
m-1534 -79 c0 -8 -4 -15 -10 -15 -5 0 -10 7 -10 15 0 8 5 15 10 15 6 0 10 -7
10 -15z m1490 0 c0 -8 -4 -15 -10 -15 -5 0 -10 7 -10 15 0 8 5 15 10 15 6 0
10 -7 10 -15z m-1442 -38 c22 -23 22 -24 3 -41 -18 -16 -20 -16 -41 14 -19 26
-20 34 -9 41 20 13 23 12 47 -14z m1416 17 c21 -8 20 -16 -5 -48 -20 -26 -22
-26 -40 -10 -19 17 -19 18 3 41 24 26 21 25 42 17z m-1384 -74 c0 -5 -4 -10
-10 -10 -5 0 -10 5 -10 10 0 6 5 10 10 10 6 0 10 -4 10 -10z m1330 0 c0 -5 -4
-10 -10 -10 -5 0 -10 5 -10 10 0 6 5 10 10 10 6 0 10 -4 10 -10z m-1266 -63
c-8 -22 -16 -21 -48 4 -26 20 -26 22 -10 41 18 18 18 18 41 -5 15 -15 21 -29
17 -40z m1231 6 c-31 -27 -41 -29 -49 -6 -4 10 2 25 15 40 21 22 23 22 42 6
18 -17 18 -18 -8 -40z m-1195 -23 c0 -5 -7 -10 -15 -10 -8 0 -15 5 -15 10 0 6
7 10 15 10 8 0 15 -4 15 -10z m1140 0 c0 -5 -7 -10 -15 -10 -8 0 -15 5 -15 10
0 6 7 10 15 10 8 0 15 -4 15 -10z m-1092 -18 c15 -12 21 -24 16 -35 -8 -22
-23 -21 -54 2 -20 16 -22 21 -11 35 17 20 21 20 49 -2z m1063 2 c11 -14 9 -19
-11 -35 -31 -23 -46 -24 -54 -2 -5 11 1 23 16 35 28 22 32 22 49 2z m-1011
-55 c0 -5 -7 -9 -15 -9 -15 0 -20 12 -9 23 8 8 24 -1 24 -14z m940 0 c0 -5 -7
-9 -15 -9 -15 0 -20 12 -9 23 8 8 24 -1 24 -14z m-860 -27 c0 -4 -4 -13 -9
-21 -8 -12 -14 -12 -40 -1 -35 14 -35 14 -21 41 10 18 13 18 40 4 17 -9 30
-19 30 -23z m824 22 c10 -26 7 -31 -25 -44 -26 -11 -32 -11 -40 1 -14 22 -11
27 19 43 35 19 39 19 46 0z m-796 -45 c-2 -6 -8 -10 -13 -10 -5 0 -11 4 -13
10 -2 6 4 11 13 11 9 0 15 -5 13 -11z m82 -29 c0 -26 -13 -31 -49 -19 -35 12
-35 13 -21 39 9 16 15 17 40 8 19 -6 30 -17 30 -28z m600 31 c0 -5 2 -15 5
-23 6 -14 -51 -42 -66 -32 -19 12 -8 43 19 52 35 13 42 14 42 3z m38 -2 c-2
-6 -8 -10 -13 -10 -5 0 -11 4 -13 10 -2 6 4 11 13 11 9 0 15 -5 13 -11z m-607
-42 c-1 -12 -15 -9 -19 4 -3 6 1 10 8 8 6 -3 11 -8 11 -12z m67 7 c16 -5 22
-13 20 -28 -2 -17 -9 -20 -33 -18 -37 5 -48 14 -39 35 7 18 16 20 52 11z m386
-11 c9 -21 -2 -30 -39 -35 -24 -2 -31 1 -33 19 -2 14 3 23 15 26 36 9 51 7 57
-10z m36 9 c0 -13 -12 -22 -22 -16 -10 6 -1 24 13 24 5 0 9 -4 9 -8z m-369
-35 c-13 -13 -26 -3 -16 12 3 6 11 8 17 5 6 -4 6 -10 -1 -17z m89 -2 c0 -22
-4 -25 -33 -25 -40 0 -46 5 -40 31 4 14 14 19 39 19 30 0 34 -3 34 -25z m123
6 c6 -26 0 -31 -40 -31 -29 0 -33 3 -33 25 0 22 4 25 34 25 25 0 35 -5 39 -19z
m34 -7 c-9 -9 -28 6 -21 18 4 6 10 6 17 -1 6 -6 8 -13 4 -17z m-123 -5 c-3 -5
-10 -7 -15 -3 -5 3 -7 10 -3 15 3 5 10 7 15 3 5 -3 7 -10 3 -15z"/>
<path d="M1048 2063 c6 -2 18 -2 25 0 6 3 1 5 -13 5 -14 0 -19 -2 -12 -5z"/>
<path d="M1173 2063 c9 -2 23 -2 30 0 6 3 -1 5 -18 5 -16 0 -22 -2 -12 -5z"/>
<path d="M935 2050 c-19 -8 -19 -9 3 -9 12 -1 22 4 22 9 0 6 -1 10 -2 9 -2 0
-12 -4 -23 -9z"/>
<path d="M1290 2050 c0 -5 10 -10 23 -10 18 0 19 2 7 10 -19 13 -30 13 -30 0z"/>
<path d="M815 2020 c-19 -8 -19 -9 3 -9 12 -1 22 4 22 9 0 6 -1 10 -2 9 -2 0
-12 -4 -23 -9z"/>
<path d="M1410 2019 c0 -5 9 -9 20 -9 11 0 20 2 20 4 0 2 -9 6 -20 9 -11 3
-20 1 -20 -4z"/>
<path d="M940 1985 c-275 -62 -496 -240 -615 -498 -59 -127 -70 -184 -70 -362
0 -178 11 -235 70 -362 91 -197 227 -335 420 -428 140 -67 204 -80 385 -80
173 1 231 12 357 70 242 112 418 318 489 575 26 93 26 358 0 450 -52 187 -168
360 -315 472 -76 58 -220 129 -306 153 -85 24 -329 29 -415 10z m298 -17 c4
-20 -23 -25 -34 -7 -4 8 -9 7 -15 -2 -7 -11 -12 -12 -29 -1 -12 7 -20 8 -20 2
0 -5 -7 -10 -15 -10 -8 0 -15 5 -15 10 0 6 -9 5 -21 -2 -17 -10 -23 -10 -26
-1 -3 10 -9 10 -23 1 -21 -14 -35 -6 -27 15 4 10 31 13 113 13 95 -1 109 -3
112 -18z m-243 -8 c0 -8 -8 -16 -17 -18 -13 -2 -18 3 -18 18 0 15 5 20 18 18
9 -2 17 -10 17 -18z m295 0 c0 -21 -24 -28 -35 -10 -8 14 3 30 21 30 8 0 14
-9 14 -20z m-345 -10 c0 -22 -29 -18 -33 3 -3 14 1 18 15 15 10 -2 18 -10 18
-18z m395 6 c0 -20 -19 -31 -32 -18 -6 6 -7 15 -4 21 10 16 36 13 36 -3z
m-442 -19 c2 -10 -3 -17 -12 -17 -18 0 -29 16 -21 31 9 14 29 6 33 -14z m487
2 c0 -7 -8 -15 -17 -17 -18 -3 -25 18 -11 32 10 10 28 1 28 -15z m-532 -5 c9
-9 -4 -34 -18 -34 -14 0 -27 25 -18 34 4 3 12 6 18 6 6 0 14 -3 18 -6z m482
-19 c90 -24 232 -97 303 -155 90 -74 167 -171 217 -275 66 -136 79 -196 79
-360 0 -164 -13 -224 -79 -360 -79 -163 -206 -290 -370 -370 -136 -66 -196
-79 -360 -79 -164 0 -224 13 -360 79 -164 80 -291 207 -370 370 -58 118 -75
187 -82 321 -21 400 247 750 642 838 88 20 293 15 380 -9z m98 19 c9 -9 -4
-34 -18 -34 -14 0 -27 25 -18 34 4 3 12 6 18 6 6 0 14 -3 18 -6z m-625 -31
c-2 -10 -10 -18 -18 -18 -8 0 -16 8 -18 18 -2 12 3 17 18 17 15 0 20 -5 18
-17z m670 0 c-2 -10 -10 -18 -18 -18 -8 0 -16 8 -18 18 -2 12 3 17 18 17 15 0
20 -5 18 -17z m-714 -12 c3 -5 -1 -15 -10 -22 -13 -10 -17 -10 -24 1 -5 8 -6
18 -4 22 7 11 31 10 38 -1z m760 1 c2 -4 1 -14 -4 -22 -7 -11 -11 -11 -24 -1
-9 7 -13 17 -10 22 7 11 31 12 38 1z m-806 -35 c2 -10 -3 -17 -12 -17 -18 0
-29 16 -21 31 9 14 29 6 33 -14z m847 2 c0 -7 -8 -15 -17 -17 -18 -3 -25 18
-11 32 10 10 28 1 28 -15z m-887 -26 c-2 -10 -10 -18 -18 -18 -8 0 -16 8 -18
18 -2 12 3 17 18 17 15 0 20 -5 18 -17z m930 0 c-2 -10 -10 -18 -18 -18 -8 0
-16 8 -18 18 -2 12 3 17 18 17 15 0 20 -5 18 -17z m-971 -19 c7 -18 -17 -38
-31 -24 -11 11 -1 40 14 40 6 0 13 -7 17 -16z m1010 0 c8 -20 -8 -36 -26 -25
-15 10 -8 41 9 41 6 0 13 -7 17 -16z m-1050 -30 c8 -21 -13 -42 -28 -27 -13
13 -5 43 11 43 6 0 13 -7 17 -16z m1090 0 c8 -21 -13 -42 -28 -27 -13 13 -5
43 11 43 6 0 13 -7 17 -16z m-1127 -38 c0 -8 -5 -18 -11 -22 -14 -8 -33 11
-25 25 10 16 36 13 36 -3z m1165 -6 c0 -22 -29 -18 -33 3 -3 14 1 18 15 15 10
-2 18 -10 18 -18z m-1200 -31 c0 -7 -8 -15 -17 -17 -18 -3 -25 18 -11 32 10
10 28 1 28 -15z m1233 -2 c2 -10 -3 -17 -12 -17 -18 0 -29 16 -21 31 9 14 29
6 33 -14z m-1260 -34 c5 -17 -26 -29 -40 -15 -6 6 -7 15 -3 22 9 14 37 9 43
-7z m1300 0 c5 -17 -26 -29 -40 -15 -6 6 -7 15 -3 22 9 14 37 9 43 -7z m-1335
-29 c9 -10 -4 -34 -18 -34 -17 0 -28 17 -20 30 7 11 28 13 38 4z m1365 -11 c5
-18 -28 -29 -38 -12 -5 7 -6 17 -3 22 7 12 35 5 41 -10z m-1393 -43 c0 -8 -8
-16 -17 -18 -13 -2 -18 3 -18 18 0 15 5 20 18 18 9 -2 17 -10 17 -18z m1415 0
c0 -11 -6 -20 -14 -20 -18 0 -29 16 -21 30 11 18 35 11 35 -10z m-1442 -43 c2
-10 -3 -17 -12 -17 -18 0 -29 16 -21 31 9 14 29 6 33 -14z m1467 2 c0 -7 -8
-15 -17 -17 -18 -3 -25 18 -11 32 10 10 28 1 28 -15z m-1490 -29 c10 -16 -16
-43 -28 -31 -11 11 -2 41 12 41 5 0 13 -5 16 -10z m1512 -6 c9 -23 -11 -38
-26 -20 -13 16 -7 36 10 36 5 0 12 -7 16 -16z m-1532 -54 c0 -8 -8 -16 -17
-18 -13 -2 -18 3 -18 18 0 15 5 20 18 18 9 -2 17 -10 17 -18z m1555 0 c0 -21
-24 -28 -35 -10 -8 14 3 30 21 30 8 0 14 -9 14 -20z m-1570 -45 c0 -16 -27
-27 -36 -14 -3 5 -3 16 0 24 6 17 36 9 36 -10z m1587 -9 c-4 -9 -13 -13 -22
-10 -18 7 -20 31 -2 37 17 6 31 -9 24 -27z m-1609 -39 c2 -10 -3 -17 -12 -17
-18 0 -29 16 -21 31 9 14 29 6 33 -14z m1627 2 c0 -7 -8 -15 -17 -17 -18 -3
-25 18 -11 32 10 10 28 1 28 -15z m-1640 -49 c0 -22 -29 -18 -33 3 -3 14 1 18
15 15 10 -2 18 -10 18 -18z m1655 6 c0 -20 -19 -31 -32 -18 -6 6 -7 15 -4 21
10 16 36 13 36 -3z m-1662 -53 c-2 -10 -10 -18 -18 -18 -8 0 -16 8 -18 18 -2
12 3 17 18 17 15 0 20 -5 18 -17z m1670 0 c-2 -10 -10 -18 -18 -18 -8 0 -16 8
-18 18 -2 12 3 17 18 17 15 0 20 -5 18 -17z m-1678 -47 c0 -8 -5 -18 -11 -22
-14 -8 -33 11 -25 25 10 16 36 13 36 -3z m1685 -6 c0 -22 -29 -18 -33 3 -3 14
1 18 15 15 10 -2 18 -10 18 -18z m-1685 -43 c0 -7 -5 -18 -12 -25 -9 -9 -9
-12 0 -12 7 0 12 -7 12 -15 0 -8 -5 -15 -10 -15 -6 0 -5 -8 2 -20 11 -17 10
-22 -1 -29 -9 -6 -10 -11 -2 -15 18 -11 13 -38 -6 -34 -15 3 -18 16 -19 91 -1
79 1 87 17 87 11 0 19 -6 19 -13z m1686 -74 c-1 -75 -4 -88 -19 -91 -19 -4
-24 23 -6 34 8 4 7 9 -2 15 -11 7 -12 12 -1 29 7 12 8 20 2 20 -5 0 -10 7 -10
15 0 8 5 15 12 15 9 0 9 3 0 12 -18 18 -14 38 7 38 16 0 18 -8 17 -87z m-1678
-126 c2 -12 -3 -17 -17 -17 -12 0 -21 6 -21 13 0 31 32 34 38 4z m1670 0 c2
-12 -3 -17 -17 -17 -12 0 -21 6 -21 13 0 31 32 34 38 4z m-1663 -48 c0 -7 -8
-15 -17 -17 -18 -3 -25 18 -11 32 10 10 28 1 28 -15z m1653 -2 c2 -10 -3 -17
-12 -17 -18 0 -29 16 -21 31 9 14 29 6 33 -14z m-1638 -41 c0 -8 -5 -18 -11
-22 -14 -8 -33 11 -25 25 10 16 36 13 36 -3z m1625 -6 c0 -22 -29 -18 -33 3
-3 14 1 18 15 15 10 -2 18 -10 18 -18z m-1605 -45 c0 -16 -27 -27 -36 -14 -3
5 -3 16 0 24 6 17 36 9 36 -10z m1587 -9 c-4 -9 -13 -13 -22 -10 -18 7 -20 31
-2 37 17 6 31 -9 24 -27z m-1572 -36 c0 -8 -8 -16 -17 -18 -13 -2 -18 3 -18
18 0 15 5 20 18 18 9 -2 17 -10 17 -18z m1555 0 c0 -11 -6 -20 -14 -20 -18 0
-29 16 -21 30 11 18 35 11 35 -10z m-1538 -62 c-16 -16 -37 4 -28 28 6 16 8
16 23 1 13 -13 15 -19 5 -29z m1518 17 c0 -19 -20 -29 -32 -17 -8 8 -7 16 2
26 14 17 30 12 30 -9z m-1490 -39 c0 -20 -19 -31 -32 -18 -6 6 -7 15 -4 21 10
16 36 13 36 -3z m1465 -6 c0 -22 -29 -18 -33 3 -3 14 1 18 15 15 10 -2 18 -10
18 -18z m-1440 -40 c0 -8 -8 -16 -17 -18 -13 -2 -18 3 -18 18 0 15 5 20 18 18
9 -2 17 -10 17 -18z m1415 0 c0 -21 -24 -28 -35 -10 -8 14 3 30 21 30 8 0 14
-9 14 -20z m-1386 -35 c3 -9 -1 -18 -10 -22 -19 -7 -39 11 -30 26 10 16 33 13
40 -4z m1362 4 c9 -15 -11 -33 -30 -26 -9 4 -13 13 -10 22 7 17 30 20 40 4z
m-1328 -46 c5 -17 -26 -29 -40 -15 -6 6 -7 15 -3 22 9 14 37 9 43 -7z m1300 0
c5 -17 -26 -29 -40 -15 -6 6 -7 15 -3 22 9 14 37 9 43 -7z m-1273 -43 c0 -22
-29 -18 -33 3 -3 14 1 18 15 15 10 -2 18 -10 18 -18z m1235 6 c0 -8 -5 -18
-11 -22 -14 -8 -33 11 -25 25 10 16 36 13 36 -3z m-1202 -39 c2 -10 -3 -17
-12 -17 -18 0 -29 16 -21 31 9 14 29 6 33 -14z m1167 2 c0 -7 -8 -15 -17 -17
-18 -3 -25 18 -11 32 10 10 28 1 28 -15z m-1128 -25 c8 -21 -13 -42 -28 -27
-13 13 -5 43 11 43 6 0 13 -7 17 -16z m1090 0 c8 -21 -13 -42 -28 -27 -13 13
-5 43 11 43 6 0 13 -7 17 -16z m-1047 -39 c0 -19 -20 -29 -32 -17 -15 15 -2
43 17 36 8 -3 15 -12 15 -19z m1007 -9 c-4 -9 -11 -16 -17 -16 -17 0 -24 31
-9 41 18 11 34 -5 26 -25z m-969 -19 c2 -12 -3 -17 -17 -17 -12 0 -21 6 -21
13 0 31 32 34 38 4z m930 0 c2 -12 -3 -17 -17 -17 -12 0 -21 6 -21 13 0 31 32
34 38 4z m-888 -21 c0 -8 -5 -18 -11 -22 -14 -8 -33 11 -25 25 10 16 36 13 36
-3z m845 -6 c0 -22 -29 -18 -33 3 -3 14 1 18 15 15 10 -2 18 -10 18 -18z
m-806 -14 c9 -10 9 -16 1 -21 -17 -11 -40 3 -34 20 8 19 18 19 33 1z m764 -1
c7 -18 -9 -29 -30 -21 -12 5 -13 9 -3 21 16 19 26 19 33 0z m-715 -28 c2 -12
-3 -17 -17 -17 -12 0 -21 6 -21 13 0 31 32 34 38 4z m670 0 c2 -12 -3 -17 -17
-17 -12 0 -21 6 -21 13 0 31 32 34 38 4z m-625 -12 c7 -17 -8 -29 -28 -21 -17
6 -9 36 10 36 7 0 15 -7 18 -15z m580 0 c7 -17 -8 -29 -28 -21 -17 6 -9 36 10
36 7 0 15 -7 18 -15z m-533 -19 c0 -8 -5 -18 -11 -22 -14 -8 -33 11 -25 25 10
16 36 13 36 -3z m485 -6 c0 -22 -29 -18 -33 3 -3 14 1 18 15 15 10 -2 18 -10
18 -18z m-440 -11 c0 -7 -8 -15 -17 -17 -18 -3 -25 18 -11 32 10 10 28 1 28
-15z m393 -2 c2 -10 -3 -17 -12 -17 -18 0 -29 16 -21 31 9 14 29 6 33 -14z
m-343 -7 c0 -8 -8 -16 -17 -18 -13 -2 -18 3 -18 18 0 15 5 20 18 18 9 -2 17
-10 17 -18z m295 0 c0 -21 -24 -28 -35 -10 -8 14 3 30 21 30 8 0 14 -9 14 -20z
m-244 -1 c4 -8 9 -7 15 2 7 11 12 12 29 1 12 -7 20 -8 20 -2 0 5 7 10 15 10 8
0 15 -5 15 -12 0 -9 3 -9 12 0 18 18 38 14 38 -7 0 -16 -8 -18 -87 -17 -75 1
-88 4 -91 19 -4 19 23 24 34 6z m194 -3 c0 -8 -5 -18 -11 -22 -14 -8 -33 11
-25 25 10 16 36 13 36 -3z"/>
<path d="M952 1905 c-80 -18 -202 -70 -273 -118 -81 -54 -200 -183 -248 -268
-23 -41 -53 -110 -68 -154 -25 -74 -27 -93 -27 -240 0 -147 2 -166 27 -240 44
-132 99 -219 201 -321 101 -101 178 -149 315 -198 82 -29 93 -31 246 -31 153
0 164 2 246 31 137 49 214 97 315 198 102 102 157 189 201 321 25 74 27 93 27
240 0 147 -2 166 -27 240 -44 132 -99 219 -201 321 -102 102 -179 150 -315
197 -76 27 -102 31 -221 33 -91 3 -155 -1 -198 -11z m106 -7 c18 -18 15 -58
-4 -58 -11 0 -14 5 -10 16 5 12 1 14 -15 9 -12 -4 -24 -3 -28 3 -4 6 -12 4
-21 -6 -13 -14 -12 -15 3 -9 9 3 23 0 31 -8 11 -11 40 -15 111 -15 71 0 100 4
111 15 8 8 22 11 31 8 15 -6 16 -5 3 9 -9 10 -17 12 -21 6 -4 -6 -16 -7 -28
-3 -16 5 -20 3 -15 -9 4 -11 1 -16 -10 -16 -10 0 -16 9 -16 24 0 30 24 51 47
41 10 -5 21 -7 26 -7 11 3 90 -16 123 -29 l29 -11 -22 -18 c-22 -17 -22 -18
-3 -23 14 -4 18 -10 14 -22 -6 -15 -4 -15 15 -4 26 17 27 27 4 25 -10 0 -18 6
-18 14 0 20 43 26 51 6 3 -8 11 -13 18 -10 7 3 21 -3 32 -13 26 -24 47 -63 34
-63 -5 0 -9 -3 -8 -7 5 -14 -12 -13 -42 2 -17 9 -30 20 -30 26 0 6 3 8 8 6 4
-3 14 2 22 11 13 14 12 15 -3 9 -10 -4 -17 -2 -17 6 0 6 -7 1 -16 -12 -14 -20
-15 -25 -3 -32 8 -5 33 -20 57 -34 39 -24 42 -25 42 -7 0 25 24 45 47 40 13
-2 18 -13 18 -34 0 -44 75 -119 119 -119 21 0 32 -5 34 -18 5 -23 -15 -47 -40
-47 -17 0 -17 -3 8 -47 38 -66 39 -67 65 -49 13 9 18 16 12 16 -8 0 -10 7 -6
17 6 15 5 16 -9 3 -9 -8 -14 -18 -11 -22 2 -5 0 -8 -6 -8 -6 0 -17 13 -26 30
-16 32 -19 42 -9 38 3 -2 13 10 21 25 14 27 15 28 28 10 12 -15 11 -19 -3 -25
-12 -4 -13 -7 -3 -7 19 -1 53 -42 47 -57 -3 -7 2 -15 10 -18 19 -7 18 -45 -1
-52 -8 -4 -15 -13 -15 -21 0 -11 6 -8 19 8 l19 24 11 -29 c13 -33 32 -112 29
-123 0 -5 2 -16 7 -26 10 -23 -11 -47 -41 -47 -15 0 -24 6 -24 16 0 11 5 14
16 10 12 -5 14 -1 9 15 -4 12 -3 24 3 28 6 4 4 12 -6 21 -14 13 -15 12 -9 -3
3 -9 0 -23 -8 -31 -21 -21 -21 -201 0 -222 8 -8 11 -22 8 -31 -6 -15 -5 -16 9
-3 10 10 12 17 5 21 -5 4 -7 14 -4 23 4 10 1 16 -8 16 -8 0 -15 7 -15 15 0 20
44 20 60 0 7 -9 9 -22 5 -32 -5 -10 -7 -21 -7 -26 3 -11 -16 -90 -29 -123
l-11 -29 -19 24 c-13 16 -19 19 -19 8 0 -8 7 -17 15 -21 19 -7 20 -45 1 -52
-8 -3 -13 -11 -10 -18 6 -15 -28 -56 -47 -57 -10 0 -9 -3 3 -7 14 -6 15 -10 3
-25 -13 -18 -14 -17 -28 10 -8 15 -18 27 -21 26 -10 -5 -7 5 9 37 9 17 20 30
26 30 6 0 8 -3 6 -7 -3 -5 2 -15 11 -23 14 -13 15 -12 9 3 -4 10 -2 17 6 17 6
0 1 7 -12 16 -26 18 -27 17 -65 -49 -25 -44 -25 -47 -8 -47 25 0 45 -24 40
-47 -2 -13 -13 -18 -35 -18 -19 0 -39 -8 -50 -20 -18 -19 -18 -19 4 -1 16 13
26 15 39 8 15 -8 11 -16 -36 -62 -47 -48 -53 -52 -63 -35 -8 15 -5 23 19 43
20 16 22 20 7 13 -29 -15 -38 -30 -38 -66 0 -20 -6 -31 -18 -33 -23 -5 -47 15
-47 40 0 17 -3 17 -47 -8 -66 -38 -67 -39 -49 -65 9 -13 16 -18 16 -12 0 8 7
10 17 6 15 -6 16 -5 3 9 -8 9 -18 14 -22 11 -5 -2 -8 0 -8 6 0 6 13 17 30 26
30 15 47 16 43 3 -2 -5 2 -8 7 -8 13 0 -8 -39 -34 -63 -11 -10 -25 -16 -32
-13 -7 3 -15 -2 -18 -10 -7 -19 -45 -18 -52 1 -4 8 -13 15 -21 15 -11 0 -8 -6
8 -19 l24 -19 -29 -11 c-33 -13 -112 -32 -123 -29 -5 0 -16 -2 -26 -7 -23 -10
-47 11 -47 41 0 15 6 24 16 24 11 0 14 -5 10 -16 -5 -12 -1 -14 15 -9 12 4 24
3 28 -3 4 -6 12 -4 21 6 13 14 12 15 -3 9 -9 -3 -23 0 -31 8 -21 21 -201 21
-222 0 -8 -8 -22 -11 -31 -8 -15 6 -16 5 -3 -9 9 -10 17 -12 21 -6 4 6 16 7
28 3 16 -5 20 -3 15 9 -4 11 -1 16 10 16 10 0 16 -9 16 -24 0 -30 -24 -51 -47
-41 -10 5 -21 7 -26 7 -11 -3 -90 16 -123 29 l-29 11 24 19 c16 13 19 19 8 19
-8 0 -17 -7 -21 -15 -7 -19 -45 -20 -52 -1 -3 8 -11 13 -18 10 -7 -3 -21 3
-32 13 -26 24 -47 63 -34 63 5 0 9 4 7 9 -1 5 1 10 6 10 14 2 67 -29 67 -40 0
-6 -3 -8 -7 -6 -5 3 -15 -2 -23 -11 -13 -14 -12 -15 3 -9 10 4 17 2 17 -6 0
-6 7 -1 16 12 18 26 17 27 -48 65 -45 25 -48 25 -48 8 0 -25 -24 -45 -47 -40
-13 2 -18 13 -18 35 0 19 -8 39 -20 50 -19 18 -19 18 -1 -4 13 -16 15 -26 8
-39 -8 -15 -16 -11 -62 36 -48 47 -52 53 -35 63 15 8 23 5 43 -19 16 -20 20
-22 13 -7 -15 29 -30 38 -66 38 -20 0 -31 6 -33 18 -5 23 15 47 40 47 17 0 17
3 -8 48 -38 65 -39 66 -65 48 -13 -9 -18 -16 -12 -16 8 0 10 -7 6 -17 -6 -15
-5 -16 9 -3 9 8 14 18 11 23 -2 4 0 7 6 7 6 0 17 -13 26 -30 16 -32 19 -42 9
-37 -3 1 -13 -11 -21 -26 -14 -27 -15 -28 -28 -10 -12 15 -11 19 3 25 12 4 13
7 3 7 -19 1 -53 42 -47 57 3 7 -2 15 -10 18 -20 8 -14 51 6 51 8 0 14 -8 14
-17 -2 -24 8 -23 25 3 11 19 11 21 -4 15 -12 -4 -18 0 -22 14 -5 19 -6 19 -23
-3 l-18 -22 -11 29 c-13 33 -32 112 -29 123 0 5 -2 16 -7 26 -4 10 -2 23 5 32
16 20 60 20 60 0 0 -8 -7 -15 -15 -15 -9 0 -12 -6 -8 -16 3 -9 1 -19 -4 -23
-7 -4 -6 -11 4 -20 12 -11 14 -11 12 0 -3 27 1 40 11 34 17 -11 13 204 -5 221
-8 8 -11 22 -8 31 6 15 5 16 -9 3 -10 -9 -12 -17 -6 -21 6 -4 7 -16 3 -28 -5
-16 -3 -20 9 -15 11 4 16 1 16 -10 0 -10 -9 -16 -24 -16 -30 0 -51 24 -41 47
5 10 7 21 7 26 -3 11 16 90 29 123 l11 29 19 -24 c13 -16 19 -19 19 -8 0 8 -7
17 -15 21 -19 7 -20 45 -1 52 8 3 13 11 10 18 -6 15 28 56 47 57 10 0 9 3 -3
7 -14 6 -15 10 -3 25 13 18 14 17 27 -7 7 -14 16 -25 21 -25 10 -1 9 -8 -8
-41 -9 -17 -20 -30 -26 -30 -6 0 -8 3 -6 8 3 4 -2 14 -11 22 -14 13 -15 12 -9
-3 4 -10 2 -17 -6 -17 -6 0 -1 -7 12 -16 26 -18 27 -17 65 49 25 44 25 47 8
47 -25 0 -45 24 -40 47 2 13 13 18 35 18 19 0 39 8 50 20 18 19 18 19 -4 1
-16 -13 -26 -15 -39 -8 -15 8 -11 16 36 62 47 48 53 52 63 35 8 -15 5 -23 -19
-43 -20 -16 -22 -20 -7 -13 29 15 38 30 38 66 0 20 6 31 18 33 23 5 47 -15 47
-40 0 -17 3 -17 48 8 65 38 66 39 48 65 -9 13 -16 18 -16 12 0 -8 -7 -10 -17
-6 -15 6 -16 5 -3 -9 8 -9 18 -14 23 -11 4 2 7 0 7 -6 0 -6 -13 -17 -30 -26
-30 -15 -47 -16 -43 -2 2 4 -2 7 -7 7 -13 0 8 39 34 63 11 10 25 16 32 13 7
-3 15 2 18 10 8 20 51 14 51 -6 0 -8 -8 -14 -17 -14 -24 2 -23 -8 3 -25 19
-11 21 -11 15 4 -4 12 0 18 14 22 19 5 19 6 -3 23 l-22 18 29 11 c44 17 116
32 126 26 5 -3 11 -1 15 5 8 14 28 13 43 -2z m41 -5 c-13 -17 -12 -17 4 -4 16
13 22 13 40 1 20 -12 21 -12 8 3 -12 15 -10 17 13 17 l27 0 -22 -32 c-13 -17
-18 -28 -11 -24 7 4 12 2 12 -3 0 -6 -20 -11 -45 -11 -25 0 -45 5 -45 11 0 5
5 7 12 3 7 -4 2 7 -11 24 l-22 32 27 0 c24 0 25 -2 13 -17z m-387 -125 c-6 -6
-15 -7 -22 -3 -8 5 -6 11 7 20 20 15 32 0 15 -17z m849 -1 c-12 -12 -31 0 -31
19 0 12 3 12 20 2 11 -7 16 -16 11 -21z m143 -110 c21 -26 23 -33 10 -40 -20
-11 -107 75 -98 97 5 14 10 13 35 -4 15 -12 39 -35 53 -53z m-1308 -499 c-4 7
-2 12 3 12 6 0 11 -20 11 -45 0 -25 -5 -45 -11 -45 -5 0 -7 5 -3 12 4 7 -7 2
-24 -11 l-32 -22 0 27 c0 23 2 25 17 13 15 -13 15 -12 3 8 -12 18 -12 24 1 40
13 16 13 17 -3 4 -16 -12 -18 -11 -18 13 l0 27 32 -22 c17 -13 28 -18 24 -11z
m1514 6 c0 -24 -2 -25 -17 -13 -17 13 -17 12 -4 -4 13 -16 13 -22 1 -40 -12
-20 -12 -21 3 -8 15 12 17 10 17 -13 l0 -27 -32 22 c-17 13 -28 18 -24 11 4
-7 2 -12 -3 -12 -6 0 -11 20 -11 45 0 25 5 45 11 45 5 0 7 -6 3 -12 -5 -7 5
-3 21 9 37 28 35 28 35 -3z m-1192 -698 c3 -15 1 -16 -17 -5 -11 7 -17 17 -14
22 8 13 28 2 31 -17z m846 16 c2 -4 -4 -13 -15 -20 -15 -10 -19 -10 -19 1 0
24 23 36 34 19z m-394 -83 c0 -5 -5 -7 -12 -3 -7 4 -2 -7 11 -24 l22 -32 -27
0 c-23 0 -25 2 -13 17 13 15 12 15 -8 3 -18 -12 -24 -12 -40 1 -16 13 -17 13
-4 -3 12 -16 11 -18 -13 -18 l-27 0 22 32 c13 17 18 28 11 24 -7 -4 -12 -2
-12 3 0 6 20 11 45 11 25 0 45 -5 45 -11z"/>
<path d="M910 1840 c-9 -6 -10 -10 -3 -10 6 0 15 5 18 10 8 12 4 12 -15 0z"/>
<path d="M1327 1839 c7 -7 15 -10 18 -7 3 3 -2 9 -12 12 -14 6 -15 5 -6 -5z"/>
<path d="M988 1807 c-4 -20 -2 -25 5 -18 15 15 27 14 27 -4 0 -8 -7 -15 -15
-15 -9 0 -12 -6 -8 -17 4 -11 8 -12 11 -5 2 8 38 12 117 12 79 0 115 -4 117
-12 3 -7 7 -6 11 5 4 11 1 17 -8 17 -8 0 -15 7 -15 15 0 18 12 19 27 4 7 -7 9
-2 5 18 -3 15 -7 22 -9 16 -4 -10 -38 -13 -128 -13 -90 0 -124 3 -128 13 -2 6
-6 -1 -9 -16z m72 -22 c0 -8 -7 -15 -15 -15 -8 0 -15 7 -15 15 0 8 7 15 15 15
8 0 15 -7 15 -15z m38 4 c-2 -6 -8 -10 -13 -10 -5 0 -11 4 -13 10 -2 6 4 11
13 11 9 0 15 -5 13 -11z m40 0 c-2 -6 -8 -10 -13 -10 -5 0 -11 4 -13 10 -2 6
4 11 13 11 9 0 15 -5 13 -11z m40 0 c-2 -6 -8 -10 -13 -10 -5 0 -11 4 -13 10
-2 6 4 11 13 11 9 0 15 -5 13 -11z m42 -4 c0 -8 -7 -15 -15 -15 -8 0 -15 7
-15 15 0 8 7 15 15 15 8 0 15 -7 15 -15z"/>
<path d="M879 1791 c11 -7 6 -13 -20 -26 -19 -10 -67 -38 -107 -62 -41 -25
-76 -42 -80 -39 -3 4 2 12 10 19 11 8 13 18 8 32 -5 11 -9 14 -11 8 -3 -25 -4
-28 -11 -38 -11 -17 4 -65 23 -76 13 -6 19 -6 19 0 0 11 181 121 199 121 18 0
13 35 -7 53 -10 10 -23 17 -28 17 -5 0 -3 -4 5 -9z m31 -37 c0 -10 -6 -14 -14
-11 -8 3 -17 -1 -20 -9 -7 -17 -26 -19 -26 -1 0 7 10 17 23 23 32 16 37 16 37
-2z m-70 -40 c0 -17 -22 -14 -28 4 -2 7 3 12 12 12 9 0 16 -7 16 -16z m-32
-15 c-2 -6 -8 -10 -13 -10 -5 0 -11 4 -13 10 -2 6 4 11 13 11 9 0 15 -5 13
-11z m-37 -24 c-1 -15 -24 -12 -29 3 -3 9 2 13 12 10 10 -1 17 -7 17 -13z
m-33 -16 c-2 -6 -8 -10 -13 -10 -5 0 -11 4 -13 10 -2 6 4 11 13 11 9 0 15 -5
13 -11z m-36 -24 c0 -5 -5 -11 -11 -13 -6 -2 -11 4 -11 13 0 9 5 15 11 13 6
-2 11 -8 11 -13z"/>
<path d="M1347 1782 c-18 -20 -23 -52 -7 -52 15 0 184 -99 196 -115 9 -12 14
-12 26 -2 18 14 31 61 20 71 -4 4 -8 12 -8 17 -4 30 -6 32 -14 14 -5 -14 -3
-24 8 -32 8 -7 13 -15 10 -18 -2 -3 -53 23 -112 57 -73 42 -103 64 -94 69 8 5
8 9 2 9 -6 0 -18 -8 -27 -18z m36 -28 c9 -4 17 -13 17 -20 0 -18 -19 -18 -26
0 -3 8 -12 12 -20 9 -9 -3 -14 1 -14 12 0 10 5 14 13 11 6 -3 20 -9 30 -12z
m55 -36 c-6 -18 -28 -21 -28 -4 0 9 7 16 16 16 9 0 14 -5 12 -12z m30 -19 c-2
-6 -8 -10 -13 -10 -5 0 -11 4 -13 10 -2 6 4 11 13 11 9 0 15 -5 13 -11z m42
-18 c0 -14 -18 -23 -30 -16 -6 4 -8 11 -5 16 8 12 35 12 35 0z m28 -22 c-2 -6
-8 -10 -13 -10 -5 0 -11 4 -13 10 -2 6 4 11 13 11 9 0 15 -5 13 -11z m32 -25
c0 -9 -5 -14 -12 -12 -18 6 -21 28 -4 28 9 0 16 -7 16 -16z"/>
<path d="M1020 1732 c0 -4 5 -14 11 -22 9 -13 10 -12 5 2 -4 15 1 17 37 15
l42 -2 3 -72 c2 -46 -2 -81 -10 -95 -12 -21 -14 -13 -19 67 l-5 90 -2 -105 -2
-105 -20 25 c-11 14 -20 32 -20 40 0 12 -2 13 -9 1 -7 -10 -10 -10 -16 -1 -10
16 -34 -25 -35 -60 -1 -24 -1 -25 -16 -5 -8 11 -33 53 -56 93 -32 58 -38 76
-28 85 9 9 14 9 17 1 2 -6 11 -20 19 -30 14 -18 14 -18 4 5 -7 12 -10 31 -7
41 3 13 -14 7 -74 -26 -127 -70 -119 -62 -90 -93 15 -15 32 -36 39 -46 7 -11
3 -1 -9 23 -13 23 -27 42 -33 42 -12 0 14 20 26 20 8 0 38 -45 87 -132 l32
-57 -30 12 c-17 6 -31 16 -31 22 0 6 -7 20 -15 31 -13 17 -13 16 -2 -14 7 -21
24 -39 44 -49 18 -8 33 -22 33 -30 0 -8 -5 -11 -10 -8 -6 4 -9 1 -8 -7 2 -7
-3 -12 -10 -10 -8 1 -11 -2 -7 -8 3 -5 0 -10 -8 -10 -8 0 -22 15 -30 33 -10
20 -28 37 -49 44 -30 11 -31 11 -14 -2 11 -8 25 -15 31 -15 6 0 16 -14 22 -31
l12 -30 -57 32 c-87 49 -132 79 -132 87 0 12 20 38 20 26 0 -6 19 -20 43 -33
23 -12 33 -16 22 -9 -10 7 -31 24 -46 39 -31 29 -23 37 -93 -90 -33 -60 -39
-77 -26 -74 10 3 29 0 41 -7 23 -10 23 -10 5 4 -10 8 -24 17 -30 19 -8 3 -8 8
1 17 9 10 27 3 87 -30 42 -23 89 -53 105 -66 27 -22 28 -27 18 -59 -9 -31 -37
-50 -37 -25 0 6 -7 10 -15 10 -22 0 -40 40 -24 52 11 7 9 8 -4 4 -10 -3 -21
-6 -24 -6 -3 0 1 -7 8 -16 12 -15 5 -16 -78 -13 l-92 4 0 -100 0 -100 92 4
c80 3 90 1 79 -12 -10 -12 -9 -16 4 -21 23 -9 31 -7 15 3 -17 11 2 51 24 51 8
0 15 5 15 10 0 24 29 7 35 -20 9 -42 8 -45 -21 -47 -34 -3 -44 -13 -13 -13 24
-1 24 -1 4 -16 -11 -8 -53 -33 -93 -56 -58 -32 -76 -38 -85 -28 -9 9 -9 14 -1
17 6 2 20 11 30 19 18 14 18 14 -5 4 -12 -7 -31 -10 -41 -7 -13 3 -7 -14 26
-74 70 -127 62 -119 93 -90 15 15 36 32 46 39 11 7 1 3 -22 -9 -24 -13 -43
-27 -43 -33 0 -12 -20 14 -20 26 0 8 45 38 132 87 l57 32 -12 -30 c-6 -17 -16
-31 -22 -31 -6 0 -20 -7 -31 -15 -17 -13 -16 -13 14 -2 21 7 39 24 49 44 8 18
22 33 30 33 8 0 11 -5 8 -10 -4 -6 -1 -9 7 -8 7 2 12 -3 10 -10 -1 -8 2 -11 8
-7 5 3 10 0 10 -8 0 -8 -15 -22 -33 -30 -20 -10 -37 -28 -44 -49 -11 -30 -11
-31 2 -14 8 11 15 25 15 31 0 6 14 16 31 22 l30 12 -32 -57 c-49 -87 -79 -132
-87 -132 -12 0 -38 20 -26 20 6 0 20 19 33 43 12 23 16 33 9 22 -7 -10 -24
-31 -39 -46 -29 -31 -37 -23 90 -93 60 -33 77 -39 74 -26 -3 10 0 29 7 41 10
23 10 23 -4 5 -8 -10 -17 -24 -19 -30 -3 -8 -8 -8 -17 1 -10 9 -4 27 28 85 23
40 48 82 56 93 15 20 15 20 16 -4 0 -31 10 -21 13 13 2 29 5 30 47 21 27 -6
44 -35 20 -35 -5 0 -10 -6 -10 -13 0 -7 -10 -18 -21 -26 -18 -11 -23 -11 -30
1 -5 7 -9 9 -9 3 0 -5 4 -16 9 -24 6 -10 10 -10 16 -1 6 9 10 9 16 -1 7 -12 9
-11 9 1 0 8 9 26 20 40 l20 25 2 -105 2 -105 5 90 c5 80 7 88 19 67 8 -14 12
-49 10 -95 l-3 -72 -42 -2 c-36 -2 -41 0 -37 15 5 14 4 15 -5 2 -6 -8 -11 -18
-11 -22 0 -4 47 -7 105 -7 58 0 105 3 105 7 0 4 -5 14 -11 22 -9 13 -10 12 -5
-2 4 -15 -1 -17 -37 -15 l-42 2 -3 72 c-2 46 2 81 10 95 12 21 14 13 19 -67
l5 -90 2 105 2 105 20 -25 c11 -14 20 -32 20 -40 0 -12 2 -13 9 -1 6 10 10 10
16 1 6 -9 10 -9 16 1 5 8 9 19 9 24 0 6 -4 4 -9 -4 -11 -17 -51 2 -51 24 0 8
-4 15 -10 15 -24 0 -7 29 20 35 16 4 33 7 37 8 4 1 9 -11 10 -27 3 -36 13 -48
13 -15 1 24 1 24 16 4 8 -11 33 -53 56 -93 32 -58 38 -76 28 -85 -9 -9 -14 -9
-17 -1 -2 6 -11 20 -19 30 -14 18 -14 18 -4 -5 7 -12 10 -31 7 -41 -4 -16 37
3 158 75 l31 18 -26 26 c-14 15 -31 36 -38 46 -7 11 -3 1 9 -22 13 -24 27 -43
33 -43 12 0 -14 -20 -26 -20 -8 0 -38 45 -87 132 l-32 57 30 -12 c17 -6 31
-16 31 -22 0 -6 7 -20 15 -31 13 -17 13 -16 2 14 -7 21 -24 39 -44 49 -18 8
-33 22 -33 30 0 8 5 11 10 8 6 -4 9 -1 8 7 -2 7 3 12 10 10 8 -1 11 2 7 8 -3
5 0 10 9 10 8 0 20 -13 27 -30 10 -20 33 -39 77 -62 35 -17 71 -42 81 -54 l17
-22 19 32 c72 122 91 163 75 159 -10 -3 -29 0 -41 7 -23 10 -23 10 -5 -4 10
-8 24 -17 30 -19 8 -3 8 -8 -1 -17 -9 -10 -27 -4 -85 28 -40 23 -82 48 -93 56
-20 15 -20 15 2 16 12 0 33 5 47 12 21 9 24 14 14 26 -11 12 0 14 79 11 l92
-4 0 100 0 100 -92 -4 c-80 -3 -90 -1 -79 12 10 12 9 16 -4 21 -23 9 -31 7
-16 -3 12 -7 12 -12 1 -30 -8 -11 -19 -21 -26 -21 -7 0 -13 -4 -13 -10 0 -24
-29 -7 -35 20 -9 42 -8 45 21 47 34 3 44 13 13 13 -24 1 -24 1 -4 16 11 8 53
33 93 56 58 32 76 38 85 28 9 -9 9 -14 1 -17 -6 -2 -20 -11 -30 -19 -18 -14
-18 -14 5 -4 12 7 31 10 41 7 13 -3 7 14 -26 74 -71 128 -65 121 -85 95 -10
-12 -46 -37 -81 -54 -44 -23 -67 -42 -77 -62 -7 -17 -19 -30 -27 -30 -9 0 -12
5 -9 10 4 6 1 9 -7 8 -7 -2 -12 3 -10 10 1 8 -2 11 -8 7 -5 -3 -10 0 -10 9 0
8 13 20 30 27 20 10 39 33 62 77 17 35 42 71 54 81 l22 17 -32 19 c-122 72
-163 91 -159 75 3 -10 0 -29 -7 -41 -10 -23 -10 -23 4 -5 8 10 17 24 19 30 3
8 8 8 17 -1 10 -9 4 -27 -28 -85 -23 -40 -48 -82 -56 -93 -15 -20 -15 -20 -16
4 0 33 -10 21 -13 -15 -1 -16 -6 -28 -10 -27 -4 1 -21 4 -37 8 -27 6 -44 35
-20 35 6 0 10 6 10 13 0 7 10 18 21 26 18 11 23 11 30 -1 5 -7 9 -8 9 -3 0 6
-4 16 -9 24 -6 10 -10 10 -16 1 -6 -9 -10 -9 -16 1 -7 12 -9 11 -9 -1 0 -8 -9
-26 -20 -40 l-20 -25 -2 105 -2 105 -5 -90 c-5 -80 -7 -88 -19 -67 -8 14 -12
49 -10 95 l3 72 42 2 c36 2 41 0 37 -15 -5 -14 -4 -15 5 -2 6 8 11 18 11 22 0
4 -47 7 -105 7 -58 0 -105 -3 -105 -7z m-116 -144 c25 -45 44 -83 42 -86 -20
-19 -121 124 -109 155 9 24 20 13 67 -69z m509 69 c11 -30 -90 -174 -109 -155
-6 6 87 168 96 168 4 0 10 -6 13 -13z m-552 -85 c25 -43 35 -70 31 -88 -4 -23
-9 -17 -50 53 -25 43 -49 80 -54 81 -4 2 -5 8 -2 13 13 22 40 1 75 -59z m617
51 c27 -17 28 -19 12 -36 -9 -9 -30 -44 -46 -76 -20 -39 -38 -61 -56 -68 l-28
-11 16 31 c9 16 34 59 55 94 21 34 35 63 31 63 -4 0 -27 -36 -52 -80 -38 -68
-46 -77 -51 -58 -6 24 7 55 48 121 27 42 32 44 71 20z m-447 -73 c10 -6 19
-17 19 -25 0 -8 5 -15 10 -15 6 0 10 -6 10 -14 0 -12 -42 -29 -67 -27 -15 1
-12 91 3 91 3 0 14 -5 25 -10z m125 -37 c-3 -7 -1 -13 4 -13 6 0 10 -4 10 -10
0 -5 -20 -10 -45 -10 -25 0 -45 5 -45 10 0 6 5 10 11 10 5 0 7 5 4 11 -4 5 1
19 11 30 16 18 18 18 36 2 10 -9 16 -23 14 -30z m478 -81 c-17 -26 -128 -80
-152 -73 -19 5 -10 13 58 51 44 25 80 48 80 52 0 4 -29 -10 -63 -31 -35 -21
-78 -46 -94 -55 l-31 -16 11 28 c7 18 29 36 68 56 32 16 67 37 76 46 17 16 19
15 37 -14 12 -19 15 -35 10 -44z m-685 49 c11 -11 22 -17 25 -13 3 3 6 1 6 -5
0 -12 -61 -54 -70 -48 -3 2 -7 22 -8 44 -3 47 14 55 47 22z m399 -22 c-1 -22
-5 -42 -8 -44 -9 -6 -70 36 -70 48 0 6 3 8 6 5 3 -4 14 2 25 13 33 33 50 25
47 -22z m-635 -51 c70 -40 76 -46 53 -50 -24 -5 -137 49 -152 73 -8 14 5 46
14 33 4 -6 42 -31 85 -56z m492 47 c128 -33 219 -127 251 -257 46 -188 -77
-369 -279 -409 -117 -24 -263 40 -332 144 -32 49 -65 146 -65 192 0 46 33 143
65 192 42 63 118 116 195 137 71 19 94 19 165 1z m-468 -123 c9 -12 14 -25 11
-27 -4 -5 -152 75 -166 90 -4 3 0 10 8 15 18 11 126 -45 147 -78z m933 68 c0
-9 -162 -102 -168 -96 -11 12 25 49 80 80 55 31 88 37 88 16z m-835 -60 c6 -9
-36 -70 -48 -70 -6 0 -8 3 -4 6 3 3 -3 14 -14 25 -33 33 -25 50 22 47 22 -1
42 -5 44 -8z m665 -5 c0 -8 -9 -24 -19 -34 -11 -11 -17 -22 -13 -25 3 -3 1 -6
-5 -6 -12 0 -54 61 -48 70 2 3 22 7 44 8 31 2 41 -1 41 -13z m-780 -145 l25
-20 -105 -2 -105 -2 90 -5 c80 -5 88 -7 67 -19 -14 -8 -49 -12 -95 -10 l-72 3
-2 40 -3 40 88 -3 c67 -3 93 -8 112 -22z m1007 -12 l-2 -43 -72 -3 c-46 -2
-81 2 -95 10 -21 12 -13 14 67 19 l90 5 -105 2 -105 2 25 20 c19 15 45 20 110
23 47 1 86 4 87 5 2 1 2 -17 0 -40z m-957 -53 c0 -25 -4 -45 -10 -45 -5 0 -10
5 -10 11 0 5 -5 7 -11 4 -5 -4 -19 1 -30 11 -18 16 -18 18 -2 36 9 10 23 16
30 14 7 -3 13 -1 13 4 0 6 5 10 10 10 6 0 10 -20 10 -45z m730 34 c0 -5 5 -7
11 -4 5 4 19 -1 30 -11 18 -16 18 -18 2 -36 -9 -10 -23 -16 -30 -14 -7 3 -13
1 -13 -4 0 -6 -4 -10 -10 -10 -5 0 -10 20 -10 45 0 25 5 45 10 45 6 0 10 -5
10 -11z m-807 -51 c19 -11 11 -14 -68 -19 l-90 -5 105 -2 105 -2 -25 -20 c-19
-14 -45 -19 -112 -22 l-87 -3 1 35 c0 19 3 38 5 43 7 12 143 8 166 -5z m1034
-33 l3 -40 -87 3 c-56 2 -94 9 -110 19 -14 10 -23 11 -23 4 0 -6 7 -11 15 -11
22 0 41 -40 24 -51 -16 -10 -85 -7 -82 4 1 4 4 20 8 36 8 36 23 40 145 43 l95
2 -90 5 c-77 5 -87 8 -70 18 12 8 49 12 95 10 l75 -2 2 -40z m-909 -127 c11
-18 19 -35 17 -38 -2 -3 -22 -7 -44 -8 -47 -3 -55 14 -22 47 11 11 17 22 14
25 -4 3 -2 6 4 6 6 0 20 -14 31 -32z m650 26 c-4 -3 2 -14 13 -25 33 -33 25
-50 -22 -47 -22 1 -42 5 -44 8 -6 9 36 70 48 70 6 0 8 -3 5 -6z m-718 -33 c0
-32 -134 -117 -160 -101 -18 11 -16 13 72 65 78 46 88 50 88 36z m843 -39 c76
-43 89 -56 65 -65 -28 -10 -158 77 -158 105 0 12 -3 13 93 -40z m-880 -60
c-43 -25 -81 -49 -84 -55 -9 -13 -22 11 -16 28 10 24 126 82 153 77 23 -4 17
-10 -53 -50z m916 -18 c13 -11 12 -18 -4 -47 -18 -33 -19 -34 -37 -17 -10 9
-45 30 -77 46 -40 20 -61 38 -69 57 -5 15 -7 25 -3 22 4 -2 21 0 37 4 23 7 40
3 84 -21 30 -17 61 -36 69 -44z m-650 -36 c2 -7 0 -10 -3 -6 -4 3 -16 -2 -27
-13 -32 -32 -51 -25 -48 19 1 20 4 41 7 45 5 10 65 -28 71 -45z m369 3 c3 -47
-14 -55 -47 -22 -11 11 -22 17 -25 14 -3 -4 -6 -2 -6 4 0 12 61 54 70 48 3 -2
7 -22 8 -44z m-480 -101 c-38 -69 -52 -84 -73 -76 -14 5 -14 8 -3 19 7 8 31
46 53 85 34 62 41 69 46 50 4 -15 -4 -41 -23 -78z m595 -61 c13 -9 -11 -22
-28 -16 -24 10 -82 126 -77 153 4 23 10 17 50 -53 25 -43 49 -81 55 -84z
m-293 131 c0 -5 -4 -10 -10 -10 -5 0 -7 -6 -4 -13 2 -7 -4 -21 -14 -30 -18
-16 -20 -16 -36 2 -10 11 -15 25 -11 30 3 6 1 11 -4 11 -6 0 -11 5 -11 10 0 6
20 10 45 10 25 0 45 -4 45 -10z m-222 -17 c-17 -40 -92 -163 -98 -163 -20 0
-16 29 12 80 29 54 61 90 80 90 5 0 8 -3 6 -7z m390 -10 c11 -10 34 -43 50
-73 28 -51 32 -80 12 -80 -6 0 -81 123 -98 163 -6 13 16 7 36 -10z"/>
<path d="M1049 1437 c-148 -42 -243 -163 -243 -313 -1 -176 142 -318 319 -318
126 0 230 66 287 182 27 55 32 76 32 136 0 126 -66 231 -177 286 -73 35 -153
45 -218 27z m201 -28 c61 -27 134 -101 161 -163 16 -36 22 -71 22 -121 0 -88
-26 -152 -90 -217 -62 -63 -128 -91 -218 -91 -89 -1 -155 27 -218 91 -64 65
-90 129 -90 217 0 224 227 373 433 284z"/>
<path d="M1107 1395 c-10 -7 -17 -26 -17 -43 0 -18 -6 -32 -16 -36 -9 -4 -18
-5 -19 -4 -1 2 -7 12 -14 23 -10 18 -11 18 -5 -6 4 -19 1 -28 -12 -33 -22 -8
-44 11 -44 38 0 12 -3 16 -8 10 -4 -7 -16 -13 -27 -15 -11 -3 -21 -13 -24 -24
-2 -11 -8 -23 -15 -27 -6 -5 -2 -8 10 -8 27 0 46 -22 38 -44 -5 -13 -14 -16
-33 -12 -25 5 -26 5 -3 -6 13 -7 21 -17 17 -26 -3 -7 -5 -29 -5 -48 0 -31 -3
-34 -29 -34 -59 0 -60 42 -1 53 23 4 22 4 -5 6 -19 1 -34 -5 -41 -17 -17 -26
5 -52 44 -52 18 0 32 -6 36 -16 4 -9 5 -18 4 -19 -2 -1 -12 -7 -23 -14 -18
-10 -18 -11 6 -5 19 4 28 1 33 -12 8 -22 -11 -44 -38 -44 -12 0 -16 -3 -10 -8
7 -4 13 -16 15 -27 3 -11 13 -21 24 -24 11 -2 23 -8 27 -15 5 -6 8 -2 8 10 0
27 22 46 44 38 13 -5 16 -14 12 -33 -5 -25 -5 -26 6 -3 7 13 17 21 26 17 7 -3
29 -5 48 -5 31 0 34 -3 34 -29 0 -59 -42 -60 -53 -1 -4 23 -4 23 -6 -4 0 -17
6 -34 16 -41 26 -19 53 2 53 41 0 20 6 34 16 38 9 4 18 5 19 4 1 -2 7 -12 14
-23 10 -18 11 -18 5 6 -4 19 -1 28 12 33 22 8 44 -11 44 -38 0 -12 3 -16 8
-10 4 7 16 13 27 15 11 3 21 13 24 24 2 11 8 23 15 27 6 5 2 8 -10 8 -27 0
-46 22 -38 44 5 13 14 16 33 12 25 -5 26 -5 3 6 -13 7 -21 17 -17 26 3 7 5 29
5 48 0 31 3 34 29 34 59 0 60 -42 1 -53 -23 -4 -22 -4 5 -6 19 -1 34 5 41 17
17 26 -5 52 -44 52 -18 0 -32 6 -36 16 -4 9 -5 18 -4 19 2 1 12 7 23 14 18 10
18 11 -6 5 -19 -4 -28 -1 -33 12 -8 22 11 44 38 44 12 0 16 3 10 8 -7 4 -13
16 -15 27 -3 11 -13 21 -24 24 -11 2 -23 8 -27 15 -5 6 -8 2 -8 -10 0 -27 -22
-46 -44 -38 -13 5 -16 14 -12 33 5 25 5 26 -6 3 -7 -13 -17 -21 -26 -17 -7 3
-29 5 -48 5 -31 0 -34 3 -34 29 0 59 42 60 53 1 4 -23 4 -22 6 5 1 38 -26 59
-52 40z m-125 -92 c17 -15 17 -17 1 -35 -15 -17 -17 -17 -35 -2 -23 21 -24 54
-1 54 9 0 25 -7 35 -17z m338 -1 c0 -11 -9 -27 -20 -37 -20 -18 -21 -18 -34 1
-13 16 -12 21 1 37 21 23 53 22 53 -1z m-117 -8 c69 -35 107 -95 107 -169 0
-104 -81 -185 -185 -185 -104 0 -185 81 -185 185 0 48 25 109 56 136 57 49
146 63 207 33z m-204 -321 c10 -6 -34 -43 -51 -43 -23 0 -24 27 -1 52 13 14
19 16 32 6 9 -7 18 -14 20 -15z m321 -25 c0 -24 -32 -23 -55 2 -18 20 -18 21
1 34 16 13 21 12 37 -1 9 -9 17 -24 17 -35z"/>
<path d="M1055 1286 c-115 -51 -140 -202 -49 -288 89 -83 232 -53 280 59 61
142 -90 292 -231 229z m82 -2 c-3 -3 -12 -4 -19 -1 -8 3 -5 6 6 6 11 1 17 -2
13 -5z m-72 -14 c-3 -5 -11 -10 -16 -10 -6 0 -7 5 -4 10 3 6 11 10 16 10 6 0
7 -4 4 -10z m140 0 c3 -5 2 -10 -4 -10 -5 0 -13 5 -16 10 -3 6 -2 10 4 10 5 0
13 -4 16 -10z m-1 -25 c20 -13 36 -20 36 -14 0 6 5 7 12 3 9 -6 9 -9 0 -12 -9
-3 -8 -11 3 -32 19 -37 19 -93 0 -130 -10 -19 -11 -30 -5 -30 6 0 8 -5 4 -12
-6 -9 -9 -9 -11 -1 -3 7 -18 3 -40 -13 -48 -32 -108 -32 -157 1 -20 13 -36 20
-36 14 0 -6 -5 -7 -12 -3 -9 6 -9 9 0 12 9 3 8 11 -3 32 -8 16 -15 45 -15 65
0 20 7 49 15 65 11 21 12 29 3 32 -9 3 -9 6 0 12 7 4 12 3 12 -3 0 -6 16 1 36
14 25 17 51 25 79 25 28 0 54 -8 79 -25z m-139 -265 c3 -5 2 -10 -4 -10 -5 0
-13 5 -16 10 -3 6 -2 10 4 10 5 0 13 -4 16 -10z m140 0 c-3 -5 -11 -10 -16
-10 -6 0 -7 5 -4 10 3 6 11 10 16 10 6 0 7 -4 4 -10z m-68 -16 c-3 -3 -12 -4
-19 -1 -8 3 -5 6 6 6 11 1 17 -2 13 -5z"/>
<path d="M1097 1254 c-15 -16 -5 -24 29 -24 24 0 34 4 32 13 -5 13 -50 22 -61
11z"/>
<path d="M1071 1234 c0 -11 3 -14 6 -6 3 7 2 16 -1 19 -3 4 -6 -2 -5 -13z"/>
<path d="M1171 1234 c0 -11 3 -14 6 -6 3 7 2 16 -1 19 -3 4 -6 -2 -5 -13z"/>
<path d="M1017 1198 c-11 -17 -13 -34 -6 -68 l8 -45 -3 47 c-2 26 0 45 5 42 5
-3 6 3 2 12 -4 11 -3 15 5 10 6 -3 13 -2 16 3 4 5 2 12 -3 16 -6 3 -17 -5 -24
-17z"/>
<path d="M1081 1206 c-13 -7 -30 -24 -37 -37 -51 -92 72 -183 146 -109 43 43
32 118 -21 145 -34 18 -57 18 -88 1z m100 -25 c17 -18 29 -40 29 -56 0 -35
-50 -85 -85 -85 -35 0 -85 50 -85 85 0 16 12 38 29 56 38 38 74 38 112 0z"/>
<path d="M1205 1210 c-6 -10 1 -14 19 -11 5 1 6 -5 2 -14 -3 -9 -2 -14 3 -11
5 3 7 -16 5 -42 l-3 -47 8 45 c7 33 5 51 -5 68 -16 25 -20 26 -29 12z"/>
<path d="M992 1125 c0 -16 2 -22 5 -12 2 9 2 23 0 30 -3 6 -5 -1 -5 -18z"/>
<path d="M1252 1125 c0 -16 2 -22 5 -12 2 9 2 23 0 30 -3 6 -5 -1 -5 -18z"/>
<path d="M1016 1064 c-4 -11 1 -18 14 -21 11 -3 17 -9 15 -14 -6 -9 34 -34 42
-25 10 10 -8 25 -24 19 -11 -4 -14 -3 -9 6 5 8 1 14 -12 18 -13 3 -18 11 -15
19 3 8 3 14 0 14 -3 0 -8 -7 -11 -16z"/>
<path d="M1223 1068 c4 -10 -1 -18 -15 -21 -13 -4 -17 -10 -12 -18 5 -9 2 -10
-9 -6 -16 6 -34 -9 -24 -19 9 -9 48 16 42 27 -4 5 1 9 9 9 20 0 27 13 14 30
-8 13 -9 12 -5 -2z"/>
<path d="M1100 1005 c0 -9 9 -15 25 -15 16 0 25 6 25 15 0 9 -9 15 -25 15 -16
0 -25 -6 -25 -15z"/>
<path d="M1040 1386 c-6 -8 -24 -17 -38 -19 l-27 -4 26 -2 c15 0 34 8 44 19
10 11 16 20 13 20 -3 0 -11 -6 -18 -14z"/>
<path d="M1204 1383 c12 -14 29 -22 45 -22 l26 2 -25 4 c-14 3 -34 12 -45 21
-20 17 -20 17 -1 -5z"/>
<path d="M881 1251 c0 -14 -9 -34 -18 -45 -17 -20 -17 -20 6 0 15 14 21 29 18
45 l-4 24 -2 -24z"/>
<path d="M1361 1249 c0 -16 8 -33 22 -45 22 -19 22 -19 5 1 -9 11 -18 31 -21
45 l-4 25 -2 -26z"/>
<path d="M862 1045 c9 -11 18 -31 21 -45 l4 -25 2 26 c0 16 -8 33 -21 45 -23
19 -23 19 -6 -1z"/>
<path d="M1376 1041 c-10 -11 -16 -29 -13 -43 l4 -23 2 24 c0 14 8 33 18 43 9
10 14 18 11 18 -3 0 -13 -9 -22 -19z"/>
<path d="M1000 883 c14 -3 34 -12 45 -21 20 -17 20 -17 1 6 -12 13 -29 21 -45
21 l-26 -2 25 -4z"/>
<path d="M1204 868 c-19 -23 -19 -23 1 -6 11 9 31 18 45 21 l25 4 -26 2 c-16
0 -33 -8 -45 -21z"/>
<path d="M1461 877 c23 -19 159 -95 159 -89 0 7 -144 92 -156 92 -4 0 -5 -1
-3 -3z"/>
<path d="M951 1590 c12 -22 24 -38 26 -36 4 4 -37 76 -44 76 -2 0 6 -18 18
-40z"/>
<path d="M1291 1594 c-12 -20 -20 -38 -18 -40 2 -2 14 14 26 36 28 50 21 53
-8 4z"/>
<path d="M566 1582 c-4 -4 -12 -8 -17 -8 -30 -4 -32 -6 -14 -14 14 -5 24 -3
32 8 7 8 15 13 18 10 3 -2 -23 -53 -57 -112 -42 -73 -64 -103 -69 -94 -5 8 -9
8 -9 2 0 -16 34 -44 53 -44 9 0 17 5 17 11 0 16 108 197 120 201 17 5 -12 35
-41 42 -14 3 -29 2 -33 -2z m62 -24 c-6 -18 -28 -21 -28 -4 0 9 7 16 16 16 9
0 14 -5 12 -12z m-26 -33 c0 -5 -5 -11 -11 -13 -6 -2 -11 4 -11 13 0 9 5 15
11 13 6 -2 11 -8 11 -13z m-17 -33 c0 -18 -20 -15 -23 4 -3 10 1 15 10 12 7
-3 13 -10 13 -16z m-23 -37 c0 -5 -5 -11 -11 -13 -6 -2 -11 4 -11 13 0 9 5 15
11 13 6 -2 11 -8 11 -13z m-14 -33 c2 -7 -3 -12 -12 -12 -9 0 -16 7 -16 16 0
17 22 14 28 -4z m-18 -32 c0 -6 -6 -13 -14 -16 -8 -3 -12 -12 -9 -20 3 -9 -1
-14 -12 -14 -10 0 -14 5 -11 13 3 6 9 20 12 30 7 18 34 24 34 7z"/>
<path d="M1634 1580 c-22 -9 -41 -40 -24 -40 10 0 120 -182 120 -199 0 -18 35
-13 53 7 10 10 17 23 17 28 0 5 -4 3 -9 -4 -5 -9 -27 21 -69 94 -34 59 -60
110 -57 112 3 3 11 -2 18 -10 8 -11 18 -13 32 -8 18 8 16 10 -14 14 -5 0 -13
4 -17 9 -9 9 -23 8 -50 -3z m16 -26 c0 -9 -5 -14 -12 -12 -18 6 -21 28 -4 28
9 0 16 -7 16 -16z m20 -29 c0 -8 -4 -15 -9 -15 -13 0 -22 16 -14 24 11 11 23
6 23 -9z m20 -29 c0 -8 -4 -17 -9 -21 -12 -7 -24 12 -16 25 9 15 25 12 25 -4z
m20 -41 c0 -8 -4 -15 -9 -15 -13 0 -22 16 -14 24 11 11 23 6 23 -9z m20 -30
c0 -8 -7 -15 -15 -15 -16 0 -20 12 -8 23 11 12 23 8 23 -8z m24 -42 c3 -10 9
-24 12 -30 3 -8 -1 -13 -11 -13 -11 0 -15 5 -12 14 3 8 -1 17 -9 20 -18 7 -18
26 0 26 7 0 16 -8 20 -17z"/>
<path d="M440 1410 c6 -11 15 -20 20 -20 6 0 5 9 -2 20 -7 11 -16 20 -21 20
-4 0 -3 -9 3 -20z"/>
<path d="M1792 1410 c-7 -11 -8 -20 -2 -20 5 0 14 9 20 20 6 11 7 20 3 20 -5
0 -14 -9 -21 -20z"/>
<path d="M406 1333 c-6 -14 -5 -15 5 -6 7 7 10 15 7 18 -3 3 -9 -2 -12 -12z"/>
<path d="M1830 1341 c0 -6 4 -13 10 -16 6 -3 7 1 4 9 -7 18 -14 21 -14 7z"/>
<path d="M620 1317 c0 -7 72 -48 76 -44 2 2 -14 14 -36 26 -22 12 -40 20 -40
18z"/>
<path d="M1585 1295 c-22 -13 -37 -25 -33 -25 9 0 78 41 78 46 0 6 -3 5 -45
-21z"/>
<path d="M440 1260 c-14 -4 -19 -8 -12 -9 9 -1 12 -33 12 -125 0 -91 -3 -125
-12 -129 -7 -2 0 -6 15 -9 20 -4 25 -2 18 5 -15 15 -14 27 4 27 8 0 15 -7 15
-15 0 -9 6 -12 17 -8 11 4 12 8 5 11 -17 5 -17 229 0 234 7 3 6 7 -5 11 -11 4
-17 1 -17 -8 0 -8 -7 -15 -15 -15 -18 0 -19 12 -3 28 13 13 13 13 -22 2z m40
-55 c0 -8 -7 -15 -15 -15 -8 0 -15 7 -15 15 0 8 7 15 15 15 8 0 15 -7 15 -15z
m-8 -40 c0 -5 -5 -11 -11 -13 -6 -2 -11 4 -11 13 0 9 5 15 11 13 6 -2 11 -8
11 -13z m0 -40 c0 -5 -5 -11 -11 -13 -6 -2 -11 4 -11 13 0 9 5 15 11 13 6 -2
11 -8 11 -13z m0 -40 c0 -5 -5 -11 -11 -13 -6 -2 -11 4 -11 13 0 9 5 15 11 13
6 -2 11 -8 11 -13z m8 -40 c0 -8 -7 -15 -15 -15 -8 0 -15 7 -15 15 0 8 7 15
15 15 8 0 15 -7 15 -15z"/>
<path d="M720 1266 c0 -2 9 -6 20 -9 11 -3 20 -1 20 4 0 5 -9 9 -20 9 -11 0
-20 -2 -20 -4z"/>
<path d="M1789 1257 c15 -15 14 -27 -4 -27 -8 0 -15 7 -15 15 0 9 -6 12 -17 8
-11 -4 -12 -8 -5 -11 8 -2 12 -38 12 -117 0 -79 -4 -115 -12 -117 -7 -3 -6 -7
5 -11 11 -4 17 -1 17 8 0 8 7 15 15 15 18 0 19 -12 4 -27 -7 -7 -2 -9 18 -5
15 3 22 7 16 9 -10 4 -13 38 -13 128 0 90 3 124 13 128 6 2 -1 6 -16 9 -20 4
-25 2 -18 -5z m11 -52 c0 -8 -7 -15 -15 -15 -8 0 -15 7 -15 15 0 8 7 15 15 15
8 0 15 -7 15 -15z m0 -40 c0 -8 -4 -15 -9 -15 -13 0 -22 16 -14 24 11 11 23 6
23 -9z m0 -40 c0 -8 -4 -15 -9 -15 -13 0 -22 16 -14 24 11 11 23 6 23 -9z m0
-40 c0 -8 -4 -15 -9 -15 -13 0 -22 16 -14 24 11 11 23 6 23 -9z m0 -40 c0 -8
-7 -15 -15 -15 -8 0 -15 7 -15 15 0 8 7 15 15 15 8 0 15 -7 15 -15z"/>
<path d="M657 961 c-40 -26 -47 -36 -12 -18 42 23 62 37 50 36 -5 0 -22 -8
-38 -18z"/>
<path d="M1560 969 c26 -17 70 -40 70 -35 0 5 -69 46 -78 46 -4 0 0 -5 8 -11z"/>
<path d="M406 917 c3 -10 9 -15 12 -12 3 3 0 11 -7 18 -10 9 -11 8 -5 -6z"/>
<path d="M1835 919 c-4 -6 -5 -12 -2 -15 2 -3 7 2 10 11 7 17 1 20 -8 4z"/>
<path d="M467 902 c-10 -10 -17 -23 -17 -28 0 -5 4 -3 9 4 5 9 27 -21 69 -94
34 -59 60 -110 57 -112 -3 -3 -11 2 -18 10 -8 11 -18 13 -32 8 -18 -8 -16 -10
14 -14 5 0 13 -4 17 -8 10 -11 57 2 71 20 10 12 10 17 -2 26 -16 12 -115 181
-115 196 0 17 -36 11 -53 -8z m40 -6 c-3 -8 1 -17 9 -20 18 -7 18 -26 0 -26
-7 0 -16 8 -20 18 -3 9 -9 23 -12 30 -3 7 1 12 11 12 11 0 15 -5 12 -14z m41
-68 c-6 -18 -28 -21 -28 -4 0 9 7 16 16 16 9 0 14 -5 12 -12z m14 -33 c0 -5
-5 -11 -11 -13 -6 -2 -11 4 -11 13 0 9 5 15 11 13 6 -2 11 -8 11 -13z m20 -47
c-6 -6 -15 -9 -18 -5 -4 3 -4 14 0 23 5 13 9 15 18 6 9 -9 9 -15 0 -24z m20
-23 c0 -5 -5 -11 -11 -13 -6 -2 -11 4 -11 13 0 9 5 15 11 13 6 -2 11 -8 11
-13z m26 -33 c2 -7 -3 -12 -12 -12 -9 0 -16 7 -16 16 0 17 22 14 28 -4z"/>
<path d="M1730 910 c0 -15 -99 -184 -115 -196 -12 -9 -12 -14 -2 -26 14 -18
61 -31 71 -20 4 4 12 8 17 8 30 4 32 6 14 14 -14 5 -24 3 -32 -8 -7 -8 -15
-13 -18 -10 -3 2 23 53 57 112 42 73 64 103 69 94 5 -8 9 -8 9 -2 0 16 -34 44
-53 44 -9 0 -17 -4 -17 -10z m36 -12 c-3 -7 -9 -21 -12 -30 -4 -10 -13 -18
-20 -18 -18 0 -18 19 0 26 8 3 12 12 9 20 -3 9 1 14 12 14 10 0 14 -5 11 -12z
m-36 -74 c0 -9 -5 -14 -12 -12 -18 6 -21 28 -4 28 9 0 16 -7 16 -16z m-20 -29
c0 -8 -4 -15 -9 -15 -13 0 -22 16 -14 24 11 11 23 6 23 -9z m-20 -41 c0 -16
-16 -19 -25 -4 -8 13 4 32 16 25 5 -4 9 -13 9 -21z m-20 -29 c0 -8 -4 -15 -9
-15 -13 0 -22 16 -14 24 11 11 23 6 23 -9z m-20 -30 c0 -8 -7 -15 -15 -15 -16
0 -20 12 -8 23 11 12 23 8 23 -8z"/>
<path d="M1792 840 c7 -11 16 -20 21 -20 4 0 3 9 -3 20 -6 11 -15 20 -20 20
-6 0 -5 -9 2 -20z"/>
<path d="M951 660 c-12 -22 -20 -40 -18 -40 7 0 48 72 44 76 -2 2 -14 -14 -26
-36z"/>
<path d="M1270 698 c0 -9 41 -78 46 -78 3 0 -2 12 -10 28 -21 37 -36 58 -36
50z"/>
<path d="M688 637 c-18 -14 -31 -61 -20 -71 4 -4 8 -12 8 -17 4 -30 6 -32 14
-14 5 14 3 24 -8 32 -8 7 -13 15 -10 18 2 3 53 -23 112 -57 73 -42 103 -64 94
-69 -8 -5 -8 -9 -2 -9 16 0 44 34 44 53 0 9 -4 17 -10 17 -15 0 -184 99 -196
115 -9 12 -14 12 -26 2z m20 -25 c2 -7 -3 -12 -12 -12 -9 0 -16 7 -16 16 0 17
22 14 28 -4z m32 -23 c0 -5 -7 -9 -15 -9 -15 0 -20 12 -9 23 8 8 24 -1 24 -14z
m35 -9 c3 -6 -1 -13 -10 -16 -19 -8 -30 0 -20 15 8 14 22 14 30 1z m35 -31 c0
-5 -7 -9 -15 -9 -15 0 -20 12 -9 23 8 8 24 -1 24 -14z m30 -14 c0 -8 -7 -15
-15 -15 -16 0 -20 12 -8 23 11 12 23 8 23 -8z m36 -19 c3 -8 12 -12 20 -9 9 3
14 -1 14 -12 0 -10 -5 -14 -12 -11 -7 3 -21 9 -30 12 -10 4 -18 13 -18 20 0
18 19 18 26 0z"/>
<path d="M1534 635 c-10 -16 -179 -115 -194 -115 -17 0 -11 -36 8 -53 10 -10
23 -17 28 -17 5 0 3 4 -5 9 -11 7 -4 14 28 31 24 12 72 39 108 61 36 22 68 38
71 34 3 -3 -2 -11 -10 -18 -11 -8 -13 -18 -8 -32 5 -11 9 -14 11 -7 3 24 4 27
11 37 20 32 -26 101 -48 70z m36 -20 c0 -8 -7 -15 -15 -15 -16 0 -20 12 -8 23
11 12 23 8 23 -8z m-30 -26 c0 -5 -7 -9 -15 -9 -15 0 -20 12 -9 23 8 8 24 -1
24 -14z m-35 -10 c10 -15 -1 -23 -20 -15 -9 3 -13 10 -10 16 8 13 22 13 30 -1z
m-35 -30 c0 -5 -7 -9 -15 -9 -15 0 -20 12 -9 23 8 8 24 -1 24 -14z m-32 -17
c2 -7 -3 -12 -12 -12 -9 0 -16 7 -16 16 0 17 22 14 28 -4z m-38 -16 c0 -7 -8
-16 -17 -20 -10 -3 -24 -9 -30 -12 -8 -3 -13 1 -13 11 0 11 5 15 14 12 8 -3
17 1 20 9 7 18 26 18 26 0z"/>
<path d="M997 497 c-4 -11 -1 -17 8 -17 8 0 15 -7 15 -15 0 -18 -12 -19 -27
-4 -7 7 -9 2 -5 -18 3 -15 7 -22 9 -15 4 9 38 12 128 12 90 0 124 -3 128 -12
2 -7 6 0 9 15 4 20 2 25 -5 18 -15 -15 -27 -14 -27 4 0 8 7 15 15 15 9 0 12 6
8 17 -4 11 -8 12 -11 5 -5 -17 -229 -17 -234 0 -3 7 -7 6 -11 -5z m63 -32 c0
-8 -7 -15 -15 -15 -8 0 -15 7 -15 15 0 8 7 15 15 15 8 0 15 -7 15 -15z m40 -6
c0 -5 -7 -9 -15 -9 -15 0 -20 12 -9 23 8 8 24 -1 24 -14z m40 0 c0 -5 -7 -9
-15 -9 -15 0 -20 12 -9 23 8 8 24 -1 24 -14z m40 0 c0 -5 -7 -9 -15 -9 -15 0
-20 12 -9 23 8 8 24 -1 24 -14z m40 6 c0 -8 -7 -15 -15 -15 -8 0 -15 7 -15 15
0 8 7 15 15 15 8 0 15 -7 15 -15z"/>
<path d="M836 454 c-11 -7 -17 -16 -15 -19 3 -3 14 2 25 9 10 8 17 17 14 19
-3 3 -14 -1 -24 -9z"/>
<path d="M1390 460 c0 -5 9 -14 20 -20 11 -6 20 -7 20 -3 0 5 -9 14 -20 21
-11 7 -20 8 -20 2z"/>
<path d="M900 416 c0 -2 7 -7 16 -10 8 -3 12 -2 9 4 -6 10 -25 14 -25 6z"/>
<path d="M1325 410 c-3 -6 1 -7 9 -4 18 7 21 14 7 14 -6 0 -13 -4 -16 -10z"/>
<path d="M700 1970 c-13 -8 -13 -10 2 -10 9 0 20 5 23 10 8 13 -5 13 -25 0z"/>
<path d="M1525 1970 c3 -5 14 -10 23 -10 15 0 15 2 2 10 -20 13 -33 13 -25 0z"/>
<path d="M590 1905 c-7 -8 -8 -15 -2 -15 5 0 15 7 22 15 7 8 8 15 2 15 -5 0
-15 -7 -22 -15z"/>
<path d="M1640 1905 c7 -8 17 -15 22 -15 6 0 5 7 -2 15 -7 8 -17 15 -22 15 -6
0 -5 -7 2 -15z"/>
<path d="M500 1835 c-8 -9 -8 -15 -2 -15 12 0 26 19 19 26 -2 2 -10 -2 -17
-11z"/>
<path d="M1730 1842 c0 -12 19 -26 26 -19 2 2 -2 10 -11 17 -9 8 -15 8 -15 2z"/>
<path d="M410 1745 c-8 -9 -8 -15 -2 -15 12 0 26 19 19 26 -2 2 -10 -2 -17
-11z"/>
<path d="M1820 1752 c0 -12 19 -26 26 -19 2 2 -2 10 -11 17 -9 8 -15 8 -15 2z"/>
<path d="M340 1655 c-7 -9 -11 -18 -8 -20 3 -3 11 1 18 10 7 9 11 18 8 20 -3
3 -11 -1 -18 -10z"/>
<path d="M1890 1662 c0 -5 7 -15 15 -22 8 -7 15 -8 15 -2 0 5 -7 15 -15 22 -8
7 -15 8 -15 2z"/>
<path d="M276 1544 c-4 -9 -4 -19 -1 -22 2 -3 7 3 11 12 4 9 4 19 1 22 -2 3
-7 -3 -11 -12z"/>
<path d="M1960 1548 c0 -9 5 -20 10 -23 13 -8 13 5 0 25 -8 13 -10 13 -10 -2z"/>
<path d="M227 1430 c-3 -11 -1 -20 4 -20 5 0 9 9 9 20 0 11 -2 20 -4 20 -2 0
-6 -9 -9 -20z"/>
<path d="M2010 1430 c0 -11 4 -20 9 -20 5 0 7 9 4 20 -3 11 -7 20 -9 20 -2 0
-4 -9 -4 -20z"/>
<path d="M197 1316 c-4 -10 -5 -21 -2 -24 9 -9 17 6 13 25 -3 17 -4 17 -11 -1z"/>
<path d="M2040 1310 c0 -11 4 -20 9 -20 5 0 7 9 4 20 -3 11 -7 20 -9 20 -2 0
-4 -9 -4 -20z"/>
<path d="M182 1185 c0 -16 2 -22 5 -12 2 9 2 23 0 30 -3 6 -5 -1 -5 -18z"/>
<path d="M2062 1190 c0 -14 2 -19 5 -12 2 6 2 18 0 25 -3 6 -5 1 -5 -13z"/>
<path d="M182 1060 c0 -14 2 -19 5 -12 2 6 2 18 0 25 -3 6 -5 1 -5 -13z"/>
<path d="M2062 1065 c0 -16 2 -22 5 -12 2 9 2 23 0 30 -3 6 -5 -1 -5 -18z"/>
<path d="M197 940 c3 -11 7 -20 9 -20 2 0 4 9 4 20 0 11 -4 20 -9 20 -5 0 -7
-9 -4 -20z"/>
<path d="M2040 938 c0 -19 2 -20 10 -8 13 19 13 30 0 30 -5 0 -10 -10 -10 -22z"/>
<path d="M227 820 c3 -11 7 -20 9 -20 2 0 4 9 4 20 0 11 -4 20 -9 20 -5 0 -7
-9 -4 -20z"/>
<path d="M2010 820 c0 -11 2 -20 4 -20 2 0 6 9 9 20 3 11 1 20 -4 20 -5 0 -9
-9 -9 -20z"/>
<path d="M270 723 c0 -4 5 -15 10 -23 8 -13 10 -13 10 2 0 9 -4 20 -10 23 -5
3 -10 3 -10 -2z"/>
<path d="M1967 723 c-4 -3 -7 -13 -7 -22 1 -13 3 -13 11 2 11 19 8 33 -4 20z"/>
<path d="M330 612 c0 -5 7 -15 15 -22 8 -7 15 -8 15 -2 0 5 -7 15 -15 22 -8 7
-15 8 -15 2z"/>
<path d="M1900 605 c-7 -9 -11 -18 -8 -20 3 -3 11 1 18 10 7 9 11 18 8 20 -3
3 -11 -1 -18 -10z"/>
<path d="M410 505 c7 -9 15 -13 17 -11 7 7 -7 26 -19 26 -6 0 -6 -6 2 -15z"/>
<path d="M1825 509 c-11 -17 1 -21 15 -4 8 9 8 15 2 15 -6 0 -14 -5 -17 -11z"/>
<path d="M500 415 c7 -9 15 -13 17 -11 7 7 -7 26 -19 26 -6 0 -6 -6 2 -15z"/>
<path d="M1735 419 c-11 -17 1 -21 15 -4 8 9 8 15 2 15 -6 0 -14 -5 -17 -11z"/>
<path d="M590 345 c7 -8 17 -15 22 -15 6 0 5 7 -2 15 -7 8 -17 15 -22 15 -6 0
-5 -7 2 -15z"/>
<path d="M1640 345 c-7 -8 -8 -15 -2 -15 5 0 15 7 22 15 7 8 8 15 2 15 -5 0
-15 -7 -22 -15z"/>
<path d="M700 280 c20 -13 33 -13 25 0 -3 6 -14 10 -23 10 -15 0 -15 -2 -2
-10z"/>
<path d="M1525 280 c-8 -13 5 -13 25 0 13 8 13 10 -2 10 -9 0 -20 -4 -23 -10z"/>
<path d="M800 236 c0 -2 9 -6 20 -9 11 -3 20 -1 20 4 0 5 -9 9 -20 9 -11 0
-20 -2 -20 -4z"/>
<path d="M1410 231 c0 -5 9 -7 20 -4 11 3 20 7 20 9 0 2 -9 4 -20 4 -11 0 -20
-4 -20 -9z"/>
<path d="M930 200 c19 -13 30 -13 30 0 0 6 -10 10 -22 10 -19 0 -20 -2 -8 -10z"/>
<path d="M1290 201 c0 -5 9 -7 20 -4 11 3 20 7 20 9 0 2 -9 4 -20 4 -11 0 -20
-4 -20 -9z"/>
<path d="M1053 183 c9 -2 23 -2 30 0 6 3 -1 5 -18 5 -16 0 -22 -2 -12 -5z"/>
<path d="M1178 183 c6 -2 18 -2 25 0 6 3 1 5 -13 5 -14 0 -19 -2 -12 -5z"/>
</g>
</svg>
