<?xml version="1.0" standalone="no"?>
<!DOCTYPE svg PUBLIC "-//W3C//DTD SVG 20010904//EN"
 "http://www.w3.org/TR/2001/REC-SVG-20010904/DTD/svg10.dtd">
<svg version="1.0" xmlns="http://www.w3.org/2000/svg"
 width="189.000000pt" height="182.000000pt" viewBox="0 0 189.000000 182.000000"
 preserveAspectRatio="xMidYMid meet">
<metadata>
Created by potrace 1.16, written by Peter Selinger 2001-2019
</metadata>
<g transform="translate(0.000000,182.000000) scale(0.100000,-0.100000)"
fill="#000000" stroke="none">
<path d="M1035 1808 c-43 -15 -55 -27 -55 -54 0 -12 -5 -26 -11 -30 -16 -9 -5
-112 19 -191 l19 -61 -21 -6 c-11 -3 -40 -6 -64 -6 -48 0 -92 -33 -92 -69 0
-11 -15 -31 -32 -45 -18 -14 -42 -39 -53 -56 -11 -16 -25 -30 -31 -30 -7 0
-11 -6 -11 -12 1 -7 -13 -44 -31 -81 -18 -38 -35 -93 -38 -121 l-6 -53 -75
-11 c-152 -24 -297 -88 -309 -137 -11 -46 5 -73 80 -134 83 -68 201 -194 187
-199 -6 -2 -7 -12 0 -28 13 -37 11 -47 -9 -42 -13 4 -18 -1 -20 -18 -2 -22 0
-23 18 -12 11 7 20 16 20 21 0 4 14 6 31 5 31 -2 29 -1 142 -152 33 -46 75
-73 115 -75 20 -2 13 31 -13 59 -17 17 -29 47 -36 86 -17 87 -25 104 -52 104
-29 0 -47 19 -82 90 -44 87 -104 173 -143 204 l-37 28 35 -6 c19 -3 79 -9 133
-12 53 -4 97 -11 97 -16 0 -24 84 -177 94 -171 6 3 8 2 3 -2 -4 -5 1 -20 10
-34 9 -14 22 -35 28 -46 33 -61 95 -153 129 -192 31 -34 37 -46 26 -53 -17
-10 -5 -41 13 -34 13 5 32 -29 102 -178 l17 -38 64 0 c46 0 62 3 59 12 -2 7
-14 55 -26 106 -19 85 -22 92 -36 75 -13 -17 -14 -15 -9 15 3 19 1 32 -5 32
-6 0 -7 5 -4 10 10 15 -5 50 -20 50 -9 0 -12 6 -9 15 4 8 2 15 -3 15 -5 0 -24
20 -41 44 -33 45 -40 62 -22 51 17 -11 11 5 -17 42 -19 25 -24 38 -15 41 15 5
16 22 1 22 -36 0 -49 80 -17 112 15 15 17 22 7 34 -6 8 -18 14 -25 14 -8 0
-14 6 -14 14 0 7 -7 19 -15 26 -18 15 -20 34 -3 24 7 -5 9 -2 5 8 -3 9 0 21 6
27 9 10 9 12 -3 9 -8 -2 -18 -10 -22 -18 -3 -8 -5 12 -4 46 2 33 6 65 9 71 4
6 0 24 -8 39 -8 16 -15 35 -15 42 0 6 -3 12 -8 12 -4 0 -20 12 -35 26 -21 19
-25 29 -17 39 8 9 8 14 0 17 -19 6 0 66 24 71 43 10 160 64 164 75 2 7 -4 19
-12 28 -15 15 -13 18 25 46 42 30 56 31 45 2 -3 -9 -12 -14 -21 -10 -20 7 -20
-28 1 -48 21 -22 23 -20 17 15 -4 27 -2 30 16 24 14 -4 27 1 43 20 12 14 28
23 35 21 7 -3 13 -1 13 4 0 6 -4 10 -10 10 -5 0 -10 7 -10 15 0 12 3 12 19 -2
11 -9 18 -20 15 -25 -3 -5 0 -7 8 -6 8 2 13 -6 12 -19 0 -12 6 -25 13 -27 8
-3 11 -2 8 3 -3 5 -1 12 5 16 5 3 10 -1 10 -10 0 -8 -6 -18 -14 -21 -8 -3 -12
-12 -10 -19 5 -11 13 -10 41 6 l36 20 -6 -20 c-3 -12 -1 -24 4 -27 5 -3 9 4 9
14 0 23 21 34 40 22 18 -11 82 38 78 60 -4 21 30 72 42 65 6 -3 7 1 4 9 -3 9
-2 16 4 16 5 0 12 9 15 21 3 12 10 18 15 15 11 -7 48 31 39 41 -4 3 -7 1 -7
-5 0 -9 -5 -9 -20 0 -11 7 -18 19 -15 26 6 15 -38 56 -77 73 -16 6 -28 15 -28
20 0 5 -9 9 -20 9 -11 0 -23 7 -27 15 -3 9 -13 15 -22 13 -9 -1 -33 1 -54 6
-33 6 -41 4 -57 -17 -30 -38 -130 -111 -139 -101 -4 5 -15 36 -24 69 -8 33
-18 67 -22 76 -5 12 12 23 74 47 44 18 85 32 92 32 6 0 27 -13 46 -30 18 -16
43 -30 53 -30 23 0 24 4 8 30 -7 10 -9 22 -6 26 12 11 28 -7 28 -30 0 -32 25
-53 44 -37 25 21 27 57 6 105 l-19 46 -178 -1 c-98 0 -191 -5 -208 -11z"/>
</g>
</svg>
