<?xml version="1.0" standalone="no"?>
<!DOCTYPE svg PUBLIC "-//W3C//DTD SVG 20010904//EN"
 "http://www.w3.org/TR/2001/REC-SVG-20010904/DTD/svg10.dtd">
<svg version="1.0" xmlns="http://www.w3.org/2000/svg"
 width="225.000000pt" height="225.000000pt" viewBox="0 0 225.000000 225.000000"
 preserveAspectRatio="xMidYMid meet">

<g transform="translate(0.000000,225.000000) scale(0.100000,-0.100000)"
fill="#000000" stroke="none">
<path d="M943 2145 c-689 -125 -1058 -881 -734 -1502 264 -505 890 -699 1398
-434 505 264 699 890 434 1398 -180 344 -535 556 -926 552 -55 0 -132 -7 -172
-14z m359 -79 c395 -76 705 -394 768 -790 16 -96 8 -299 -16 -386 -78 -294
-289 -536 -568 -651 -132 -54 -242 -72 -401 -66 -75 3 -157 13 -195 23 -344
91 -603 352 -696 699 -27 100 -27 360 0 460 47 175 128 317 251 441 148 151
300 229 540 278 49 10 250 5 317 -8z"/>
<path d="M1146 1724 c-26 -26 -19 -43 46 -110 l62 -65 -49 -49 -49 -50 -66 65
c-36 36 -72 65 -81 65 -19 0 -495 -478 -503 -507 -10 -32 13 -70 82 -135 90
-86 87 -87 269 94 l153 152 68 -67 c37 -37 72 -67 77 -67 6 0 75 65 155 145
80 80 149 145 155 145 6 0 37 -27 70 -60 64 -65 85 -72 109 -38 24 33 24 459
0 482 -23 24 -475 24 -498 0z m424 -211 l0 -147 -48 47 c-26 26 -52 47 -57 47
-6 0 -78 -67 -160 -150 l-150 -150 -72 72 -73 73 -168 -168 -168 -167 -37 38
c-20 21 -37 42 -37 48 0 5 92 101 205 214 l205 205 73 -73 72 -72 113 113 112
112 -52 53 -53 52 148 0 147 0 0 -147z"/>
<path d="M1527 1153 c-4 -3 -7 -127 -7 -275 l0 -268 -60 0 -60 0 0 219 c0 246
1 244 -72 239 l-43 -3 -5 -225 -5 -225 -60 0 -60 0 -5 185 -5 185 -43 3 c-71
5 -72 3 -72 -200 l0 -179 -57 3 -58 3 -5 125 -5 125 -27 9 c-18 6 -38 6 -55 0
l-28 -9 -3 -128 -3 -128 -57 3 -57 3 -3 100 c-3 105 -7 115 -54 115 -58 0 -58
-1 -58 -147 0 -74 5 -143 10 -154 10 -18 27 -19 524 -19 465 0 515 2 527 17
19 22 26 597 8 619 -12 14 -90 20 -102 7z"/>
</g>
</svg>
