<?xml version="1.0" standalone="no"?>
<!DOCTYPE svg PUBLIC "-//W3C//DTD SVG 20010904//EN"
 "http://www.w3.org/TR/2001/REC-SVG-20010904/DTD/svg10.dtd">
<svg version="1.0" xmlns="http://www.w3.org/2000/svg"
 width="225.000000pt" height="225.000000pt" viewBox="0 0 225.000000 225.000000"
 preserveAspectRatio="xMidYMid meet">

<g transform="translate(0.000000,225.000000) scale(0.100000,-0.100000)"
fill="#000000" stroke="none">
<path d="M360 2164 c-14 -2 -39 -7 -56 -9 l-30 -5 148 -517 c81 -285 148 -521
148 -524 0 -4 -17 -3 -37 3 -21 6 -77 8 -124 6 -121 -7 -226 -56 -285 -133
-75 -98 -32 -218 94 -265 48 -18 73 -21 157 -18 86 3 109 8 166 34 100 47 169
127 169 196 0 12 -66 264 -146 560 -81 296 -144 541 -141 544 9 10 109 -15
165 -41 71 -33 123 -77 174 -147 l43 -59 3 31 c5 45 -32 159 -67 207 -40 55
-87 90 -155 114 -56 19 -177 32 -226 23z"/>
<path d="M1666 2017 c-27 -7 -51 -17 -53 -23 -2 -5 80 -232 182 -504 102 -271
185 -496 185 -499 0 -4 -33 -5 -74 -3 -197 10 -386 -118 -386 -261 0 -56 31
-104 90 -137 40 -22 56 -25 155 -25 91 0 120 4 167 23 119 48 202 142 201 226
-1 27 -65 216 -187 555 -102 282 -186 518 -186 524 0 6 24 8 68 4 101 -10 192
-59 277 -148 l67 -72 -7 44 c-21 125 -92 227 -193 275 -49 24 -72 28 -157 31
-55 1 -122 -3 -149 -10z"/>
<path d="M1140 990 c0 -297 -2 -540 -5 -540 -3 0 -22 8 -43 19 -156 78 -391
40 -458 -75 -79 -134 62 -285 282 -301 139 -11 265 44 305 130 17 40 19 73 19
600 0 401 3 557 11 557 6 0 38 -14 70 -31 100 -54 185 -160 219 -277 7 -23 15
-40 17 -38 14 13 21 128 12 184 -18 118 -82 201 -193 253 -57 27 -175 58 -218
59 -17 0 -18 -32 -18 -540z"/>
</g>
</svg>
