<?xml version="1.0" standalone="no"?>
<!DOCTYPE svg PUBLIC "-//W3C//DTD SVG 20010904//EN"
 "http://www.w3.org/TR/2001/REC-SVG-20010904/DTD/svg10.dtd">
<svg version="1.0" xmlns="http://www.w3.org/2000/svg"
 width="224.000000pt" height="225.000000pt" viewBox="0 0 224.000000 225.000000"
 preserveAspectRatio="xMidYMid meet">

<g transform="translate(0.000000,225.000000) scale(0.100000,-0.100000)"
fill="#000000" stroke="none">
<path d="M0 1125 l0 -1125 1120 0 1120 0 0 1125 0 1125 -1120 0 -1120 0 0
-1125z m1038 472 c19 -15 14 -45 -10 -58 -13 -7 -58 -13 -102 -13 -63 -1 -72
-3 -47 -10 20 -6 56 -5 98 2 48 8 71 8 80 0 31 -26 4 -58 -60 -70 -37 -6 -35
-7 12 -3 58 5 81 -5 81 -35 0 -33 -30 -45 -129 -51 l-96 -7 109 2 c90 1 111
-2 119 -15 14 -22 4 -44 -30 -66 -21 -14 -47 -18 -115 -18 -68 0 -81 -2 -56
-9 33 -8 129 -3 159 9 13 5 18 -2 24 -31 l7 -38 17 40 c58 129 236 154 331 47
54 -62 75 -132 67 -233 -12 -148 -45 -199 -137 -219 -45 -10 -160 -66 -160
-78 0 -8 44 10 59 24 11 11 25 13 55 8 23 -4 68 -10 101 -14 44 -4 60 -10 60
-21 0 -12 -14 -15 -70 -14 l-70 2 69 -12 c38 -6 69 -15 68 -21 -1 -5 -28 -13
-59 -16 l-58 -6 63 -1 c55 -2 62 -4 62 -22 0 -30 -52 -30 -175 2 -100 25 -200
25 -305 -2 -43 -11 -106 -20 -140 -20 -53 0 -61 2 -58 18 3 13 18 18 73 23 39
4 99 14 134 24 83 21 189 22 270 1 35 -10 65 -15 68 -12 3 2 -31 13 -75 22
-52 12 -79 23 -78 31 1 7 20 31 42 54 38 39 39 42 39 108 l0 69 59 62 c56 59
58 63 53 103 -8 57 -43 87 -103 87 -34 0 -51 -6 -69 -25 -54 -53 -17 -135 60
-135 40 0 51 -21 25 -45 -28 -25 -43 -80 -36 -130 l7 -43 -38 9 c-61 14 -133
10 -219 -11 -43 -10 -90 -21 -104 -23 -22 -4 -22 -4 5 -6 17 0 51 6 76 13 69
21 152 29 215 21 46 -5 53 -9 43 -21 -6 -8 -28 -15 -48 -15 -31 -2 -32 -3 -8
-6 23 -4 26 -7 16 -19 -7 -9 -31 -14 -64 -14 -28 0 -74 -7 -101 -15 -117 -36
-234 -41 -234 -11 0 9 26 15 83 19 45 4 104 13 131 22 27 8 68 16 90 17 37 1
38 2 8 5 -18 2 -74 -5 -125 -17 -104 -24 -192 -24 -192 0 0 9 -28 43 -61 76
-114 114 -155 248 -125 409 30 163 155 300 301 331 56 12 95 9 118 -9z m398
-18 c101 -48 183 -162 210 -291 16 -78 13 -136 -13 -228 -21 -75 -44 -118
-102 -188 -40 -48 -55 -59 -81 -60 -18 0 -35 -4 -39 -8 -3 -4 6 -5 21 -2 32 6
53 -5 43 -22 -8 -13 -121 -9 -159 6 -19 7 -19 8 0 15 10 4 33 8 51 8 45 1 107
62 124 121 7 25 13 88 13 141 1 87 -2 101 -29 155 -22 43 -43 68 -78 91 -36
24 -43 33 -30 36 10 3 -18 5 -62 6 -93 2 -129 16 -133 52 -5 40 18 52 61 34
39 -16 106 -18 147 -5 16 5 0 7 -40 3 -83 -7 -140 14 -140 50 0 30 21 40 56
27 14 -6 46 -9 72 -9 l47 2 -55 7 c-30 4 -62 10 -72 14 -23 11 -29 44 -10 62
23 24 135 14 198 -17z m-226 -220 l32 -12 -38 -13 c-22 -8 -40 -14 -41 -14 -6
0 -3 37 4 43 8 9 4 9 43 -4z m145 -181 c22 -26 26 -39 21 -67 -3 -19 -15 -44
-26 -55 -20 -20 -22 -20 -31 -3 -6 10 -22 17 -42 17 -47 0 -77 24 -77 63 0 52
29 76 92 77 29 0 42 -7 63 -32z m-188 -436 c-10 -11 -33 -19 -58 -21 -23 -1
-79 -11 -126 -22 -87 -21 -174 -22 -180 -3 -2 7 24 13 74 18 43 3 107 15 143
25 36 11 87 20 114 20 47 1 48 0 33 -17z"/>
<path d="M878 1443 c12 -2 32 -2 45 0 12 2 2 4 -23 4 -25 0 -35 -2 -22 -4z"/>
<path d="M1367 926 c-4 -10 -12 -14 -19 -11 -7 4 -4 -1 7 -10 18 -14 20 -14
23 0 5 24 -3 41 -11 21z"/>
<path d="M1348 873 c7 -3 16 -2 19 1 4 3 -2 6 -13 5 -11 0 -14 -3 -6 -6z"/>
<path d="M1280 740 c34 -11 60 -11 35 0 -11 5 -29 8 -40 8 -16 0 -15 -2 5 -8z"/>
</g>
</svg>
