<svg version="1.1" id="Layer_1" xmlns="http://www.w3.org/2000/svg" xmlns:xlink="http://www.w3.org/1999/xlink" x="0px" y="0px"
	 width="100%" viewBox="0 0 352 352" enable-background="new 0 0 352 352" xml:space="preserve">
<path fill="#000000" opacity="1.000000" stroke="none" 
	d="
M97.216995,148.227875 
	C114.139816,121.976501 125.668823,93.678925 135.042892,64.424728 
	C136.458984,60.005482 137.533829,55.436508 137.754166,50.761768 
	C137.909790,47.460011 139.407349,46.502541 142.604202,46.976173 
	C158.114120,49.274082 173.723328,50.273270 189.391937,49.663265 
	C215.153076,48.660339 240.240585,43.828030 264.741699,35.873833 
	C274.078644,32.842625 283.396301,29.751846 292.742065,26.748325 
	C293.947052,26.361067 295.213898,25.636833 297.004333,26.661957 
	C296.107452,35.168430 295.717194,43.910038 296.175873,52.675247 
	C296.520477,59.261738 296.488800,59.319080 302.734009,57.965744 
	C307.734955,56.882042 312.741333,55.823441 317.681091,54.767426 
	C319.710724,56.844776 317.348541,59.037128 318.170654,61.142437 
	C319.943390,62.582104 321.545288,60.513893 322.544006,60.650146 
	C329.201080,64.168068 326.620056,69.523514 326.254150,74.285294 
	C325.652039,82.120949 326.088470,89.941002 326.332886,97.762619 
	C326.752075,111.175728 324.365601,124.282730 321.932556,137.352280 
	C317.146545,163.061508 310.759583,188.282745 300.715820,212.589279 
	C290.482788,237.353851 276.244873,259.436096 259.039001,279.762573 
	C252.915390,286.996765 246.283386,293.849823 240.395691,301.218964 
	C233.339813,310.050140 224.670013,313.270966 213.830063,314.498016 
	C190.535675,317.134888 167.297638,317.432953 144.146133,314.263275 
	C120.825508,311.070404 99.004936,302.968414 78.487442,291.424927 
	C69.493546,286.364807 60.355209,281.540100 51.976994,275.457489 
	C48.825867,273.169769 44.969608,273.585297 41.465023,272.654724 
	C38.473988,271.860413 35.158783,272.025757 32.257324,269.625061 
	C34.648445,266.818024 35.442219,263.984833 30.497549,261.269470 
	C40.804298,257.564850 49.814304,253.623459 57.108921,246.502869 
	C50.113255,238.766266 42.575954,232.616623 32.334030,230.294525 
	C27.909613,229.291397 27.918938,228.707382 28.418871,225.095795 
	C26.380671,223.633728 23.047039,224.401657 21.778942,221.637222 
	C21.709194,220.208145 22.607676,219.799820 23.614489,219.520386 
	C39.208397,215.192200 50.411789,204.354187 61.462120,193.513992 
	C75.189400,180.047791 86.641190,164.691757 97.216995,148.227875 
M285.836243,130.529831 
	C292.854767,97.500244 295.216278,64.129509 292.662262,30.022074 
	C287.811737,30.658913 282.860199,32.572506 277.925812,34.347549 
	C245.378647,46.055756 211.990707,52.829437 177.247223,52.422234 
	C166.386139,52.294937 155.678619,50.712471 144.882401,50.046341 
	C142.566345,49.903439 140.816803,49.537720 140.232697,52.773579 
	C136.475113,73.590599 128.318542,92.957703 119.912773,112.177132 
	C107.939667,139.553116 91.830238,164.413620 71.951225,186.669418 
	C59.543392,200.560760 46.242695,213.650009 27.514164,221.427414 
	C34.610058,223.820969 40.744263,225.172348 46.143764,229.242691 
	C63.730019,242.499954 82.422302,254.072601 102.674042,262.942261 
	C132.205215,275.876007 163.397690,278.121429 195.096710,277.707825 
	C205.655701,277.570068 213.282623,273.903381 220.110260,265.481842 
	C234.082001,248.248459 248.399933,231.340836 258.611603,211.495926 
	C271.647064,186.163391 280.337067,159.320511 285.836243,130.529831 
M235.689987,261.181854 
	C232.101944,265.336853 227.969742,269.142212 225.031418,273.714752 
	C217.283051,285.772522 205.996307,290.938934 192.269028,291.481171 
	C170.935394,292.323883 150.738800,287.109406 130.953964,279.623535 
	C123.412865,276.770294 117.111923,271.607452 109.580879,268.864746 
	C99.530869,265.204620 90.051254,260.358185 80.750069,255.154633 
	C73.583862,251.145508 66.548149,246.903107 59.454407,242.764435 
	C59.892307,244.210098 60.780384,245.160217 61.817299,245.902405 
	C70.472939,252.097748 78.574379,259.035004 87.580963,264.769409 
	C103.523575,274.919952 120.067635,283.821533 138.471100,288.577637 
	C157.485123,293.491547 176.805145,296.866913 196.475754,297.495453 
	C202.919312,297.701385 209.538727,299.006622 215.291183,293.531158 
	C232.336395,277.306671 248.786041,260.571167 261.903473,240.938934 
	C288.137085,201.676361 300.583984,157.260254 309.691406,111.628723 
	C312.799347,96.056755 311.552612,80.127441 313.740936,64.483353 
	C313.959808,62.918625 314.872467,61.258801 313.493103,59.377270 
	C309.306305,59.050964 305.251740,60.642067 301.068787,61.397503 
	C295.576172,62.389469 296.043854,66.485329 296.454010,70.278122 
	C296.947449,74.841042 300.342438,73.175339 303.004547,72.876534 
	C303.864960,72.779961 304.662445,72.869217 305.230011,73.816948 
	C305.606171,75.960915 304.053009,77.494202 302.986359,79.073433 
	C300.282623,83.076378 297.411530,86.965454 295.444214,91.410858 
	C291.481689,100.364479 293.257355,104.046463 302.483032,106.137627 
	C302.631531,106.171280 302.672455,106.679535 302.771667,106.991798 
	C301.975616,108.472878 300.475800,108.328522 299.258972,108.149712 
	C293.854736,107.355614 292.044922,110.107407 291.327240,115.024155 
	C289.163788,129.846329 286.329895,144.553894 282.134308,158.953140 
	C281.222717,162.081711 281.830811,164.375107 283.951630,166.191772 
	C286.424591,166.413696 288.045837,163.920334 290.660461,165.219055 
	C289.638000,167.706604 287.363342,168.201294 285.545380,169.101242 
	C279.261810,172.211807 279.248779,178.981400 276.715881,184.233414 
	C276.097748,185.515106 277.035583,187.604614 278.612396,188.546356 
	C281.955688,190.543091 281.227234,193.051376 279.842224,195.833588 
	C275.613007,204.329132 271.012177,212.604172 265.863037,220.585022 
	C256.829132,234.587097 247.324539,248.230545 235.689987,261.181854 
M213.535416,298.424164 
	C210.995422,300.460114 208.003952,300.323486 204.975021,300.380615 
	C186.389160,300.730865 168.076981,297.050140 149.460709,296.993500 
	C135.841431,296.952118 122.380592,293.500000 109.675659,288.283813 
	C101.458298,284.910004 92.992737,281.611969 86.866661,274.326752 
	C87.875092,272.984558 90.006943,274.576111 90.243141,272.569977 
	C90.419235,271.074280 89.838844,269.994598 88.585304,269.211517 
	C79.384544,263.463928 71.152878,256.393585 62.422371,250.003876 
	C60.869476,248.867340 59.534210,248.675125 57.909214,249.842758 
	C51.847542,254.198303 45.610737,258.280853 37.689865,261.760284 
	C44.969994,263.063110 51.004105,264.143219 56.581165,267.664734 
	C81.286545,283.264343 106.827881,296.676758 136.029327,302.658112 
	C155.251114,306.595306 174.408554,305.661804 193.622086,305.992371 
	C202.215179,306.140167 210.798126,304.274292 219.378052,303.284271 
	C224.933731,302.643219 229.130692,300.670441 232.806854,296.695374 
	C240.832901,288.016754 248.777313,279.286041 256.476501,270.298523 
	C276.258636,247.206161 290.925720,221.192734 300.589172,192.557007 
	C312.717102,156.618332 321.402679,119.923042 319.633362,81.525932 
	C319.383118,76.094749 320.162415,70.699387 320.646698,65.332344 
	C317.781281,64.851654 316.565704,65.895432 316.312805,68.099503 
	C315.971588,71.073586 315.406342,74.062317 315.463684,77.034584 
	C315.679596,88.218033 314.543854,99.283890 312.672943,110.267349 
	C309.568634,128.491470 304.715057,146.319626 300.075989,164.192413 
	C299.961365,164.634048 299.986389,165.111938 299.946503,165.570221 
	C301.100769,165.836182 302.390015,164.517487 303.546326,166.884857 
	C297.925598,169.233795 296.625793,174.705917 294.876617,179.933304 
	C293.822998,183.082108 292.706024,186.215225 291.466492,189.294617 
	C290.412140,191.914047 289.470001,194.350876 293.366516,195.086563 
	C292.473938,200.488052 289.731781,204.777878 287.780945,209.331573 
	C284.138245,217.834351 279.134155,225.622620 274.230347,233.483795 
	C271.121704,238.467224 266.997833,243.016083 265.132477,248.568588 
	C264.046570,251.800903 262.947754,254.804337 260.784180,257.336304 
	C255.580917,263.425537 249.952271,269.111450 243.598938,274.007233 
	C240.724258,276.222382 237.521744,277.800415 236.925461,282.127838 
	C236.619308,284.349731 234.368408,286.346222 232.070694,286.789307 
	C224.590652,288.231873 219.524841,293.288361 213.535416,298.424164 
M302.985229,198.557892 
	C311.777313,175.457565 316.480621,151.354828 320.358795,127.031776 
	C314.597046,160.533188 305.795441,193.122406 290.934387,223.804810 
	C276.040405,254.555206 253.602493,279.748688 230.666443,304.510437 
	C262.209656,274.604095 288.130951,240.826935 302.985229,198.557892 
M164.539429,309.038635 
	C163.833023,309.085175 163.126617,309.131714 162.420212,309.178253 
	C162.428192,309.296051 162.436172,309.413879 162.444153,309.531677 
	C173.853363,309.531677 185.262558,309.531677 196.671768,309.531677 
	C196.672287,309.366577 196.672821,309.201508 196.673340,309.036407 
	C186.215195,309.036407 175.757065,309.036407 164.539429,309.038635 
M59.590332,276.870239 
	C62.511002,278.756531 65.272896,280.956482 68.881996,281.522858 
	C62.374321,278.599792 58.003136,272.064575 50.452053,270.912567 
	C53.628460,272.289368 56.111794,274.674713 59.590332,276.870239 
M150.310501,311.376343 
	C147.543564,311.029724 144.776611,310.683105 142.009674,310.336456 
	C148.004181,312.907074 154.270462,312.755493 160.553192,312.439728 
	C157.428024,312.113434 154.302841,311.787170 150.310501,311.376343 
M215.566315,307.859711 
	C216.186539,307.601685 217.230347,307.959137 217.240387,306.563019 
	C213.446060,307.006012 209.731812,307.439697 206.017563,307.873352 
	C209.057999,308.848022 211.987259,308.648560 215.566315,307.859711 
z"/>
<path fill="#000000" opacity="1.000000" stroke="none" 
	d="
M124.308228,242.872665 
	C121.323334,240.799637 121.323334,240.799637 119.843658,236.757660 
	C127.883789,243.359680 136.138260,244.866989 145.164795,242.512711 
	C131.988480,237.856888 118.825104,233.280960 107.389252,224.964661 
	C112.400375,225.473343 116.771492,227.557983 121.106079,229.906525 
	C130.682144,235.094925 141.159363,237.828354 151.629776,240.420929 
	C155.184280,241.301071 158.245743,238.835785 162.326996,237.101669 
	C144.629929,231.799591 126.007019,231.149490 112.514610,217.521576 
	C121.510735,223.578217 131.789093,226.011948 141.990417,228.908157 
	C152.257706,231.823074 162.246902,235.446701 173.054337,231.716278 
	C154.112473,225.845642 132.969528,226.931656 117.004906,212.574692 
	C124.942696,213.219299 130.369705,220.093567 138.229980,221.236420 
	C146.288162,222.408051 154.192963,224.619217 162.244980,225.852707 
	C169.911530,227.027115 177.712097,229.292633 185.471298,225.430008 
	C161.991684,223.907471 139.755386,218.001389 118.506775,208.277359 
	C121.320580,206.592834 123.648247,208.173279 125.999748,209.000092 
	C145.361832,215.808029 164.967056,220.871918 185.692902,222.094635 
	C192.623367,222.503510 198.108612,220.593277 204.097610,218.769150 
	C207.851639,217.625732 211.553452,216.200577 215.560822,216.452469 
	C215.991684,218.943024 214.364853,218.973190 213.167236,219.203995 
	C206.096451,220.566650 199.006622,222.572098 192.991623,226.180466 
	C187.074265,229.730240 180.319595,231.073013 174.349747,234.834442 
	C176.577133,236.215134 179.444473,234.721924 181.850311,237.419449 
	C175.167694,240.599960 167.128036,234.387970 161.920563,241.097519 
	C167.049011,244.088348 174.628784,242.223541 179.625671,247.464249 
	C177.562759,249.426147 176.341431,247.904358 175.008118,247.550812 
	C165.248886,244.962906 155.807800,242.096466 145.328033,245.845581 
	C138.618927,248.245728 131.153458,246.848709 124.308228,242.872665 
z"/>
<path fill="#000000" opacity="1.000000" stroke="none" 
	d="
M237.644348,58.406441 
	C238.853561,60.420052 239.482895,61.956329 236.372955,62.289951 
	C213.852524,64.705872 191.305145,65.363617 168.717026,63.327744 
	C168.081223,63.270439 167.391846,63.211380 167.176895,62.311203 
	C168.048584,60.187611 170.375031,61.421417 171.805023,60.489021 
	C170.162186,59.794781 168.079468,61.211784 166.701736,59.281689 
	C168.039627,57.077526 170.229553,57.674923 172.101212,57.675358 
	C182.749863,57.677826 193.400620,57.947586 204.046494,57.808475 
	C214.654999,57.669857 225.259567,57.186569 235.762207,55.452065 
	C238.071381,55.070702 239.811188,55.265171 237.644348,58.406441 
M186.956558,60.626255 
	C186.869492,60.878258 186.768311,61.127430 186.716232,61.386471 
	C186.710770,61.413593 186.995270,61.549904 187.145355,61.550102 
	C193.570862,61.558609 199.996384,61.557423 206.421921,61.557423 
	C206.419510,61.228584 206.417099,60.899746 206.414688,60.570908 
	C200.122604,60.570908 193.830536,60.570908 186.956558,60.626255 
z"/>
<path fill="#000000" opacity="1.000000" stroke="none" 
	d="
M256.246582,79.572617 
	C266.404816,77.101585 276.209869,74.241966 286.370758,79.066460 
	C272.040466,81.497871 258.449219,86.966042 243.934265,88.740883 
	C250.991394,84.302475 259.256531,83.354599 266.752625,80.136810 
	C262.561859,81.105438 258.388458,82.159630 254.175018,83.016731 
	C250.536606,83.756844 248.945435,82.200928 250.223343,78.612000 
	C251.945679,73.774849 253.931000,69.031342 255.818771,64.208549 
	C248.187073,64.605896 246.411850,61.691280 249.862289,54.682800 
	C251.136185,52.095291 252.641113,49.709991 255.260696,48.312325 
	C257.056580,47.354126 259.459412,46.287880 260.855621,47.879036 
	C262.875458,50.180824 264.255341,49.251610 266.027527,46.793152 
	C267.105255,51.008404 265.388000,53.310936 264.007141,55.660007 
	C260.117096,62.277779 257.023438,69.279785 254.038574,76.328392 
	C253.347534,77.960281 251.789246,80.530609 256.246582,79.572617 
M251.362488,59.282005 
	C251.322372,61.793961 252.919525,61.660122 254.247498,60.694912 
	C256.476044,59.075089 258.556702,57.207912 260.486664,55.236340 
	C261.816986,53.877323 261.560211,52.312973 260.221344,50.868473 
	C258.604279,49.123829 257.334686,50.199066 255.951630,51.164524 
	C253.341232,52.986702 252.383041,55.764233 251.362488,59.282005 
z"/>
<path fill="#000000" opacity="1.000000" stroke="none" 
	d="
M221.980591,106.026825 
	C223.861679,101.871277 226.996170,100.683754 231.306824,101.911934 
	C233.002655,102.395103 234.521820,101.359360 236.074097,100.801010 
	C237.716293,100.210327 239.271103,98.885597 242.399857,100.678513 
	C236.744522,105.174278 229.540924,104.852814 224.483673,109.032646 
	C225.792419,111.020042 228.029190,110.437607 230.156052,110.566795 
	C231.453369,113.823242 230.264206,114.891510 226.928696,115.228256 
	C223.709625,115.553230 220.442474,115.001297 217.605591,114.366615 
	C213.955414,113.549973 211.814453,114.950974 209.076294,116.388618 
	C202.449219,119.868149 195.686264,123.115845 188.301926,124.727043 
	C181.922760,126.118950 175.792969,124.287613 172.859116,119.463196 
	C182.802124,124.567513 191.401169,121.971191 199.802002,117.381638 
	C195.469360,117.426994 191.222946,116.137550 186.395813,117.273911 
	C187.047974,114.839760 188.415527,113.165184 187.859436,109.967056 
	C190.706192,112.771362 194.669647,110.674347 195.639221,114.751350 
	C201.816864,110.385864 202.756836,110.396172 204.865891,115.045471 
	C210.643417,112.600990 216.227493,109.779900 221.789734,106.230713 
	C222.005341,105.996094 221.980591,106.026825 221.980591,106.026825 
z"/>
<path fill="#000000" opacity="1.000000" stroke="none" 
	d="
M239.134506,159.930466 
	C245.377670,157.820862 250.395142,153.561356 255.958374,150.268112 
	C262.260925,146.537216 268.387939,142.510574 274.616150,138.652679 
	C275.842957,137.892761 277.016754,136.838623 279.028473,137.168564 
	C279.086151,139.726776 277.031891,140.430771 275.499359,141.388824 
	C264.062439,148.538559 252.604355,155.654648 241.122757,162.732376 
	C239.098511,163.980225 237.456711,165.209015 236.792084,167.814163 
	C235.958130,171.082993 233.265793,172.333466 230.057297,172.450668 
	C229.092285,170.365738 231.296112,170.170700 231.815979,168.172012 
	C226.119507,171.686401 220.363464,173.598282 214.463074,174.980423 
	C206.204224,176.915009 200.785324,175.237320 197.711136,168.960983 
	C203.538574,172.578308 208.725372,174.245758 214.777863,171.601242 
	C211.508194,168.446945 210.206482,165.298569 214.508820,161.734436 
	C215.825363,164.397675 212.591736,168.972305 217.945450,169.114792 
	C221.921555,169.220596 220.622070,165.830002 221.242233,163.612595 
	C225.598694,165.951126 229.700363,166.357071 234.101654,163.075195 
	C236.052994,161.787491 237.593750,160.858978 239.134506,159.930466 
z"/>
<path fill="#000000" opacity="1.000000" stroke="none" 
	d="
M276.708923,58.794411 
	C278.405701,62.065216 282.273163,64.720818 280.119049,68.374397 
	C277.904785,72.130020 273.524628,73.124298 269.232666,73.306252 
	C267.744446,73.369339 266.191711,73.446655 264.763763,73.111404 
	C260.243011,72.050087 259.009216,67.947258 262.097473,64.482483 
	C262.980042,63.492279 263.861572,62.365803 264.988922,61.753868 
	C268.691589,59.744072 270.657532,57.487865 269.297516,52.690262 
	C268.232910,48.934639 272.088928,45.071678 276.004974,45.034264 
	C278.547119,45.009968 280.592377,45.783852 279.781677,49.386787 
	C277.594940,49.131725 275.686646,46.281979 273.566528,49.088017 
	C272.098755,51.030651 271.549988,52.805565 273.035187,54.930824 
	C276.851654,55.527973 278.331085,50.877094 282.059082,51.158867 
	C282.948822,55.717094 276.850708,54.952438 276.708923,58.794411 
M270.044830,70.594299 
	C271.310120,70.196625 272.612732,69.889320 273.834015,69.385078 
	C278.270203,67.553444 278.505188,66.144142 275.477844,62.523464 
	C271.629700,57.921089 269.484009,62.594105 266.853302,64.049652 
	C265.190948,64.969398 262.985016,66.146362 263.768616,68.567299 
	C264.613739,71.178322 267.080383,70.865013 270.044830,70.594299 
z"/>
<path fill="#000000" opacity="1.000000" stroke="none" 
	d="
M189.532333,68.540726 
	C181.342850,68.154541 173.565033,68.208588 166.164551,65.013245 
	C190.485001,66.037315 214.775620,67.139114 239.037186,63.752014 
	C239.074081,64.564636 239.110962,65.377258 239.147842,66.189880 
	C222.902054,68.790688 206.544525,69.934357 189.532333,68.540726 
z"/>
<path fill="#000000" opacity="1.000000" stroke="none" 
	d="
M187.610596,103.147888 
	C189.031311,100.691147 189.423721,98.744507 193.438248,100.580040 
	C196.095642,101.795067 200.726868,99.708710 204.859787,100.178230 
	C205.490005,102.801178 206.016953,105.606667 209.045868,106.768417 
	C206.617661,109.004189 189.632858,109.409164 182.173462,107.625458 
	C182.812790,105.404472 184.753189,105.741058 186.220413,105.834030 
	C188.892380,106.003342 186.747101,104.020248 187.610596,103.147888 
z"/>
<path fill="#000000" opacity="1.000000" stroke="none" 
	d="
M267.661133,100.526779 
	C265.546539,103.987328 263.178009,105.545387 259.398010,102.322487 
	C257.243866,106.768463 254.604568,110.216484 249.056717,107.176636 
	C248.124969,105.966682 252.313187,103.072807 247.353622,102.663094 
	C250.612564,98.308693 256.457214,97.112129 257.049591,90.037674 
	C259.860352,94.155106 261.799225,96.669930 265.452271,96.998734 
	C266.900391,97.129089 268.223114,98.229904 267.661133,100.526779 
z"/>
<path fill="#000000" opacity="1.000000" stroke="none" 
	d="
M192.194290,165.895386 
	C174.409485,163.159454 156.908737,161.047379 141.106461,152.467957 
	C162.051361,158.744156 183.403198,162.851379 205.215866,164.889526 
	C201.024094,167.487350 196.798843,166.184052 192.194290,165.895386 
z"/>
<path fill="#000000" opacity="1.000000" stroke="none" 
	d="
M191.488861,152.568268 
	C197.374893,153.223633 203.044830,151.562119 208.210999,154.507401 
	C186.776245,156.008102 166.185806,151.458740 145.614502,146.774048 
	C145.708313,146.131485 145.802109,145.488907 145.895905,144.846344 
	C160.941574,147.406418 175.987259,149.966476 191.488861,152.568268 
z"/>
<path fill="#000000" opacity="1.000000" stroke="none" 
	d="
M280.209198,100.316086 
	C276.165710,100.006783 273.343079,101.597565 270.860352,105.175880 
	C269.332977,99.747269 273.280426,94.906784 269.650696,90.172668 
	C272.928864,89.632370 277.482788,94.443413 278.352631,87.262138 
	C279.218536,90.666634 284.920929,89.969162 283.443970,94.531349 
	C282.792877,96.542496 284.751526,100.002449 280.209198,100.316086 
z"/>
<path fill="#000000" opacity="1.000000" stroke="none" 
	d="
M179.151947,140.660980 
	C189.474319,142.799789 199.717529,141.064117 209.544861,143.607727 
	C188.337799,145.828430 167.818146,141.714615 147.382767,136.718567 
	C152.700424,135.691727 157.810333,137.221634 162.967651,138.006439 
	C168.224777,138.806427 173.458588,139.759750 179.151947,140.660980 
z"/>
<path fill="#000000" opacity="1.000000" stroke="none" 
	d="
M189.956421,129.787933 
	C198.204224,131.884216 206.447968,130.969452 214.217484,133.518417 
	C193.286987,133.787720 172.797165,129.249741 151.987930,128.266037 
	C164.566544,127.514198 177.073685,127.842880 189.956421,129.787933 
z"/>
<path fill="#000000" opacity="1.000000" stroke="none" 
	d="
M208.033691,244.035919 
	C210.288040,240.103851 218.370377,237.968826 221.892365,240.444656 
	C224.641159,242.376968 223.270004,244.432465 221.894424,246.420746 
	C219.702621,249.588806 215.693939,250.557251 213.169510,253.167343 
	C214.189178,255.626175 217.862549,253.689133 218.233521,257.613495 
	C213.336441,257.051086 208.685898,256.779053 203.417542,254.327026 
	C208.946472,250.243713 216.127045,249.963394 219.256500,243.749786 
	C215.472260,240.672455 212.165176,243.762680 208.391266,244.016174 
	C208.012329,244.010986 208.033691,244.035919 208.033691,244.035919 
z"/>
<path fill="#000000" opacity="1.000000" stroke="none" 
	d="
M241.109985,69.507736 
	C243.001465,71.399452 242.335114,74.337036 244.736099,75.751282 
	C240.458939,78.814690 231.558685,79.040215 226.837006,76.371002 
	C228.513000,74.380203 230.811371,75.094505 232.863724,74.968666 
	C234.835495,74.847748 236.820480,74.942528 239.498550,74.942528 
	C237.131866,72.975929 235.046722,73.522583 233.045502,73.558838 
	C231.817062,73.581100 230.645096,73.324875 230.405045,71.864639 
	C230.181000,70.501778 231.016342,69.733315 232.173111,69.211975 
	C235.104950,67.890656 237.972076,68.408302 241.109985,69.507736 
z"/>
<path fill="#000000" opacity="1.000000" stroke="none" 
	d="
M228.009918,148.025055 
	C224.971817,149.633682 222.500870,149.266327 220.614456,146.827850 
	C219.273956,145.095062 219.145172,143.236206 221.345963,141.708908 
	C223.168030,142.812347 221.826202,146.587723 225.189438,145.996384 
	C227.610519,145.570663 227.394104,143.422928 228.047806,141.207764 
	C230.489944,143.839935 233.311798,142.198227 235.810333,141.745697 
	C236.595993,144.901382 230.033569,145.249161 233.727875,147.857956 
	C236.507751,149.821030 237.872513,145.302826 240.103775,143.476105 
	C242.002457,145.856491 241.263672,147.876999 239.476562,149.208923 
	C237.150452,150.942551 234.369431,151.655304 231.520279,150.184402 
	C230.370590,149.590866 229.886490,148.013519 228.009918,148.025055 
z"/>
<path fill="#000000" opacity="1.000000" stroke="none" 
	d="
M230.933716,138.200531 
	C228.770737,137.012924 228.131104,135.263092 228.081970,132.610184 
	C235.043152,136.739273 238.770340,126.578880 245.519455,129.045975 
	C245.375793,132.004166 242.200516,131.045074 241.287415,132.815491 
	C241.968613,138.857193 241.252304,139.856583 236.189224,139.796249 
	C235.979996,137.814896 239.265274,137.586029 238.318588,134.990005 
	C235.211456,134.195251 233.853088,137.739182 230.933716,138.200531 
z"/>
<path fill="#000000" opacity="1.000000" stroke="none" 
	d="
M173.090515,93.080139 
	C174.304016,90.001442 175.979019,90.770866 178.769073,92.413307 
	C171.684998,99.410980 163.910690,94.130623 156.228378,95.515991 
	C157.567505,92.965782 157.642914,90.739502 160.578308,90.571411 
	C162.835953,90.442131 164.256042,91.010040 164.228958,94.587425 
	C166.611908,90.797638 168.695786,90.255844 170.896439,93.150818 
	C171.523163,93.975273 172.187363,94.090103 173.090515,93.080139 
z"/>
<path fill="#000000" opacity="1.000000" stroke="none" 
	d="
M116.721085,163.281799 
	C114.806084,164.643631 115.553841,166.784271 114.759163,168.288330 
	C108.495506,168.450043 106.838264,167.834518 104.283318,164.159531 
	C108.344154,164.574783 111.770157,164.088638 111.764160,158.742035 
	C114.472809,159.887222 117.224449,159.486420 119.186089,161.293472 
	C119.045158,162.908371 117.944519,162.931091 116.721085,163.281799 
z"/>
<path fill="#000000" opacity="1.000000" stroke="none" 
	d="
M148.443497,196.423889 
	C141.011566,198.295670 137.079300,195.524857 138.473938,189.981155 
	C142.936646,188.921692 146.280731,192.257004 150.355743,192.853470 
	C150.859238,194.512390 149.148346,195.018021 148.443497,196.423889 
z"/>
<path fill="#000000" opacity="1.000000" stroke="none" 
	d="
M166.844147,101.197937 
	C171.091019,100.001862 174.649033,103.269508 179.000046,101.545731 
	C178.554581,103.835388 178.232605,105.490250 177.866913,107.369858 
	C173.330673,108.107185 169.212967,106.563461 165.028076,104.760956 
	C164.706635,103.254234 164.832123,101.910255 166.844147,101.197937 
z"/>
<path fill="#000000" opacity="1.000000" stroke="none" 
	d="
M138.827881,203.822403 
	C137.022888,204.203674 135.409439,204.382980 133.157364,204.633270 
	C133.945938,202.353394 134.540710,200.633820 135.149719,198.873062 
	C139.269852,199.116882 142.665115,201.069290 146.327850,202.235748 
	C144.645508,206.140533 144.645508,206.140533 140.755127,206.080414 
	C139.598999,204.968582 141.649551,203.529037 140.390137,202.428955 
	C139.475296,202.304871 139.370605,203.103867 138.827881,203.822403 
z"/>
<path fill="#000000" opacity="1.000000" stroke="none" 
	d="
M224.021530,159.019775 
	C223.779556,157.428101 222.458725,156.036072 223.225311,153.815231 
	C229.310059,157.371735 234.113022,150.088379 240.297638,152.307968 
	C234.902069,154.141434 230.426270,157.892807 224.383484,159.019135 
	C224.003708,159.002121 224.021530,159.019775 224.021530,159.019775 
z"/>
<path fill="#000000" opacity="1.000000" stroke="none" 
	d="
M231.011398,119.332138 
	C224.179367,118.994148 217.743393,118.637215 211.307404,118.280281 
	C218.109009,115.364471 225.045288,116.154251 231.885620,117.018753 
	C233.722656,117.250923 233.468430,118.885468 231.011398,119.332138 
z"/>
<path fill="#000000" opacity="1.000000" stroke="none" 
	d="
M147.271957,168.737442 
	C149.946960,171.221451 153.085785,167.533401 155.897278,169.696045 
	C155.985794,170.013153 155.847565,170.121582 155.847565,170.121582 
	C153.655762,171.518158 151.119843,172.589905 151.127747,177.228485 
	C149.130005,173.790924 145.532547,178.280258 144.997162,173.026535 
	C145.313370,170.817642 146.301468,169.782883 147.271957,168.737442 
z"/>
<path fill="#000000" opacity="1.000000" stroke="none" 
	d="
M134.037567,183.782288 
	C132.762390,183.905853 131.642899,184.385971 131.024033,183.273743 
	C130.397812,182.148331 131.222549,181.405792 132.082260,180.847366 
	C133.668228,179.817245 134.894592,178.551300 134.754120,176.292969 
	C136.655136,176.687668 138.057236,176.978775 139.514999,177.281433 
	C139.026703,179.770920 138.592590,181.984192 138.179855,184.088470 
	C136.679977,185.324463 135.608871,183.703247 134.037567,183.782288 
z"/>
<path fill="#000000" opacity="1.000000" stroke="none" 
	d="
M212.279160,77.610703 
	C208.693008,77.517120 211.001968,75.779213 211.229980,74.773354 
	C211.768341,72.398209 213.767868,71.694092 215.801910,71.813622 
	C217.369980,71.905769 218.893082,72.763351 220.638611,73.348457 
	C219.916885,78.976517 215.338409,76.417450 212.279160,77.610703 
z"/>
<path fill="#000000" opacity="1.000000" stroke="none" 
	d="
M122.746170,200.289154 
	C124.879341,196.587158 127.755020,195.596619 131.461761,196.771057 
	C130.242142,199.389450 129.858780,200.953705 129.863571,203.735458 
	C127.378319,202.500626 124.196152,203.532272 122.746170,200.289154 
z"/>
<path fill="#000000" opacity="1.000000" stroke="none" 
	d="
M135.276047,125.462067 
	C135.739044,127.298645 136.098236,128.858139 136.517487,130.678436 
	C133.058823,131.251022 130.303238,129.880539 127.221169,128.671722 
	C127.859833,126.623611 130.677551,126.338898 129.974747,123.861946 
	C132.031158,124.400909 133.776459,124.051697 135.276047,125.462067 
z"/>
<path fill="#000000" opacity="1.000000" stroke="none" 
	d="
M147.285034,168.472763 
	C146.301468,169.782883 145.313370,170.817642 145.045837,172.670120 
	C142.613541,172.906845 140.233856,172.794769 137.653992,172.673279 
	C137.699661,169.714127 141.555161,169.336594 140.833450,165.558441 
	C143.165344,167.741364 145.959686,165.337646 147.285034,168.472763 
z"/>
<path fill="#000000" opacity="1.000000" stroke="none" 
	d="
M156.054504,169.958420 
	C157.880417,171.136459 159.719727,172.066864 162.038437,170.803009 
	C162.643768,174.123596 158.758484,174.628860 159.808792,177.511276 
	C157.701691,177.281860 156.126404,177.110352 154.316910,176.913345 
	C154.836334,174.674591 155.297546,172.686768 155.803162,170.410248 
	C155.847565,170.121582 155.985794,170.013153 156.054504,169.958420 
z"/>
<path fill="#000000" opacity="1.000000" stroke="none" 
	d="
M176.626038,116.858810 
	C174.421341,117.317627 172.505753,117.619583 169.939270,118.024147 
	C170.886581,115.656967 171.626404,113.808319 172.501862,111.620720 
	C174.628693,112.917885 176.918365,111.579849 179.129639,112.176971 
	C179.130936,114.231293 177.372345,115.140205 176.626038,116.858810 
z"/>
<path fill="#000000" opacity="1.000000" stroke="none" 
	d="
M208.003998,243.997894 
	C204.883560,246.741867 196.413467,246.561768 191.695435,243.265121 
	C197.249084,241.795822 202.194580,243.850922 207.601837,243.952515 
	C208.033691,244.035919 208.012329,244.010986 208.003998,243.997894 
z"/>
<path fill="#000000" opacity="1.000000" stroke="none" 
	d="
M155.210876,105.869247 
	C154.145569,106.268456 152.893005,106.582863 152.834213,105.687675 
	C152.715714,103.883263 153.567444,102.141701 155.278961,101.345978 
	C156.410400,100.819946 157.820953,100.894287 159.166855,100.690712 
	C160.470627,101.965805 160.447495,103.586899 160.618103,105.069801 
	C159.058517,107.203674 157.115738,105.064140 155.210876,105.869247 
z"/>
<path fill="#000000" opacity="1.000000" stroke="none" 
	d="
M147.152191,181.571716 
	C145.547867,184.027954 144.976898,188.183990 140.347000,185.375946 
	C141.318878,181.735535 142.582962,178.964645 147.152191,181.571716 
z"/>
<path fill="#000000" opacity="1.000000" stroke="none" 
	d="
M151.398056,182.275787 
	C152.897263,182.522751 154.122940,182.844620 155.675003,183.252213 
	C153.969910,187.090179 151.908920,189.527954 147.027618,187.903275 
	C148.360550,185.719269 150.765274,184.727356 151.398056,182.275787 
z"/>
<path fill="#000000" opacity="1.000000" stroke="none" 
	d="
M239.280304,159.609100 
	C237.593750,160.858978 236.052994,161.787491 234.297073,162.815445 
	C232.257629,162.692108 230.702850,162.126266 232.967575,160.373611 
	C235.027008,158.779800 237.130539,157.281143 238.471680,154.835739 
	C240.884506,156.297211 239.997238,157.817444 239.280304,159.609100 
z"/>
<path fill="#000000" opacity="1.000000" stroke="none" 
	d="
M153.496826,110.632973 
	C157.097366,110.243843 157.178314,113.589264 158.892563,115.609581 
	C156.459854,115.609581 154.027145,115.609581 151.450394,115.609581 
	C150.950409,113.629303 153.089951,112.608932 153.496826,110.632973 
z"/>
<path fill="#000000" opacity="1.000000" stroke="none" 
	d="
M223.996826,158.992447 
	C223.224136,161.302185 221.703949,161.455231 219.720428,160.545288 
	C217.696884,159.616989 215.829834,158.511459 215.771271,156.005615 
	C215.719437,153.788162 216.859543,152.426514 219.825836,151.918427 
	C217.967239,156.149689 218.768341,158.715332 223.655045,159.015594 
	C224.021530,159.019775 224.003708,159.002121 223.996826,158.992447 
z"/>
<path fill="#000000" opacity="1.000000" stroke="none" 
	d="
M129.438995,190.411804 
	C131.019699,188.067657 132.602005,187.837250 134.545242,189.599701 
	C134.689407,191.534149 133.170181,192.711807 132.689545,194.223129 
	C130.388153,194.296677 128.950851,193.285904 127.449280,192.701614 
	C127.639977,191.309723 128.429962,190.982285 129.438995,190.411804 
z"/>
<path fill="#000000" opacity="1.000000" stroke="none" 
	d="
M222.018555,105.981216 
	C219.477951,106.526299 216.778152,105.081436 213.890305,107.549416 
	C214.082809,104.461945 214.674301,102.483559 216.766068,102.093880 
	C219.100937,101.658913 220.711594,103.316292 221.883240,105.685127 
	C221.980591,106.026825 222.005341,105.996094 222.018555,105.981216 
z"/>
<path fill="#000000" opacity="1.000000" stroke="none" 
	d="
M224.723389,136.553680 
	C225.527557,137.699539 226.264114,138.553894 227.310440,139.767563 
	C224.942444,140.708282 222.881836,140.582336 221.937042,138.322296 
	C220.742661,135.465240 222.319931,133.497009 224.662415,132.016724 
	C226.745377,133.828796 224.435730,134.930756 224.723389,136.553680 
z"/>
<path fill="#000000" opacity="1.000000" stroke="none" 
	d="
M164.583664,111.987167 
	C167.880646,113.175972 167.880646,113.175972 168.314560,116.059280 
	C166.434189,117.324303 164.511368,115.939651 162.378235,116.214195 
	C163.455795,114.795845 160.872421,112.106956 164.583664,111.987167 
z"/>
<path fill="#000000" opacity="1.000000" stroke="none" 
	d="
M135.714020,262.666870 
	C137.209961,263.046783 138.413391,263.304047 138.065643,265.231689 
	C134.852036,266.001495 132.224152,264.529388 129.241669,263.031525 
	C132.155472,261.884644 132.155472,261.884644 135.714020,262.666870 
z"/>
<path fill="#000000" opacity="1.000000" stroke="none" 
	d="
M140.286987,92.272186 
	C139.036316,91.472069 138.410294,90.351143 139.860855,90.064949 
	C142.014694,89.639992 144.398911,89.449821 146.402679,91.402832 
	C144.701950,94.102127 142.558426,92.645859 140.286987,92.272186 
z"/>
<path fill="#000000" opacity="1.000000" stroke="none" 
	d="
M286.820770,86.773819 
	C289.707977,88.313057 289.749664,88.739990 287.498383,93.317871 
	C284.377289,91.535019 286.513367,89.145416 286.820770,86.773819 
z"/>
</svg>