<?xml version="1.0" standalone="no"?>
<!DOCTYPE svg PUBLIC "-//W3C//DTD SVG 20010904//EN"
 "http://www.w3.org/TR/2001/REC-SVG-20010904/DTD/svg10.dtd">
<svg version="1.0" xmlns="http://www.w3.org/2000/svg"
 width="225.000000pt" height="225.000000pt" viewBox="0 0 225.000000 225.000000"
 preserveAspectRatio="xMidYMid meet">

<g transform="translate(0.000000,225.000000) scale(0.100000,-0.100000)"
fill="#000000" stroke="none">
<path d="M1085 2147 c-77 -30 -139 -90 -159 -155 -5 -14 -13 -21 -21 -18 -70
26 -142 17 -190 -25 -65 -58 -66 -143 -2 -231 l30 -42 14 47 c15 51 77 119
123 136 26 9 28 7 44 -45 34 -109 145 -181 264 -172 270 20 333 380 87 494
-55 26 -138 31 -190 11z"/>
<path d="M1142 1579 c-44 -22 -74 -56 -87 -99 -11 -34 -83 -454 -79 -459 2 -2
23 9 48 25 44 28 45 30 39 70 -6 44 24 292 38 315 20 33 20 -11 2 -148 -18
-126 -19 -153 -8 -180 16 -39 13 -37 223 -117 182 -70 203 -73 240 -33 29 31
33 88 9 121 -7 10 -73 42 -147 71 l-135 53 2 54 c2 29 10 71 19 92 33 84 9
237 -39 250 -41 11 -82 6 -125 -15z"/>
<path d="M854 1496 c-58 -27 -97 -72 -113 -130 -6 -22 -9 -41 -8 -42 8 -8 123
23 175 47 68 33 86 54 96 112 l7 37 -53 0 c-35 0 -71 -8 -104 -24z"/>
<path d="M1388 1393 c-4 -35 -18 -87 -32 -119 -15 -32 -23 -60 -19 -64 10 -9
123 -50 123 -46 0 5 -60 269 -64 281 -1 6 -5 -18 -8 -52z"/>
<path d="M926 1349 c-27 -15 -77 -32 -110 -39 -34 -7 -68 -14 -77 -16 -11 -3
-29 -52 -59 -163 -45 -167 -47 -212 -12 -244 19 -17 207 -55 218 -44 9 8 95
497 92 517 -3 13 -12 10 -52 -11z"/>
<path d="M1109 1012 c-12 -8 -52 -32 -88 -51 l-65 -36 -27 -155 c-37 -206 -39
-190 21 -190 28 0 50 -2 50 -5 0 -3 -29 -78 -65 -167 -36 -89 -65 -175 -65
-191 0 -89 104 -145 181 -100 34 20 53 57 134 261 32 79 59 141 61 140 2 -2
32 -82 67 -179 76 -208 79 -215 117 -234 80 -41 180 16 180 104 0 12 -27 96
-60 188 -33 91 -60 170 -60 175 0 4 23 8 50 8 47 0 50 1 45 23 -12 53 -65 289
-65 292 0 2 -19 5 -42 7 -24 3 -111 32 -195 65 -143 57 -153 60 -174 45z"/>
</g>
</svg>
