<?xml version="1.0" standalone="no"?>
<!DOCTYPE svg PUBLIC "-//W3C//DTD SVG 20010904//EN"
 "http://www.w3.org/TR/2001/REC-SVG-20010904/DTD/svg10.dtd">
<svg version="1.0" xmlns="http://www.w3.org/2000/svg"
 width="225.000000pt" height="225.000000pt" viewBox="0 0 225.000000 225.000000"
 preserveAspectRatio="xMidYMid meet">

<g transform="translate(0.000000,225.000000) scale(0.100000,-0.100000)"
fill="#000000" stroke="none">
<path d="M1040 2243 c-451 -40 -821 -325 -973 -750 -80 -221 -80 -515 0 -736
118 -329 361 -572 688 -690 121 -43 227 -60 375 -59 198 0 335 34 510 123 305
156 511 430 586 779 22 105 22 320 -1 430 -107 517 -527 877 -1055 903 -47 3
-105 3 -130 0z m330 -162 c346 -91 616 -361 711 -711 20 -72 24 -110 24 -245
0 -137 -3 -172 -23 -245 -96 -351 -362 -616 -712 -712 -73 -19 -108 -23 -245
-22 -165 0 -216 8 -343 55 -266 97 -484 315 -581 581 -47 128 -55 178 -55 343
0 165 8 215 55 343 122 333 424 579 784 635 77 13 301 -1 385 -22z"/>
<path d="M968 1980 c-170 -31 -323 -113 -454 -244 -107 -107 -170 -207 -216
-346 -31 -92 -32 -101 -32 -265 0 -164 1 -173 32 -265 46 -139 109 -239 216
-346 107 -107 207 -170 346 -216 92 -31 101 -32 265 -32 165 0 173 0 265 32
143 48 239 108 350 221 175 177 250 359 250 606 0 247 -75 429 -250 606 -112
113 -209 174 -350 220 -84 28 -111 32 -235 35 -77 1 -161 -1 -187 -6z m358
-445 c62 -18 131 -76 155 -129 22 -49 24 -128 5 -211 -8 -33 -12 -63 -10 -67
3 -5 18 -8 34 -8 54 0 88 75 124 274 9 49 23 104 31 122 13 33 16 34 69 34 30
0 58 -5 61 -10 4 -6 -3 -52 -15 -103 -12 -50 -48 -218 -80 -373 -32 -155 -66
-296 -74 -313 -20 -38 -47 -53 -89 -49 -44 4 -45 26 -12 174 16 67 25 129 22
138 -4 9 -19 21 -34 27 -43 16 -92 -4 -175 -69 -164 -130 -238 -165 -391 -183
-76 -10 -107 -9 -182 4 -108 19 -225 75 -266 127 -53 67 -55 171 -3 190 15 6
193 10 424 10 l399 0 28 47 c21 36 28 64 31 113 4 76 -14 119 -67 159 l-34 26
7 -66 c10 -95 -23 -167 -96 -205 -35 -18 -101 -18 -137 1 -62 32 -109 118 -97
178 15 72 95 147 179 167 54 13 141 11 193 -5z"/>
<path d="M1079 1418 c-37 -47 -47 -111 -19 -128 67 -42 122 47 81 129 -12 22
-23 41 -25 41 -1 0 -18 -19 -37 -42z"/>
<path d="M588 1022 c-16 -9 -28 -20 -28 -23 0 -4 20 -25 44 -47 113 -104 354
-102 526 4 88 55 98 63 80 74 -9 6 -140 10 -305 10 -256 -1 -293 -3 -317 -18z"/>
</g>
</svg>
