<?xml version="1.0" standalone="no"?>
<!DOCTYPE svg PUBLIC "-//W3C//DTD SVG 20010904//EN"
 "http://www.w3.org/TR/2001/REC-SVG-20010904/DTD/svg10.dtd">
<svg version="1.0" xmlns="http://www.w3.org/2000/svg"
 width="226.000000pt" height="223.000000pt" viewBox="0 0 226.000000 223.000000"
 preserveAspectRatio="xMidYMid meet">

<g transform="translate(0.000000,223.000000) scale(0.100000,-0.100000)"
fill="#000000" stroke="none">
<path d="M1222 2202 l-33 -17 -2 -138 c-1 -75 -2 -137 -2 -137 1 0 18 9 40 20
52 27 69 25 145 -11 91 -43 146 -40 203 9 15 13 17 34 17 149 l0 134 -43 -26
c-57 -33 -94 -32 -167 5 -68 34 -111 38 -158 12z"/>
<path d="M1110 2048 l0 -163 -445 -229 -445 -230 0 -73 0 -73 913 2 912 3 0
70 0 70 -215 111 c-118 61 -318 165 -445 230 l-230 119 -3 163 c-2 154 -4 162
-22 162 -19 0 -20 -7 -20 -162z"/>
<path d="M280 1125 l0 -65 60 0 60 0 0 -290 0 -290 -30 0 c-25 0 -30 -4 -30
-25 0 -21 -5 -25 -30 -25 -29 0 -30 -2 -30 -45 l0 -45 850 0 850 0 0 45 c0 43
-1 45 -30 45 -25 0 -30 4 -30 25 0 21 -5 25 -30 25 l-30 0 0 290 0 290 60 0
60 0 0 65 0 65 -850 0 -850 0 0 -65z m530 -355 l0 -290 -30 0 c-25 0 -30 -4
-30 -25 0 -22 -4 -25 -35 -25 -31 0 -35 3 -35 25 0 21 -5 25 -30 25 l-30 0 0
290 0 290 95 0 95 0 0 -290z m420 0 l0 -290 -29 0 c-23 0 -30 -5 -33 -22 -2
-19 -9 -23 -38 -23 -29 0 -36 4 -38 23 -3 17 -10 22 -33 22 l-29 0 0 290 0
290 100 0 100 0 0 -290z m410 0 l0 -290 -30 0 c-25 0 -30 -4 -30 -25 0 -22 -4
-25 -35 -25 -31 0 -35 3 -35 25 0 21 -5 25 -30 25 l-30 0 0 290 0 290 95 0 95
0 0 -290z"/>
<path d="M180 210 l0 -70 -90 0 -90 0 0 -65 0 -65 1130 0 1130 0 0 65 0 65
-90 0 -90 0 0 70 0 70 -950 0 -950 0 0 -70z"/>
</g>
</svg>
