<?xml version="1.0" standalone="no"?>
<!DOCTYPE svg PUBLIC "-//W3C//DTD SVG 20010904//EN"
 "http://www.w3.org/TR/2001/REC-SVG-20010904/DTD/svg10.dtd">
<svg version="1.0" xmlns="http://www.w3.org/2000/svg"
 width="350.000000pt" height="350.000000pt" viewBox="0 0 350.000000 350.000000"
 preserveAspectRatio="xMidYMid meet">

<g transform="translate(0.000000,350.000000) scale(0.100000,-0.100000)"
fill="#000000" stroke="none">
<path d="M1734 3246 c-13 -10 -23 -11 -31 -4 -7 6 -24 7 -38 4 -23 -6 -25 -11
-24 -54 1 -26 5 -60 10 -77 5 -19 6 -5 3 41 -5 63 -4 72 13 78 23 9 53 -25 54
-63 1 -14 5 -37 10 -51 5 -16 6 -1 2 42 -4 57 -3 69 11 74 23 9 46 -14 46 -47
0 -66 39 -102 70 -64 8 9 9 15 2 15 -6 0 -13 -4 -17 -10 -12 -20 -34 3 -40 43
-7 43 -29 87 -43 87 -5 0 -17 -6 -28 -14z"/>
<path d="M1521 3219 c-41 -44 -23 -149 26 -149 8 0 25 11 38 26 23 25 23 25
30 4 4 -12 9 -20 11 -17 2 2 -4 37 -14 78 -17 67 -21 74 -44 77 -17 2 -33 -5
-47 -19z m64 -53 c0 -45 -4 -61 -17 -70 -48 -30 -81 71 -38 114 37 37 55 23
55 -44z"/>
<path d="M2013 3189 c-56 -33 -55 -30 -87 -169 -9 -36 -12 -67 -8 -71 4 -3 58
-18 121 -33 l115 -26 37 26 c20 14 44 33 52 42 18 22 61 193 50 202 -4 5 -53
18 -108 30 -55 13 -104 24 -110 26 -5 2 -34 -10 -62 -27z m265 -48 c0 -9 -6
-49 -15 -88 -12 -61 -21 -78 -50 -103 -19 -17 -37 -29 -40 -27 -2 3 3 42 13
86 16 74 21 84 51 102 19 12 32 24 29 26 -3 3 -18 -4 -35 -16 l-30 -21 -111
28 -112 28 47 25 47 26 102 -25 c75 -19 103 -30 104 -41z m-190 -25 c51 -13
95 -26 98 -29 3 -2 -4 -45 -16 -95 l-21 -90 -57 14 c-31 7 -81 19 -109 25 -61
14 -60 12 -36 122 13 54 22 77 33 77 8 0 57 -11 108 -24z"/>
<path d="M2031 3042 c-33 -52 -42 -82 -13 -45 23 31 62 21 62 -15 0 -14 3 -23
6 -19 9 8 -6 127 -16 127 -4 0 -22 -22 -39 -48z m39 3 c0 -17 -4 -23 -15 -19
-11 5 -12 11 -4 25 13 26 19 24 19 -6z"/>
<path d="M1343 3199 c-11 -4 -24 -12 -27 -17 -3 -6 -15 -8 -27 -5 -12 4 -32
-3 -49 -16 -16 -11 -43 -21 -59 -21 -20 0 -35 -8 -45 -22 -24 -34 -19 -45 5
-13 18 21 28 26 53 22 23 -3 35 1 49 20 15 19 26 23 44 18 17 -4 32 0 44 11
13 12 28 15 49 10 17 -3 29 -2 26 3 -9 14 -40 19 -63 10z"/>
<path d="M2394 3089 c-8 -14 11 -33 25 -25 6 4 11 14 11 22 0 16 -26 19 -36 3z"/>
<path d="M2452 3033 c2 -10 10 -18 18 -18 8 0 16 8 18 18 2 12 -3 17 -18 17
-15 0 -20 -5 -18 -17z"/>
<path d="M2386 3032 c-3 -6 -1 -14 5 -17 15 -10 25 3 12 16 -7 7 -13 7 -17 1z"/>
<path d="M1053 3013 c-12 -2 -33 -15 -46 -27 -17 -15 -30 -20 -39 -15 -20 13
-64 11 -101 -5 -42 -17 -69 -59 -71 -107 0 -29 -6 -40 -23 -48 -55 -25 -69
-115 -26 -163 26 -30 80 -50 113 -43 23 5 31 2 40 -15 15 -28 69 -50 123 -50
33 0 49 6 66 24 l23 24 32 -19 c36 -22 108 -25 146 -6 14 7 34 27 45 44 11 17
35 36 53 43 36 13 72 62 72 98 0 13 -7 37 -16 53 -8 17 -16 52 -18 78 -1 30
-10 58 -24 78 -40 56 -129 67 -185 23 -24 -19 -25 -19 -42 0 -15 17 -79 43
-95 39 -3 -1 -15 -4 -27 -6z m113 -43 l28 -29 27 25 c33 32 103 36 144 10 31
-21 59 -80 51 -110 -3 -11 4 -40 15 -63 33 -68 6 -131 -63 -148 -17 -4 -31
-18 -39 -37 -23 -56 -112 -75 -182 -39 l-38 19 -24 -24 c-42 -42 -141 -27
-179 27 -11 17 -20 20 -45 14 -60 -13 -131 46 -131 108 0 29 32 73 60 82 16 5
20 15 20 49 0 29 7 52 21 69 26 34 87 53 126 40 24 -9 33 -7 56 13 21 18 40
24 77 24 41 0 53 -5 76 -30z"/>
<path d="M1283 2953 c-7 -2 -12 -14 -12 -26 1 -17 2 -18 6 -4 6 21 32 22 40 1
3 -9 -2 -31 -11 -50 -18 -39 -21 -84 -5 -84 6 0 8 8 4 20 -3 10 1 33 9 49 19
36 20 73 4 89 -13 13 -16 13 -35 5z"/>
<path d="M1057 2873 c-4 -21 -9 -65 -12 -97 l-7 -59 -23 29 -23 29 -14 -35
-15 -35 -28 85 c-24 74 -45 119 -45 97 0 -23 63 -197 71 -197 5 0 16 14 23 31
l13 31 23 -31 c12 -18 24 -30 26 -28 6 6 26 208 21 213 -3 3 -7 -12 -10 -33z"/>
<path d="M1097 2832 c7 -105 21 -161 22 -89 1 73 50 78 51 5 0 -15 5 -30 10
-33 13 -8 13 10 0 57 -11 39 -28 51 -51 37 -11 -7 -17 4 -26 49 l-12 57 6 -83z"/>
<path d="M1204 2778 c9 -44 25 -60 53 -53 21 5 23 2 23 -39 0 -29 -5 -46 -15
-49 -8 -4 -17 -2 -20 3 -4 6 -11 10 -17 10 -7 0 -6 -6 2 -15 18 -21 47 -19 60
6 9 15 8 39 -1 90 -12 70 -31 106 -27 52 4 -61 -26 -71 -42 -13 -13 47 -25 54
-16 8z"/>
<path d="M1571 3001 c-17 -11 -8 -63 28 -156 19 -50 32 -71 46 -73 13 -2 52
25 107 73 87 75 88 76 72 100 -9 14 -20 25 -23 25 -4 0 -33 -18 -65 -40 -31
-22 -61 -40 -65 -40 -4 0 -19 27 -32 60 -23 59 -38 70 -68 51z m58 -59 c13
-31 27 -61 31 -65 4 -5 36 12 72 37 49 34 68 42 76 34 7 -7 12 -17 11 -22 -1
-18 -159 -148 -172 -143 -13 5 -77 165 -77 192 0 12 13 22 30 24 3 0 16 -25
29 -57z"/>
<path d="M2435 2951 c-151 -40 -207 -195 -103 -287 35 -31 73 -42 189 -53 121
-12 136 -16 150 -44 9 -16 13 -17 20 -6 5 8 9 23 9 33 0 11 18 34 40 53 102
88 64 230 -77 283 -60 22 -181 34 -228 21z m167 -15 c150 -32 217 -123 169
-230 -12 -28 -32 -53 -50 -64 -20 -11 -31 -25 -31 -39 0 -27 -3 -28 -34 -8
-13 9 -76 21 -144 29 -138 16 -174 32 -203 88 -34 66 -21 124 39 181 56 53
138 67 254 43z"/>
<path d="M2393 2799 c-16 -16 -5 -39 17 -39 23 0 32 13 24 34 -7 19 -25 21
-41 5z m29 -14 c0 -5 -5 -11 -11 -13 -6 -2 -11 4 -11 13 0 9 5 15 11 13 6 -2
11 -8 11 -13z"/>
<path d="M2510 2794 c-11 -12 -10 -18 3 -32 16 -15 18 -15 34 0 13 14 14 20 3
32 -7 9 -16 16 -20 16 -4 0 -13 -7 -20 -16z m35 -24 c-5 -8 -11 -8 -17 -2 -6
6 -7 16 -3 22 5 8 11 8 17 2 6 -6 7 -16 3 -22z"/>
<path d="M2628 2788 c-8 -21 2 -38 22 -38 19 0 34 25 24 41 -8 13 -41 11 -46
-3z m34 -13 c0 -5 -5 -11 -11 -13 -6 -2 -11 4 -11 13 0 9 5 15 11 13 6 -2 11
-8 11 -13z"/>
<path d="M2031 2807 c-7 -17 -18 -27 -31 -27 -23 0 -26 -13 -6 -29 7 -6 11
-22 8 -36 -5 -29 4 -32 30 -8 14 13 21 14 30 5 18 -18 28 -14 28 10 0 12 7 29
16 39 14 16 14 18 -8 24 -13 4 -31 17 -40 28 l-17 22 -10 -28z m44 -27 c17 0
20 -16 5 -25 -5 -3 -6 -13 -3 -22 5 -13 2 -15 -11 -10 -10 4 -26 2 -36 -3 -16
-9 -18 -8 -14 5 4 8 1 22 -6 30 -10 12 -10 15 3 15 9 0 19 10 23 22 6 19 7 19
16 5 5 -10 16 -17 23 -17z"/>
<path d="M586 2675 c-5 -18 -13 -25 -31 -25 -27 0 -34 -17 -10 -26 9 -4 15
-19 15 -35 0 -33 2 -34 30 -17 15 10 22 10 32 0 20 -20 31 -14 24 14 -5 19 -1
30 16 44 l23 19 -28 1 c-19 0 -31 7 -39 25 -6 14 -15 25 -19 25 -4 0 -10 -11
-13 -25z m28 -20 c3 -8 13 -15 22 -15 13 0 14 -3 4 -15 -7 -8 -10 -22 -6 -30
6 -17 -9 -21 -19 -5 -4 7 -13 7 -26 0 -16 -9 -19 -7 -19 8 0 10 -5 23 -12 30
-9 9 -7 12 10 12 13 0 22 6 22 15 0 8 4 15 9 15 5 0 11 -7 15 -15z"/>
<path d="M1637 2680 c3 -11 7 -20 9 -20 2 0 4 9 4 20 0 11 -4 20 -9 20 -5 0
-7 -9 -4 -20z"/>
<path d="M2897 2669 c-11 -15 -21 -19 -36 -14 -15 4 -21 2 -21 -9 0 -8 5 -18
10 -21 7 -4 7 -12 0 -25 -15 -27 -13 -29 25 -27 19 1 35 5 35 8 0 13 -14 18
-30 9 -14 -8 -17 -5 -16 20 1 17 5 30 10 30 5 0 18 7 28 17 16 15 18 15 18 0
0 -9 8 -20 18 -26 16 -9 16 -11 1 -23 -20 -16 -35 -58 -20 -58 5 0 11 10 13
22 2 12 14 28 27 35 l25 12 -27 12 c-15 7 -27 20 -27 30 0 27 -17 32 -33 8z"/>
<path d="M1853 2638 c-23 -30 -24 -41 -2 -21 12 12 20 25 17 28 -3 3 -10 0
-15 -7z"/>
<path d="M1621 2602 c-95 -53 -108 -187 -28 -294 35 -46 65 -111 60 -126 -3
-7 -2 -33 2 -58 5 -37 11 -47 33 -55 15 -6 40 -17 56 -25 41 -20 47 -18 88 30
35 41 45 82 25 103 -4 3 -7 14 -7 24 0 9 -5 19 -11 21 -14 5 -13 91 1 138 26
89 -2 191 -64 230 -49 29 -113 34 -155 12z m142 -19 c33 -16 64 -64 73 -111 4
-18 -1 -71 -10 -117 -9 -46 -14 -95 -11 -108 5 -19 2 -25 -16 -30 -12 -3 -25
-4 -29 -2 -12 7 -32 143 -25 166 5 14 4 19 -4 15 -6 -4 -11 -3 -11 3 0 5 5 12
10 14 6 3 5 4 -2 3 -7 -1 -15 -13 -19 -27 -7 -24 -7 -24 -8 4 -1 18 -6 27 -17
27 -12 0 -15 -7 -12 -25 6 -27 -6 -34 -16 -10 -7 19 -36 20 -36 1 0 -8 10 -22
22 -30 14 -10 29 -39 40 -78 22 -79 22 -78 -2 -78 -12 0 -26 12 -36 33 -9 17
-32 53 -50 80 -61 85 -68 168 -21 238 37 56 108 68 180 32z m-23 -300 c15 -63
15 -73 2 -78 -19 -7 -18 -10 -36 61 -20 79 -20 96 1 92 11 -2 21 -25 33 -75z
m98 -85 c-6 -16 -84 -38 -136 -38 -65 0 -48 23 23 32 32 4 60 10 63 13 11 10
54 5 50 -7z m10 -35 c-4 -22 -79 -44 -138 -41 -64 4 -56 22 15 30 33 3 71 11
85 17 36 14 42 13 38 -6z m12 -43 c0 -15 -105 -42 -147 -38 -53 4 -43 22 14
26 26 2 63 9 83 16 36 13 50 12 50 -4z m-55 -50 c-3 -5 -23 -9 -43 -9 l-37 1
30 8 c44 11 57 11 50 0z"/>
<path d="M2166 2575 c-3 -9 -6 -27 -6 -40 0 -44 -9 -54 -46 -48 -67 11 -110
-50 -64 -92 13 -12 30 -16 55 -13 26 3 35 0 35 -11 0 -37 9 3 24 103 16 103
16 137 2 101z m-32 -108 c17 -12 17 -17 5 -43 -17 -35 -53 -43 -80 -18 -25 22
-24 39 3 58 27 20 48 20 72 3z"/>
<path d="M1465 2540 c10 -11 23 -20 28 -20 6 0 2 9 -8 20 -10 11 -23 20 -28
20 -6 0 -2 -9 8 -20z"/>
<path d="M2554 2480 c-4 -27 -12 -40 -23 -41 -10 0 -11 -2 -3 -6 8 -3 12 -27
12 -68 0 -72 15 -94 46 -70 18 14 17 15 -8 9 -26 -6 -28 -4 -28 29 0 56 11 96
29 100 14 4 14 5 -2 6 -14 1 -16 7 -11 41 4 22 4 40 0 40 -3 0 -9 -18 -12 -40z"/>
<path d="M2850 2511 c-44 -9 -110 -43 -132 -68 -35 -38 -49 -91 -47 -178 1
-45 -2 -88 -5 -94 -9 -14 11 -113 27 -136 11 -14 22 -16 61 -10 61 10 72 31
57 108 -14 65 -37 91 -75 81 -26 -6 -26 -6 -26 57 0 91 26 140 93 173 125 63
249 7 282 -126 6 -25 5 -28 -19 -28 -19 0 -27 -6 -32 -25 -8 -31 3 -90 23
-128 14 -28 17 -29 61 -22 56 8 72 20 72 50 0 33 -28 106 -49 130 -10 11 -26
45 -36 75 -23 70 -75 123 -138 139 -50 12 -64 12 -117 2z m127 -17 c36 -7 84
-55 109 -109 25 -52 31 -80 15 -70 -5 3 -12 19 -16 36 -8 37 -57 94 -98 116
-40 20 -123 19 -173 -2 -82 -34 -114 -87 -114 -190 0 -37 -4 -65 -10 -65 -18
0 -11 131 9 176 41 91 152 134 278 108z m167 -216 c25 -40 40 -116 26 -133 -7
-8 -16 -15 -20 -15 -10 0 -52 149 -45 160 10 16 24 11 39 -12z m-44 -40 c6
-24 15 -56 21 -72 7 -22 6 -32 -3 -38 -33 -21 -63 15 -75 87 -7 44 1 65 26 65
15 0 23 -10 31 -42z m-334 -36 c18 -12 32 -44 39 -93 5 -35 3 -48 -9 -58 -27
-23 -43 -5 -56 63 -15 82 -7 110 26 88z m-47 -39 c5 -21 13 -60 17 -86 6 -44
5 -49 -12 -45 -10 2 -24 14 -31 28 -13 26 -18 122 -6 133 14 14 23 6 32 -30z"/>
<path d="M416 2420 c-45 -58 -50 -70 -91 -233 -54 -215 -79 -350 -71 -382 9
-35 66 -62 103 -49 48 17 60 50 112 309 l50 250 -17 79 c-10 44 -23 81 -28 83
-6 2 -32 -24 -58 -57z m60 23 c-10 -10 -19 5 -10 18 6 11 8 11 12 0 2 -7 1
-15 -2 -18z m7 -20 c3 -5 8 -29 12 -56 l7 -47 -31 3 c-17 2 -34 7 -38 10 -3 4
-17 7 -30 7 -29 0 -29 3 5 51 25 36 63 52 75 32z m-88 -105 c5 -12 -80 -417
-89 -425 -2 -2 -10 -1 -18 2 -14 5 -12 23 12 138 51 245 79 328 95 285z m60
-18 c-2 -8 -19 -82 -36 -165 -17 -82 -37 -174 -43 -204 -12 -56 -21 -67 -44
-53 -10 7 -3 54 35 224 45 206 48 216 70 214 15 -1 21 -6 18 -16z m41 -29 c-3
-20 -22 -118 -43 -218 -31 -155 -40 -183 -55 -183 -10 0 -18 5 -18 12 0 11 78
392 85 414 2 6 11 11 20 11 14 0 16 -7 11 -36z m-121 -411 c19 0 35 -4 35 -10
0 -5 -16 -10 -35 -10 -41 0 -105 24 -105 39 0 6 15 4 35 -5 19 -7 50 -14 70
-14z m-82 -12 c12 -7 45 -15 72 -18 l50 -5 -33 -34 c-27 -27 -37 -32 -60 -27
-34 8 -62 41 -62 72 0 27 3 29 33 12z"/>
<path d="M620 2465 c-10 -12 -8 -21 14 -49 14 -19 26 -37 26 -41 0 -3 -16 -20
-36 -37 -35 -31 -35 -31 -15 -51 19 -20 20 -20 60 12 l40 32 28 -36 c32 -40
43 -43 66 -17 16 17 15 20 -13 47 -17 16 -30 33 -30 38 0 6 17 25 38 43 l37
33 -20 20 -21 21 -37 -31 -38 -32 -33 32 c-36 35 -48 38 -66 16z m64 -31 l31
-35 35 30 c64 55 89 30 28 -28 l-38 -36 30 -34 c33 -37 36 -46 18 -57 -7 -5
-25 8 -45 31 l-33 38 -40 -28 c-29 -20 -44 -25 -51 -18 -8 8 0 21 26 45 l37
33 -32 39 c-23 30 -27 41 -18 48 18 11 18 12 52 -28z"/>
<path d="M2223 2465 c-25 -17 -35 -62 -21 -90 21 -40 48 -45 78 -15 28 28 27
84 -2 104 -27 20 -29 20 -55 1z m63 -31 c10 -41 -11 -76 -44 -72 -21 2 -28 9
-30 30 -5 39 14 68 43 68 18 0 26 -7 31 -26z"/>
<path d="M1920 2455 c-15 -8 -19 -14 -10 -14 18 -1 46 16 40 23 -3 2 -16 -2
-30 -9z"/>
<path d="M2330 2394 c-7 -30 -9 -58 -7 -61 3 -3 9 12 13 33 10 57 22 76 47 72
19 -3 23 -11 27 -63 l6 -60 8 46 c11 63 -4 89 -49 89 -33 0 -34 -1 -45 -56z"/>
<path d="M2472 2405 c0 -16 2 -22 5 -12 2 9 2 23 0 30 -3 6 -5 -1 -5 -18z"/>
<path d="M1055 2385 c-55 -13 -104 -24 -110 -25 -5 0 -17 -5 -25 -10 -13 -8
-12 -11 4 -23 19 -14 19 -18 6 -87 -9 -48 -10 -78 -4 -89 16 -27 134 -80 214
-97 42 -9 103 -14 139 -12 78 5 94 20 111 113 16 84 35 76 27 -12 -4 -35 -13
-73 -22 -86 -8 -12 -15 -34 -15 -49 0 -21 6 -29 25 -34 14 -4 28 -4 31 -1 3 2
1 61 -3 131 -5 77 -5 127 1 129 18 6 -4 25 -111 101 -122 87 -119 86 -268 51z
m256 -56 c96 -69 119 -89 102 -89 -5 0 -60 13 -121 29 -62 15 -114 26 -116 22
-2 -3 41 -17 96 -29 55 -13 98 -25 96 -28 -2 -2 -51 -15 -109 -28 l-104 -25
-50 32 c-87 54 -174 122 -167 129 9 8 218 56 250 57 14 1 64 -28 123 -70z
m-247 -103 l89 -58 86 20 c47 11 101 24 119 27 l33 7 -7 -39 c-19 -107 -42
-133 -122 -133 -106 0 -311 66 -326 106 -9 25 15 144 28 136 6 -4 51 -33 100
-66z m366 -212 c0 -24 -5 -34 -15 -34 -22 0 -30 27 -16 56 15 33 31 22 31 -22z"/>
<path d="M1440 2370 c0 -5 12 -10 28 -9 24 0 25 1 7 9 -27 12 -35 12 -35 0z"/>
<path d="M2007 2243 c-4 -3 -7 -60 -7 -125 0 -113 1 -118 21 -118 32 0 89 30
106 57 20 30 19 98 -2 129 -28 43 -99 77 -118 57z m86 -42 c39 -38 49 -81 29
-123 -17 -33 -85 -79 -98 -66 -3 4 -6 47 -6 95 0 143 -1 135 25 128 12 -4 34
-19 50 -34z"/>
<path d="M2040 2120 c0 -38 4 -70 9 -70 5 0 19 8 30 18 28 22 31 75 6 102 -34
38 -45 26 -45 -50z m36 43 c23 -31 15 -93 -12 -93 -10 0 -14 15 -14 55 0 59 5
65 26 38z"/>
<path d="M2185 2145 c-48 -47 -25 -145 35 -145 37 0 60 32 60 85 0 30 -6 47
-23 63 -30 28 -42 28 -72 -3z m65 -5 c38 -38 17 -130 -30 -130 -9 0 -25 9 -35
20 -32 35 -5 130 37 130 4 0 17 -9 28 -20z"/>
<path d="M2194 2096 c-7 -30 11 -67 30 -60 8 3 16 16 18 29 10 48 -36 78 -48
31z m36 -16 c0 -16 -4 -30 -10 -30 -5 0 -10 14 -10 30 0 17 5 30 10 30 6 0 10
-13 10 -30z"/>
<path d="M2323 2144 c-22 -22 -25 -32 -20 -71 2 -25 12 -52 20 -61 22 -21 77
-20 93 3 18 25 0 47 -32 39 -15 -4 -24 -2 -24 5 0 6 10 11 23 11 49 0 60 38
22 75 -31 32 -50 31 -82 -1z m85 -12 c19 -25 8 -41 -40 -56 -31 -9 -21 -36 13
-36 40 0 34 -24 -8 -28 -38 -4 -63 26 -63 75 0 63 61 91 98 45z"/>
<path d="M2339 2124 c-10 -13 -10 -17 2 -25 12 -7 46 -4 58 7 7 6 -21 34 -34
34 -7 0 -18 -7 -26 -16z m46 -4 c4 -6 -5 -10 -20 -10 -15 0 -24 4 -20 10 3 6
12 10 20 10 8 0 17 -4 20 -10z"/>
<path d="M2470 2150 c-27 -27 -25 -36 11 -70 34 -30 33 -58 -2 -40 -22 12 -39
6 -39 -15 0 -14 22 -26 48 -24 10 1 7 4 -7 8 -14 4 -26 12 -29 19 -3 10 2 10
22 0 22 -10 29 -9 43 5 15 15 14 18 -15 44 -37 32 -41 58 -12 73 22 12 60 -2
60 -21 0 -6 -6 -6 -18 0 -13 7 -23 6 -30 -1 -9 -9 -5 -19 18 -39 36 -33 38
-52 8 -73 -12 -9 -17 -16 -11 -16 18 0 43 29 43 50 0 11 -12 31 -27 45 l-28
25 24 -2 c29 -4 37 14 16 36 -22 22 -51 20 -75 -4z"/>
<path d="M553 2084 c-7 -18 42 -231 57 -247 20 -22 104 50 116 100 10 39 -23
109 -61 133 -50 31 -103 38 -112 14z m110 -26 c40 -29 52 -58 48 -124 -1 -28
-54 -84 -78 -84 -16 0 -24 18 -47 109 -16 60 -25 114 -21 121 9 15 62 3 98
-22z"/>
<path d="M594 2033 c3 -10 10 -40 17 -68 15 -64 21 -70 44 -45 28 31 24 79 -9
107 -33 28 -60 31 -52 6z m48 -20 c18 -16 23 -48 12 -77 -10 -27 -21 -18 -33
28 -18 71 -14 81 21 49z"/>
<path d="M756 2048 c-48 -68 20 -190 83 -151 39 24 36 117 -5 158 -22 22 -60
19 -78 -7z m73 -2 c39 -47 30 -146 -13 -146 -33 0 -58 33 -63 83 -4 32 -1 48
12 60 20 21 48 22 64 3z"/>
<path d="M787 2023 c-13 -13 -7 -71 9 -84 14 -11 18 -11 29 4 24 33 -11 107
-38 80z m34 -34 c3 -13 4 -30 1 -37 -8 -22 -32 8 -32 40 0 35 21 34 31 -3z"/>
<path d="M3069 2011 c-21 -22 -29 -39 -29 -66 0 -46 15 -75 39 -75 28 0 41 22
35 62 -5 30 -3 36 14 40 25 7 52 -19 52 -50 0 -12 -20 -44 -45 -72 -35 -39
-45 -59 -45 -85 0 -55 16 -87 43 -83 18 2 23 11 27 50 4 35 14 56 37 80 41 42
56 83 48 130 -16 92 -114 131 -176 69z m129 -3 c53 -58 50 -124 -9 -192 -30
-33 -39 -53 -39 -79 0 -42 -18 -57 -37 -32 -29 41 -10 106 46 158 40 37 43 89
7 112 -20 13 -29 14 -46 5 -18 -10 -21 -18 -17 -44 6 -39 -5 -61 -27 -53 -19
8 -30 49 -22 82 16 63 101 88 144 43z"/>
<path d="M1027 1903 l-68 -4 2 -128 c2 -183 0 -178 62 -176 109 3 107 2 107
35 0 17 -5 30 -12 31 -7 0 -26 2 -43 2 -25 2 -30 6 -30 27 0 22 5 25 43 28 39
3 42 5 42 33 0 28 -2 29 -45 29 -41 0 -45 2 -45 25 0 19 5 25 23 25 52 0 68
11 65 44 -3 34 -2 34 -101 29z"/>
<path d="M1198 1903 c-16 -4 -18 -20 -18 -159 l0 -154 23 4 c12 3 27 5 34 5 8
1 13 23 15 62 l3 61 42 -66 c35 -55 46 -65 65 -62 13 3 26 5 31 5 4 1 7 69 7
151 l0 150 -35 0 -34 0 -3 -72 -3 -73 -39 70 c-35 64 -53 86 -66 84 -3 -1 -13
-3 -22 -6z"/>
<path d="M1536 1899 c-80 -22 -121 -139 -82 -234 26 -62 105 -87 161 -51 24
16 45 69 45 114 0 20 -4 22 -61 22 -60 0 -60 0 -57 -27 2 -20 9 -29 26 -31 27
-4 29 -18 2 -25 -43 -11 -69 53 -48 118 14 43 45 59 60 31 5 -9 22 -16 38 -16
25 0 30 4 30 24 0 31 -33 72 -62 78 -13 2 -36 1 -52 -3z"/>
<path d="M1707 1904 c-9 -10 -9 -302 1 -306 4 -2 51 -2 105 0 l98 3 -3 32 c-3
32 -3 32 -65 35 l-62 3 -3 117 -3 117 -30 3 c-17 2 -34 0 -38 -4z"/>
<path d="M1947 1904 c-9 -10 -9 -304 1 -305 4 0 15 -2 26 -4 44 -8 46 -1 46
156 0 140 -1 149 -19 149 -11 0 -26 2 -33 5 -8 3 -17 2 -21 -1z"/>
<path d="M2133 1895 c-37 -16 -53 -42 -53 -87 1 -41 13 -57 69 -92 39 -25 42
-29 28 -43 -19 -19 -47 -10 -54 17 -4 14 -14 20 -34 20 -24 0 -29 -4 -29 -24
0 -57 77 -104 141 -86 41 12 58 36 59 82 0 29 -6 41 -26 55 -14 10 -40 30 -57
45 -30 25 -31 28 -16 43 13 14 21 15 38 6 11 -7 21 -18 21 -26 0 -10 10 -15
30 -15 27 0 30 3 30 30 0 36 -38 80 -69 80 -11 0 -25 2 -33 5 -7 2 -27 -2 -45
-10z"/>
<path d="M2483 1903 c-20 -4 -23 -11 -23 -54 l0 -49 -35 0 -35 0 0 50 0 50
-40 0 -41 0 3 -152 3 -153 35 0 35 0 3 53 3 52 35 0 34 0 0 -50 0 -50 40 0 40
0 0 149 c0 127 -2 150 -16 155 -9 3 -16 5 -17 5 -1 -1 -12 -4 -24 -6z"/>
<path d="M2798 1850 c-180 -24 -180 -24 -173 -63 2 -18 10 -70 16 -117 6 -47
14 -89 18 -93 7 -7 330 20 339 28 1 1 -3 60 -10 131 -12 117 -15 129 -33 131
-11 1 -82 -7 -157 -17z m178 -113 c6 -62 8 -115 5 -119 -8 -9 -305 -38 -313
-30 -12 12 -33 211 -22 221 9 10 305 51 314 44 3 -3 10 -55 16 -116z"/>
<path d="M2772 1760 c0 -14 3 -45 7 -70 7 -39 9 -41 10 -12 1 42 29 44 38 2 3
-16 9 -30 14 -30 8 0 -3 50 -16 70 -3 5 -15 10 -25 10 -13 0 -20 9 -23 28 -4
25 -4 25 -5 2z"/>
<path d="M2714 1748 c2 -15 -2 -30 -8 -33 -8 -3 -7 -7 2 -11 6 -3 12 -17 12
-30 0 -28 26 -43 43 -24 10 10 8 12 -5 7 -23 -8 -38 41 -17 54 8 5 9 9 3 9 -5
0 -15 12 -22 28 l-12 27 4 -27z"/>
<path d="M2861 1718 c-5 -13 -5 -30 1 -40 10 -20 53 -24 63 -8 4 7 -2 9 -19 4
-15 -3 -26 -2 -26 4 0 5 9 12 21 15 28 7 21 41 -9 45 -16 2 -25 -3 -31 -20z
m39 -3 c0 -8 -7 -15 -15 -15 -16 0 -20 12 -8 23 11 12 23 8 23 -8z"/>
<path d="M613 1699 c14 -19 31 -55 37 -82 12 -47 10 -145 -5 -182 -7 -17 -6
-18 6 -7 9 9 15 42 17 100 3 79 1 92 -25 142 -15 30 -34 56 -42 58 -8 3 -3
-10 12 -29z"/>
<path d="M400 1676 c-14 -7 -51 -39 -82 -70 -43 -42 -58 -64 -58 -84 0 -53 10
-69 45 -75 19 -3 51 -17 72 -31 26 -18 51 -26 80 -26 42 0 43 1 43 33 0 17 -9
84 -20 147 -11 63 -20 116 -20 118 0 7 -39 0 -60 -12z m50 1 c0 -2 9 -53 20
-113 28 -154 27 -164 -10 -164 -17 0 -54 14 -83 30 -30 17 -63 30 -75 30 -17
0 -22 8 -28 47 -5 36 -4 48 7 51 8 3 34 26 59 53 25 26 56 52 70 58 27 10 40
13 40 8z"/>
<path d="M550 1686 c0 -4 10 -21 23 -37 18 -26 22 -43 22 -109 0 -51 3 -73 9
-63 14 25 9 129 -8 161 -14 28 -46 61 -46 48z"/>
<path d="M3119 1639 c-9 -17 -8 -25 4 -37 29 -28 73 12 47 43 -17 21 -37 19
-51 -6z m45 -7 c2 -4 1 -14 -4 -22 -7 -11 -11 -11 -24 -1 -9 7 -13 17 -10 22
7 11 31 12 38 1z"/>
<path d="M516 1581 c9 -17 13 -41 10 -53 l-6 -23 11 22 c13 24 1 74 -19 81 -7
2 -6 -8 4 -27z"/>
<path d="M895 1514 c-9 -9 -15 -28 -13 -42 2 -21 10 -28 37 -33 18 -4 41 -14
50 -24 15 -15 15 -17 -3 -30 -12 -9 -29 -12 -44 -8 -17 4 -23 2 -18 -6 9 -15
59 -14 74 1 28 28 1 78 -42 78 -13 0 -29 6 -35 14 -15 18 -3 46 21 46 10 0 16
5 13 10 -9 14 -21 12 -40 -6z"/>
<path d="M790 1510 c0 -5 5 -10 10 -10 6 0 10 5 10 10 0 6 -4 10 -10 10 -5 0
-10 -4 -10 -10z"/>
<path d="M2486 1448 c8 -40 17 -90 20 -111 4 -20 11 -40 15 -43 11 -7 12 -16
-11 111 -11 60 -20 110 -20 112 0 2 -4 3 -9 3 -5 0 -2 -33 5 -72z"/>
<path d="M2802 1399 c-21 -84 -27 -122 -18 -124 32 -11 368 -86 371 -83 11 11
65 232 58 238 -9 9 -339 90 -364 90 -13 0 -24 -28 -47 -121z m236 65 c88 -20
156 -42 158 -49 3 -7 -7 -59 -22 -114 -22 -81 -30 -100 -43 -97 -9 3 -88 22
-176 42 -88 21 -162 39 -164 41 -4 3 39 183 49 201 4 9 29 -11 78 -62 40 -42
77 -76 82 -76 20 0 194 64 183 67 -5 2 -47 -10 -93 -27 -46 -17 -89 -29 -95
-26 -16 6 -140 147 -124 141 8 -2 83 -21 167 -41z"/>
<path d="M1350 1501 c-8 -6 -27 -7 -42 -4 -17 3 -37 -1 -52 -11 -20 -13 -30
-14 -50 -5 -20 10 -30 9 -51 -5 -14 -9 -25 -24 -25 -33 0 -14 3 -13 16 5 16
23 62 30 80 12 7 -7 16 -4 29 10 20 23 45 26 63 8 9 -9 15 -9 24 0 7 7 24 12
38 12 14 0 31 -5 38 -12 9 -9 12 -9 12 0 0 13 -31 32 -52 32 -7 0 -20 -4 -28
-9z"/>
<path d="M2300 1477 c-1 -23 54 -243 62 -252 7 -7 8 -3 5 10 -3 11 -15 65 -27
120 -19 87 -39 147 -40 122z"/>
<path d="M820 1451 c0 -10 6 -34 14 -52 7 -19 16 -43 20 -53 3 -10 9 -16 12
-13 6 6 -34 137 -42 137 -2 0 -4 -8 -4 -19z"/>
<path d="M2240 1464 c0 -28 54 -253 60 -249 8 5 -43 241 -54 252 -3 3 -6 2 -6
-3z"/>
<path d="M2070 1435 c1 -6 7 -35 14 -66 l14 -56 -51 -12 c-27 -6 -52 -10 -54
-7 -2 2 -9 31 -15 65 -6 33 -16 61 -20 61 -5 0 -7 -8 -4 -17 2 -10 14 -65 26
-123 12 -58 27 -112 32 -120 9 -14 6 12 -9 91 -4 23 -1 26 43 36 56 13 64 10
65 -20 1 -27 27 -98 28 -77 2 23 -51 234 -60 245 -6 6 -9 6 -9 0z"/>
<path d="M2590 1401 c0 -5 8 -7 19 -4 24 6 35 -11 21 -36 -8 -16 -7 -22 6 -29
12 -7 15 -17 11 -32 -4 -16 0 -28 11 -36 14 -11 15 -16 4 -33 -7 -12 -8 -21
-2 -21 20 0 30 36 15 56 -8 11 -12 28 -9 40 3 11 -1 26 -9 33 -9 7 -13 21 -10
32 4 12 0 25 -8 30 -18 11 -49 11 -49 0z"/>
<path d="M1516 1375 c-21 -7 -50 -24 -65 -38 -24 -22 -28 -23 -56 -11 -67 29
-150 15 -286 -50 -42 -20 -82 -36 -88 -36 -6 0 -9 -12 -6 -27 3 -16 12 -75 20
-133 24 -158 55 -324 64 -333 5 -4 84 4 177 19 93 15 187 28 209 28 41 1 69
12 61 24 -2 4 19 8 48 8 54 2 316 52 328 63 6 6 -39 325 -62 437 l-11 51 -52
7 c-89 10 -240 6 -281 -9z m264 -67 c7 -40 25 -144 40 -230 l27 -158 -61 0
c-73 0 -171 -22 -227 -51 -23 -11 -43 -18 -46 -15 -7 7 -72 393 -73 429 0 33
35 69 82 84 18 6 81 11 140 12 l106 1 12 -72z m65 30 c23 -122 71 -434 68
-440 -9 -18 -33 7 -34 36 l-1 31 -8 -30 c-4 -16 -8 -28 -9 -25 -1 3 -19 105
-40 227 -26 153 -35 224 -27 227 30 12 45 5 51 -26z m-460 -22 c21 -9 36 -24
40 -38 12 -55 71 -428 68 -432 -2 -2 -23 0 -46 5 -50 9 -141 -3 -221 -31 -64
-22 -76 -20 -76 13 0 12 -15 111 -33 221 l-33 198 45 20 c141 63 191 71 256
44z m-342 -93 c-4 -10 -2 -14 5 -9 6 4 12 -3 15 -16 2 -13 3 -8 1 10 -1 17 1
32 5 32 4 0 23 -99 42 -221 19 -121 36 -225 39 -230 3 -4 22 -6 43 -2 20 3 34
9 31 14 -2 4 14 13 37 19 71 19 153 30 159 21 3 -5 14 -11 25 -13 12 -3 -2 -8
-33 -13 -33 -5 -49 -11 -41 -16 7 -4 -7 -6 -32 -3 -31 3 -38 2 -24 -5 15 -6 9
-8 -25 -8 -57 0 -140 -9 -163 -18 -10 -4 -20 -5 -23 -2 -3 2 -21 104 -41 224
-32 195 -36 253 -19 253 3 0 2 -7 -1 -17z m785 -320 c32 -8 9 -23 -36 -23 -21
0 -31 -4 -27 -11 5 -7 -6 -8 -32 -5 -25 4 -31 3 -18 -2 16 -7 12 -10 -22 -15
-22 -4 -56 -4 -74 0 -19 4 -30 2 -26 -3 3 -5 -3 -10 -14 -10 -30 0 -22 16 12
23 22 4 27 8 17 14 -7 5 -8 9 -3 9 6 1 33 7 60 15 54 15 126 19 163 8z m-303
-93 c-3 -5 -10 -10 -16 -10 -5 0 -9 5 -9 10 0 6 7 10 16 10 8 0 12 -4 9 -10z"/>
<path d="M1643 1320 c-12 -5 -40 -8 -62 -7 -23 1 -46 -4 -53 -12 -11 -10 -8
-10 13 -3 14 6 36 8 50 6 13 -3 44 2 69 10 25 8 36 15 25 15 -11 0 -30 -4 -42
-9z"/>
<path d="M1557 1202 c-19 -11 -19 -12 -2 -7 11 4 51 8 88 10 37 1 70 5 73 8
12 12 -138 1 -159 -11z"/>
<path d="M1680 1110 c-8 -6 -33 -7 -55 -4 -29 4 -46 1 -60 -11 -11 -9 -13 -13
-5 -8 8 4 40 9 70 9 30 1 71 6 90 12 l35 10 -30 1 c-16 0 -37 -4 -45 -9z"/>
<path d="M1582 983 c-15 -7 -18 -10 -7 -7 11 3 53 7 93 9 40 1 75 5 78 7 11
11 -139 3 -164 -9z"/>
<path d="M1806 1353 c7 -4 14 -17 17 -28 5 -16 5 -15 4 4 -1 14 -9 26 -17 28
-10 3 -11 2 -4 -4z"/>
<path d="M1801 1314 c0 -11 3 -14 6 -6 3 7 2 16 -1 19 -3 4 -6 -2 -5 -13z"/>
<path d="M1832 1275 c0 -16 2 -22 5 -12 2 9 2 23 0 30 -3 6 -5 -1 -5 -18z"/>
<path d="M1812 1260 c0 -14 2 -19 5 -12 2 6 2 18 0 25 -3 6 -5 1 -5 -13z"/>
<path d="M1842 1215 c0 -16 2 -22 5 -12 2 9 2 23 0 30 -3 6 -5 -1 -5 -18z"/>
<path d="M1822 1210 c0 -14 4 -38 8 -55 7 -27 8 -27 8 -5 0 14 -4 39 -8 55 -7
27 -8 27 -8 5z"/>
<path d="M1852 1155 c0 -16 2 -22 5 -12 2 9 2 23 0 30 -3 6 -5 -1 -5 -18z"/>
<path d="M1842 1100 c0 -14 4 -38 8 -55 7 -27 8 -27 8 -5 0 14 -4 39 -8 55 -7
27 -8 27 -8 5z"/>
<path d="M1862 1100 c0 -14 2 -19 5 -12 2 6 2 18 0 25 -3 6 -5 1 -5 -13z"/>
<path d="M1872 1050 c0 -14 2 -19 5 -12 2 6 2 18 0 25 -3 6 -5 1 -5 -13z"/>
<path d="M1862 990 c0 -14 2 -19 5 -12 2 6 2 18 0 25 -3 6 -5 1 -5 -13z"/>
<path d="M1882 990 c0 -14 2 -19 5 -12 2 6 2 18 0 25 -3 6 -5 1 -5 -13z"/>
<path d="M1892 935 c0 -16 2 -22 5 -12 2 9 2 23 0 30 -3 6 -5 -1 -5 -18z"/>
<path d="M1240 1253 c-61 -4 -90 -12 -90 -22 0 -6 11 -6 28 0 15 5 63 13 107
17 77 9 47 12 -45 5z"/>
<path d="M1176 1161 c-5 -7 183 -5 190 2 3 2 -38 5 -91 5 -52 0 -97 -3 -99 -7z"/>
<path d="M1340 1061 c-14 -5 -39 -6 -56 -3 -27 4 -94 -20 -94 -34 0 -2 14 3
32 12 19 10 44 14 67 11 20 -3 54 1 76 8 42 13 19 19 -25 6z"/>
<path d="M1229 938 c-10 -4 -19 -10 -19 -13 0 -4 6 -3 12 1 7 5 40 7 74 6 33
-2 70 1 82 5 13 5 -7 8 -54 8 -41 0 -84 -3 -95 -7z"/>
<path d="M1042 1180 c0 -14 2 -19 5 -12 2 6 2 18 0 25 -3 6 -5 1 -5 -13z"/>
<path d="M1072 1135 c0 -16 2 -22 5 -12 2 9 2 23 0 30 -3 6 -5 -1 -5 -18z"/>
<path d="M1052 1120 c0 -14 2 -19 5 -12 2 6 2 18 0 25 -3 6 -5 1 -5 -13z"/>
<path d="M1082 1065 c0 -16 2 -22 5 -12 2 9 2 23 0 30 -3 6 -5 -1 -5 -18z"/>
<path d="M1062 1060 c0 -14 2 -19 5 -12 2 6 2 18 0 25 -3 6 -5 1 -5 -13z"/>
<path d="M1092 1005 c0 -16 2 -22 5 -12 2 9 2 23 0 30 -3 6 -5 -1 -5 -18z"/>
<path d="M1072 1000 c0 -14 2 -19 5 -12 2 6 2 18 0 25 -3 6 -5 1 -5 -13z"/>
<path d="M1102 945 c0 -16 2 -22 5 -12 2 9 2 23 0 30 -3 6 -5 -1 -5 -18z"/>
<path d="M1082 940 c0 -14 2 -19 5 -12 2 6 2 18 0 25 -3 6 -5 1 -5 -13z"/>
<path d="M1112 885 c0 -16 2 -22 5 -12 2 9 2 23 0 30 -3 6 -5 -1 -5 -18z"/>
<path d="M1092 880 c0 -14 2 -19 5 -12 2 6 2 18 0 25 -3 6 -5 1 -5 -13z"/>
<path d="M1120 821 c0 -17 4 -32 8 -35 4 -2 6 11 4 30 -5 42 -12 45 -12 5z"/>
<path d="M1353 823 c9 -2 25 -2 35 0 9 3 1 5 -18 5 -19 0 -27 -2 -17 -5z"/>
<path d="M1298 813 c6 -2 18 -2 25 0 6 3 1 5 -13 5 -14 0 -19 -2 -12 -5z"/>
<path d="M1248 803 c6 -2 18 -2 25 0 6 3 1 5 -13 5 -14 0 -19 -2 -12 -5z"/>
<path d="M1710 890 c-50 -11 1 -11 60 -1 41 8 42 8 10 8 -19 0 -51 -3 -70 -7z"/>
<path d="M1638 873 c6 -2 18 -2 25 0 6 3 1 5 -13 5 -14 0 -19 -2 -12 -5z"/>
<path d="M1658 853 c7 -3 16 -2 19 1 4 3 -2 6 -13 5 -11 0 -14 -3 -6 -6z"/>
<path d="M2380 1351 c-24 -46 4 -121 45 -121 43 0 61 73 29 118 -19 27 -60 29
-74 3z m69 -25 c16 -35 5 -79 -22 -84 -12 -3 -22 7 -32 32 -29 70 22 119 54
52z"/>
<path d="M2166 1324 c-17 -16 -20 -26 -16 -59 2 -26 39 -65 60 -65 24 0 60 29
60 48 0 13 -3 12 -16 -6 -20 -29 -69 -30 -84 -2 -9 17 -7 22 15 30 31 12 42
35 25 55 -16 19 -25 19 -44 -1z m37 -18 c3 -11 -30 -32 -38 -25 -3 4 -3 14 1
23 7 17 33 19 37 2z"/>
<path d="M386 1285 c-5 -19 -13 -25 -33 -25 -25 0 -25 -1 -10 -18 10 -10 17
-31 17 -46 0 -26 0 -26 26 -10 19 13 28 14 37 5 19 -19 30 -12 24 14 -3 18 1
29 15 36 23 13 14 29 -16 29 -15 0 -26 7 -29 20 -7 28 -24 25 -31 -5z m57 -25
c21 -1 21 -1 3 -15 -11 -8 -16 -21 -13 -30 7 -17 -8 -21 -18 -4 -5 7 -14 4
-27 -8 -20 -18 -20 -17 -14 4 4 12 3 24 -3 27 -5 4 0 17 12 30 18 20 23 22 30
10 4 -8 18 -14 30 -14z"/>
<path d="M550 1178 c-84 -43 -115 -148 -67 -233 29 -52 96 -89 148 -81 31 5
37 2 47 -20 7 -14 12 -32 12 -41 0 -37 63 -183 81 -188 25 -8 39 1 39 25 0 25
-49 150 -66 170 -7 8 -18 28 -24 44 -10 27 -8 32 16 54 33 31 54 80 54 127 0
124 -129 201 -240 143z m146 -9 c47 -22 84 -82 84 -135 0 -44 -40 -116 -77
-137 -42 -24 -113 -24 -154 -1 -54 32 -73 67 -74 134 0 71 21 105 85 138 55
27 82 28 136 1z m15 -315 c10 -28 5 -44 -10 -28 -5 5 -12 19 -16 32 -9 32 13
28 26 -4z m29 -46 c0 -2 14 -36 30 -77 35 -85 38 -114 13 -109 -20 4 -88 162
-78 179 5 8 35 14 35 7z"/>
<path d="M545 1128 c-47 -44 -55 -91 -26 -151 24 -49 53 -67 112 -67 130 0
166 175 49 235 -49 25 -96 19 -135 -17z m154 -6 c30 -22 47 -77 37 -117 -28
-110 -186 -115 -216 -7 -30 115 85 194 179 124z"/>
<path d="M3020 1150 c-6 -11 -20 -20 -30 -20 -22 0 -27 -15 -9 -26 6 -3 9 -19
7 -35 -5 -30 9 -38 29 -18 8 8 17 8 31 0 30 -16 35 -14 29 10 -4 15 1 27 15
39 l21 17 -26 7 c-14 3 -29 15 -32 26 -8 25 -21 25 -35 0z m49 -30 c6 0 11 -4
11 -10 0 -5 -4 -10 -10 -10 -5 0 -10 -10 -10 -22 0 -17 -3 -19 -12 -10 -8 8
-17 8 -31 0 -17 -8 -19 -8 -14 6 3 8 2 18 -3 21 -15 9 -12 25 5 25 9 0 18 7
22 16 6 16 7 16 18 0 7 -9 17 -16 24 -16z"/>
<path d="M2485 1082 c-54 -7 -55 -11 -55 -188 l0 -164 25 -6 c14 -4 51 -4 81
-2 43 4 61 11 82 31 37 38 37 95 -1 135 -26 27 -27 29 -12 59 35 70 -33 146
-120 135z m89 -37 c29 -27 35 -78 12 -110 -12 -17 -11 -22 15 -46 23 -21 29
-36 29 -67 0 -43 -17 -67 -57 -83 -30 -11 -94 -12 -111 0 -18 11 -30 278 -13
309 17 32 88 31 125 -3z"/>
<path d="M2480 980 c0 -43 3 -50 19 -50 41 0 68 59 39 88 -7 7 -22 12 -35 12
-21 0 -23 -4 -23 -50z m54 18 c13 -21 -2 -51 -28 -56 -13 -3 -16 5 -16 38 0
33 3 41 16 38 9 -2 22 -11 28 -20z"/>
<path d="M2484 866 c-3 -7 -4 -33 -2 -57 3 -42 5 -44 37 -47 24 -3 40 3 57 19
29 27 30 53 4 79 -23 23 -88 28 -96 6z m91 -16 c15 -17 16 -24 7 -45 -12 -25
-51 -41 -77 -31 -15 5 -22 76 -8 89 14 14 61 6 78 -13z"/>
<path d="M2190 1055 c-18 -47 -90 -303 -90 -320 0 -12 8 -16 32 -13 29 3 33 8
53 68 23 68 22 67 82 61 7 0 15 -13 19 -28 23 -105 22 -103 60 -103 32 0 36 2
31 23 -3 12 -22 93 -43 180 l-37 157 -49 0 c-43 0 -50 -3 -58 -25z m125 -107
c16 -68 34 -144 41 -170 11 -47 11 -48 -12 -48 -19 0 -25 8 -34 43 -23 94 -21
92 -70 92 l-44 0 -20 -65 c-17 -52 -25 -66 -43 -68 -13 -2 -23 -1 -23 3 0 10
77 277 89 308 9 23 16 27 49 27 l38 0 29 -122z"/>
<path d="M2227 993 c-3 -5 -8 -27 -12 -50 l-7 -43 37 0 37 0 -7 43 c-9 51 -12
57 -30 57 -8 0 -16 -3 -18 -7z m36 -50 c6 -30 4 -33 -18 -33 -22 0 -25 3 -19
28 14 64 26 66 37 5z"/>
<path d="M2759 1057 c-55 -36 -81 -98 -77 -182 2 -56 8 -77 26 -100 43 -54
105 -71 149 -40 24 17 48 78 39 100 -9 24 -45 18 -58 -10 -14 -32 -51 -33 -72
-3 -9 12 -16 42 -16 66 0 83 54 139 90 92 19 -26 53 -24 58 3 7 34 -8 67 -38
82 -40 21 -61 19 -101 -8z m91 -2 c33 -17 49 -60 30 -78 -9 -9 -15 -7 -27 11
-22 31 -56 28 -87 -9 -21 -25 -26 -41 -26 -88 0 -69 19 -101 60 -101 19 0 35
9 48 27 23 32 45 23 36 -15 -8 -34 -48 -72 -77 -72 -35 0 -82 34 -100 73 -38
79 -8 198 62 244 40 27 43 27 81 8z"/>
<path d="M904 993 c-4 -15 -2 -34 5 -45 7 -11 9 -28 6 -39 -4 -12 1 -33 13
-53 12 -21 18 -44 15 -60 -6 -30 20 -66 46 -66 12 1 11 3 -4 12 -30 17 -36 30
-30 64 4 21 0 35 -10 44 -10 8 -15 26 -14 44 1 17 -4 43 -10 57 -10 20 -10 32
-2 48 8 13 8 21 2 21 -6 0 -14 -12 -17 -27z"/>
<path d="M1655 720 c-11 -4 -30 -19 -43 -33 -19 -20 -31 -24 -60 -20 -72 8
-141 -69 -128 -142 5 -22 2 -36 -9 -45 -20 -16 -20 -89 1 -118 23 -33 72 -55
110 -49 23 4 34 1 38 -9 11 -28 69 -54 123 -54 40 0 58 5 81 25 29 24 29 24
47 5 35 -38 149 -19 174 29 6 10 26 22 45 25 48 9 93 50 107 95 14 49 -3 115
-39 147 -34 30 -36 32 -68 72 -15 18 -39 39 -55 47 -35 19 -99 19 -124 1 -16
-11 -23 -10 -53 10 -36 25 -106 32 -147 14z m139 -25 c35 -23 39 -24 66 -10
63 33 148 4 180 -60 8 -17 28 -39 44 -50 39 -26 61 -95 45 -142 -13 -39 -57
-79 -98 -88 -17 -4 -46 -22 -65 -41 -29 -29 -41 -34 -79 -34 -30 0 -53 7 -71
21 l-26 21 -31 -26 c-50 -42 -144 -30 -181 22 -10 15 -25 19 -61 18 -43 -1
-52 3 -78 32 -34 38 -39 88 -10 123 14 18 16 28 9 45 -15 31 18 93 61 118 28
16 39 17 63 8 25 -9 30 -8 45 14 38 58 125 71 187 29z"/>
<path d="M1940 590 c-13 -24 -2 -27 15 -3 15 20 45 11 45 -13 0 -9 -11 -27
-25 -40 -14 -13 -25 -33 -24 -46 0 -23 0 -23 10 2 6 14 19 35 31 47 28 30 18
73 -17 73 -14 0 -29 -8 -35 -20z"/>
<path d="M1871 578 c0 -14 -7 -29 -13 -31 -10 -4 -10 -7 -1 -14 6 -5 13 -31
15 -58 2 -42 6 -50 22 -50 11 0 22 7 24 15 4 12 3 13 -10 2 -13 -10 -17 -10
-22 4 -10 27 -7 82 7 87 9 4 9 8 1 14 -7 4 -14 19 -17 33 l-4 25 -2 -27z"/>
<path d="M1534 548 c4 -24 12 -61 17 -83 l11 -39 18 24 18 23 6 -21 c16 -48
34 -13 51 97 5 29 4 41 -3 37 -6 -3 -14 -31 -17 -61 -7 -50 -25 -88 -25 -51 0
23 -20 30 -34 11 -11 -16 -14 -10 -25 44 -14 69 -27 84 -17 19z"/>
<path d="M1682 508 c-1 -59 2 -88 9 -88 7 0 9 9 6 22 -8 28 9 59 28 52 9 -4
15 -19 15 -40 0 -19 5 -34 11 -34 6 0 8 7 5 16 -3 9 -6 27 -6 40 0 19 -6 26
-29 30 -27 6 -30 11 -34 48 -2 22 -4 2 -5 -46z"/>
<path d="M1780 491 c-14 -28 -13 -47 6 -66 12 -12 19 -13 30 -4 7 6 18 8 24 4
8 -5 9 4 4 32 -3 21 -9 41 -11 46 -8 14 -42 7 -53 -12z m48 -15 c4 -18 -14
-46 -29 -46 -11 0 -12 54 -2 64 11 10 28 1 31 -18z"/>
<path d="M1950 430 c0 -5 5 -10 11 -10 5 0 7 5 4 10 -3 6 -8 10 -11 10 -2 0
-4 -4 -4 -10z"/>
<path d="M1266 681 c-7 -11 18 -33 27 -24 4 3 7 12 7 20 0 15 -26 18 -34 4z"/>
<path d="M2563 644 c-3 -8 -1 -20 5 -26 16 -16 42 -2 42 22 0 24 -38 28 -47 4z
m37 -9 c0 -8 -4 -15 -9 -15 -13 0 -22 16 -14 24 11 11 23 6 23 -9z"/>
<path d="M1322 623 c5 -26 38 -29 38 -4 0 15 -6 21 -21 21 -14 0 -19 -5 -17
-17z m28 -3 c0 -5 -2 -10 -4 -10 -3 0 -8 5 -11 10 -3 6 -1 10 4 10 6 0 11 -4
11 -10z"/>
<path d="M2674 625 c-4 -9 -2 -21 4 -27 15 -15 44 -1 40 19 -4 23 -36 29 -44
8z m30 -16 c-3 -5 -10 -7 -15 -3 -5 3 -7 10 -3 15 3 5 10 7 15 3 5 -3 7 -10 3
-15z"/>
<path d="M1260 617 c0 -19 16 -31 24 -18 3 5 -1 14 -9 21 -12 10 -15 10 -15
-3z"/>
<path d="M988 593 c-48 -30 -65 -103 -28 -123 14 -7 26 -8 39 -1 16 9 18 8 15
-12 -3 -12 11 7 30 43 41 76 41 74 20 94 -20 20 -42 20 -76 -1z m68 -17 c14
-36 -55 -106 -90 -93 -24 9 -19 55 9 82 26 27 72 33 81 11z"/>
<path d="M2384 583 c-10 -43 -50 -80 -87 -81 -43 -1 -62 -28 -41 -59 14 -23
13 -26 -15 -65 -17 -23 -29 -43 -27 -46 3 -2 23 10 44 28 33 26 43 30 60 21
11 -6 28 -8 36 -5 19 7 31 46 23 74 -5 21 52 80 78 80 27 0 27 22 -1 51 -35
37 -62 38 -70 2z m57 -2 c13 -11 21 -22 18 -26 -4 -3 -20 5 -35 19 -34 29 -18
35 17 7z m-16 -21 c10 -11 15 -23 12 -27 -8 -7 -47 25 -47 39 0 14 16 9 35
-12z m-27 -49 c-37 -50 -51 -61 -64 -50 -11 9 -7 19 19 49 24 29 35 36 45 28
10 -8 10 -14 0 -27z m-81 -27 c-3 -4 -2 -15 4 -26 7 -13 16 -17 30 -13 14 5
19 2 19 -12 0 -37 -16 -49 -49 -37 -24 10 -32 9 -50 -7 l-21 -19 19 21 c18 20
18 24 4 45 -20 31 -10 54 23 54 15 0 24 -3 21 -6z"/>
<path d="M2607 554 c-13 -13 -7 -24 14 -24 11 0 19 5 17 12 -5 14 -22 21 -31
12z"/>
<path d="M1075 489 c-21 -33 -35 -62 -32 -65 2 -3 20 21 38 52 37 63 54 75 63
46 8 -23 33 -32 61 -21 17 7 16 8 -7 8 -16 1 -33 9 -40 21 -22 34 -45 23 -83
-41z"/>
<path d="M1215 489 c-33 -19 -55 -52 -55 -86 0 -26 6 -36 30 -48 33 -17 60
-20 60 -5 0 6 -9 10 -21 10 -33 0 -59 19 -59 44 0 31 7 36 39 25 18 -6 37 -6
55 1 22 8 27 15 24 38 -2 20 -9 28 -28 29 -14 2 -34 -2 -45 -8z m60 -24 c0
-15 -8 -21 -34 -23 -47 -5 -60 12 -25 32 37 20 59 16 59 -9z"/>
</g>
</svg>
