<?xml version="1.0" encoding="UTF-8"?>
<svg version="1.1" xmlns="http://www.w3.org/2000/svg" width="225" height="225">
<path d="M0 0 C74.25 0 148.5 0 225 0 C225 74.25 225 148.5 225 225 C150.75 225 76.5 225 0 225 C0 150.75 0 76.5 0 0 Z " fill="#FDFDFD" transform="translate(0,0)"/>
<path d="M0 0 C1.98 0.99 3.96 1.98 6 3 C5.17937122 9.01794436 3.13516324 12.86973288 0 18 C1.32 18 2.64 18 4 18 C4.99 16.515 4.99 16.515 6 15 C6.66 15 7.32 15 8 15 C8.28875 14.38125 8.5775 13.7625 8.875 13.125 C10 11 10 11 12 9 C12.99 9 13.98 9 15 9 C14.67 9.598125 14.34 10.19625 14 10.8125 C12.79212012 13.05386471 12.79212012 13.05386471 13 16 C14.65 14.68 16.3 13.36 18 12 C18 16 18 16 16.6875 17.6328125 C16.130625 18.12523438 15.57375 18.61765625 15 19.125 C13.33815767 20.57119067 13.33815767 20.57119067 12 22 C12 22.66 12 23.32 12 24 C13.485 24.495 13.485 24.495 15 25 C15 25.66 15 26.32 15 27 C17.64 24.69 20.28 22.38 23 20 C23.66 20.33 24.32 20.66 25 21 C24.34 22.32 23.68 23.64 23 25 C23.99 25 24.98 25 26 25 C26.99 25.99 26.99 25.99 28 27 C26.80375 27.433125 25.6075 27.86625 24.375 28.3125 C21.69917648 29.29191702 19.53183514 30.27890672 17.0625 31.75 C12.82920964 33.47787362 9.41333953 32.81401596 5 32 C6.12274762 34.85005166 7.29433302 37.64753265 8.5625 40.4375 C12.66554992 50.60592806 11.77136846 61.84012126 8 72 C2.93050794 81.63066107 -4.90835888 88.23031024 -14.9140625 92.35546875 C-17.67225286 93.20771858 -20.13973571 93.29336044 -23 93 C-23 96.80791843 -22.96094674 98.97968127 -20.29296875 101.8125 C-18.87172426 102.99379412 -17.433557 104.1549791 -15.98046875 105.296875 C-14 107 -14 107 -12 110.3125 C-9.12884788 114.17061066 -6.65749766 114.22375039 -2 115 C-2 115.66 -2 116.32 -2 117 C-18.17 117 -34.34 117 -51 117 C-51 116.34 -51 115.68 -51 115 C-50.41992188 114.87625 -49.83984375 114.7525 -49.2421875 114.625 C-43.29865552 113.05575063 -40.62581059 111.06324411 -37.38671875 105.83984375 C-36 104 -36 104 -33.91015625 103.04296875 C-31.79068728 102.1536968 -31.79068728 102.1536968 -31.171875 99.8359375 C-30.96304688 98.61777344 -30.96304688 98.61777344 -30.75 97.375 C-30.60046875 96.55773437 -30.4509375 95.74046875 -30.296875 94.8984375 C-30.19890625 94.27195312 -30.1009375 93.64546875 -30 93 C-31.216875 93.04125 -32.43375 93.0825 -33.6875 93.125 C-37.26220969 93.13760921 -39.71598737 92.45956117 -43 91 C-44.32 91 -45.64 91 -47 91 C-46.731875 89.9275 -46.46375 88.855 -46.1875 87.75 C-46.125625 86.5125 -46.06375 85.275 -46 84 C-48.13321195 81.99082365 -48.13321195 81.99082365 -51 80 C-57.7022573 71.91049244 -60.63475218 63.13265842 -60.28125 52.66015625 C-59.3695041 44.03655961 -55.41960764 36.27703965 -49.18359375 30.2421875 C-41.91893002 24.40110434 -34.10870512 21.31808132 -24.75390625 21.6640625 C-19.62113388 22.29018792 -14.63182749 23.68408626 -10 26 C-10.07992187 25.01515625 -10.15984375 24.0303125 -10.2421875 23.015625 C-10.23981029 18.29449555 -8.32515176 14.83055828 -6.125 10.75 C-5.76019531 10.04359375 -5.39539063 9.3371875 -5.01953125 8.609375 C-3.46254837 5.61996787 -1.87324683 2.80987025 0 0 Z " fill="#080808" transform="translate(139,19)"/>
<path d="M0 0 C0 1.65 0 3.3 0 5 C0.66 5 1.32 5 2 5 C2 3.35 2 1.7 2 0 C3.32 0 4.64 0 6 0 C6.495 1.485 6.495 1.485 7 3 C7.33 2.01 7.66 1.02 8 0 C8.66 0 9.32 0 10 0 C10.495 4.95 10.495 4.95 11 10 C11.99 10 12.98 10 14 10 C14 10.66 14 11.32 14 12 C14.66 12 15.32 12 16 12 C14.24545615 8.81765895 14.24545615 8.81765895 12 6 C11.95919217 4.00041636 11.95745644 1.99954746 12 0 C13.32 -0.33 14.64 -0.66 16 -1 C16.495 0.98 16.495 0.98 17 3 C16.34 2.67 15.68 2.34 15 2 C15.57344937 4.86724686 15.8614515 5.8614515 18 8 C17.69347955 10.9425963 17.32728846 13.34542308 16 16 C17.04800781 16.16435547 17.04800781 16.16435547 18.1171875 16.33203125 C19.48230469 16.56986328 19.48230469 16.56986328 20.875 16.8125 C21.77992188 16.96332031 22.68484375 17.11414063 23.6171875 17.26953125 C26 18 26 18 28 21 C28.22890327 24.58615122 27.89512914 27.54735901 27 31 C27.33 31.33 27.66 31.66 28 32 C28.07226502 33.85287502 28.0838122 35.70833878 28.0625 37.5625 C28.05347656 38.57441406 28.04445313 39.58632812 28.03515625 40.62890625 C28.02355469 41.41136719 28.01195312 42.19382813 28 43 C26.68 43 25.36 43 24 43 C24 39.37 24 35.74 24 32 C22.68 32 21.36 32 20 32 C20 35.63 20 39.26 20 43 C18.68 43 17.36 43 16 43 C15.67 42.01 15.34 41.02 15 40 C14.484375 40.495 13.96875 40.99 13.4375 41.5 C10.11203064 43.54644269 7.83693587 43.41857482 4 43 C2.3034668 41.76831055 2.3034668 41.76831055 1 40 C0.65942383 37.82348633 0.65942383 37.82348633 0.70703125 35.33203125 C0.7215332 33.99301758 0.7215332 33.99301758 0.73632812 32.62695312 C0.76146484 31.69818359 0.78660156 30.76941406 0.8125 29.8125 C0.82603516 28.87212891 0.83957031 27.93175781 0.85351562 26.96289062 C0.88886904 24.64134962 0.93821326 22.32096347 1 20 C0.34 20 -0.32 20 -1 20 C-1.13277344 21.15757812 -1.26554687 22.31515625 -1.40234375 23.5078125 C-1.58065082 25.04688408 -1.75904062 26.58594607 -1.9375 28.125 C-2.02451172 28.88554687 -2.11152344 29.64609375 -2.20117188 30.4296875 C-2.6915487 34.64329577 -3.25902978 38.821195 -4 43 C-5.32 43 -6.64 43 -8 43 C-8.66 38.71 -9.32 34.42 -10 30 C-10.99 34.29 -11.98 38.58 -13 43 C-14.32 43 -15.64 43 -17 43 C-17 44.32 -17 45.64 -17 47 C-13.535 47.495 -13.535 47.495 -10 48 C-12.46153846 52.8 -12.46153846 52.8 -15.1875 53.8125 C-15.785625 53.874375 -16.38375 53.93625 -17 54 C-16.67 54.66 -16.34 55.32 -16 56 C-15.34 56.144375 -14.68 56.28875 -14 56.4375 C-13.01 56.7159375 -13.01 56.7159375 -12 57 C-11.67 57.99 -11.34 58.98 -11 60 C-8.69 60 -6.38 60 -4 60 C-4.495 60.99 -4.495 60.99 -5 62 C-7.64 62 -10.28 62 -13 62 C-13.66 63.32 -14.32 64.64 -15 66 C-16.32 66 -17.64 66 -19 66 C-19.495 65.505 -19.495 65.505 -20 65 C-20.66 65.99 -21.32 66.98 -22 68 C-22.66 68 -23.32 68 -24 68 C-24 68.66 -24 69.32 -24 70 C-26.97 70.495 -26.97 70.495 -30 71 C-32.65815164 65.68369672 -31.1420185 58.81224993 -29.5 53.375 C-29.005 51.93125 -28.51 50.4875 -28 49 C-31.63 49.66 -35.26 50.32 -39 51 C-38 49 -38 49 -35.3125 47.875 C-32.0420565 47.01110926 -29.36293818 46.83986009 -26 47 C-26.495 45.515 -26.495 45.515 -27 44 C-29.97 43.67 -32.94 43.34 -36 43 C-36 34.42 -36 25.84 -36 17 C-32.535 16.505 -32.535 16.505 -29 16 C-28.67 15.34 -28.34 14.68 -28 14 C-27.01 14 -26.02 14 -25 14 C-25 9.38 -25 4.76 -25 0 C-23.68 0 -22.36 0 -21 0 C-20.67 0.99 -20.34 1.98 -20 3 C-19.34 2.01 -18.68 1.02 -18 0 C-12.12398928 -1.23149925 -5.8444169 -1.46110422 0 0 Z " fill="#E9E9E9" transform="translate(117,141)"/>
<path d="M0 0 C1.04800781 -0.01160156 1.04800781 -0.01160156 2.1171875 -0.0234375 C6.18628563 -0.00808241 9.34061531 0.4488966 13 2.25 C13 3.24 13 4.23 13 5.25 C8.545 5.745 8.545 5.745 4 6.25 C4 6.91 4 7.57 4 8.25 C4.92232422 8.19779297 4.92232422 8.19779297 5.86328125 8.14453125 C6.67152344 8.11746094 7.47976562 8.09039062 8.3125 8.0625 C9.51326172 8.01029297 9.51326172 8.01029297 10.73828125 7.95703125 C13.51744543 8.31702661 14.15396951 9.23614856 16 11.25 C18.62570704 11.50069913 18.62570704 11.50069913 21 11.25 C21.66 12.57 22.32 13.89 23 15.25 C21.68 14.92 20.36 14.59 19 14.25 C19.66 15.57 20.32 16.89 21 18.25 C20.01 18.745 20.01 18.745 19 19.25 C17.31503702 18.28114628 15.64821244 17.28013277 14 16.25 C13.34 16.25 12.68 16.25 12 16.25 C11.34 14.6 10.68 12.95 10 11.25 C2.89289588 10.90653324 2.89289588 10.90653324 -4.0625 12.125 C-7.19226243 15.55764266 -7.43402506 19.7475426 -8 24.25 C-6.01432292 24.4453125 -4.02864583 24.640625 -2.04296875 24.8359375 C0 25.25 0 25.25 3 27.25 C2.74322411 29.00211782 2.46897047 30.75167936 2.1875 32.5 C2.03667969 33.47453125 1.88585937 34.4490625 1.73046875 35.453125 C0.95603476 38.41833749 -0.17645636 39.84447435 -2 42.25 C-2.56689282 44.59852226 -2.56689282 44.59852226 -2.6875 47 C-2.75324219 47.79921875 -2.81898437 48.5984375 -2.88671875 49.421875 C-2.92410156 50.02515625 -2.96148437 50.6284375 -3 51.25 C0.06113392 52.24019105 0.06113392 52.24019105 3.0625 51.3125 C3.701875 50.961875 4.34125 50.61125 5 50.25 C5.99 50.25 6.98 50.25 8 50.25 C8 49.59 8 48.93 8 48.25 C9.65 48.25 11.3 48.25 13 48.25 C13.061875 47.528125 13.12375 46.80625 13.1875 46.0625 C14.26438217 42.33483095 16.14774211 40.84296172 19 38.25 C19.928125 37.321875 20.85625 36.39375 21.8125 35.4375 C22.534375 34.715625 23.25625 33.99375 24 33.25 C23.34 33.25 22.68 33.25 22 33.25 C19.39981184 29.34971775 19.84914486 25.77565431 20 21.25 C20.66 21.58 21.32 21.91 22 22.25 C22 24.89 22 27.53 22 30.25 C23.65 29.92 25.3 29.59 27 29.25 C27.495 27.765 27.495 27.765 28 26.25 C27.34 26.25 26.68 26.25 26 26.25 C25.505 24.27 25.505 24.27 25 22.25 C25.66 22.25 26.32 22.25 27 22.25 C30.31158555 26.12899117 32.89911085 30.82500249 33.265625 35.9765625 C32.38528586 43.51122982 28.50913258 51.10814293 23 56.25 C13.77759428 62.75438836 5.30170534 65.36425264 -6 64.25 C-15.17731957 62.23017634 -22.83710071 55.99434893 -28 48.25 C-29.34956562 43.66147688 -29.09287103 38.9864224 -29 34.25 C-28.01 34.25 -27.02 34.25 -26 34.25 C-25.505 31.28 -25.505 31.28 -25 28.25 C-24.01 27.92 -23.02 27.59 -22 27.25 C-22.495 26.63125 -22.99 26.0125 -23.5 25.375 C-25.61437072 20.97006101 -25.8337602 17.05404686 -25 12.25 C-22.9375 9.4375 -22.9375 9.4375 -20 7.25 C-19.15115234 6.58871094 -19.15115234 6.58871094 -18.28515625 5.9140625 C-12.33963276 1.41263771 -7.51825131 -0.08322787 0 0 Z " fill="#F6F6F6" transform="translate(112,42.75)"/>
<path d="M0 0 C1.98 0.99 3.96 1.98 6 3 C5.17937122 9.01794436 3.13516324 12.86973288 0 18 C1.32 18 2.64 18 4 18 C4.66 17.01 5.32 16.02 6 15 C6.66 15 7.32 15 8 15 C8.433125 14.071875 8.433125 14.071875 8.875 13.125 C10 11 10 11 12 9 C12.99 9 13.98 9 15 9 C14.67 9.598125 14.34 10.19625 14 10.8125 C12.79212012 13.05386471 12.79212012 13.05386471 13 16 C14.65 14.68 16.3 13.36 18 12 C18 16 18 16 16.6875 17.6328125 C16.130625 18.12523438 15.57375 18.61765625 15 19.125 C13.33815767 20.57119067 13.33815767 20.57119067 12 22 C12 22.66 12 23.32 12 24 C13.485 24.495 13.485 24.495 15 25 C15 25.66 15 26.32 15 27 C17.64 24.69 20.28 22.38 23 20 C23.66 20.33 24.32 20.66 25 21 C24.34 22.32 23.68 23.64 23 25 C23.99 25 24.98 25 26 25 C26.99 25.99 26.99 25.99 28 27 C26.80375 27.433125 25.6075 27.86625 24.375 28.3125 C21.69917648 29.29191702 19.53183514 30.27890672 17.0625 31.75 C12.82920964 33.47787362 9.41333953 32.81401596 5 32 C6.12274762 34.85005166 7.29433302 37.64753265 8.5625 40.4375 C12.66554992 50.60592806 11.77136846 61.84012126 8 72 C4.14101703 79.33102185 -1.08380071 84.53107123 -8 89 C-8.64066406 89.44601563 -9.28132813 89.89203125 -9.94140625 90.3515625 C-18.0685942 95.02747886 -29.37840521 93.33252617 -38.1640625 91.25 C-40.625 90.4375 -40.625 90.4375 -44 89 C-43.67 88.01 -43.34 87.02 -43 86 C-38.25 86.875 -38.25 86.875 -36 88 C-25.73596867 89.09221239 -15.6059564 89.2636094 -7 83 C-6.4225 82.62746094 -5.845 82.25492187 -5.25 81.87109375 C0.85773516 77.48879378 4.03837042 70.03929905 6 63 C7.01104398 52.41930721 5.91888046 43.87832069 0 35 C-0.33 35.33 -0.66 35.66 -1 36 C-3.1796875 36.203125 -3.1796875 36.203125 -5.875 36.25 C-6.75929687 36.27578125 -7.64359375 36.3015625 -8.5546875 36.328125 C-11.50223137 35.93260793 -11.99742888 35.07693716 -14 33 C-16.27161255 32.42676193 -16.27161255 32.42676193 -18.6875 32.3125 C-19.49574219 32.24675781 -20.30398437 32.18101563 -21.13671875 32.11328125 C-21.75160156 32.07589844 -22.36648437 32.03851563 -23 32 C-23 31.34 -23 30.68 -23 30 C-17.375 27.875 -17.375 27.875 -14 29 C-14 28.01 -14 27.02 -14 26 C-23.82235057 23.68215325 -34.20849738 23.5274176 -43.08203125 28.61328125 C-45.0393471 29.94664893 -45.0393471 29.94664893 -46.63671875 31.66796875 C-48 33 -48 33 -50 33 C-50.33 33.99 -50.66 34.98 -51 36 C-51.66 35.34 -52.32 34.68 -53 34 C-45.94247424 26.79717224 -37.67086353 21.83494323 -27.375 21.5 C-21.32420681 21.78980577 -15.42662453 23.28668774 -10 26 C-10.07992187 25.01515625 -10.15984375 24.0303125 -10.2421875 23.015625 C-10.23981029 18.29449555 -8.32515176 14.83055828 -6.125 10.75 C-5.76019531 10.04359375 -5.39539063 9.3371875 -5.01953125 8.609375 C-3.46254837 5.61996787 -1.87324683 2.80987025 0 0 Z " fill="#121212" transform="translate(139,19)"/>
<path d="M0 0 C0.33 0 0.66 0 1 0 C1 4.62 1 9.24 1 14 C1.66 14 2.32 14 3 14 C3 11.69 3 9.38 3 7 C3.33 7 3.66 7 4 7 C4 9.31 4 11.62 4 14 C4.99 14 5.98 14 7 14 C7 11.03 7 8.06 7 5 C7.33 5 7.66 5 8 5 C8.33 8.96 8.66 12.92 9 17 C7.68 17 6.36 17 5 17 C5.09087891 17.589021 5.18175781 18.17804199 5.27539062 18.78491211 C5.69049297 21.50143765 6.09529399 24.21940696 6.5 26.9375 C6.64308594 27.86369141 6.78617188 28.78988281 6.93359375 29.74414062 C7.79167513 35.56683571 8.14486785 41.11474367 8 47 C11.465 47.495 11.465 47.495 15 48 C12.53846154 52.8 12.53846154 52.8 9.8125 53.8125 C9.214375 53.874375 8.61625 53.93625 8 54 C8.33 54.66 8.66 55.32 9 56 C9.66 56.144375 10.32 56.28875 11 56.4375 C11.99 56.7159375 11.99 56.7159375 13 57 C13.33 57.99 13.66 58.98 14 60 C16.31 60 18.62 60 21 60 C20.505 60.99 20.505 60.99 20 62 C17.36 62 14.72 62 12 62 C11.34 63.32 10.68 64.64 10 66 C8.68 66 7.36 66 6 66 C5.505 65.505 5.505 65.505 5 65 C4.34 65.99 3.68 66.98 3 68 C2.34 68 1.68 68 1 68 C1 68.66 1 69.32 1 70 C-1.97 70.495 -1.97 70.495 -5 71 C-7.65815164 65.68369672 -6.1420185 58.81224993 -4.5 53.375 C-4.005 51.93125 -3.51 50.4875 -3 49 C-6.63 49.66 -10.26 50.32 -14 51 C-13 49 -13 49 -10.3125 47.875 C-7.0420565 47.01110926 -4.36293818 46.83986009 -1 47 C-1.495 45.515 -1.495 45.515 -2 44 C-4.97 43.67 -7.94 43.34 -11 43 C-11 34.42 -11 25.84 -11 17 C-7.535 16.505 -7.535 16.505 -4 16 C-3.67 15.34 -3.34 14.68 -3 14 C-2.01 14 -1.02 14 0 14 C0 9.38 0 4.76 0 0 Z " fill="#E9E9E9" transform="translate(92,141)"/>
<path d="M0 0 C0.33 0 0.66 0 1 0 C1.07347656 1.15628906 1.07347656 1.15628906 1.1484375 2.3359375 C1.22320312 3.33882812 1.29796875 4.34171875 1.375 5.375 C1.44460937 6.37273438 1.51421875 7.37046875 1.5859375 8.3984375 C1.76363964 11.15508879 1.76363964 11.15508879 4 13 C4 13.99 4 14.98 4 16 C3 17 2 18 1 19 C0.28552357 21.10332891 0.28552357 21.10332891 0 23 C-0.99 23 -1.98 23 -3 23 C-2.51130747 31.58877117 -1.65756411 37.98094255 4.63671875 44.16015625 C13.03973 50.70200468 21.48883128 52.92598391 32 52 C37.72640597 50.53947727 42.2947602 48.53907045 47 45 C47.66 45 48.32 45 49 45 C49.2784375 44.42378906 49.556875 43.84757812 49.84375 43.25390625 C50.96497481 41.06827546 52.18812472 39.01330265 53.5 36.9375 C53.9228125 36.26589844 54.345625 35.59429687 54.78125 34.90234375 C55.83579211 33.25631168 56.91563835 31.62654248 58 30 C58.495 30.99 58.495 30.99 59 32 C55.96209232 41.11372303 49.38640699 47.68560565 41 52 C40.29101562 52.36996094 39.58203125 52.73992187 38.8515625 53.12109375 C34.70834474 54.39811292 30.74706161 54.2893867 26.4375 54.25 C25.16229492 54.26160156 25.16229492 54.26160156 23.86132812 54.2734375 C23.03955078 54.27085938 22.21777344 54.26828125 21.37109375 54.265625 C20.62786865 54.26336914 19.88464355 54.26111328 19.11889648 54.25878906 C16.71762582 53.96551254 15.13686414 53.09772845 13 52 C12.01 52 11.02 52 10 52 C9.67 52.66 9.34 53.32 9 54 C17.27950633 56.21772491 25.47919963 56.60271115 34 57 C32.02 57.495 32.02 57.495 30 58 C30 61.80791843 30.03905326 63.97968127 32.70703125 66.8125 C34.12827574 67.99379412 35.566443 69.1549791 37.01953125 70.296875 C39 72 39 72 41 75.3125 C43.87115212 79.17061066 46.34250234 79.22375039 51 80 C51 80.66 51 81.32 51 82 C34.83 82 18.66 82 2 82 C2 81.34 2 80.68 2 80 C2.58007812 79.87625 3.16015625 79.7525 3.7578125 79.625 C9.70134448 78.05575063 12.37418941 76.06324411 15.61328125 70.83984375 C17 69 17 69 19.08984375 68.04296875 C21.20931272 67.1536968 21.20931272 67.1536968 21.828125 64.8359375 C22.03695312 63.61777344 22.03695312 63.61777344 22.25 62.375 C22.39953125 61.55773437 22.5490625 60.74046875 22.703125 59.8984375 C22.85007812 58.95871094 22.85007812 58.95871094 23 58 C21.1746875 58.061875 21.1746875 58.061875 19.3125 58.125 C15.73779031 58.13760921 13.28401263 57.45956117 10 56 C8.68 56 7.36 56 6 56 C6.268125 54.9275 6.53625 53.855 6.8125 52.75 C6.874375 51.5125 6.93625 50.275 7 49 C4.86678805 46.99082365 4.86678805 46.99082365 2 45 C-4.70583832 36.90617021 -7.61450911 28.14533855 -7.2890625 17.671875 C-6.55811411 10.91554126 -4.1188686 5.35452918 0 0 Z " fill="#101010" transform="translate(86,54)"/>
<path d="M0 0 C1.98 0.99 3.96 1.98 6 3 C5.17937122 9.01794436 3.13516324 12.86973288 0 18 C1.32 18 2.64 18 4 18 C4.66 17.01 5.32 16.02 6 15 C6.66 15 7.32 15 8 15 C8.433125 14.071875 8.433125 14.071875 8.875 13.125 C10 11 10 11 12 9 C12.99 9 13.98 9 15 9 C14.67 9.598125 14.34 10.19625 14 10.8125 C12.79212012 13.05386471 12.79212012 13.05386471 13 16 C14.65 14.68 16.3 13.36 18 12 C18 16 18 16 16.6875 17.6328125 C16.130625 18.12523438 15.57375 18.61765625 15 19.125 C13.33815767 20.57119067 13.33815767 20.57119067 12 22 C12 22.66 12 23.32 12 24 C12.99 24.33 13.98 24.66 15 25 C15 25.66 15 26.32 15 27 C17.64 24.69 20.28 22.38 23 20 C23.66 20.33 24.32 20.66 25 21 C24.34 22.32 23.68 23.64 23 25 C23.99 25 24.98 25 26 25 C26.66 25.66 27.32 26.32 28 27 C26.80375 27.433125 25.6075 27.86625 24.375 28.3125 C21.70431298 29.28832795 19.57567419 30.25828527 17.125 31.75 C12.55981456 33.57607417 8.7035452 33.3609622 4 32 C1.94678199 30.68497235 0.33165266 29.2683787 -1.3984375 27.5546875 C-2.96986037 26.02925749 -4.51222167 24.951355 -6.375 23.8125 C-9 22 -9 22 -10 19 C-9.41088867 17.23828125 -9.41088867 17.23828125 -8.41796875 15.3125 C-8.06283203 14.61382812 -7.70769531 13.91515625 -7.34179688 13.1953125 C-6.96087891 12.47085937 -6.57996094 11.74640625 -6.1875 11 C-5.81818359 10.27554687 -5.44886719 9.55109375 -5.06835938 8.8046875 C-3.49596435 5.74458659 -1.91234761 2.86852142 0 0 Z " fill="#F3F3F3" transform="translate(139,19)"/>
<path d="M0 0 C0 3 0 3 -1.4375 4.5625 C-1.953125 5.036875 -2.46875 5.51125 -3 6 C-3.33 6.66 -3.66 7.32 -4 8 C-2.84371094 7.96519531 -2.84371094 7.96519531 -1.6640625 7.9296875 C-0.66117188 7.91164062 0.34171875 7.89359375 1.375 7.875 C2.37273437 7.85179687 3.37046875 7.82859375 4.3984375 7.8046875 C7 8 7 8 9 10 C6.53846154 13.81538462 6.53846154 13.81538462 3.8125 14.75 C2.9153125 14.87375 2.9153125 14.87375 2 15 C2.33 15.66 2.66 16.32 3 17 C3.99 17.2165625 3.99 17.2165625 5 17.4375 C5.66 17.623125 6.32 17.80875 7 18 C7.33 18.99 7.66 19.98 8 21 C10.31 21 12.62 21 15 21 C14.67 21.66 14.34 22.32 14 23 C11.36 23 8.72 23 6 23 C5.34 24.32 4.68 25.64 4 27 C2.68 27 1.36 27 0 27 C-0.33 26.67 -0.66 26.34 -1 26 C-1.66 26.99 -2.32 27.98 -3 29 C-3.66 29 -4.32 29 -5 29 C-5 29.66 -5 30.32 -5 31 C-6.98 31.33 -8.96 31.66 -11 32 C-13.65815164 26.68369672 -12.1420185 19.81224993 -10.5 14.375 C-10.005 12.93125 -9.51 11.4875 -9 10 C-12.63 10.66 -16.26 11.32 -20 12 C-19 10 -19 10 -16.3125 8.875 C-13.0420565 8.01110926 -10.36293818 7.83986009 -7 8 C-6.731875 7.236875 -6.46375 6.47375 -6.1875 5.6875 C-4.80876015 2.56719402 -3.66285015 0 0 0 Z " fill="#EFEFEF" transform="translate(98,180)"/>
<path d="M0 0 C1.58203125 1.890625 1.58203125 1.890625 2.8125 4.25 C3.44091797 5.40242188 3.44091797 5.40242188 4.08203125 6.578125 C5.08361766 9.22060829 5.17386622 11.19827004 5 14 C3.948125 14.37125 2.89625 14.7425 1.8125 15.125 C-2.37808141 16.88811047 -4.34049542 19.37340285 -7 23 C-10.37591285 21.87469572 -11.28446799 20.83946383 -13.5625 18.1875 C-14.16191406 17.50042969 -14.76132813 16.81335938 -15.37890625 16.10546875 C-16.89648749 14.13444155 -17.97902958 12.26035739 -19 10 C-17.25737466 7.9822233 -16.10541993 7.03784305 -13.5625 6.125 C-10.34483475 4.71236648 -9.07111506 2.78529267 -7 0 C-4.24055813 -1.37972094 -2.90042214 -0.94163782 0 0 Z " fill="#EFEFEF" transform="translate(87,21)"/>
<path d="M0 0 C9 0 9 0 11.03515625 1.46875 C12.43007016 5.12828122 12.47354346 8.64007328 12.4375 12.5 C12.45748047 13.25925781 12.47746094 14.01851562 12.49804688 14.80078125 C12.49505898 18.21296097 12.24892391 20.58746114 10.47265625 23.53125 C8 25 8 25 0 25 C0 16.75 0 8.5 0 0 Z " fill="#333333" transform="translate(160,159)"/>
<path d="M0 0 C3.4375 0.375 3.4375 0.375 5.4375 2.375 C5.69628906 4.49804688 5.69628906 4.49804688 5.703125 7.09375 C5.70570313 8.02574219 5.70828125 8.95773438 5.7109375 9.91796875 C5.70320312 10.89378906 5.69546875 11.86960938 5.6875 12.875 C5.69523438 13.85082031 5.70296875 14.82664063 5.7109375 15.83203125 C5.70835937 16.76402344 5.70578125 17.69601563 5.703125 18.65625 C5.70086914 19.51283203 5.69861328 20.36941406 5.69628906 21.25195312 C5.4375 23.375 5.4375 23.375 3.4375 25.375 C-2.80072788 25.94211163 -2.80072788 25.94211163 -5.26025391 24.11108398 C-6.84357079 22.00029164 -6.94851788 20.90185186 -6.9609375 18.28515625 C-6.96673828 17.10856445 -6.96673828 17.10856445 -6.97265625 15.90820312 C-6.96105469 15.09287109 -6.94945313 14.27753906 -6.9375 13.4375 C-6.94910156 12.62603516 -6.96070312 11.81457031 -6.97265625 10.97851562 C-6.95530167 7.45264289 -6.88418556 5.00388078 -5.26171875 1.83203125 C-3.5625 0.375 -3.5625 0.375 0 0 Z " fill="#050505" transform="translate(124.5625,158.625)"/>
<path d="M0 0 C1.32 0 2.64 0 4 0 C4.66 2.97 5.32 5.94 6 9 C6.66 6.03 7.32 3.06 8 0 C9.32 0 10.64 0 12 0 C12.66 4.95 13.32 9.9 14 15 C14.144375 13.081875 14.28875 11.16375 14.4375 9.1875 C14.68724328 5.86948218 14.9458482 3.16245541 16 0 C16.99 0 17.98 0 19 0 C18.34938113 8.38955907 17.25101251 16.68015955 16 25 C14.68 25 13.36 25 12 25 C11.34 20.71 10.68 16.42 10 12 C9.01 16.29 8.02 20.58 7 25 C5.68 25 4.36 25 3 25 C2.49389097 21.77176021 1.99620093 18.54227635 1.5 15.3125 C1.35691406 14.40048828 1.21382813 13.48847656 1.06640625 12.54882812 C0.93105469 11.66259766 0.79570313 10.77636719 0.65625 9.86328125 C0.53056641 9.05157471 0.40488281 8.23986816 0.27539062 7.40356445 C-0.00977723 4.91466595 -0.04674739 2.50293311 0 0 Z " fill="#151515" transform="translate(97,159)"/>
<path d="M0 0 C8.16209627 4.85839064 13.55572279 11.69997746 16.58203125 20.73828125 C18.78821291 32.67640443 17.30388526 43.84489318 10.6484375 54.078125 C4.81256442 61.57673287 -3.68105504 66.44251616 -13 68 C-21.32799011 68.68293313 -28.26690028 68.19990333 -36 65 C-35.67 64.01 -35.34 63.02 -35 62 C-30.25 62.875 -30.25 62.875 -28 64 C-17.73596867 65.09221239 -7.6059564 65.2636094 1 59 C1.5775 58.62746094 2.155 58.25492188 2.75 57.87109375 C8.85773516 53.48879378 12.03837042 46.03929905 14 39 C14.96469422 28.90436285 14.45218399 20.03265765 8.31640625 11.71875 C5.47521202 8.34597749 2.58776748 5.57280694 -1 3 C-0.67 2.01 -0.34 1.02 0 0 Z " fill="#D8D8D8" transform="translate(131,43)"/>
<path d="M0 0 C2.97 0 5.94 0 9 0 C11.32623648 3.48935471 11.25072494 4.90482598 11 9 C10.67516582 10.33542939 10.3449145 11.66961551 10 13 C10.33 13.33 10.66 13.66 11 14 C11.07226502 15.85287502 11.0838122 17.70833878 11.0625 19.5625 C11.05347656 20.57441406 11.04445312 21.58632812 11.03515625 22.62890625 C11.02355469 23.41136719 11.01195312 24.19382813 11 25 C9.68 25 8.36 25 7 25 C7 21.37 7 17.74 7 14 C5.68 14 4.36 14 3 14 C3 17.63 3 21.26 3 25 C2.01 25 1.02 25 0 25 C0 16.75 0 8.5 0 0 Z " fill="#020202" transform="translate(134,159)"/>
<path d="M0 0 C1.32 0 2.64 0 4 0 C4 3.3 4 6.6 4 10 C5.65 10 7.3 10 9 10 C9 6.7 9 3.4 9 0 C9.99 0 10.98 0 12 0 C12 8.25 12 16.5 12 25 C11.01 25 10.02 25 9 25 C9 21.04 9 17.08 9 13 C7.35 13 5.7 13 4 13 C4 16.96 4 20.92 4 25 C2.68 25 1.36 25 0 25 C0 16.75 0 8.5 0 0 Z " fill="#1A1A1A" transform="translate(65,159)"/>
<path d="M0 0 C2.0625 0.4375 2.0625 0.4375 4 1 C3.67 1.99 3.34 2.98 3 4 C2.67 3.67 2.34 3.34 2 3 C2.57344937 5.86724686 2.8614515 6.8614515 5 9 C4.69347955 11.9425963 4.32728846 14.34542308 3 17 C5.31 17.33 7.62 17.66 10 18 C10 18.33 10 18.66 10 19 C8.02 19 6.04 19 4 19 C4 27.25 4 35.5 4 44 C3.34 43.01 2.68 42.02 2 41 C1.01 41.495 1.01 41.495 0 42 C-0.01458252 41.37955811 -0.02916504 40.75911621 -0.04418945 40.11987305 C-0.11866588 37.30845367 -0.21532564 34.49822251 -0.3125 31.6875 C-0.33505859 30.71103516 -0.35761719 29.73457031 -0.38085938 28.72851562 C-0.41630859 27.79072266 -0.45175781 26.85292969 -0.48828125 25.88671875 C-0.51446533 25.02264404 -0.54064941 24.15856934 -0.56762695 23.26831055 C-1.07665372 20.59786013 -1.92329908 19.68988817 -4 18 C-3.34 15.69 -2.68 13.38 -2 11 C-1.01 11 -0.02 11 1 11 C1 11.66 1 12.32 1 13 C1.66 13 2.32 13 3 13 C1.24545615 9.81765895 1.24545615 9.81765895 -1 7 C-1.125 4 -1.125 4 -1 1 C-0.67 0.67 -0.34 0.34 0 0 Z " fill="#D4D4D4" transform="translate(130,140)"/>
<path d="M0 0 C0.33 0 0.66 0 1 0 C1.07347656 1.15628906 1.07347656 1.15628906 1.1484375 2.3359375 C1.22320312 3.33882812 1.29796875 4.34171875 1.375 5.375 C1.44460937 6.37273438 1.51421875 7.37046875 1.5859375 8.3984375 C1.76363964 11.15508879 1.76363964 11.15508879 4 13 C4 13.99 4 14.98 4 16 C3 17 2 18 1 19 C0.28552357 21.10332891 0.28552357 21.10332891 0 23 C-0.99 23 -1.98 23 -3 23 C-3 26.3 -3 29.6 -3 33 C-3.66 33 -4.32 33 -5 33 C-8.22816778 23.92077811 -8.05614116 14.79398671 -4 6 C-2.78778761 3.82699705 -1.52444079 1.98177303 0 0 Z " fill="#0E0E0E" transform="translate(86,54)"/>
<path d="M0 0 C0.33 4.62 0.66 9.24 1 14 C0.34 14 -0.32 14 -1 14 C-1 12.68 -1 11.36 -1 10 C-1.99 10 -2.98 10 -4 10 C-4 11.32 -4 12.64 -4 14 C-6.97 14 -9.94 14 -13 14 C-13 9.38 -13 4.76 -13 0 C-8.05339631 -0.89038866 -5.12638109 -0.85439685 0 0 Z " fill="#CBCBCB" transform="translate(117,141)"/>
<path d="M0 0 C0.66 0.66 1.32 1.32 2 2 C-2.15562974 11.11041905 -6.97744269 17.35833757 -16 22 C-16.70898438 22.36996094 -17.41796875 22.73992187 -18.1484375 23.12109375 C-22.29165526 24.39811292 -26.25293839 24.2893867 -30.5625 24.25 C-31.41263672 24.25773437 -32.26277344 24.26546875 -33.13867188 24.2734375 C-33.96044922 24.27085938 -34.78222656 24.26828125 -35.62890625 24.265625 C-36.37213135 24.26336914 -37.11535645 24.26111328 -37.88110352 24.25878906 C-40.28237418 23.96551254 -41.86313586 23.09772845 -44 22 C-44.99 22 -45.98 22 -47 22 C-47.33 22.66 -47.66 23.32 -48 24 C-42.00679849 25.45933748 -36.14154225 26.41509121 -30 27 C-30.99 27.33 -31.98 27.66 -33 28 C-33.73323796 30.01508358 -33.73323796 30.01508358 -34 32 C-34 30.68 -34 29.36 -34 28 C-35.216875 28.04125 -36.43375 28.0825 -37.6875 28.125 C-41.26220969 28.13760921 -43.71598737 27.45956117 -47 26 C-48.32 26 -49.64 26 -51 26 C-50.731875 24.9275 -50.46375 23.855 -50.1875 22.75 C-50.125625 21.5125 -50.06375 20.275 -50 19 C-52.13321195 16.99082365 -52.13321195 16.99082365 -55 15 C-57.87926884 11.24114546 -60.49815819 7.50552542 -62 3 C-61.01 2.67 -60.02 2.34 -59 2 C-58.814375 2.825 -58.62875 3.65 -58.4375 4.5 C-55.20861797 12.36162581 -49.82794807 16.6114213 -42.234375 20.08984375 C-33.47465244 23.65805242 -25.02590485 22.5279184 -16.375 19.16796875 C-14.00328205 18.00161404 -12.10475751 16.58310425 -10 15 C-9.34 15 -8.68 15 -8 15 C-7.72285156 14.42378906 -7.44570312 13.84757812 -7.16015625 13.25390625 C-5.66252211 10.34436114 -3.8969858 7.64786232 -2.12109375 4.90234375 C-0.84878807 2.89506996 -0.84878807 2.89506996 0 0 Z " fill="#232323" transform="translate(143,84)"/>
<path d="M0 0 C2.79224073 -0.08071788 5.58216566 -0.14035408 8.375 -0.1875 C9.1690625 -0.21263672 9.963125 -0.23777344 10.78125 -0.26367188 C12.85586148 -0.29004405 14.93100865 -0.15486462 17 0 C17.66 0.99 18.32 1.98 19 3 C17.02 3.99 17.02 3.99 15 5 C14.74951364 7.87450983 14.74951364 7.87450983 15 11 C16.43750191 12.68798827 16.43750191 12.68798827 18 14 C18 14.99 18 15.98 18 17 C17.34 17 16.68 17 16 17 C16 16.34 16 15.68 16 15 C15.01 15 14.02 15 13 15 C12.67 16.32 12.34 17.64 12 19 C12 14.38 12 9.76 12 5 C11.34 5 10.68 5 10 5 C10 7.31 10 9.62 10 12 C8.5393715 9.35261084 8 8.10551666 8 5 C6.68 5 5.36 5 4 5 C4 6.65 4 8.3 4 10 C3.34 10 2.68 10 2 10 C2 8.35 2 6.7 2 5 C0.68 4.67 -0.64 4.34 -2 4 C-1.34 2.68 -0.68 1.36 0 0 Z " fill="#F4F4F4" transform="translate(115,136)"/>
<path d="M0 0 C2.97 0 5.94 0 9 0 C11 2 11 2 11.22705078 3.87939453 C11.21134033 4.99483643 11.21134033 4.99483643 11.1953125 6.1328125 C11.18564453 7.34130859 11.18564453 7.34130859 11.17578125 8.57421875 C11.15902344 9.41597656 11.14226562 10.25773438 11.125 11.125 C11.11597656 11.97449219 11.10695312 12.82398438 11.09765625 13.69921875 C11.07405647 15.79959884 11.03818483 17.89983444 11 20 C10.01 19.67 9.02 19.34 8 19 C7.67 14.05 7.34 9.1 7 4 C5.68 3.67 4.36 3.34 3 3 C3.05220703 4.69769531 3.05220703 4.69769531 3.10546875 6.4296875 C3.13360336 7.91144353 3.16090387 9.39321556 3.1875 10.875 C3.22520508 11.99455078 3.22520508 11.99455078 3.26367188 13.13671875 C3.29296875 15.3046875 3.29296875 15.3046875 3 19 C2.01 19.66 1.02 20.32 0 21 C0 14.07 0 7.14 0 0 Z " fill="#030303" transform="translate(160,159)"/>
<path d="M0 0 C1.58203125 1.890625 1.58203125 1.890625 2.8125 4.25 C3.44091797 5.40242188 3.44091797 5.40242188 4.08203125 6.578125 C5.08361766 9.22060829 5.17386622 11.19827004 5 14 C3.35 14.66 1.7 15.32 0 16 C-0.98113243 14.70982586 -1.95984199 13.41780894 -2.9375 12.125 C-3.48277344 11.40570313 -4.02804688 10.68640625 -4.58984375 9.9453125 C-7.09973245 6.48291757 -7.09225098 4.24354529 -7 0 C-4.24055813 -1.37972094 -2.90042214 -0.94163782 0 0 Z " fill="#111111" transform="translate(87,21)"/>
<path d="M0 0 C2.97 0 5.94 0 9 0 C9 0.99 9 1.98 9 3 C7.02 3 5.04 3 3 3 C3 5.31 3 7.62 3 10 C4.98 10 6.96 10 9 10 C9 10.99 9 11.98 9 13 C7.02 13 5.04 13 3 13 C3 15.97 3 18.94 3 22 C4.98 22 6.96 22 9 22 C9 22.99 9 23.98 9 25 C6.03 25 3.06 25 0 25 C0 16.75 0 8.5 0 0 Z " fill="#040404" transform="translate(81,159)"/>
<path d="M0 0 C4.18718539 1.48958439 5.29903526 3.84684924 7.1875 7.75 C7.69667969 8.77609375 8.20585937 9.8021875 8.73046875 10.859375 C12.75605493 20.81805588 11.67593428 32.0972162 8 42 C2.82274846 51.83537487 -5.0400153 57.92401445 -14.95703125 62.56640625 C-17.61172377 63.12983047 -18.74919159 62.411181 -21 61 C-20.2265625 60.78085938 -19.453125 60.56171875 -18.65625 60.3359375 C-5.51868265 56.33613358 0.47736418 50.44225353 6.875 38.5 C9.90248605 29.47192782 9.24877499 17.62958784 5.15625 9.09375 C4.7746875 8.4028125 4.393125 7.711875 4 7 C3.6184375 6.2884375 3.236875 5.576875 2.84375 4.84375 C1.93449137 3.20708446 0.97348529 1.59929726 0 0 Z " fill="#292929" transform="translate(139,49)"/>
<path d="M0 0 C1.32 0 2.64 0 4 0 C4 7.26 4 14.52 4 22 C5.98 22 7.96 22 10 22 C10 22.99 10 23.98 10 25 C6.7 25 3.4 25 0 25 C0 16.75 0 8.5 0 0 Z " fill="#0B0B0B" transform="translate(148,159)"/>
<path d="M0 0 C0 3 0 3 -1.4375 4.5625 C-1.953125 5.036875 -2.46875 5.51125 -3 6 C-3.33 6.66 -3.66 7.32 -4 8 C-2.84371094 7.96519531 -2.84371094 7.96519531 -1.6640625 7.9296875 C-0.66117188 7.91164062 0.34171875 7.89359375 1.375 7.875 C2.37273437 7.85179687 3.37046875 7.82859375 4.3984375 7.8046875 C7 8 7 8 9 10 C4.38 10 -0.24 10 -5 10 C-8.21052603 17.14600956 -9.70256697 23.17751119 -10 31 C-9.01 31.33 -8.02 31.66 -7 32 C-8.32 32 -9.64 32 -11 32 C-13.65815164 26.68369672 -12.1420185 19.81224993 -10.5 14.375 C-10.005 12.93125 -9.51 11.4875 -9 10 C-12.63 10.66 -16.26 11.32 -20 12 C-19 10 -19 10 -16.3125 8.875 C-13.0420565 8.01110926 -10.36293818 7.83986009 -7 8 C-6.731875 7.236875 -6.46375 6.47375 -6.1875 5.6875 C-4.80876015 2.56719402 -3.66285015 0 0 0 Z " fill="#282828" transform="translate(98,180)"/>
<path d="M0 0 C0.99 0 1.98 0 3 0 C2.34938113 8.38955907 1.25101251 16.68015955 0 25 C-1.32 25 -2.64 25 -4 25 C-4.33808686 22.93827387 -4.67027361 20.8755797 -5 18.8125 C-5.185625 17.66394531 -5.37125 16.51539063 -5.5625 15.33203125 C-5.93489477 12.49584607 -6.08596021 9.85280436 -6 7 C-5.34 6.67 -4.68 6.34 -4 6 C-3.34 8.97 -2.68 11.94 -2 15 C-1.93941406 14.16855469 -1.87882812 13.33710938 -1.81640625 12.48046875 C-1.73261719 11.39378906 -1.64882812 10.30710938 -1.5625 9.1875 C-1.48128906 8.10855469 -1.40007812 7.02960938 -1.31640625 5.91796875 C-1 3 -1 3 0 0 Z " fill="#0C0C0C" transform="translate(113,159)"/>
<path d="M0 0 C3.63 0 7.26 0 11 0 C11 0.99 11 1.98 11 3 C9.68 3 8.36 3 7 3 C7 10.26 7 17.52 7 25 C6.01 25 5.02 25 4 25 C4 17.74 4 10.48 4 3 C2.68 3 1.36 3 0 3 C0 2.01 0 1.02 0 0 Z " fill="#030303" transform="translate(52,159)"/>
<path d="M0 0 C1.32 0 2.64 0 4 0 C3.67 5.94 3.34 11.88 3 18 C2.01 17.67 1.02 17.34 0 17 C0 15.35 0 13.7 0 12 C-0.99 12 -1.98 12 -3 12 C-3.33 13.32 -3.66 14.64 -4 16 C-4.66 16 -5.32 16 -6 16 C-5.52412884 9.97229862 -2.80277043 5.23321711 0 0 Z " fill="#1B1B1B" transform="translate(126,15)"/>
<path d="M0 0 C0.99 0 1.98 0 3 0 C3.33 0.99 3.66 1.98 4 3 C4.66 2.01 5.32 1.02 6 0 C6.99 0 7.98 0 9 0 C9 4.62 9 9.24 9 14 C6.03 14 3.06 14 0 14 C0 9.38 0 4.76 0 0 Z " fill="#3D3D3D" transform="translate(93,141)"/>
<path d="M0 0 C1.32 0 2.64 0 4 0 C4.03738281 0.62648437 4.07476562 1.25296875 4.11328125 1.8984375 C4.17902344 2.71570313 4.24476563 3.53296875 4.3125 4.375 C4.37050781 5.18710938 4.42851562 5.99921875 4.48828125 6.8359375 C4.82990528 9.37921338 4.82990528 9.37921338 8 11 C8.29296875 13.6015625 8.29296875 13.6015625 8.1875 16.625 C8.16042969 17.62789062 8.13335937 18.63078125 8.10546875 19.6640625 C8.07066406 20.43492187 8.03585938 21.20578125 8 22 C6.68 22 5.36 22 4 22 C4 18.37 4 14.74 4 11 C2.68 11 1.36 11 0 11 C0 7.37 0 3.74 0 0 Z " fill="#282828" transform="translate(137,162)"/>
<path d="M0 0 C0.99 0 1.98 0 3 0 C2.67 0.598125 2.34 1.19625 2 1.8125 C0.79212012 4.05386471 0.79212012 4.05386471 1 7 C2.65 5.68 4.3 4.36 6 3 C6 7 6 7 3.8828125 9.578125 C2.97273437 10.45984375 2.06265625 11.3415625 1.125 12.25 C0.22007812 13.14203125 -0.68484375 14.0340625 -1.6171875 14.953125 C-4 17 -4 17 -6 17 C-4.66666667 14.33333333 -3.33333333 11.66666667 -2 9 C-2.5775 9.28875 -3.155 9.5775 -3.75 9.875 C-6.875 11.4375 -6.875 11.4375 -10 13 C-8.79618552 10.50638429 -7.54571278 8.31856917 -6 6 C-5.34 6 -4.68 6 -4 6 C-3.71125 5.38125 -3.4225 4.7625 -3.125 4.125 C-2 2 -2 2 0 0 Z " fill="#191919" transform="translate(151,28)"/>
<path d="M0 0 C1.67542976 0.28604898 3.34385343 0.61781233 5 1 C4.67 1.66 4.34 2.32 4 3 C2.68 3 1.36 3 0 3 C3.32413072 6.69347858 7.29036693 9.43012231 12 11 C10.36526484 7.87525373 10.36526484 7.87525373 7.875 7.3125 C7.25625 7.209375 6.6375 7.10625 6 7 C6.33 5.68 6.66 4.36 7 3 C9.64 4.32 12.28 5.64 15 7 C14.25 11.75 14.25 11.75 12 14 C7.77946942 13.72336018 5.400355 12.07491828 2.1875 9.4375 C1.39730469 8.79683594 0.60710938 8.15617187 -0.20703125 7.49609375 C-1.09455078 6.75552734 -1.09455078 6.75552734 -2 6 C-1.125 1.125 -1.125 1.125 0 0 Z " fill="#151515" transform="translate(61,39)"/>
<path d="M0 0 C1.98 0.99 3.96 1.98 6 3 C5.25 8.75 5.25 8.75 3 11 C1.515 11.185625 1.515 11.185625 0 11.375 C-3.12114709 11.65930328 -3.12114709 11.65930328 -4.375 14.0625 C-4.58125 14.701875 -4.7875 15.34125 -5 16 C-5.99 15.67 -6.98 15.34 -8 15 C-7.04416032 13.06126858 -6.08523808 11.1240567 -5.125 9.1875 C-4.32449219 7.56908203 -4.32449219 7.56908203 -3.5078125 5.91796875 C-2 3 -2 3 0 0 Z " fill="#111111" transform="translate(139,19)"/>
<path d="M0 0 C1.98 0 3.96 0 6 0 C7 1 7 1 7.09765625 4.59765625 C7.0909822 6.08596867 7.07902183 7.57426432 7.0625 9.0625 C7.05798828 9.82111328 7.05347656 10.57972656 7.04882812 11.36132812 C7.0370068 13.24091871 7.01907078 15.12046899 7 17 C6.34 17 5.68 17 5 17 C4.87625 15.865625 4.7525 14.73125 4.625 13.5625 C4.41875 12.386875 4.2125 11.21125 4 10 C3.34 9.67 2.68 9.34 2 9 C2 11.64 2 14.28 2 17 C1.34 17 0.68 17 0 17 C0 11.39 0 5.78 0 0 Z " fill="#373737" transform="translate(109,13)"/>
<path d="M0 0 C0.99 0 1.98 0 3 0 C3 0.66 3 1.32 3 2 C3.61488281 1.96519531 4.22976562 1.93039063 4.86328125 1.89453125 C5.67152344 1.86746094 6.47976562 1.84039062 7.3125 1.8125 C8.51326172 1.76029297 8.51326172 1.76029297 9.73828125 1.70703125 C12.51744543 2.06702661 13.15396951 2.98614856 15 5 C17.62570704 5.25069913 17.62570704 5.25069913 20 5 C20.66 6.32 21.32 7.64 22 9 C20.68 8.67 19.36 8.34 18 8 C18.66 9.32 19.32 10.64 20 12 C19.01 12.495 19.01 12.495 18 13 C16.31503702 12.03114628 14.64821244 11.03013277 13 10 C12.34 10 11.68 10 11 10 C10.34 8.35 9.68 6.7 9 5 C5.7 4.67 2.4 4.34 -1 4 C-1 1 -1 1 0 0 Z " fill="#F3F3F3" transform="translate(113,49)"/>
<path d="M0 0 C1.98 0.495 1.98 0.495 4 1 C4 6.61 4 12.22 4 18 C2.68 18.33 1.36 18.66 0 19 C-1.8855253 17.1144747 -1.13246689 14.42231169 -1.13671875 11.91796875 C-1.13285156 11.12003906 -1.12898438 10.32210937 -1.125 9.5 C-1.12886719 8.70207031 -1.13273437 7.90414062 -1.13671875 7.08203125 C-1.12660767 1.12660767 -1.12660767 1.12660767 0 0 Z " fill="#DEDEDE" transform="translate(123,162)"/>
<path d="M0 0 C8.18296269 4.87081113 13.59685251 11.74374298 16.6015625 20.81640625 C17.14866729 23.81475507 17.09294974 26.70502554 17.0625 29.75 C17.05347656 30.92046875 17.04445312 32.0909375 17.03515625 33.296875 C17.02355469 34.18890625 17.01195312 35.0809375 17 36 C16.67 36 16.34 36 16 36 C15.90203125 35.24976563 15.8040625 34.49953125 15.703125 33.7265625 C13.93651871 21.63444703 10.71986305 11.99376691 0.78125 4.27734375 C0.1934375 3.85582031 -0.394375 3.43429688 -1 3 C-0.67 2.01 -0.34 1.02 0 0 Z " fill="#E8E8E8" transform="translate(131,43)"/>
<path d="M0 0 C2.125 0.375 2.125 0.375 4 1 C4.33 2.32 4.66 3.64 5 5 C4.34 5 3.68 5 3 5 C3 4.34 3 3.68 3 3 C2.01 3 1.02 3 0 3 C0.99 7.29 1.98 11.58 3 16 C3.66 16 4.32 16 5 16 C5 14.02 5 12.04 5 10 C4.34 10 3.68 10 3 10 C3 9.34 3 8.68 3 8 C4.32 7.67 5.64 7.34 7 7 C7.66 10.3 8.32 13.6 9 17 C5.625 17.625 5.625 17.625 2 18 C-1.51692458 14.48307542 -1.89466549 9.4220159 -2.25 4.625 C-2 2 -2 2 0 0 Z " fill="#121212" transform="translate(96,14)"/>
<path d="M0 0 C-0.66 0.99 -1.32 1.98 -2 3 C-2 2.34 -2 1.68 -2 1 C-11.82235057 -1.31784675 -22.20849738 -1.4725824 -31.08203125 3.61328125 C-33.0393471 4.94664893 -33.0393471 4.94664893 -34.63671875 6.66796875 C-36 8 -36 8 -38 8 C-38.33 8.99 -38.66 9.98 -39 11 C-39.66 10.34 -40.32 9.68 -41 9 C-29.08099353 -3.16439778 -15.75784204 -5.74255415 0 0 Z " fill="#2C2C2C" transform="translate(127,44)"/>
<path d="M0 0 C0.99 0 1.98 0 3 0 C3.33 0.99 3.66 1.98 4 3 C4.33 2.01 4.66 1.02 5 0 C5.66 0 6.32 0 7 0 C7 4.62 7 9.24 7 14 C6.01 13.67 5.02 13.34 4 13 C3.3125 10.9375 3.3125 10.9375 3 9 C2.67 10.65 2.34 12.3 2 14 C1.34 14 0.68 14 0 14 C0 9.38 0 4.76 0 0 Z " fill="#141414" transform="translate(120,141)"/>
<path d="M0 0 C1.32 0.33 2.64 0.66 4 1 C4 6.61 4 12.22 4 18 C2.68 18 1.36 18 0 18 C0 12.06 0 6.12 0 0 Z " fill="#F2F2F2" transform="translate(164,162)"/>
<path d="M0 0 C-0.33 1.32 -0.66 2.64 -1 4 C1.94729537 5.15811388 1.94729537 5.15811388 5 5 C4.67 6.65 4.34 8.3 4 10 C4.99 10.66 5.98 11.32 7 12 C7.99 11.34 8.98 10.68 10 10 C10 13 10 13 8.5 14.6875 C8.005 15.120625 7.51 15.55375 7 16 C3.62408715 14.87469572 2.71553201 13.83946383 0.4375 11.1875 C-0.16191406 10.50042969 -0.76132813 9.81335937 -1.37890625 9.10546875 C-2.89648749 7.13444155 -3.97902958 5.26035739 -5 3 C-2.25 0 -2.25 0 0 0 Z " fill="#151515" transform="translate(73,28)"/>
<path d="M0 0 C1.9375 0.3125 1.9375 0.3125 4 1 C4.33 1.99 4.66 2.98 5 4 C7.31 4 9.62 4 12 4 C11.67 4.66 11.34 5.32 11 6 C8.36 6 5.72 6 3 6 C2.34 7.32 1.68 8.64 1 10 C-3 10 -3 10 -5 9 C-3.50163895 5.88801935 -1.80066242 2.9465385 0 0 Z " fill="#171717" transform="translate(101,197)"/>
<path d="M0 0 C0.66 0.33 1.32 0.66 2 1 C1.34 2.32 0.68 3.64 0 5 C0.99 5 1.98 5 3 5 C3.66 5.66 4.32 6.32 5 7 C3.80375 7.433125 2.6075 7.86625 1.375 8.3125 C-1.3125129 9.3113986 -3.74525192 10.37965664 -6.3125 11.6875 C-9 13 -9 13 -12 13 C-11.67 12.01 -11.34 11.02 -11 10 C-10.195625 9.690625 -9.39125 9.38125 -8.5625 9.0625 C-5.45710207 7.77489598 -5.31246068 6.97491087 -4 4 C-2.70529025 2.62913085 -1.37849103 1.28659163 0 0 Z " fill="#0C0C0C" transform="translate(162,39)"/>
<path d="M0 0 C1.32 0 2.64 0 4 0 C4.33 4.62 4.66 9.24 5 14 C4.34 14 3.68 14 3 14 C3 12.68 3 11.36 3 10 C2.01 10 1.02 10 0 10 C0 11.32 0 12.64 0 14 C-0.66 14 -1.32 14 -2 14 C-1.03644647 4.58997722 -1.03644647 4.58997722 0 0 Z " fill="#1B1B1B" transform="translate(113,141)"/>
<path d="M0 0 C3.4375 0.375 3.4375 0.375 5.4375 2.375 C5.4375 3.695 5.4375 5.015 5.4375 6.375 C4.4475 6.375 3.4575 6.375 2.4375 6.375 C2.1075 5.715 1.7775 5.055 1.4375 4.375 C-0.8725 4.705 -3.1825 5.035 -5.5625 5.375 C-5.5625 10.985 -5.5625 16.595 -5.5625 22.375 C-5.8925 22.375 -6.2225 22.375 -6.5625 22.375 C-6.64353404 19.45777452 -6.70301081 16.54280484 -6.75 13.625 C-6.77513672 12.8 -6.80027344 11.975 -6.82617188 11.125 C-6.89974024 5.04334883 -6.89974024 5.04334883 -5.2734375 1.8203125 C-3.5625 0.375 -3.5625 0.375 0 0 Z " fill="#1D1D1D" transform="translate(124.5625,158.625)"/>
<path d="M0 0 C2.79318092 0.50785108 5.41653503 1.13329121 8.125 2 C12.96927536 3.43931906 17.98108044 3.65511945 23 4 C22.67 4.66 22.34 5.32 22 6 C13.64259099 6.32098157 6.77729519 6.21819111 -1 3 C-0.67 2.01 -0.34 1.02 0 0 Z " fill="#EEEEEE" transform="translate(96,105)"/>
<path d="M0 0 C0.66 0.66 1.32 1.32 2 2 C-2.10982013 11.00999029 -6.94670954 17.55155018 -16 22 C-18.33452298 22.84731269 -20.57229127 23.44365008 -23 24 C-23.66 23.34 -24.32 22.68 -25 22 C-24.25234375 21.74605469 -23.5046875 21.49210937 -22.734375 21.23046875 C-21.74953125 20.88628906 -20.7646875 20.54210937 -19.75 20.1875 C-18.77546875 19.85105469 -17.8009375 19.51460937 -16.796875 19.16796875 C-14.13462412 18.05621873 -12.26504911 16.74889854 -10 15 C-9.34 15 -8.68 15 -8 15 C-7.72285156 14.42378906 -7.44570312 13.84757812 -7.16015625 13.25390625 C-5.66252211 10.34436114 -3.8969858 7.64786232 -2.12109375 4.90234375 C-0.84878807 2.89506996 -0.84878807 2.89506996 0 0 Z " fill="#323232" transform="translate(143,84)"/>
<path d="M0 0 C0.99 0.66 1.98 1.32 3 2 C3 2.99 3 3.98 3 5 C3.66 5.33 4.32 5.66 5 6 C3.37660195 7.70884005 1.70680947 9.37446717 0 11 C-0.66 11 -1.32 11 -2 11 C-2.33 10.34 -2.66 9.68 -3 9 C-3.99 9 -4.98 9 -6 9 C-5.52797514 4.75177626 -3.03344482 2.80010291 0 0 Z " fill="#F5F5F5" transform="translate(156,35)"/>
<path d="M0 0 C1.32 0 2.64 0 4 0 C3.67 1.32 3.34 2.64 3 4 C1.35 4.33 -0.3 4.66 -2 5 C-2 5.99 -2 6.98 -2 8 C1.465 7.505 1.465 7.505 5 7 C4.67 7.66 4.34 8.32 4 9 C0.9797502 9.80539995 -1.10367982 10.35309583 -4.0625 9.1875 C-4.701875 8.795625 -5.34125 8.40375 -6 8 C-6.845625 7.67 -7.69125 7.34 -8.5625 7 C-11 6 -11 6 -14 4 C-10 4 -10 4 -7.5625 4.8125 C-6.716875 4.874375 -5.87125 4.93625 -5 5 C-3.29220027 3.37550757 -1.62449243 1.70779973 0 0 Z " fill="#3D3D3D" transform="translate(143,197)"/>
<path d="M0 0 C2 4 2 4 2.5 6.125 C2.89277065 8.22679483 2.89277065 8.22679483 5 10 C5 10.99 5 11.98 5 13 C3.88625 13.28875 2.7725 13.5775 1.625 13.875 C-2.00291092 14.69241329 -2.00291092 14.69241329 -4 17 C-4 16.34 -4 15.68 -4 15 C-4.66 15 -5.32 15 -6 15 C-6 14.34 -6 13.68 -6 13 C-5.34 13 -4.68 13 -4 13 C-3.34 11.68 -2.68 10.36 -2 9 C-1.34 9 -0.68 9 0 9 C0 6.03 0 3.06 0 0 Z " fill="#DBDBDB" transform="translate(122,146)"/>
<path d="M0 0 C0.99 0.99 1.98 1.98 3 3 C3.66 2.67 4.32 2.34 5 2 C6.50930882 5.01861764 6.18438844 8.12991303 6.1875 11.4375 C6.19974609 12.11876953 6.21199219 12.80003906 6.22460938 13.50195312 C6.23555848 17.22829809 6.12005619 18.81991571 4 22 C3.97421875 21.20335938 3.9484375 20.40671875 3.921875 19.5859375 C3.75070415 12.62760634 3.75070415 12.62760634 0.875 6.5 C-1 4 -1 4 -0.75 1.625 C-0.5025 1.08875 -0.255 0.5525 0 0 Z " fill="#080808" transform="translate(140,63)"/>
<path d="M0 0 C2.0625 0.4375 2.0625 0.4375 4 1 C3.67 1.99 3.34 2.98 3 4 C2.67 3.67 2.34 3.34 2 3 C2.57344937 5.86724686 2.8614515 6.8614515 5 9 C4.625 12.125 4.625 12.125 4 15 C2.35 15 0.7 15 -1 15 C-1.33 13.68 -1.66 12.36 -2 11 C-1.01 11 -0.02 11 1 11 C1 11.66 1 12.32 1 13 C1.66 13 2.32 13 3 13 C1.24545615 9.81765895 1.24545615 9.81765895 -1 7 C-1.125 4 -1.125 4 -1 1 C-0.67 0.67 -0.34 0.34 0 0 Z " fill="#212121" transform="translate(130,140)"/>
<path d="M0 0 C0.5625 1.9375 0.5625 1.9375 1 4 C0.67 4.33 0.34 4.66 0 5 C0.33 5.66 0.66 6.32 1 7 C3.3140622 7.73075648 5.64828869 8.40138258 8 9 C8 9.66 8 10.32 8 11 C8.66 11 9.32 11 10 11 C9.67 11.66 9.34 12.32 9 13 C5.37 12.34 1.74 11.68 -2 11 C-2.25 3.375 -2.25 3.375 0 0 Z " fill="#161616" transform="translate(106,56)"/>
<path d="M0 0 C0.99 0.33 1.98 0.66 3 1 C2.67 1.33 2.34 1.66 2 2 C2.99 2.33 3.98 2.66 5 3 C5 3.99 5 4.98 5 6 C5.66 6.33 6.32 6.66 7 7 C5.68 6.67 4.36 6.34 3 6 C2.38125 6.99 1.7625 7.98 1.125 9 C0.42375 9.99 -0.2775 10.98 -1 12 C-1.66 12 -2.32 12 -3 12 C-3.2954439 6.97745369 -2.98514628 4.10457614 0 0 Z " fill="#6C6C6C" transform="translate(122,196)"/>
<path d="M0 0 C1.32 0 2.64 0 4 0 C4.125 2.875 4.125 2.875 4 6 C3.34 6.66 2.68 7.32 2 8 C1.60235737 9.98821313 1.26224651 11.98944339 1 14 C0.01 13.67 -0.98 13.34 -2 13 C-1.85915204 11.20793453 -1.71216299 9.41635083 -1.5625 7.625 C-1.48128906 6.62726563 -1.40007812 5.62953125 -1.31640625 4.6015625 C-1 2 -1 2 0 0 Z " fill="#191919" transform="translate(105,159)"/>
<path d="M0 0 C0.33 0 0.66 0 1 0 C1 5.61 1 11.22 1 17 C1.66 17 2.32 17 3 17 C3 14.36 3 11.72 3 9 C3.99 9.33 4.98 9.66 6 10 C6 12.31 6 14.62 6 17 C6.66 17.33 7.32 17.66 8 18 C5 19 5 19 0 18 C0 12.06 0 6.12 0 0 Z " fill="#C7C7C7" transform="translate(108,13)"/>
<path d="M0 0 C2.5625 0.25 2.5625 0.25 5 1 C6.3899408 3.7798816 6.18488204 5.9186326 6 9 C5 11.375 5 11.375 4 13 C3.34 12.67 2.68 12.34 2 12 C2 9.03 2 6.06 2 3 C0.68 2.67 -0.64 2.34 -2 2 C-1.34 1.34 -0.68 0.68 0 0 Z " fill="#191919" transform="translate(139,159)"/>
<path d="M0 0 C3.96 1.98 3.96 1.98 8 4 C7.25 8.75 7.25 8.75 5 11 C2.875 10.625 2.875 10.625 1 10 C1.33 9.01 1.66 8.02 2 7 C2.99 7.33 3.98 7.66 5 8 C3.36526484 4.87525373 3.36526484 4.87525373 0.875 4.3125 C0.25625 4.209375 -0.3625 4.10625 -1 4 C-0.67 2.68 -0.34 1.36 0 0 Z " fill="#252525" transform="translate(68,42)"/>
<path d="M0 0 C0.99 0.33 1.98 0.66 3 1 C2.25 6.75 2.25 6.75 0 9 C-3.125 9.125 -3.125 9.125 -6 9 C-5.33333333 7.66666667 -4.66666667 6.33333333 -4 5 C-3.67 4.278125 -3.34 3.55625 -3 2.8125 C-2 1 -2 1 0 0 Z " fill="#626262" transform="translate(142,21)"/>
<path d="M0 0 C0.66 0.33 1.32 0.66 2 1 C0.46781315 4.63061667 -1.7183144 6.9863773 -4.5 9.75 C-5.69109375 10.94882812 -5.69109375 10.94882812 -6.90625 12.171875 C-9 14 -9 14 -11 14 C-9.42219077 10.28954753 -7.09296752 7.70093616 -4.375 4.75 C-3.55773437 3.85796875 -2.74046875 2.9659375 -1.8984375 2.046875 C-1.27195313 1.37140625 -0.64546875 0.6959375 0 0 Z " fill="#131313" transform="translate(156,31)"/>
<path d="M0 0 C1.98 0 3.96 0 6 0 C4.68 0.33 3.36 0.66 2 1 C2 2.65 2 4.3 2 6 C2.99 6.33 3.98 6.66 5 7 C4.01 7 3.02 7 2 7 C2 8.65 2 10.3 2 12 C3.32 12 4.64 12 6 12 C6 12.66 6 13.32 6 14 C4.02 14 2.04 14 0 14 C0 9.38 0 4.76 0 0 Z " fill="#202020" transform="translate(104,141)"/>
<path d="M0 0 C-0.66 1.32 -1.32 2.64 -2 4 C-0.35 4.33 1.3 4.66 3 5 C3.33 5.99 3.66 6.98 4 8 C-0.84590538 7.55946315 -4.48141867 5.25494123 -8 2 C-8 1.34 -8 0.68 -8 0 C-4.94736336 -0.98120464 -3.05263664 -0.98120464 0 0 Z " fill="#E3E3E3" transform="translate(69,42)"/>
<path d="M0 0 C0.99 0 1.98 0 3 0 C3 0.66 3 1.32 3 2 C3.66 2 4.32 2 5 2 C5.33 1.34 5.66 0.68 6 0 C5.67 1.65 5.34 3.3 5 5 C4.34 5 3.68 5 3 5 C3 5.66 3 6.32 3 7 C3.66 7 4.32 7 5 7 C5 8.98 5 10.96 5 13 C4.34 13 3.68 13 3 13 C2.49487756 11.39743892 1.99608373 9.79288208 1.5 8.1875 C1.2215625 7.29417969 0.943125 6.40085937 0.65625 5.48046875 C0 3 0 3 0 0 Z " fill="#E6E6E6" transform="translate(96,17)"/>
<path d="M0 0 C2.08836672 4.17673343 2.3695619 6.65211418 2.625 11.25 C2.69976562 12.51328125 2.77453125 13.7765625 2.8515625 15.078125 C2.90054688 16.04234375 2.94953125 17.0065625 3 18 C2.67 17.01 2.34 16.02 2 15 C0.68 15.33 -0.64 15.66 -2 16 C-1.34 10.72 -0.68 5.44 0 0 Z " fill="#D3D3D3" transform="translate(106,167)"/>
<path d="M0 0 C0.33 0 0.66 0 1 0 C1 8.25 1 16.5 1 25 C0.67 25 0.34 25 0 25 C-0.33 20.38 -0.66 15.76 -1 11 C-1.33 11.66 -1.66 12.32 -2 13 C-2.66 13 -3.32 13 -4 13 C-3.34 10.36 -2.68 7.72 -2 5 C-1.67 5 -1.34 5 -1 5 C-0.67 3.35 -0.34 1.7 0 0 Z " fill="#E9E9E9" transform="translate(147,159)"/>
<path d="M0 0 C0.99 0 1.98 0 3 0 C4.12707478 3.38122435 3.97290788 5.5893502 3.6875 9.125 C3.60886719 10.20007813 3.53023438 11.27515625 3.44921875 12.3828125 C3.22685547 13.67832031 3.22685547 13.67832031 3 15 C2.01 15.495 2.01 15.495 1 16 C0.08342019 10.61509359 -0.11138159 5.45769811 0 0 Z " fill="#C9C9C9" transform="translate(109,159)"/>
<path d="M0 0 C2 2 2 2 2 5 C1.34 5 0.68 5 0 5 C-0.33 4.01 -0.66 3.02 -1 2 C-0.67 1.34 -0.34 0.68 0 0 Z M-5 4 C-3.35 4.33 -1.7 4.66 0 5 C-0.125 7.3125 -0.125 7.3125 -1 10 C-4.0625 11.8125 -4.0625 11.8125 -7 13 C-6.34 10.03 -5.68 7.06 -5 4 Z " fill="#030303" transform="translate(116,81)"/>
<path d="M0 0 C1.75 0.0625 1.75 0.0625 4 1 C6.44727466 4.2161819 8 6.92394904 8 11 C7.01 11 6.02 11 5 11 C4.16151196 9.54462432 3.32936066 8.08559627 2.5 6.625 C1.80390625 5.40683594 1.80390625 5.40683594 1.09375 4.1640625 C0 2 0 2 0 0 Z " fill="#EAEAEA" transform="translate(82,23)"/>
<path d="M0 0 C3.26954202 0.56371414 4.82575883 1.49962266 7 4 C6.67 4.66 6.34 5.32 6 6 C5.34 6 4.68 6 4 6 C4 6.66 4 7.32 4 8 C2.0625 7.6875 2.0625 7.6875 0 7 C-0.33 6.01 -0.66 5.02 -1 4 C-0.34 3.67 0.32 3.34 1 3 C0.67 2.01 0.34 1.02 0 0 Z " fill="#0D0D0D" transform="translate(115,120)"/>
<path d="M0 0 C0.33 0 0.66 0 1 0 C1.07654536 4.51617599 1.10228696 8.59085217 0 13 C-1.32 13 -2.64 13 -4 13 C-4 11.35 -4 9.7 -4 8 C-3.34 7.67 -2.68 7.34 -2 7 C-1.26924352 4.6859378 -0.59861742 2.35171131 0 0 Z " fill="#030303" transform="translate(104,171)"/>
<path d="M0 0 C0 0.66 0 1.32 0 2 C1.32 2.33 2.64 2.66 4 3 C2.02 3.99 2.02 3.99 0 5 C-0.66 4.34 -1.32 3.68 -2 3 C-4.20250992 2.53993654 -4.20250992 2.53993654 -6.625 2.375 C-7.44226563 2.30023438 -8.25953125 2.22546875 -9.1015625 2.1484375 C-9.72804688 2.09945312 -10.35453125 2.05046875 -11 2 C-11 1.34 -11 0.68 -11 0 C-6.66370819 -2.2956839 -4.46535773 -1.86921951 0 0 Z " fill="#171717" transform="translate(127,49)"/>
<path d="M0 0 C0 0.99 0 1.98 0 3 C1.32 2.34 2.64 1.68 4 1 C4.33 1.66 4.66 2.32 5 3 C-0.625 6 -0.625 6 -4 6 C-4.66 4.68 -5.32 3.36 -6 2 C-2.25 0 -2.25 0 0 0 Z " fill="#E7E7E7" transform="translate(82,34)"/>
<path d="M0 0 C0.33 0 0.66 0 1 0 C1 3.96 1 7.92 1 12 C0.01 12 -0.98 12 -2 12 C-2.05395478 10.37536158 -2.09277195 8.75021459 -2.125 7.125 C-2.14820312 6.22007812 -2.17140625 5.31515625 -2.1953125 4.3828125 C-2 2 -2 2 0 0 Z " fill="#010101" transform="translate(68,172)"/>
<path d="M0 0 C0.99 0.33 1.98 0.66 3 1 C2.01 2.32 1.02 3.64 0 5 C-0.33 4.34 -0.66 3.68 -1 3 C-0.67 2.01 -0.34 1.02 0 0 Z M-4 5 C-1.375 5.375 -1.375 5.375 1 6 C1 6.66 1 7.32 1 8 C-0.65 8.33 -2.3 8.66 -4 9 C-4.33 10.65 -4.66 12.3 -5 14 C-5.33 14 -5.66 14 -6 14 C-6.125 10.625 -6.125 10.625 -6 7 C-5.34 6.34 -4.68 5.68 -4 5 Z " fill="#1F1F1F" transform="translate(115,78)"/>
<path d="M0 0 C0.66 3.3 1.32 6.6 2 10 C0.35 10.33 -1.3 10.66 -3 11 C-2.67 8.36 -2.34 5.72 -2 3 C-2.66 3 -3.32 3 -4 3 C-4 2.34 -4 1.68 -4 1 C-2 0 -2 0 0 0 Z " fill="#222222" transform="translate(103,21)"/>
<path d="M0 0 C0.33 0 0.66 0 1 0 C1 3.96 1 7.92 1 12 C0.01 12 -0.98 12 -2 12 C-2 8.7 -2 5.4 -2 2 C-1.34 2 -0.68 2 0 2 C0 1.34 0 0.68 0 0 Z " fill="#010101" transform="translate(76,172)"/>
<path d="M0 0 C0.33 0 0.66 0 1 0 C1.433125 1.423125 1.433125 1.423125 1.875 2.875 C2.76825109 6.05211578 2.76825109 6.05211578 5 8 C5 8.99 5 9.98 5 11 C4.34 11 3.68 11 3 11 C3 10.34 3 9.68 3 9 C2.01 9 1.02 9 0 9 C-0.33 10.32 -0.66 11.64 -1 13 C-1.0272415 11.58344207 -1.04650467 10.16672955 -1.0625 8.75 C-1.07410156 7.96109375 -1.08570312 7.1721875 -1.09765625 6.359375 C-1.00385306 4.09308998 -0.63241063 2.1711105 0 0 Z " fill="#E8E8E8" transform="translate(128,142)"/>
<path d="M0 0 C1.32 0 2.64 0 4 0 C4 1.98 4 3.96 4 6 C3.01 6.495 3.01 6.495 2 7 C1.67 7.99 1.34 8.98 1 10 C0.34 10 -0.32 10 -1 10 C-0.835 8.906875 -0.67 7.81375 -0.5 6.6875 C0.06718184 3.12474127 0.06718184 3.12474127 0 0 Z " fill="#5C5C5C" transform="translate(126,15)"/>
<path d="M0 0 C1.32 0 2.64 0 4 0 C4 2.31 4 4.62 4 7 C2.68 7.33 1.36 7.66 0 8 C0 5.36 0 2.72 0 0 Z " fill="#D8D8D8" transform="translate(137,162)"/>
<path d="M0 0 C0.99 0 1.98 0 3 0 C3 3.63 3 7.26 3 11 C2.01 10.67 1.02 10.34 0 10 C0 6.7 0 3.4 0 0 Z " fill="#010101" transform="translate(66,159)"/>
<path d="M0 0 C0.99 0.33 1.98 0.66 3 1 C1.55746343 4.36591866 -0.33264727 6.51047079 -3 9 C-3 8.01 -3 7.02 -3 6 C-3.66 5.67 -4.32 5.34 -5 5 C-3.35 3.35 -1.7 1.7 0 0 Z " fill="#D3D3D3" transform="translate(147,36)"/>
<path d="M0 0 C0.66 0 1.32 0 2 0 C2 3.3 2 6.6 2 10 C1.01 10 0.02 10 -1 10 C-1.02689216 8.52093108 -1.04634621 7.04172517 -1.0625 5.5625 C-1.07410156 4.73878906 -1.08570313 3.91507813 -1.09765625 3.06640625 C-1 1 -1 1 0 0 Z " fill="#010101" transform="translate(142,174)"/>
<path d="M0 0 C0.66 0 1.32 0 2 0 C2 4.62 2 9.24 2 14 C1.01 13.67 0.02 13.34 -1 13 C-1 11.68 -1 10.36 -1 9 C-0.34 9 0.32 9 1 9 C0.67 6.03 0.34 3.06 0 0 Z " fill="#020202" transform="translate(125,141)"/>
<path d="M0 0 C0.99 0.495 0.99 0.495 2 1 C2.6328125 2.9609375 2.6328125 2.9609375 3.125 5.375 C3.29257813 6.16648437 3.46015625 6.95796875 3.6328125 7.7734375 C4 10 4 10 4 13 C3.34 13 2.68 13 2 13 C0.54815522 8.46298506 -0.23509196 4.81938524 0 0 Z " fill="#070707" transform="translate(79,74)"/>
<path d="M0 0 C1.45880109 0.14107747 2.91703551 0.28802415 4.375 0.4375 C5.59316406 0.55931641 5.59316406 0.55931641 6.8359375 0.68359375 C9 1 9 1 11 2 C10 3 10 3 8.15234375 3.09765625 C6.1015625 3.06510417 4.05078125 3.03255208 2 3 C1.67 3.99 1.34 4.98 1 6 C0.01 6 -0.98 6 -2 6 C-1.34 4.02 -0.68 2.04 0 0 Z " fill="#676767" transform="translate(102,200)"/>
<path d="M0 0 C0.91058531 3.07322544 1.08886184 5.80097361 1 9 C-0.98 9 -2.96 9 -5 9 C-3.25 4.125 -3.25 4.125 -1 3 C-0.67 2.01 -0.34 1.02 0 0 Z " fill="#DBDBDB" transform="translate(99,179)"/>
<path d="M0 0 C1.9375 0.3125 1.9375 0.3125 4 1 C4.33 1.99 4.66 2.98 5 4 C3.68 3.67 2.36 3.34 1 3 C1.66 4.32 2.32 5.64 3 7 C2.01 7.495 2.01 7.495 1 8 C-0.32 6.68 -1.64 5.36 -3 4 C-2.34 4 -1.68 4 -1 4 C-0.67 2.68 -0.34 1.36 0 0 Z " fill="#CECECE" transform="translate(130,54)"/>
<path d="M0 0 C1.32 0 2.64 0 4 0 C3.67 2.64 3.34 5.28 3 8 C1.68 7.67 0.36 7.34 -1 7 C-0.67 4.69 -0.34 2.38 0 0 Z " fill="#4F4F4F" transform="translate(113,141)"/>
<path d="M0 0 C3.08089673 2.77280706 4.68775452 5.06326356 6 9 C5.01 9.33 4.02 9.66 3 10 C2.566875 9.05125 2.13375 8.1025 1.6875 7.125 C0.20697799 3.79958063 0.20697799 3.79958063 -3 2 C-2.01 2 -1.02 2 0 2 C0 1.34 0 0.68 0 0 Z " fill="#272727" transform="translate(85,20)"/>
<path d="M0 0 C1.99954746 -0.04254356 4.00041636 -0.04080783 6 0 C7 1 7 1 7.0625 4.0625 C7.041875 5.031875 7.02125 6.00125 7 7 C6.01 7 5.02 7 4 7 C4.33 5.35 4.66 3.7 5 2 C3.68 2 2.36 2 1 2 C0.67 2.66 0.34 3.32 0 4 C0 2.68 0 1.36 0 0 Z " fill="#040404" transform="translate(109,13)"/>
<path d="M0 0 C0.66 0.33 1.32 0.66 2 1 C0.79618552 3.49361571 -0.45428722 5.68143083 -2 8 C-3.32 7.34 -4.64 6.68 -6 6 C-4.02 4.02 -2.04 2.04 0 0 Z " fill="#2C2C2C" transform="translate(162,39)"/>
<path d="M0 0 C2.67927341 4.01891012 2.15601248 6.24161923 2 11 C1.01 11.495 1.01 11.495 0 12 C-0.19401633 10.18818595 -0.38004375 8.37551468 -0.5625 6.5625 C-0.66691406 5.55316406 -0.77132812 4.54382813 -0.87890625 3.50390625 C-0.91886719 2.67761719 -0.95882812 1.85132813 -1 1 C-0.67 0.67 -0.34 0.34 0 0 Z " fill="#040404" transform="translate(108,165)"/>
<path d="M0 0 C4.75 0.875 4.75 0.875 7 2 C7 2.99 7 3.98 7 5 C4.23723823 4.47731534 1.6739124 3.89130413 -1 3 C-0.67 2.01 -0.34 1.02 0 0 Z " fill="#E1E1E1" transform="translate(96,105)"/>
<path d="M0 0 C0.99 0.33 1.98 0.66 3 1 C2.01 2.3303125 2.01 2.3303125 1 3.6875 C-0.98860067 6.98111986 -1.43735074 8.28251873 -1 12 C-1.66 12 -2.32 12 -3 12 C-3.2954439 6.97745369 -2.98514628 4.10457614 0 0 Z " fill="#212121" transform="translate(122,196)"/>
<path d="M0 0 C0.33 0 0.66 0 1 0 C1.22197585 2.10277123 1.42713637 4.20732302 1.625 6.3125 C1.74101562 7.48425781 1.85703125 8.65601562 1.9765625 9.86328125 C2 13 2 13 0 16 C-1.16306443 12.45049966 -0.92365049 9.44176052 -0.5625 5.75 C-0.46066406 4.67234375 -0.35882813 3.5946875 -0.25390625 2.484375 C-0.17011719 1.66453125 -0.08632812 0.8446875 0 0 Z " fill="#CCCCCC" transform="translate(146,70)"/>
<path d="M0 0 C1.98 0.99 3.96 1.98 6 3 C5.01 3.99 4.02 4.98 3 6 C2.01 5.67 1.02 5.34 0 5 C-0.75 3 -0.75 3 -1 1 C-0.67 0.67 -0.34 0.34 0 0 Z " fill="#050505" transform="translate(126,46)"/>
<path d="M0 0 C0.66 0.66 1.32 1.32 2 2 C0.68 3.32 -0.64 4.64 -2 6 C-2.99 5.67 -3.98 5.34 -5 5 C-5.6875 2.9375 -5.6875 2.9375 -6 1 C-5.38125 1.20625 -4.7625 1.4125 -4.125 1.625 C-3.073125 1.810625 -3.073125 1.810625 -2 2 C-1.34 1.34 -0.68 0.68 0 0 Z " fill="#0F0F0F" transform="translate(82,38)"/>
<path d="M0 0 C0.99 0 1.98 0 3 0 C3 1.65 3 3.3 3 5 C2.67 5 2.34 5 2 5 C1.67 7.97 1.34 10.94 1 14 C0.67 14 0.34 14 0 14 C0 9.38 0 4.76 0 0 Z " fill="#080808" transform="translate(93,141)"/>
<path d="M0 0 C1.32 0 2.64 0 4 0 C4.33 0.99 4.66 1.98 5 3 C3.02 3.66 1.04 4.32 -1 5 C-1 1 -1 1 0 0 Z M-5 5 C-3 6 -3 6 -3 6 Z " fill="#0C0C0C" transform="translate(110,117)"/>
<path d="M0 0 C0.33 0.99 0.66 1.98 1 3 C-0.98 4.32 -2.96 5.64 -5 7 C-6.32 6.34 -7.64 5.68 -9 5 C-8.43410156 4.72285156 -7.86820312 4.44570312 -7.28515625 4.16015625 C-6.55167969 3.79792969 -5.81820312 3.43570313 -5.0625 3.0625 C-3.96615234 2.52302734 -3.96615234 2.52302734 -2.84765625 1.97265625 C-1.03750973 1.13628173 -1.03750973 1.13628173 0 0 Z " fill="#DBDBDB" transform="translate(133,101)"/>
<path d="M0 0 C0.99 0 1.98 0 3 0 C3 1.98 3 3.96 3 6 C1.68 6.33 0.36 6.66 -1 7 C-0.67 4.69 -0.34 2.38 0 0 Z " fill="#101010" transform="translate(113,159)"/>
<path d="M0 0 C0.99 0 1.98 0 3 0 C3 4.62 3 9.24 3 14 C2.34 13.67 1.68 13.34 1 13 C1.33 9.7 1.66 6.4 2 3 C1.34 3 0.68 3 0 3 C0 2.01 0 1.02 0 0 Z " fill="#070707" transform="translate(99,141)"/>
<path d="M0 0 C0.33 0 0.66 0 1 0 C1.05437607 1.58294782 1.09296271 3.16644256 1.125 4.75 C1.14820312 5.63171875 1.17140625 6.5134375 1.1953125 7.421875 C1 10 1 10 -1 14 C-1.33 11.03 -1.66 8.06 -2 5 C-1.34 5 -0.68 5 0 5 C0 3.35 0 1.7 0 0 Z " fill="#D6D6D6" transform="translate(119,141)"/>
<path d="M0 0 C0 3 0 6 0 9 C-0.99 9 -1.98 9 -3 9 C-3.75 7.3125 -3.75 7.3125 -4 5 C-2.0625 2.25 -2.0625 2.25 0 0 Z " fill="#191919" transform="translate(103,123)"/>
<path d="M0 0 C1.65 0 3.3 0 5 0 C3.515 2.475 3.515 2.475 2 5 C0.68 4.67 -0.64 4.34 -2 4 C-1.34 2.68 -0.68 1.36 0 0 Z " fill="#EDEDED" transform="translate(136,30)"/>
<path d="M0 0 C0.66 0 1.32 0 2 0 C2 0.66 2 1.32 2 2 C2.66 2 3.32 2 4 2 C4 3.98 4 5.96 4 8 C3.34 8 2.68 8 2 8 C0.74335022 5.09399739 0 3.20395416 0 0 Z " fill="#D5D5D5" transform="translate(97,22)"/>
<path d="M0 0 C3.6875 0.875 3.6875 0.875 7 2 C7 2.66 7 3.32 7 4 C3.7 4 0.4 4 -3 4 C-3 3.34 -3 2.68 -3 2 C-2.01 1.34 -1.02 0.68 0 0 Z " fill="#060606" transform="translate(131,51)"/>
<path d="M0 0 C0.99 0 1.98 0 3 0 C3 0.66 3 1.32 3 2 C3.99 2.33 4.98 2.66 6 3 C3.69 3.33 1.38 3.66 -1 4 C-1 1 -1 1 0 0 Z " fill="#D8D8D8" transform="translate(113,49)"/>
<path d="M0 0 C0.33 0.66 0.66 1.32 1 2 C3.52733235 2.65555119 3.52733235 2.65555119 6 3 C6.33 3.99 6.66 4.98 7 6 C2.25 5.25 2.25 5.25 0 3 C0 2.01 0 1.02 0 0 Z " fill="#D8D8D8" transform="translate(66,44)"/>
<path d="M0 0 C0.66 1.32 1.32 2.64 2 4 C0.625 6 0.625 6 -1 8 C-1.66 8 -2.32 8 -3 8 C-3 6.35 -3 4.7 -3 3 C-2.01 3 -1.02 3 0 3 C0 2.01 0 1.02 0 0 Z " fill="#E4E4E4" transform="translate(63,159)"/>
<path d="M0 0 C0.33 0.66 0.66 1.32 1 2 C0.01 3.485 0.01 3.485 -1 5 C-3.1640625 5.29296875 -3.1640625 5.29296875 -5.625 5.1875 C-6.44226563 5.16042969 -7.25953125 5.13335937 -8.1015625 5.10546875 C-9.04128906 5.05326172 -9.04128906 5.05326172 -10 5 C-10 4.67 -10 4.34 -10 4 C-9.36191406 3.79503906 -8.72382812 3.59007812 -8.06640625 3.37890625 C-7.24011719 3.10949219 -6.41382812 2.84007812 -5.5625 2.5625 C-4.73878906 2.29566406 -3.91507812 2.02882812 -3.06640625 1.75390625 C-1.03780412 1.17844506 -1.03780412 1.17844506 0 0 Z " fill="#0C0C0C" transform="translate(98,130)"/>
<path d="M0 0 C0.66 0 1.32 0 2 0 C3.32 2.31 4.64 4.62 6 7 C4.02 7.99 4.02 7.99 2 9 C2.33 7.35 2.66 5.7 3 4 C2.34 4 1.68 4 1 4 C0.67 2.68 0.34 1.36 0 0 Z " fill="#CECECE" transform="translate(137,65)"/>
<path d="M0 0 C0.625 1.8125 0.625 1.8125 1 4 C0.01 5.485 0.01 5.485 -1 7 C-1.66 7 -2.32 7 -3 7 C-3.33 5.68 -3.66 4.36 -4 3 C-2.68 2.01 -1.36 1.02 0 0 Z " fill="#E7E7E7" transform="translate(135,104)"/>
<path d="M0 0 C2.125 0.375 2.125 0.375 4 1 C4 1.99 4 2.98 4 4 C2.68 4.33 1.36 4.66 0 5 C-0.66 4.01 -1.32 3.02 -2 2 C-1.34 1.34 -0.68 0.68 0 0 Z " fill="#161616" transform="translate(112,91)"/>
<path d="M0 0 C1.98 0.99 3.96 1.98 6 3 C3 5 3 5 0.8125 4.625 C0.214375 4.41875 -0.38375 4.2125 -1 4 C-0.67 2.68 -0.34 1.36 0 0 Z " fill="#161616" transform="translate(68,42)"/>
<path d="M0 0 C0.625 1.875 0.625 1.875 1 4 C0.34 4.66 -0.32 5.32 -1 6 C-1.66 6 -2.32 6 -3 6 C-3.33 4.35 -3.66 2.7 -4 1 C-2.68 0.67 -1.36 0.34 0 0 Z " fill="#ECECEC" transform="translate(107,23)"/>
<path d="M0 0 C0.99 0.33 1.98 0.66 3 1 C3 1.66 3 2.32 3 3 C2.34 3 1.68 3 1 3 C0.34 4.32 -0.32 5.64 -1 7 C-1.66 6.34 -2.32 5.68 -3 5 C-2.01 3.35 -1.02 1.7 0 0 Z " fill="#181818" transform="translate(139,19)"/>
<path d="M0 0 C0.99 0.33 1.98 0.66 3 1 C2.67 3.31 2.34 5.62 2 8 C1.34 7.67 0.68 7.34 0 7 C0 4.69 0 2.38 0 0 Z " fill="#070707" transform="translate(141,164)"/>
<path d="M0 0 C0 1.65 0 3.3 0 5 C-1.32 5 -2.64 5 -4 5 C-4 3.68 -4 2.36 -4 1 C-1 0 -1 0 0 0 Z " fill="#FBFBFB" transform="translate(111,148)"/>
<path d="M0 0 C1.98 0.495 1.98 0.495 4 1 C3.67 1.99 3.34 2.98 3 4 C2.67 3.67 2.34 3.34 2 3 C1.67 3.66 1.34 4.32 1 5 C0.34 5 -0.32 5 -1 5 C-0.67 3.35 -0.34 1.7 0 0 Z " fill="#292929" transform="translate(130,140)"/>
<path d="M0 0 C2 3 2 3 3 6 C1.68 6.99 0.36 7.98 -1 9 C-0.67 6.03 -0.34 3.06 0 0 Z " fill="#1D1D1D" transform="translate(122,54)"/>
<path d="M0 0 C0.66 0.33 1.32 0.66 2 1 C1.67 1.99 1.34 2.98 1 4 C-0.65 4.33 -2.3 4.66 -4 5 C-3 2 -3 2 0 0 Z " fill="#242424" transform="translate(154,47)"/>
<path d="M0 0 C0.99 0.33 1.98 0.66 3 1 C1.68 2.32 0.36 3.64 -1 5 C-1.99 4.67 -2.98 4.34 -4 4 C-2.68 2.68 -1.36 1.36 0 0 Z " fill="#EDEDED" transform="translate(91,45)"/>
<path d="M0 0 C1.4606285 2.64738916 2 3.89448334 2 7 C0.68 7.33 -0.64 7.66 -2 8 C-2.33 7.01 -2.66 6.02 -3 5 C-2.34 4.67 -1.68 4.34 -1 4 C-0.34786708 1.97536745 -0.34786708 1.97536745 0 0 Z " fill="#DFDFDF" transform="translate(92,31)"/>
<path d="M0 0 C0.99 0 1.98 0 3 0 C3 1.65 3 3.3 3 5 C1.68 4.67 0.36 4.34 -1 4 C-0.67 2.68 -0.34 1.36 0 0 Z " fill="#E4E4E4" transform="translate(123,27)"/>
<path d="M0 0 C0.66 0.33 1.32 0.66 2 1 C1.34 3.31 0.68 5.62 0 8 C-0.99 8 -1.98 8 -3 8 C-1.125 2.25 -1.125 2.25 0 0 Z " fill="#151515" transform="translate(125,17)"/>
</svg>
