<?xml version="1.0" standalone="no"?>
<!DOCTYPE svg PUBLIC "-//W3C//DTD SVG 20010904//EN"
 "http://www.w3.org/TR/2001/REC-SVG-20010904/DTD/svg10.dtd">
<svg version="1.0" xmlns="http://www.w3.org/2000/svg"
 width="225.000000pt" height="225.000000pt" viewBox="0 0 225.000000 225.000000"
 preserveAspectRatio="xMidYMid meet">

<g transform="translate(0.000000,225.000000) scale(0.100000,-0.100000)"
fill="#000000" stroke="none">
<path d="M743 1540 c-58 -23 -122 -82 -149 -138 -14 -27 -19 -59 -19 -123 0
-78 3 -91 37 -160 60 -120 70 -128 157 -130 l74 -2 31 79 c20 47 38 79 47 79
9 0 29 -44 58 -130 25 -71 47 -123 49 -115 36 108 135 377 143 385 17 17 30
-11 70 -151 21 -77 39 -140 39 -141 0 -2 63 -3 140 -3 l140 0 40 61 c111 171
110 321 -2 430 -107 104 -283 103 -402 -1 -18 -17 -41 -46 -51 -66 l-17 -36
-20 33 c-55 92 -135 140 -243 146 -53 2 -82 -2 -122 -17z"/>
<path d="M1136 1077 c-90 -259 -98 -278 -113 -275 -10 2 -30 46 -55 118 -22
63 -43 119 -47 123 -4 4 -17 -16 -28 -45 l-20 -53 -67 -3 -67 -3 32 -37 c59
-69 277 -255 345 -295 21 -12 297 211 364 295 l31 38 -124 0 c-88 0 -127 4
-134 13 -5 6 -22 57 -38 112 -15 55 -30 105 -34 112 -3 6 -24 -39 -45 -100z"/>
</g>
</svg>
