<?xml version="1.0" encoding="UTF-8"?>
<svg version="1.1" xmlns="http://www.w3.org/2000/svg" width="225" height="225">
<path d="M0 0 C74.25 0 148.5 0 225 0 C225 74.25 225 148.5 225 225 C150.75 225 76.5 225 0 225 C0 150.75 0 76.5 0 0 Z " fill="#FDFDFD" transform="translate(0,0)"/>
<path d="M0 0 C19.14 0 38.28 0 58 0 C58 0.99 58 1.98 58 3 C56.906875 3.28875 55.81375 3.5775 54.6875 3.875 C50.95986155 4.81893204 50.95986155 4.81893204 48 7 C47.07312675 9.78061975 46.87806604 11.42051859 46.88647461 14.2878418 C46.88665588 15.59682434 46.88665588 15.59682434 46.88684082 16.93225098 C46.89195679 17.84535034 46.89707275 18.75844971 46.90234375 19.69921875 C46.90335083 20.54150024 46.90435791 21.38378174 46.90539551 22.25158691 C46.91062616 25.39690513 46.92458743 28.54220394 46.9375 31.6875 C46.958125 38.720625 46.97875 45.75375 47 53 C64.16 53.33 81.32 53.66 99 54 C98.67 53.67 98.34 53.34 98 53 C97.85176661 49.88480654 97.76476108 46.78909187 97.71875 43.671875 C97.70034058 42.73071838 97.68193115 41.78956177 97.66296387 40.81988525 C97.60401737 37.79665582 97.55132482 34.77336785 97.5 31.75 C97.43223975 27.78634173 97.35846347 23.82285902 97.28125 19.859375 C97.26767456 18.94774597 97.25409912 18.03611694 97.2401123 17.09686279 C97.15924825 12.95009564 97.03553686 9.04362471 96 5 C102.15901243 3.76819751 107.78675502 4.26969092 114 5 C114 5.99 114 6.98 114 8 C113.01 7.67 112.02 7.34 111 7 C111.16265854 7.54271545 111.32531708 8.08543091 111.49290466 8.64459229 C112.08327016 11.38678165 112.11973344 13.88048545 112.11352539 16.68652344 C112.11340454 17.8432959 112.11328369 19.00006836 112.11315918 20.19189453 C112.10804321 21.40216309 112.10292725 22.61243164 112.09765625 23.859375 C112.09664917 24.97586426 112.09564209 26.09235352 112.09460449 27.24267578 C112.08937401 31.41179431 112.07541274 35.58089819 112.0625 39.75 C112.041875 49.0725 112.02125 58.395 112 68 C84.94 68 57.88 68 30 68 C30 49.52 30 31.04 30 12 C29.01 12 28.02 12 27 12 C27 52.92 27 93.84 27 136 C27.99 136 28.98 136 30 136 C30 114.55 30 93.1 30 71 C57.06 71 84.12 71 112 71 C112 92.45 112 113.9 112 136 C113.32 136 114.64 136 116 136 C115.99777939 135.26750534 115.99555878 134.53501068 115.99327087 133.78031921 C115.97323909 126.87938598 115.9580111 119.97845708 115.94818783 113.07750225 C115.94296784 109.52960152 115.9358862 105.9817248 115.92456055 102.43383789 C115.91162337 98.35562916 115.90676448 94.27744567 115.90234375 90.19921875 C115.89718246 88.92414963 115.89202118 87.64908051 115.88670349 86.33537292 C115.88662796 85.15437515 115.88655243 83.97337738 115.88647461 82.7565918 C115.884254 81.71512497 115.88203339 80.67365814 115.87974548 79.60063171 C116 77 116 77 117 74 C117.66 74 118.32 74 119 74 C118.85786703 72.10388566 118.71113093 70.20811606 118.5625 68.3125 C118.48128906 67.25675781 118.40007812 66.20101562 118.31640625 65.11328125 C118.06911126 62.10302034 118.06911126 62.10302034 117.48059082 59.60282898 C117.00954097 57.05167289 116.91974541 54.82908285 116.99414062 52.24145508 C117.0174646 51.32733353 117.04078857 50.41321198 117.06481934 49.47138977 C117.09499146 48.49727646 117.12516357 47.52316315 117.15625 46.51953125 C117.18223267 45.51033127 117.20821533 44.50113129 117.23498535 43.46134949 C117.31799979 40.24489784 117.40818378 37.02871169 117.5 33.8125 C117.62054451 29.56914399 117.73418215 25.32568312 117.84375 21.08203125 C117.87392212 20.10184525 117.90409424 19.12165924 117.93518066 18.11177063 C117.95850464 17.20710556 117.98182861 16.30244049 118.00585938 15.37036133 C118.02886108 14.57269852 118.05186279 13.77503571 118.07556152 12.95320129 C118.13128529 10.91898442 118.13128529 10.91898442 117 9 C117.66 9 118.32 9 119 9 C119.33 7.68 119.66 6.36 120 5 C122.31 5 124.62 5 127 5 C128.09658936 8.28976808 127.79953138 9.71303767 127 13 C127.66 13 128.32 13 129 13 C129.02490464 17.41080354 129.04295604 21.82156871 129.05493164 26.23242188 C129.05992943 27.72982497 129.0667299 29.22722327 129.07543945 30.72460938 C129.08770623 32.88933505 129.09327397 35.05399565 129.09765625 37.21875 C129.10289307 38.51748047 129.10812988 39.81621094 129.11352539 41.15429688 C128.9945945 45.18311261 128.52850885 49.00650934 128 53 C127.81763409 56.23017539 127.81505323 59.45255862 127.8125 62.6875 C127.80025391 63.51572266 127.78800781 64.34394531 127.77539062 65.19726562 C127.77345703 66.00228516 127.77152344 66.80730469 127.76953125 67.63671875 C127.76542236 68.35561279 127.76131348 69.07450684 127.75708008 69.81518555 C127.89673224 72.07312513 127.89673224 72.07312513 128.9992218 74.25131226 C130.14368132 77.39462799 130.25144893 79.82311944 130.25537109 83.16381836 C130.26233002 84.38536118 130.26928894 85.60690399 130.27645874 86.86546326 C130.27546173 88.17700882 130.27446472 89.48855438 130.2734375 90.83984375 C130.28200346 92.20838869 130.29200542 93.57692532 130.30337524 94.94544983 C130.34949572 100.74118062 130.37424912 106.53685548 130.38085938 112.33276367 C130.38588694 115.88546793 130.41019507 119.43762585 130.44618607 122.99014473 C130.4606809 124.99190742 130.45336095 126.9937899 130.44564819 128.99559021 C130.44016424 137.83331818 130.44016424 137.83331818 135 145 C137.07210692 146.11216029 137.07210692 146.11216029 139.25 146.375 C140.4875 146.58125 141.725 146.7875 143 147 C143 147.66 143 148.32 143 149 C124.19 149 105.38 149 86 149 C86 148.34 86 147.68 86 147 C87.65 147 89.3 147 91 147 C91 146.34 91 145.68 91 145 C91.9590625 144.566875 91.9590625 144.566875 92.9375 144.125 C95.15206079 143.17176549 95.15206079 143.17176549 96 141 C96.11944476 139.2134547 96.17722318 137.42263749 96.20532227 135.63232422 C96.22526749 134.51131317 96.24521271 133.39030212 96.26576233 132.23532104 C96.28247482 131.02071198 96.29918732 129.80610291 96.31640625 128.5546875 C96.3475779 126.69446457 96.3475779 126.69446457 96.37937927 124.79666138 C96.43377705 121.49888177 96.48400095 118.2010728 96.53222656 114.90319824 C96.58245234 111.53827357 96.63807999 108.17343857 96.69335938 104.80859375 C96.80143479 98.20579771 96.90046864 91.60295256 97 85 C79.84 85 62.68 85 45 85 C45.07397917 92.59944633 45.15679672 100.19771152 45.26245117 107.79663086 C45.29570111 110.38152954 45.32373277 112.96650084 45.34643555 115.55151367 C45.37997927 119.26773009 45.43229728 122.98328101 45.48828125 126.69921875 C45.49467117 127.85459641 45.5010611 129.00997406 45.50764465 130.20036316 C45.53733589 131.82147758 45.53733589 131.82147758 45.56762695 133.4753418 C45.57873001 134.42354294 45.58983307 135.37174408 45.60127258 136.34867859 C46.08038435 139.53451239 47.11087553 141.40637503 49 144 C51.91765 145.9451 53.62537285 146.45276317 57 147 C57 147.66 57 148.32 57 149 C38.19 149 19.38 149 0 149 C0 148.01 0 147.02 0 146 C0.62648437 145.82984375 1.25296875 145.6596875 1.8984375 145.484375 C2.71570312 145.24203125 3.53296875 144.9996875 4.375 144.75 C5.59316406 144.40195312 5.59316406 144.40195312 6.8359375 144.046875 C9.5752135 142.72173787 9.91548927 141.80791026 11 139 C11.29388868 136.38639767 11.29388868 136.38639767 11.24050903 133.50775146 C11.24325836 132.39158447 11.24600769 131.27541748 11.24884033 130.12542725 C11.24164978 128.90551086 11.23445923 127.68559448 11.22705078 126.42871094 C11.22734283 125.14065552 11.22763489 123.8526001 11.22793579 122.5255127 C11.22850954 118.99688061 11.21675173 115.46838453 11.20278788 111.93978405 C11.19028416 108.25089902 11.1891103 104.56201086 11.18673706 100.87310791 C11.18052124 93.8891823 11.16410904 86.90531932 11.14403808 79.92142129 C11.12168227 71.96985623 11.11068645 64.01828817 11.10064721 56.0666995 C11.07974289 39.71109634 11.04456493 23.35555616 11 7 C10.01 7 9.02 7 8 7 C7.54625 6.525625 7.0925 6.05125 6.625 5.5625 C4.53633317 3.55416651 2.8216552 3.38130476 0 3 C0 2.01 0 1.02 0 0 Z " fill="#D38E37" transform="translate(41,11)"/>
<path d="M0 0 C19.14 0 38.28 0 58 0 C58 0.99 58 1.98 58 3 C56.906875 3.28875 55.81375 3.5775 54.6875 3.875 C50.95986155 4.81893204 50.95986155 4.81893204 48 7 C47.07312675 9.78061975 46.87806604 11.42051859 46.88647461 14.2878418 C46.88665588 15.59682434 46.88665588 15.59682434 46.88684082 16.93225098 C46.89195679 17.84535034 46.89707275 18.75844971 46.90234375 19.69921875 C46.90335083 20.54150024 46.90435791 21.38378174 46.90539551 22.25158691 C46.91062616 25.39690513 46.92458743 28.54220394 46.9375 31.6875 C46.958125 38.720625 46.97875 45.75375 47 53 C64.16 53.33 81.32 53.66 99 54 C98.67 53.67 98.34 53.34 98 53 C97.85176661 49.88480654 97.76476108 46.78909187 97.71875 43.671875 C97.70034058 42.73071838 97.68193115 41.78956177 97.66296387 40.81988525 C97.60401737 37.79665582 97.55132482 34.77336785 97.5 31.75 C97.43223975 27.78634173 97.35846347 23.82285902 97.28125 19.859375 C97.26767456 18.94774597 97.25409912 18.03611694 97.2401123 17.09686279 C97.15924825 12.95009564 97.03553686 9.04362471 96 5 C102.15901243 3.76819751 107.78675502 4.26969092 114 5 C114 5.99 114 6.98 114 8 C113.01 7.67 112.02 7.34 111 7 C111.16265854 7.54271545 111.32531708 8.08543091 111.49290466 8.64459229 C112.08327016 11.38678165 112.11973344 13.88048545 112.11352539 16.68652344 C112.11340454 17.8432959 112.11328369 19.00006836 112.11315918 20.19189453 C112.10804321 21.40216309 112.10292725 22.61243164 112.09765625 23.859375 C112.09664917 24.97586426 112.09564209 26.09235352 112.09460449 27.24267578 C112.08937401 31.41179431 112.07541274 35.58089819 112.0625 39.75 C112.041875 49.0725 112.02125 58.395 112 68 C84.94 68 57.88 68 30 68 C30 49.52 30 31.04 30 12 C29.01 12 28.02 12 27 12 C27 22.89 27 33.78 27 45 C26.67 45 26.34 45 26 45 C25.67 42.36 25.34 39.72 25 37 C24.34 37 23.68 37 23 37 C23 26.77 23 16.54 23 6 C20.69 6 18.38 6 16 6 C15.14705225 9.75479132 14.81620293 13.33011494 14.68359375 17.17578125 C14.64169922 18.33271484 14.59980469 19.48964844 14.55664062 20.68164062 C14.51732422 21.87982422 14.47800781 23.07800781 14.4375 24.3125 C14.39431641 25.53001953 14.35113281 26.74753906 14.30664062 28.00195312 C14.20078504 31.0011947 14.09870274 34.00051591 14 37 C13.67 37 13.34 37 13 37 C13 27.76 13 18.52 13 9 C12.34 9 11.68 9 11 9 C11 8.34 11 7.68 11 7 C10.01 7 9.02 7 8 7 C7.54625 6.525625 7.0925 6.05125 6.625 5.5625 C4.53633317 3.55416651 2.8216552 3.38130476 0 3 C0 2.01 0 1.02 0 0 Z " fill="#ECB641" transform="translate(41,11)"/>
<path d="M0 0 C19.14 0 38.28 0 58 0 C58 0.99 58 1.98 58 3 C57.28972656 3.26554688 56.57945312 3.53109375 55.84765625 3.8046875 C54.46900391 4.33449219 54.46900391 4.33449219 53.0625 4.875 C52.14597656 5.22304688 51.22945313 5.57109375 50.28515625 5.9296875 C47.85058944 6.7819086 47.85058944 6.7819086 47 9 C46.90694429 10.69788574 46.87808165 12.39945097 46.87974548 14.09988403 C46.87837082 15.17964508 46.87699615 16.25940613 46.87557983 17.37188721 C46.87917511 18.56159119 46.88277039 19.75129517 46.88647461 20.97705078 C46.88632858 22.22579987 46.88618256 23.47454895 46.8860321 24.76113892 C46.88661048 28.19068663 46.89163481 31.62017457 46.89860606 35.0497117 C46.90484622 38.63184338 46.90544392 42.21397579 46.90663147 45.79611206 C46.90974283 52.5817525 46.91795359 59.36737689 46.92798096 66.15301025 C46.93914816 73.87721216 46.94465408 81.60141483 46.94967639 89.3256228 C46.96013636 105.21709117 46.97773203 121.10854352 47 137 C47.66 136.67 48.32 136.34 49 136 C49.33 138.64 49.66 141.28 50 144 C51.32 144 52.64 144 54 144 C54 144.66 54 145.32 54 146 C55.32 146.33 56.64 146.66 58 147 C54.26789965 147.34717213 52.45929542 147.2922789 49.25 145.25 C45.33636566 141.33636566 44.7500071 138.41869444 44.71289062 132.93383789 C44.69947632 131.70899185 44.68606201 130.48414581 44.67224121 129.22218323 C44.66432556 127.24241737 44.66432556 127.24241737 44.65625 125.22265625 C44.64260564 123.85028436 44.62781796 122.47792341 44.61193848 121.10557556 C44.56379257 116.75794936 44.5308115 112.41027909 44.5 108.0625 C44.46427737 103.026165 44.42227948 97.99004604 44.36405945 92.95391655 C44.34406242 90.94159511 44.3358173 88.92916796 44.32775879 86.91676331 C44.31434448 85.68876511 44.30093018 84.46076691 44.28710938 83.19555664 C44.27617249 81.57817345 44.27617249 81.57817345 44.26501465 79.92811584 C43.99216736 76.9134581 43.21926641 74.75012624 42 72 C41.75708008 69.81518555 41.75708008 69.81518555 41.76953125 67.63671875 C41.77146484 66.83169922 41.77339844 66.02667969 41.77539062 65.19726562 C41.78763672 64.36904297 41.79988281 63.54082031 41.8125 62.6875 C41.8134668 61.46256836 41.8134668 61.46256836 41.81445312 60.21289062 C41.84631922 55.76934075 42.18852929 51.50911287 42.76319885 47.09651184 C43.13461837 43.80816028 43.22307469 40.52535374 43.31640625 37.21875 C43.3475779 36.17031921 43.3475779 36.17031921 43.37937927 35.10070801 C43.44398535 32.90055741 43.50333909 30.70030304 43.5625 28.5 C43.60577017 26.99478158 43.64938693 25.48957307 43.69335938 23.984375 C43.79957319 20.32302256 43.90108196 16.66155766 44 13 C43.34 13 42.68 13 42 13 C42 10.36 42 7.72 42 5 C38.56206661 5.18129815 38.56206661 5.18129815 35 6 C33.36437233 7.76955321 33.36437233 7.76955321 33 10 C33.495 11.485 33.495 11.485 34 13 C34.06338461 14.3507853 34.0697882 15.70475221 34.03759766 17.05664062 C34.02072906 17.86758179 34.00386047 18.67852295 33.98648071 19.51403809 C33.9625827 20.38596802 33.93868469 21.25789795 33.9140625 22.15625 C33.89282318 23.05492798 33.87158386 23.95360596 33.84970093 24.8795166 C33.80345422 26.77928087 33.75452718 28.67898151 33.703125 30.57861328 C33.62530824 33.48847387 33.55813714 36.3984427 33.4921875 39.30859375 C33.44595066 41.15366194 33.39909641 42.99871477 33.3515625 44.84375 C33.33171295 45.71567993 33.3118634 46.58760986 33.29141235 47.48596191 C33.25665298 48.70237366 33.25665298 48.70237366 33.22119141 49.94335938 C33.20263092 50.65600952 33.18407043 51.36865967 33.16494751 52.10290527 C33 54 33 54 32 57 C32.66 57.33 33.32 57.66 34 58 C33.34 58.99 32.68 59.98 32 61 C32.66 61.33 33.32 61.66 34 62 C34 65.96 34 69.92 34 74 C33.34 74 32.68 74 32 74 C31.67 94.46 31.34 114.92 31 136 C29.68 136 28.36 136 27 136 C27 114.55 27 93.1 27 71 C-0.06 71 -27.12 71 -55 71 C-55 92.45 -55 113.9 -55 136 C-55.99 136 -56.98 136 -58 136 C-58 95.08 -58 54.16 -58 12 C-57.01 12 -56.02 12 -55 12 C-55 30.48 -55 48.96 -55 68 C-27.94 68 -0.88 68 27 68 C26.67 47.87 26.34 27.74 26 7 C26.99 6.67 27.98 6.34 29 6 C23.06 5.67 17.12 5.34 11 5 C11.99 7.475 11.99 7.475 13 10 C13.23144735 12.7442284 13.37118378 15.39844295 13.4140625 18.14453125 C13.43342865 18.91431808 13.4527948 19.68410492 13.4727478 20.47721863 C13.53225623 22.92220171 13.57881295 25.36723262 13.625 27.8125 C13.66320631 29.47593134 13.70225957 31.13934347 13.7421875 32.80273438 C13.83793383 36.86833241 13.92207009 40.93402301 14 45 C14.33 45 14.66 45 15 45 C15 47.97 15 50.94 15 54 C11.59321755 54.77599897 8.51606194 55.10460305 5.02612305 55.02172852 C4.06550461 55.00163223 3.10488617 54.98153595 2.11515808 54.96083069 C0.57895561 54.92027809 0.57895561 54.92027809 -0.98828125 54.87890625 C-2.04661667 54.85529526 -3.10495209 54.83168427 -4.19535828 54.80735779 C-7.56788234 54.73092775 -10.94016474 54.64681439 -14.3125 54.5625 C-16.60220181 54.50925865 -18.89191533 54.45651839 -21.18164062 54.40429688 C-26.78790917 54.2753406 -32.39399895 54.14007948 -38 54 C-38 53.67 -38 53.34 -38 53 C-21.5 53 -5 53 12 53 C11.7834375 43.038125 11.7834375 43.038125 11.5625 32.875 C11.49784546 29.74620361 11.49784546 29.74620361 11.43188477 26.55419922 C11.39373304 24.88768747 11.35526149 23.221183 11.31640625 21.5546875 C11.2916925 20.27283569 11.2916925 20.27283569 11.26647949 18.96508789 C11.1593038 14.54842245 10.86912414 10.34871369 10 6 C6.7 5.01 3.4 4.02 0 3 C0 2.01 0 1.02 0 0 Z " fill="#F6DB84" transform="translate(126,11)"/>
<path d="M0 0 C1.134375 0.020625 2.26875 0.04125 3.4375 0.0625 C4.87259221 2.93268441 4.54908506 5.39793723 4.53515625 8.6015625 C4.53193359 9.90351563 4.52871094 11.20546875 4.52539062 12.546875 C4.51703466 13.92708399 4.50856971 15.30729232 4.5 16.6875 C4.49498501 18.07551926 4.4904221 19.46354022 4.48632812 20.8515625 C4.47450976 24.25525132 4.45803434 27.65885439 4.4375 31.0625 C5.0975 31.3925 5.7575 31.7225 6.4375 32.0625 C7.91608924 39.56101808 7.56466221 47.23183953 7.53515625 54.84375 C7.53328803 56.26721141 7.53186603 57.69067346 7.53086853 59.11413574 C7.52707518 62.83603737 7.51727257 66.55789913 7.50616455 70.27978516 C7.49588152 74.08755962 7.49135623 77.89534061 7.48632812 81.703125 C7.47564702 89.15626805 7.45860946 96.60937841 7.4375 104.0625 C7.1075 104.0625 6.7775 104.0625 6.4375 104.0625 C6.1075 96.1425 5.7775 88.2225 5.4375 80.0625 C5.1075 80.0625 4.7775 80.0625 4.4375 80.0625 C4.44273682 80.99634521 4.44797363 81.93019043 4.45336914 82.89233398 C4.4703762 86.34562796 4.48293302 89.79887767 4.49243164 93.25219727 C4.49747121 94.74894918 4.50430287 96.24569616 4.51293945 97.74243164 C4.52502159 99.88949807 4.53073191 102.03649962 4.53515625 104.18359375 C4.54039307 105.4770874 4.54562988 106.77058105 4.55102539 108.10327148 C4.4375 111.0625 4.4375 111.0625 3.4375 112.0625 C0.4675 112.0625 -2.5025 112.0625 -5.5625 112.0625 C-5.8925 119.3225 -6.2225 126.5825 -6.5625 134.0625 C-6.8925 134.0625 -7.2225 134.0625 -7.5625 134.0625 C-7.8925 91.1625 -8.2225 48.2625 -8.5625 4.0625 C-7.9025 4.0625 -7.2425 4.0625 -6.5625 4.0625 C-6.2325 4.7225 -5.9025 5.3825 -5.5625 6.0625 C-5.418125 5.258125 -5.27375 4.45375 -5.125 3.625 C-4.26443625 -0.29534596 -4.23242358 0.07425305 0 0 Z " fill="#DE9D3B" transform="translate(60.5625,15.9375)"/>
<path d="M0 0 C1.0528418 0.07831055 1.0528418 0.07831055 2.12695312 0.15820312 C3.85588054 0.28757865 5.58425355 0.42432531 7.3125 0.5625 C7.3125 1.5525 7.3125 2.5425 7.3125 3.5625 C6.3225 3.2325 5.3325 2.9025 4.3125 2.5625 C4.47483124 3.12735107 4.63716248 3.69220215 4.80441284 4.27416992 C5.33254541 6.65278081 5.43946231 8.741586 5.44189453 11.17578125 C5.44504669 12.08352295 5.44819885 12.99126465 5.45144653 13.92651367 C5.4494223 14.89951416 5.44739807 15.87251465 5.4453125 16.875 C5.44674759 18.38380737 5.44674759 18.38380737 5.44821167 19.9230957 C5.44889162 22.04801496 5.4470502 24.17293631 5.44287109 26.29785156 C5.43752027 29.55017767 5.44282235 32.80236568 5.44921875 36.0546875 C5.44855794 38.11979197 5.44727671 40.18489636 5.4453125 42.25 C5.44733673 43.22300049 5.44936096 44.19600098 5.45144653 45.19848633 C5.44829437 46.10622803 5.44514221 47.01396973 5.44189453 47.94921875 C5.44109894 48.74545654 5.44030334 49.54169434 5.43948364 50.36206055 C5.31330482 52.54855363 4.91615972 54.46199338 4.3125 56.5625 C2.20901926 56.75754458 0.10467415 56.94328496 -2 57.125 C-3.17175781 57.22941406 -4.34351563 57.33382812 -5.55078125 57.44140625 C-8.6875 57.5625 -8.6875 57.5625 -11.6875 56.5625 C-11.18918276 52.87495243 -10.58682357 50.95759338 -7.6875 48.5625 C-8.0175 48.5625 -8.3475 48.5625 -8.6875 48.5625 C-8.72508423 46.64787964 -8.72508423 46.64787964 -8.76342773 44.69458008 C-8.85771694 39.95147956 -8.95788497 35.20851814 -9.05981445 30.46557617 C-9.10308198 28.41417702 -9.14476275 26.36274375 -9.18481445 24.3112793 C-9.24271544 21.35975878 -9.3063526 18.40840868 -9.37109375 15.45703125 C-9.39616249 14.08488213 -9.39616249 14.08488213 -9.42173767 12.68501282 C-9.51796804 8.53325895 -9.65420315 4.61111152 -10.6875 0.5625 C-6.99441024 -0.66852992 -3.80699288 -0.30925152 0 0 Z " fill="#F8D44D" transform="translate(147.6875,15.4375)"/>
<path d="M0 0 C3.24081385 2.21739895 5.31660659 4.39323665 6.73046875 8.01953125 C7.40121081 13.18268524 7.32266209 17.6624215 5.23046875 22.45703125 C1.091935 26.69902835 -2.96877221 28.6966177 -8.83203125 29.51953125 C-14.46164611 28.70067818 -17.81403283 26.54967061 -21.70703125 22.45703125 C-23.92774334 17.57146465 -24.16456967 13.29796298 -23.26953125 8.01953125 C-19.13257059 -1.17008096 -9.24281956 -3.99302532 0 0 Z " fill="#0B0B0B" transform="translate(138.26953125,184.98046875)"/>
<path d="M0 0 C0.33 0 0.66 0 1 0 C1.00546844 0.99478867 1.00546844 0.99478867 1.01104736 2.00967407 C1.05290147 8.92070386 1.12226824 15.83107135 1.20751953 22.74169922 C1.23572159 25.31975679 1.25693987 27.89790071 1.27099609 30.47607422 C1.29243509 34.18501975 1.33909396 37.89292793 1.390625 41.6015625 C1.39185364 42.75177887 1.39308228 43.90199524 1.39434814 45.08706665 C1.50779779 51.30460567 1.71814254 55.32307834 6 60 C8.07210692 61.11216029 8.07210692 61.11216029 10.25 61.375 C11.4875 61.58125 12.725 61.7875 14 62 C14 62.66 14 63.32 14 64 C-4.81 64 -23.62 64 -43 64 C-43 63.34 -43 62.68 -43 62 C-41.35 62 -39.7 62 -38 62 C-38 61.34 -38 60.68 -38 60 C-37.38125 59.7525 -36.7625 59.505 -36.125 59.25 C-33.55381579 57.7375387 -33.09698669 56.73799485 -32 54 C-31.67704142 51.74157424 -31.67704142 51.74157424 -31.68115234 49.32324219 C-31.66128265 48.40258972 -31.64141296 47.48193726 -31.62094116 46.53338623 C-31.60361435 45.05506317 -31.60361435 45.05506317 -31.5859375 43.546875 C-31.55688828 42.02383759 -31.55688828 42.02383759 -31.5272522 40.47003174 C-31.46751901 37.23010635 -31.42109572 33.99014532 -31.375 30.75 C-31.33681449 28.55206792 -31.29776242 26.35415072 -31.2578125 24.15625 C-31.16182265 18.77096544 -31.07675677 13.38559117 -31 8 C-30.67 8 -30.34 8 -30 8 C-30 10.64 -30 13.28 -30 16 C-29.34 16 -28.68 16 -28 16 C-27.67 14.02 -27.34 12.04 -27 10 C-26.67 10 -26.34 10 -26 10 C-26 25.84 -26 41.68 -26 58 C-23.36 58 -20.72 58 -18 58 C-18 58.33 -18 58.66 -18 59 C-12.72 59.33 -7.44 59.66 -2 60 C-2 42.18 -2 24.36 -2 6 C-1.67 6 -1.34 6 -1 6 C-0.67 4.02 -0.34 2.04 0 0 Z " fill="#BC6628" transform="translate(170,96)"/>
<path d="M0 0 C0.00586624 0.66541306 0.01173248 1.33082611 0.01777649 2.0164032 C0.08172096 8.94342577 0.16614391 15.86998421 0.26245117 22.79663086 C0.29570111 25.38152954 0.32373277 27.96650084 0.34643555 30.55151367 C0.37997927 34.26773009 0.43229728 37.98328101 0.48828125 41.69921875 C0.49467117 42.85459641 0.5010611 44.00997406 0.50764465 45.20036316 C0.53733589 46.82147758 0.53733589 46.82147758 0.56762695 48.4753418 C0.58428154 49.89764351 0.58428154 49.89764351 0.60127258 51.34867859 C1.08038435 54.53451239 2.11087553 56.40637503 4 59 C6.91765 60.9451 8.62537285 61.45276317 12 62 C12 62.66 12 63.32 12 64 C-6.81 64 -25.62 64 -45 64 C-45 63.01 -45 62.02 -45 61 C-44.37351563 60.82984375 -43.74703125 60.6596875 -43.1015625 60.484375 C-42.28429688 60.24203125 -41.46703125 59.9996875 -40.625 59.75 C-39.40683594 59.40195313 -39.40683594 59.40195313 -38.1640625 59.046875 C-35.54214546 57.7785108 -35.00617682 56.67576692 -34 54 C-33.34 54 -32.68 54 -32 54 C-32 45.09 -32 36.18 -32 27 C-31.67 27 -31.34 27 -31 27 C-30.83249071 31.37803185 -30.67192065 35.75624599 -30.51782227 40.13476562 C-30.46439997 41.62474442 -30.40907038 43.11465609 -30.35180664 44.60449219 C-30.26990164 46.74399337 -30.19482291 48.88364093 -30.12109375 51.0234375 C-30.0739624 52.31169434 -30.02683105 53.59995117 -29.97827148 54.92724609 C-30 58 -30 58 -31 60 C-29.2984375 59.98259766 -29.2984375 59.98259766 -27.5625 59.96484375 C-26.04166833 59.9554559 -24.52083486 59.94635678 -23 59.9375 C-22.25621094 59.92912109 -21.51242188 59.92074219 -20.74609375 59.91210938 C-20.00488281 59.90888672 -19.26367188 59.90566406 -18.5 59.90234375 C-17.8296875 59.89710693 -17.159375 59.89187012 -16.46875 59.88647461 C-12.94728612 60.04840901 -9.49437396 60.53590346 -6 61 C-6.00523682 59.92331055 -6.01047363 58.84662109 -6.01586914 57.73730469 C-6.17496059 21.78591951 -6.17496059 21.78591951 -5.6875 9.6875 C-5.65378296 8.5104248 -5.65378296 8.5104248 -5.61938477 7.30957031 C-5.51171875 5.19921875 -5.51171875 5.19921875 -5 2 C-2 0 -2 0 0 0 Z " fill="#B15722" transform="translate(86,96)"/>
<path d="M0 0 C19.14 0 38.28 0 58 0 C58 0.99 58 1.98 58 3 C56.906875 3.28875 55.81375 3.5775 54.6875 3.875 C50.95986155 4.81893204 50.95986155 4.81893204 48 7 C47.67 7.99 47.34 8.98 47 10 C46.34 10 45.68 10 45 10 C45.00523682 10.91813477 45.01047363 11.83626953 45.01586914 12.78222656 C45.03293598 16.19645823 45.04546232 19.61064441 45.05493164 23.02490234 C45.05995288 24.50114661 45.06677116 25.97738592 45.07543945 27.45361328 C45.08760189 29.57846298 45.09325046 31.70324678 45.09765625 33.828125 C45.10289307 35.1059082 45.10812988 36.38369141 45.11352539 37.70019531 C45.02194632 40.3620936 44.80108514 42.48309582 44 45 C43.34 45 42.68 45 42 45 C41.505 41.535 41.505 41.535 41 38 C40.67 38 40.34 38 40 38 C39.2931751 26.98110461 38.85340989 16.04312186 39 5 C37.92621094 5.0721875 36.85242188 5.144375 35.74609375 5.21875 C34.30990358 5.31261864 32.87370522 5.40636195 31.4375 5.5 C30.73302734 5.54769531 30.02855469 5.59539063 29.30273438 5.64453125 C24.85739865 5.9313271 20.45455341 6.04682842 16 6 C15.14705225 9.75479132 14.81620293 13.33011494 14.68359375 17.17578125 C14.64169922 18.33271484 14.59980469 19.48964844 14.55664062 20.68164062 C14.51732422 21.87982422 14.47800781 23.07800781 14.4375 24.3125 C14.39431641 25.53001953 14.35113281 26.74753906 14.30664062 28.00195312 C14.20078504 31.0011947 14.09870274 34.00051591 14 37 C13.67 37 13.34 37 13 37 C13 27.76 13 18.52 13 9 C12.34 9 11.68 9 11 9 C11 8.34 11 7.68 11 7 C10.01 7 9.02 7 8 7 C7.54625 6.525625 7.0925 6.05125 6.625 5.5625 C4.53633317 3.55416651 2.8216552 3.38130476 0 3 C0 2.01 0 1.02 0 0 Z " fill="#F5C03D" transform="translate(41,11)"/>
<path d="M0 0 C57.75 0 115.5 0 175 0 C175 0.99 175 1.98 175 3 C117.25 3 59.5 3 0 3 C0 2.01 0 1.02 0 0 Z " fill="#EB2B27" transform="translate(25,170)"/>
<path d="M0 0 C5.64166991 -0.04940499 11.28321413 -0.08572193 16.92504883 -0.10986328 C18.84466749 -0.11992639 20.76427081 -0.13357816 22.68383789 -0.15087891 C25.44160752 -0.17511364 28.19917464 -0.18647992 30.95703125 -0.1953125 C32.24623222 -0.21079636 32.24623222 -0.21079636 33.56147766 -0.22659302 C34.36208115 -0.22674408 35.16268463 -0.22689514 35.98754883 -0.22705078 C36.6914827 -0.231492 37.39541656 -0.23593323 38.12068176 -0.24050903 C40 0 40 0 43 2 C42.34 2.33 41.68 2.66 41 3 C40.67 4.32 40.34 5.64 40 7 C45.28 7 50.56 7 56 7 C56.33 5.68 56.66 4.36 57 3 C57 6.63 57 10.26 57 14 C40.83 14 24.66 14 8 14 C8.33 12.68 8.66 11.36 9 10 C8.67 9.01 8.34 8.02 8 7 C5.36 6.67 2.72 6.34 0 6 C0 5.67 0 5.34 0 5 C2.64 5 5.28 5 8 5 C8 3.68 8 2.36 8 1 C5.36 1 2.72 1 0 1 C0 0.67 0 0.34 0 0 Z " fill="#EDBC43" transform="translate(96,65)"/>
<path d="M0 0 C14 0 14 0 19 3 C21.4356419 6.65346284 21.12314882 7.98817909 20.484375 12.125 C19.87075357 14.50030875 19.0708407 15.67466195 17 17 C16.34 17 15.68 17 15 17 C15.5053125 17.69867188 16.010625 18.39734375 16.53125 19.1171875 C17.50578125 20.48230469 17.50578125 20.48230469 18.5 21.875 C19.1496875 22.77992188 19.799375 23.68484375 20.46875 24.6171875 C22 27 22 27 22 29 C18.875 29.5625 18.875 29.5625 15 29 C12.23537535 26.03147678 9 22.19954713 9 18 C8.01 18 7.02 18 6 18 C6 21.63 6 25.26 6 29 C4.02 29 2.04 29 0 29 C0 19.43 0 9.86 0 0 Z " fill="#050505" transform="translate(150,184)"/>
<path d="M0 0 C1.98 0 3.96 0 6 0 C6 3.63 6 7.26 6 11 C9.96 11 13.92 11 18 11 C18 7.37 18 3.74 18 0 C20.31 0 22.62 0 25 0 C25 9.57 25 19.14 25 29 C22.69 29 20.38 29 18 29 C18 25.04 18 21.08 18 17 C14.04 17 10.08 17 6 17 C6 20.96 6 24.92 6 29 C4.02 29 2.04 29 0 29 C0 19.43 0 9.86 0 0 Z " fill="#0F0F0F" transform="translate(25,184)"/>
<path d="M0 0 C0.66 0 1.32 0 2 0 C2 40.59 2 81.18 2 123 C1.34 123 0.68 123 0 123 C0 101.55 0 80.1 0 58 C-27.06 58 -54.12 58 -82 58 C-82 57.34 -82 56.68 -82 56 C-54.94 56 -27.88 56 0 56 C0 37.52 0 19.04 0 0 Z " fill="#FDFCFB" transform="translate(154,23)"/>
<path d="M0 0 C0.99 0 1.98 0 3 0 C3 40.92 3 81.84 3 124 C2.01 124 1.02 124 0 124 C0 83.08 0 42.16 0 0 Z " fill="#FAF3EE" transform="translate(68,23)"/>
<path d="M0 0 C3.29986239 0.60239814 5.14922731 2.02141538 7.41796875 4.44140625 C7.08796875 5.43140625 6.75796875 6.42140625 6.41796875 7.44140625 C4.48046875 8.25390625 4.48046875 8.25390625 2.41796875 8.44140625 C1.75796875 7.78140625 1.09796875 7.12140625 0.41796875 6.44140625 C-2.16557343 6.27453177 -2.16557343 6.27453177 -4.58203125 6.44140625 C-4.41735305 8.3920249 -4.41735305 8.3920249 -3.58203125 10.44140625 C-1.60711713 11.68732009 -1.60711713 11.68732009 0.79296875 12.50390625 C3.99298421 13.71824437 6.27028895 14.7141938 8.41796875 17.44140625 C8.83302325 21.34291857 8.64263365 24.16295271 6.41796875 27.44140625 C1.96505571 30.41001494 -2.35947104 30.07421282 -7.58203125 29.44140625 C-10.76953125 27.62890625 -10.76953125 27.62890625 -12.58203125 25.44140625 C-12.58203125 24.45140625 -12.58203125 23.46140625 -12.58203125 22.44140625 C-10.93203125 21.78140625 -9.28203125 21.12140625 -7.58203125 20.44140625 C-7.19015625 20.93640625 -6.79828125 21.43140625 -6.39453125 21.94140625 C-4.0311141 23.89733768 -2.56768122 23.68348598 0.41796875 23.44140625 C0.41796875 22.12140625 0.41796875 20.80140625 0.41796875 19.44140625 C-0.28070313 19.11527344 -0.979375 18.78914063 -1.69921875 18.453125 C-2.60929687 18.01613281 -3.519375 17.57914063 -4.45703125 17.12890625 C-5.36195312 16.69964844 -6.266875 16.27039063 -7.19921875 15.828125 C-9.58203125 14.44140625 -9.58203125 14.44140625 -11.58203125 11.44140625 C-12.05333465 7.82808021 -11.78492261 5.86563364 -10.20703125 2.56640625 C-6.73922642 -0.24086432 -4.36332411 -0.19979771 0 0 Z " fill="#090909" transform="translate(79.58203125,183.55859375)"/>
<path d="M0 0 C2.63671789 0.00503252 5.27343672 0.00959229 7.91015625 0.01367188 C14.27346154 0.02452144 20.63671982 0.04168613 27 0.0625 C27 4.6825 27 9.3025 27 14.0625 C26.67 14.0625 26.34 14.0625 26 14.0625 C26 11.4225 26 8.7825 26 6.0625 C10.16 6.0625 -5.68 6.0625 -22 6.0625 C-22 5.7325 -22 5.4025 -22 5.0625 C-32.65827777 3.6026561 -43.2558729 2.60542132 -54 2.0625 C-54 1.7325 -54 1.4025 -54 1.0625 C-35.99163502 0.11565433 -18.03024767 -0.06081221 0 0 Z " fill="#E6B343" transform="translate(126,81.9375)"/>
<path d="M0 0 C19.14 0 38.28 0 58 0 C58 0.99 58 1.98 58 3 C52.07067521 4.71357486 46.84073395 5.27355616 40.6875 5.1953125 C39.40601074 5.19106766 39.40601074 5.19106766 38.09863281 5.18673706 C35.39893947 5.17563879 32.69959123 5.15055427 30 5.125 C28.15755691 5.11495679 26.31510857 5.1058333 24.47265625 5.09765625 C19.98164006 5.0757335 15.49087832 5.04127646 11 5 C11.32145996 5.65701904 11.64291992 6.31403809 11.97412109 6.9909668 C13.24754459 10.72607973 13.35313051 14.24225424 13.4140625 18.14453125 C13.43342865 18.91431808 13.4527948 19.68410492 13.4727478 20.47721863 C13.53225623 22.92220171 13.57881295 25.36723262 13.625 27.8125 C13.66320631 29.47593134 13.70225957 31.13934347 13.7421875 32.80273438 C13.83793383 36.86833241 13.92207009 40.93402301 14 45 C14.33 45 14.66 45 15 45 C15 47.97 15 50.94 15 54 C11.59321755 54.77599897 8.51606194 55.10460305 5.02612305 55.02172852 C4.06550461 55.00163223 3.10488617 54.98153595 2.11515808 54.96083069 C0.57895561 54.92027809 0.57895561 54.92027809 -0.98828125 54.87890625 C-2.04661667 54.85529526 -3.10495209 54.83168427 -4.19535828 54.80735779 C-7.56788234 54.73092775 -10.94016474 54.64681439 -14.3125 54.5625 C-16.60220181 54.50925865 -18.89191533 54.45651839 -21.18164062 54.40429688 C-26.78790917 54.2753406 -32.39399895 54.14007948 -38 54 C-38 53.67 -38 53.34 -38 53 C-21.5 53 -5 53 12 53 C11.855625 46.35875 11.71125 39.7175 11.5625 32.875 C11.51939697 30.78913574 11.47629395 28.70327148 11.43188477 26.55419922 C11.39373304 24.88768747 11.35526149 23.221183 11.31640625 21.5546875 C11.29993042 20.70011963 11.28345459 19.84555176 11.26647949 18.96508789 C11.1593038 14.54842245 10.86912414 10.34871369 10 6 C6.7 5.01 3.4 4.02 0 3 C0 2.01 0 1.02 0 0 Z " fill="#F6D968" transform="translate(126,11)"/>
<path d="M0 0 C3.1875 -0.5 3.1875 -0.5 7 0 C9.55351065 2.76841006 12 6.13887863 12 10 C12.66 10 13.32 10 14 10 C14.268125 9.278125 14.53625 8.55625 14.8125 7.8125 C17.1875 2.1875 17.1875 2.1875 19 0 C22.6875 -0.3125 22.6875 -0.3125 26 0 C24.63659091 3.83672911 22.83068789 6.72248172 20.4375 10 C16.38266999 16.16637012 15.91925471 21.74445868 16 29 C14.02 29 12.04 29 10 29 C10.03222656 28.22398437 10.06445312 27.44796875 10.09765625 26.6484375 C9.99808426 17.37717871 7.16659215 12.0881383 1.93359375 4.80078125 C0 2 0 2 0 0 Z " fill="#070707" transform="translate(173,184)"/>
<path d="M0 0 C7.09729188 0.23269809 7.09729188 0.23269809 10.5 3.125 C12.40479372 6.77585464 12.5814173 8.93007892 12 13 C10.45840162 15.95473023 9.31912036 17.52908229 6.12890625 18.66796875 C2.21069776 19.41605771 0.53951646 19.33289313 -2.9375 17.1875 C-5.54747471 14.41934501 -5.94241186 13.50869523 -6.375 9.6875 C-5.90786625 5.09401813 -4.47959782 3.88552015 -1 1 C-0.67 0.67 -0.34 0.34 0 0 Z " fill="#F4F4F4" transform="translate(127,189)"/>
<path d="M0 0 C0.33 0 0.66 0 1 0 C1.00546844 0.99145775 1.00546844 0.99145775 1.01104736 2.00294495 C1.05293841 8.89790697 1.12233103 15.79220743 1.20751953 22.68676758 C1.23570174 25.25798925 1.25692987 27.82929712 1.27099609 30.40063477 C1.29246258 34.10217326 1.33913565 37.8026784 1.390625 41.50390625 C1.39185364 42.64896133 1.39308228 43.79401642 1.39434814 44.97377014 C1.51380448 51.52004437 2.13827754 55.64808325 6 61 C2.88045872 62.55977064 -0.42959384 62.12104126 -3.8515625 62.09765625 C-4.62559418 62.0962413 -5.39962585 62.09482635 -6.19711304 62.09336853 C-8.67311442 62.08776403 -11.14902588 62.07521083 -13.625 62.0625 C-15.30208203 62.05748558 -16.97916547 62.05292257 -18.65625 62.04882812 C-22.77086806 62.03779315 -26.88541878 62.02052554 -31 62 C-30.67 60.68 -30.34 59.36 -30 58 C-26.04 58 -22.08 58 -18 58 C-18 58.33 -18 58.66 -18 59 C-12.72 59.33 -7.44 59.66 -2 60 C-2 42.18 -2 24.36 -2 6 C-1.67 6 -1.34 6 -1 6 C-0.67 4.02 -0.34 2.04 0 0 Z " fill="#BB6326" transform="translate(170,96)"/>
<path d="M0 0 C7.26 0 14.52 0 22 0 C22 1.98 22 3.96 22 6 C19.36 6 16.72 6 14 6 C14 13.59 14 21.18 14 29 C12.02 29 10.04 29 8 29 C8 21.08 8 13.16 8 5 C5.36 5 2.72 5 0 5 C0 3.35 0 1.7 0 0 Z " fill="#050505" transform="translate(91,184)"/>
<path d="M0 0 C19.14 0 38.28 0 58 0 C58 0.99 58 1.98 58 3 C56.906875 3.28875 55.81375 3.5775 54.6875 3.875 C50.30961353 5.21062638 48.54592151 6.18111774 46 10 C46 8.35 46 6.7 46 5 C45.01 5 44.02 5 43 5 C42.67 5.66 42.34 6.32 42 7 C42 6.01 42 5.02 42 4 C31.77 4 21.54 4 11 4 C11 4.99 11 5.98 11 7 C10.01 7 9.02 7 8 7 C7.54625 6.525625 7.0925 6.05125 6.625 5.5625 C4.53633317 3.55416651 2.8216552 3.38130476 0 3 C0 2.01 0 1.02 0 0 Z " fill="#F1C35B" transform="translate(41,11)"/>
<path d="M0 0 C0.33 0 0.66 0 1 0 C1 7.92 1 15.84 1 24 C3.97 23.67 6.94 23.34 10 23 C10 23.66 10 24.32 10 25 C10.82242188 25.04898438 11.64484375 25.09796875 12.4921875 25.1484375 C13.60851562 25.22320312 14.72484375 25.29796875 15.875 25.375 C16.96554688 25.44460937 18.05609375 25.51421875 19.1796875 25.5859375 C22.1129913 25.90386204 24.76780036 26.36308854 27.63085938 27 C32.69535426 28.02779064 37.56984221 28.34171514 42.7265625 28.4140625 C43.60025482 28.43342865 44.47394714 28.4527948 45.37411499 28.4727478 C48.1243153 28.53182264 50.87455913 28.57863612 53.625 28.625 C55.50652718 28.66324638 57.3880381 28.70230181 59.26953125 28.7421875 C63.84621976 28.83746333 68.42298994 28.92175507 73 29 C73 29.33 73 29.66 73 30 C48.6552041 30.70985989 24.35650457 31.1087344 0 31 C0 20.77 0 10.54 0 0 Z " fill="#E5A740" transform="translate(71,48)"/>
<path d="M0 0 C0.66 0 1.32 0 2 0 C3.29670966 9.8631617 3.11124302 19.69797869 3.0625 29.625 C3.0574755 31.410155 3.05291428 33.19531136 3.04882812 34.98046875 C3.03789651 39.3203467 3.0206841 43.66015802 3 48 C0.36 48 -2.28 48 -5 48 C-5 34.8 -5 21.6 -5 8 C-4.67 8 -4.34 8 -4 8 C-4 19.55 -4 31.1 -4 43 C-2.68 43 -1.36 43 0 43 C0 28.81 0 14.62 0 0 Z " fill="#BC6929" transform="translate(157,104)"/>
<path d="M0 0 C0 13.2 0 26.4 0 40 C-0.33 40 -0.66 40 -1 40 C-1 37.36 -1 34.72 -1 32 C-1.66 32 -2.32 32 -3 32 C-3.33 34.64 -3.66 37.28 -4 40 C-4.33 40 -4.66 40 -5 40 C-5.93825316 30.86285772 -6.07007406 21.86510455 -5.75 12.6875 C-5.71048218 11.1569397 -5.71048218 11.1569397 -5.67016602 9.59545898 C-5.62947998 8.63969971 -5.58879395 7.68394043 -5.546875 6.69921875 C-5.51432617 5.84158936 -5.48177734 4.98395996 -5.44824219 4.1003418 C-4.78859622 1.00941899 -3.12216626 0 0 0 Z " fill="#CB812D" transform="translate(86,96)"/>
<path d="M0 0 C1.98 0 3.96 0 6 0 C6 9.57 6 19.14 6 29 C4.02 29 2.04 29 0 29 C0 19.43 0 9.86 0 0 Z " fill="#090909" transform="translate(56,184)"/>
<path d="M0 0 C17.16 0 34.32 0 52 0 C52 2.31 52 4.62 52 7 C51.34 5.68 50.68 4.36 50 3 C25.745 2.505 25.745 2.505 1 2 C1 19.16 1 36.32 1 54 C0.67 54 0.34 54 0 54 C0 36.18 0 18.36 0 0 Z " fill="#F6E6CC" transform="translate(86,96)"/>
<path d="M0 0 C0.33 0 0.66 0 1 0 C1.33 40.92 1.66 81.84 2 124 C2.99 123.505 2.99 123.505 4 123 C4.33 125.64 4.66 128.28 5 131 C6.32 131 7.64 131 9 131 C9 131.66 9 132.32 9 133 C10.32 133.33 11.64 133.66 13 134 C9.26789965 134.34717213 7.45929542 134.2922789 4.25 132.25 C1.47303372 129.47303372 0.14833431 127.4827545 -0.24609566 123.54001999 C-0.24425207 122.61453983 -0.24240849 121.68905968 -0.24050903 120.73553467 C-0.24325836 119.6698526 -0.24600769 118.60417053 -0.24884033 117.50619507 C-0.24164978 116.34238312 -0.23445923 115.17857117 -0.22705078 113.97949219 C-0.22734283 112.74995819 -0.22763489 111.52042419 -0.22793579 110.25363159 C-0.22678153 106.88611095 -0.21675396 103.5188358 -0.20278788 100.1513586 C-0.19028185 96.63063722 -0.18911012 93.10991253 -0.18673706 89.58917236 C-0.18052191 82.92398902 -0.16411063 76.25887131 -0.14403808 69.59371686 C-0.12168016 62.00490228 -0.11068592 54.41608456 -0.10064721 46.82724524 C-0.07974443 31.21812548 -0.04456778 15.60907121 0 0 Z " fill="#F7DEA1" transform="translate(171,24)"/>
<path d="M0 0 C0.33 0 0.66 0 1 0 C1 3.63 1 7.26 1 11 C-15.17 11 -31.34 11 -48 11 C-48 10.01 -48 9.02 -48 8 C-37.44 8 -26.88 8 -16 8 C-16 7.34 -16 6.68 -16 6 C-13.36 5.67 -10.72 5.34 -8 5 C-8 4.67 -8 4.34 -8 4 C-5.36 4 -2.72 4 0 4 C0 2.68 0 1.36 0 0 Z " fill="#ECC251" transform="translate(152,68)"/>
<path d="M0 0 C8.25 0 16.5 0 25 0 C25 0.33 25 0.66 25 1 C22.36 1.33 19.72 1.66 17 2 C24.92 2.66 32.84 3.32 41 4 C41 4.33 41 4.66 41 5 C30.67751172 5.82816525 20.45601804 6.09264755 10.10107422 5.96289062 C9.19244629 5.95451172 8.28381836 5.94613281 7.34765625 5.9375 C6.53304932 5.92589844 5.71844238 5.91429688 4.87915039 5.90234375 C2.98637422 5.79047369 2.98637422 5.79047369 2 7 C1.76346477 9.52596259 1.57826308 12.03107207 1.4375 14.5625 C1.39431641 15.27341797 1.35113281 15.98433594 1.30664062 16.71679688 C1.20028223 18.47761912 1.09961154 20.2387832 1 22 C0.67 22 0.34 22 0 22 C0 14.74 0 7.48 0 0 Z " fill="#DA9A3A" transform="translate(71,82)"/>
<path d="M0 0 C0.66 0 1.32 0 2 0 C2.04487549 0.64026123 2.08975098 1.28052246 2.13598633 1.94018555 C2.34805452 4.85711354 2.58007536 7.77212634 2.8125 10.6875 C2.91788086 12.19860352 2.91788086 12.19860352 3.02539062 13.74023438 C3.55578175 20.16857484 4.31222235 24.31222235 9 29 C6.39417629 29.93065133 5.35801776 30.14917407 2.75 29.0625 C1.88375 28.5365625 1.88375 28.5365625 1 28 C1 26.68 1 25.36 1 24 C0.34 24 -0.32 24 -1 24 C-0.67 24.99 -0.34 25.98 0 27 C-0.66 27.66 -1.32 28.32 -2 29 C-3.0176403 23.98391475 -3.11856434 19.21391694 -3.0625 14.125 C-3.05798828 13.34125 -3.05347656 12.5575 -3.04882812 11.75 C-3.03714093 9.83329986 -3.01920908 7.91663952 -3 6 C-2.34 5.67 -1.68 5.34 -1 5 C-0.34444881 2.47266765 -0.34444881 2.47266765 0 0 Z " fill="#BA6027" transform="translate(83,128)"/>
<path d="M0 0 C13.2 0 26.4 0 40 0 C40 0.66 40 1.32 40 2 C40.72703125 1.98839844 41.4540625 1.97679688 42.203125 1.96484375 C49.52631959 1.89912277 56.71366686 2.2765343 64 3 C60.45856475 5.19629783 57.60332753 5.23275752 53.484375 5.1953125 C51.60878906 5.18564453 51.60878906 5.18564453 49.6953125 5.17578125 C48.39335938 5.15902344 47.09140625 5.14226562 45.75 5.125 C44.43257812 5.11597656 43.11515625 5.10695313 41.7578125 5.09765625 C38.50502538 5.07408533 35.25260411 5.04118022 32 5 C32 4.67 32 4.34 32 4 C21.34172223 2.5401561 10.7441271 1.54292132 0 1 C0 0.67 0 0.34 0 0 Z " fill="#E3A837" transform="translate(72,83)"/>
<path d="M0 0 C3.16115776 1.36983503 3.9927092 1.9890638 6 5 C6.125 7.6875 6.125 7.6875 6 10 C5.38125 10.144375 4.7625 10.28875 4.125 10.4375 C1.96741678 10.93152225 1.96741678 10.93152225 0 12 C-1.54023996 12.06950541 -3.08334988 12.08452357 -4.625 12.0625 C-5.85089844 12.04896484 -5.85089844 12.04896484 -7.1015625 12.03515625 C-8.04128906 12.01775391 -8.04128906 12.01775391 -9 12 C-9 9.36 -9 6.72 -9 4 C-7.02 4 -5.04 4 -3 4 C-3 3.34 -3 2.68 -3 2 C-2.01 1.34 -1.02 0.68 0 0 Z " fill="#0E0E0E" transform="translate(165,185)"/>
<path d="M0 0 C0.90121078 -0.00315216 1.80242157 -0.00630432 2.73094177 -0.009552 C4.17328941 -0.00651566 4.17328941 -0.00651566 5.64477539 -0.00341797 C6.64448868 -0.00437469 7.64420197 -0.00533142 8.67420959 -0.00631714 C10.78476016 -0.00699648 12.89531284 -0.00515937 15.00585938 -0.00097656 C18.22734296 0.00436949 21.44868678 -0.00092702 24.67016602 -0.00732422 C26.72420278 -0.00666328 28.77823946 -0.0053818 30.83227539 -0.00341797 C31.79181625 -0.0054422 32.75135712 -0.00746643 33.73997498 -0.009552 C38.37599333 0.00660686 42.7445632 0.17336434 47.30493164 1.12939453 C47.30493164 1.78939453 47.30493164 2.44939453 47.30493164 3.12939453 C28.49493164 3.12939453 9.68493164 3.12939453 -9.69506836 3.12939453 C-9.69506836 2.46939453 -9.69506836 1.80939453 -9.69506836 1.12939453 C-6.40777482 0.39655101 -3.3658696 0.00339837 0 0 Z " fill="#C67B36" transform="translate(136.695068359375,156.87060546875)"/>
<path d="M0 0 C0.33 0 0.66 0 1 0 C1.33 11.55 1.66 23.1 2 35 C2.33 35 2.66 35 3 35 C3 37.97 3 40.94 3 44 C-0.40678245 44.77599897 -3.48393806 45.10460305 -6.97387695 45.02172852 C-7.93449539 45.00163223 -8.89511383 44.98153595 -9.88484192 44.96083069 C-11.42104439 44.92027809 -11.42104439 44.92027809 -12.98828125 44.87890625 C-14.04661667 44.85529526 -15.10495209 44.83168427 -16.19535828 44.80735779 C-19.56788234 44.73092775 -22.94016474 44.64681439 -26.3125 44.5625 C-28.60220181 44.50925865 -30.89191533 44.45651839 -33.18164062 44.40429688 C-38.78790917 44.2753406 -44.39399895 44.14007948 -50 44 C-50 43.67 -50 43.34 -50 43 C-33.5 43 -17 43 0 43 C0 28.81 0 14.62 0 0 Z " fill="#F0C369" transform="translate(138,21)"/>
<path d="M0 0 C0.93423645 3.01031744 1.04449911 3.86650268 0 7 C2.78061975 7.92687325 4.42051859 8.12193396 7.2878418 8.11352539 C8.14850754 8.11344986 9.00917328 8.11337433 9.8959198 8.11329651 C11.28355278 8.10555458 11.28355278 8.10555458 12.69921875 8.09765625 C13.64940384 8.0962413 14.59958893 8.09482635 15.5785675 8.09336853 C18.61491029 8.08776875 21.65117948 8.07521632 24.6875 8.0625 C26.74544164 8.05748497 28.80338444 8.05292207 30.86132812 8.04882812 C35.90758046 8.0377994 40.95377775 8.02053493 46 8 C46 8.66 46 9.32 46 10 C27.19 10 8.38 10 -11 10 C-11 9.01 -11 8.02 -11 7 C-10.37351563 6.82984375 -9.74703125 6.6596875 -9.1015625 6.484375 C-8.28429688 6.24203125 -7.46703125 5.9996875 -6.625 5.75 C-5.81289063 5.51796875 -5.00078125 5.2859375 -4.1640625 5.046875 C-1.54214546 3.7785108 -1.00617682 2.67576692 0 0 Z " fill="#D08245" transform="translate(52,150)"/>
<path d="M0 0 C0.33 0 0.66 0 1 0 C2.32915021 7.97490128 2.08801359 15.94186719 2 24 C1.67 24 1.34 24 1 24 C1 21.36 1 18.72 1 16 C0.34 16 -0.32 16 -1 16 C-1.33 18.64 -1.66 21.28 -2 24 C-2.33 24 -2.66 24 -3 24 C-3.71033431 18.47032059 -4.30267176 13.50016964 -3 8 C-2.34 8 -1.68 8 -1 8 C-0.67 5.36 -0.34 2.72 0 0 Z " fill="#C37429" transform="translate(84,112)"/>
<path d="M0 0 C0.33 0 0.66 0 1 0 C1 11.55 1 23.1 1 35 C3.31 35 5.62 35 8 35 C8 36.65 8 38.3 8 40 C5.36 40 2.72 40 0 40 C0 26.8 0 13.6 0 0 Z " fill="#B55F1A" transform="translate(152,112)"/>
<path d="M0 0 C0.33 0 0.66 0 1 0 C1.16750929 4.37803185 1.32807935 8.75624599 1.48217773 13.13476562 C1.53560003 14.62474442 1.59092962 16.11465609 1.64819336 17.60449219 C1.73009836 19.74399337 1.80517709 21.88364093 1.87890625 24.0234375 C1.9260376 25.31169434 1.97316895 26.59995117 2.02172852 27.92724609 C2 31 2 31 1 33 C6.61 33 12.22 33 18 33 C18 33.33 18 33.66 18 34 C7.605 34.495 7.605 34.495 -3 35 C-2.34 32.36 -1.68 29.72 -1 27 C-0.79065563 24.77639736 -0.65033673 22.54500678 -0.5859375 20.3125 C-0.54726563 19.12011719 -0.50859375 17.92773438 -0.46875 16.69921875 C-0.4378125 15.47847656 -0.406875 14.25773438 -0.375 13 C-0.33632813 11.74832031 -0.29765625 10.49664062 -0.2578125 9.20703125 C-0.16410659 6.1381628 -0.0783893 3.06929147 0 0 Z " fill="#BB6025" transform="translate(54,123)"/>
<path d="M0 0 C0.66 0 1.32 0 2 0 C2 10.56 2 21.12 2 32 C-0.75105642 26.49788716 -1.16451759 22.35829046 -1.125 16.25 C-1.12306641 15.53714844 -1.12113281 14.82429688 -1.11914062 14.08984375 C-1.07978715 9.30621013 -0.78565661 4.71393969 0 0 Z " fill="#F6D14B" transform="translate(169,56)"/>
<path d="M0 0 C0.33 0 0.66 0 1 0 C1.96205088 6.37358711 2.10655578 12.55929529 2 19 C3.65 19 5.3 19 7 19 C7 20.65 7 22.3 7 24 C4.36 24 1.72 24 -1 24 C-1.16677223 15.95787245 -0.6466598 8.01396246 0 0 Z " fill="#BB6125" transform="translate(65,128)"/>
<path d="M0 0 C5.80205656 5.64524422 5.80205656 5.64524422 8 9 C8 9.66 8 10.32 8 11 C1.59495352 11.48339973 1.59495352 11.48339973 -1 9.375 C-2.32886701 6.21894086 -1.87009103 4.26284135 -1 1 C-0.67 0.67 -0.34 0.34 0 0 Z " fill="#0B0B0B" transform="translate(164,202)"/>
<path d="M0 0 C2.875 -0.125 2.875 -0.125 6 0 C8 2 8 2 8.1875 4.5625 C8 7 8 7 7 8 C4.66702567 8.04092937 2.33294775 8.04241723 0 8 C0 5.36 0 2.72 0 0 Z " fill="#E9E9E9" transform="translate(156,189)"/>
<path d="M0 0 C0.33 0 0.66 0 1 0 C2.06066736 14.75143531 1.84278122 29.23890664 1 44 C0.67 44 0.34 44 0 44 C-0.16999071 39.66273134 -0.33024541 35.32523464 -0.48217773 30.98730469 C-0.53495797 29.51715853 -0.59022115 28.04709902 -0.64819336 26.57714844 C-0.99844031 17.64737393 -1.02344695 8.90046666 0 0 Z " fill="#CE8128" transform="translate(65,84)"/>
<path d="M0 0 C0.66 0 1.32 0 2 0 C2 8.58 2 17.16 2 26 C1.01 26 0.02 26 -1 26 C-1.02724423 23.16660035 -1.04695589 20.33346883 -1.0625 17.5 C-1.07087891 16.70851563 -1.07925781 15.91703125 -1.08789062 15.1015625 C-1.10891185 9.97238283 -0.73937287 5.07663894 0 0 Z " fill="#EFBA3A" transform="translate(65,22)"/>
<path d="M0 0 C3.465 1.485 3.465 1.485 7 3 C7 4.32 7 5.64 7 7 C6 8 6 8 3.625 8.3125 C1 8 1 8 -0.8125 6 C-1.204375 5.34 -1.59625 4.68 -2 4 C-1.34 2.68 -0.68 1.36 0 0 Z " fill="#E9E9E9" transform="translate(74,200)"/>
<path d="M0 0 C0.33 1.32 0.66 2.64 1 4 C1.66 4.33 2.32 4.66 3 5 C2.34 5.99 1.68 6.98 1 8 C1.66 8.33 2.32 8.66 3 9 C3 12.96 3 16.92 3 21 C2.34 21 1.68 21 1 21 C0.67 21.99 0.34 22.98 0 24 C0 16.08 0 8.16 0 0 Z " fill="#EDC24B" transform="translate(157,64)"/>
<path d="M0 0 C1.134375 0.020625 2.26875 0.04125 3.4375 0.0625 C2.4475 0.5575 2.4475 0.5575 1.4375 1.0625 C1.03020772 3.38406597 0.69311323 5.7193787 0.4375 8.0625 C-0.2225 8.0625 -0.8825 8.0625 -1.5625 8.0625 C-1.5625 7.4025 -1.5625 6.7425 -1.5625 6.0625 C-2.325625 6.124375 -3.08875 6.18625 -3.875 6.25 C-6.5625 6.0625 -6.5625 6.0625 -8.375 4.5625 C-8.766875 4.0675 -9.15875 3.5725 -9.5625 3.0625 C-8.758125 2.753125 -7.95375 2.44375 -7.125 2.125 C-2.08836207 0.03663793 -2.08836207 0.03663793 0 0 Z " fill="#F9F2E6" transform="translate(99.5625,151.9375)"/>
<path d="M0 0 C2.3125 -0.25 2.3125 -0.25 5 0 C6.8125 1.75 6.8125 1.75 8 4 C8 5.32 8 6.64 8 8 C1.25 6.25 1.25 6.25 -1 4 C-0.625 1.875 -0.625 1.875 0 0 Z " fill="#EAEAEA" transform="translate(75,189)"/>
<path d="M0 0 C0.66 0 1.32 0 2 0 C3.44576815 8.24087846 2.30168453 15.83488792 1 24 C0.67 24 0.34 24 0 24 C0 16.08 0 8.16 0 0 Z " fill="#C47A2F" transform="translate(157,104)"/>
<path d="M0 0 C0.93423645 3.01031744 1.04449911 3.86650268 0 7 C0.99 7.66 1.98 8.32 3 9 C-1.62 9.33 -6.24 9.66 -11 10 C-11 9.01 -11 8.02 -11 7 C-10.37351563 6.82984375 -9.74703125 6.6596875 -9.1015625 6.484375 C-8.28429688 6.24203125 -7.46703125 5.9996875 -6.625 5.75 C-5.81289063 5.51796875 -5.00078125 5.2859375 -4.1640625 5.046875 C-1.54214546 3.7785108 -1.00617682 2.67576692 0 0 Z " fill="#C57E50" transform="translate(52,150)"/>
<path d="M0 0 C1.68766187 2.95215133 2.25558953 5.08528995 2.265625 8.4765625 C2.26820312 9.311875 2.27078125 10.1471875 2.2734375 11.0078125 C2.26570313 11.87148438 2.25796875 12.73515625 2.25 13.625 C2.25773437 14.49640625 2.26546875 15.3678125 2.2734375 16.265625 C2.27085938 17.09835938 2.26828125 17.93109375 2.265625 18.7890625 C2.26336914 19.54912598 2.26111328 20.30918945 2.25878906 21.09228516 C2 23 2 23 0 25 C0.01160156 24.35675781 0.02320312 23.71351562 0.03515625 23.05078125 C0.1005839 16.49866982 -0.25731269 10.07758285 -0.87890625 3.5546875 C-0.91886719 2.71164063 -0.95882812 1.86859375 -1 1 C-0.67 0.67 -0.34 0.34 0 0 Z " fill="#E3AC3C" transform="translate(66,52)"/>
<path d="M0 0 C0.33 0 0.66 0 1 0 C1 7.92 1 15.84 1 24 C-1.99403679 18.01192642 -1.99633002 14.31581108 -1.0625 7.75 C-0.96259766 7.00492187 -0.86269531 6.25984375 -0.75976562 5.4921875 C-0.51319844 3.66054558 -0.25749609 1.83013749 0 0 Z " fill="#E8C13D" transform="translate(170,64)"/>
<path d="M0 0 C0.33 2.64 0.66 5.28 1 8 C2.32 8 3.64 8 5 8 C5 8.66 5 9.32 5 10 C6.32 10.33 7.64 10.66 9 11 C5.32823991 11.34155908 3.41971069 11.24249951 0.1875 9.375 C-2.40674134 6.55839511 -2.74327938 4.7652358 -3 1 C-1 0 -1 0 0 0 Z " fill="#F9EACC" transform="translate(175,147)"/>
<path d="M0 0 C0.66 0 1.32 0 2 0 C2.05389087 1.95803507 2.09274217 3.91648909 2.125 5.875 C2.14820313 6.96554688 2.17140625 8.05609375 2.1953125 9.1796875 C2 12 2 12 0 14 C-0.89214652 11.32356043 -1.13540211 9.74615622 -1.125 7 C-1.12757813 6.319375 -1.13015625 5.63875 -1.1328125 4.9375 C-1 3 -1 3 0 0 Z " fill="#DEA73B" transform="translate(158,85)"/>
<path d="M0 0 C1.32 0.33 2.64 0.66 4 1 C3.01 3.31 2.02 5.62 1 8 C0.67 7.34 0.34 6.68 0 6 C-0.66 6 -1.32 6 -2 6 C-2.33 6.66 -2.66 7.32 -3 8 C-3 6.35 -3 4.7 -3 3 C-2.01 2.67 -1.02 2.34 0 2 C0 1.34 0 0.68 0 0 Z " fill="#F7DB60" transform="translate(171,16)"/>
<path d="M0 0 C0.928125 1.175625 0.928125 1.175625 1.875 2.375 C3.89858661 4.96837647 3.89858661 4.96837647 6 7 C3.39417629 7.93065133 2.35801776 8.14917407 -0.25 7.0625 C-0.8275 6.711875 -1.405 6.36125 -2 6 C-2 5.34 -2 4.68 -2 4 C-1.34 3.67 -0.68 3.34 0 3 C0 2.01 0 1.02 0 0 Z " fill="#BE6733" transform="translate(86,150)"/>
<path d="M0 0 C1.65 0 3.3 0 5 0 C5 0.66 5 1.32 5 2 C5.66 2 6.32 2 7 2 C7.33 1.34 7.66 0.68 8 0 C7.67 1.32 7.34 2.64 7 4 C5.02 4 3.04 4 1 4 C0.67 2.68 0.34 1.36 0 0 Z " fill="#5E5E5E" transform="translate(192,209)"/>
<path d="M0 0 C3.875 4.75 3.875 4.75 5 7 C2.69 7.33 0.38 7.66 -2 8 C-1.34 7.67 -0.68 7.34 0 7 C0 4.69 0 2.38 0 0 Z " fill="#BE6E34" transform="translate(171,150)"/>
<path d="M0 0 C0.99 0 1.98 0 3 0 C3.33 0.99 3.66 1.98 4 3 C3.01 3 2.02 3 1 3 C1 5.64 1 8.28 1 11 C0.67 11 0.34 11 0 11 C0 7.37 0 3.74 0 0 Z " fill="#C2C2C2" transform="translate(156,202)"/>
<path d="M0 0 C1.32 0.66 2.64 1.32 4 2 C3.67 2.66 3.34 3.32 3 4 C0.69 3.67 -1.62 3.34 -4 3 C-2.68 2.01 -1.36 1.02 0 0 Z " fill="#BC6C34" transform="translate(136,154)"/>
<path d="M0 0 C-0.33 1.32 -0.66 2.64 -1 4 C-2.65 4 -4.3 4 -6 4 C-5.67 3.01 -5.34 2.02 -5 1 C-2 0 -2 0 0 0 Z " fill="#BD612B" transform="translate(160,148)"/>
<path d="M0 0 C0.66 0.33 1.32 0.66 2 1 C1.360625 1.598125 0.72125 2.19625 0.0625 2.8125 C-2.20310389 4.90810337 -2.20310389 4.90810337 -3 8 C-3.66 8 -4.32 8 -5 8 C-3.375 2.25 -3.375 2.25 0 0 Z " fill="#FBEFE5" transform="translate(92,15)"/>
</svg>
