<?xml version="1.0" standalone="no"?>
<!DOCTYPE svg PUBLIC "-//W3C//DTD SVG 20010904//EN"
 "http://www.w3.org/TR/2001/REC-SVG-20010904/DTD/svg10.dtd">
<svg version="1.0" xmlns="http://www.w3.org/2000/svg"
 width="225.000000pt" height="225.000000pt" viewBox="0 0 225.000000 225.000000"
 preserveAspectRatio="xMidYMid meet">

<g transform="translate(0.000000,225.000000) scale(0.100000,-0.100000)"
fill="#000000" stroke="none">
<path d="M1210 2025 c-14 -8 -35 -19 -48 -24 -19 -9 -21 -14 -12 -31 6 -11 15
-20 20 -20 5 0 10 -8 13 -17 3 -15 6 -13 17 10 7 15 17 27 21 27 8 0 39 52 39
65 0 9 -25 5 -50 -10z m30 -9 c0 -3 -4 -8 -10 -11 -5 -3 -10 -1 -10 4 0 6 5
11 10 11 6 0 10 -2 10 -4z"/>
<path d="M1260 1960 c0 -5 4 -10 9 -10 6 0 13 5 16 10 3 6 -1 10 -9 10 -9 0
-16 -4 -16 -10z"/>
<path d="M846 1820 c-68 -21 -115 -102 -102 -174 9 -48 59 -103 106 -117 143
-43 258 128 163 242 -44 52 -101 68 -167 49z m150 -102 c2 -16 -8 -18 -99 -16
l-102 2 95 6 95 6 -92 2 c-56 1 -93 6 -93 12 0 7 35 10 97 8 83 -3 96 -5 99
-20z m-1 -58 c0 -30 -1 -30 -53 -30 -33 0 -51 -4 -47 -10 4 -6 -13 -10 -44
-10 l-51 0 0 40 0 40 98 0 98 0 -1 -30z"/>
<path d="M285 1529 c-11 -16 -1 -19 13 -3 7 8 8 14 3 14 -5 0 -13 -5 -16 -11z"/>
<path d="M590 1500 c0 -5 5 -10 10 -10 6 0 10 5 10 10 0 6 -4 10 -10 10 -5 0
-10 -4 -10 -10z"/>
<path d="M1350 1480 c0 -5 5 -10 10 -10 6 0 10 5 10 10 0 6 -4 10 -10 10 -5 0
-10 -4 -10 -10z"/>
<path d="M250 1410 c0 -5 -9 -10 -19 -10 -32 0 -61 -47 -61 -97 0 -92 26 -103
234 -103 105 0 156 -4 164 -12 7 -7 12 -29 12 -50 0 -21 5 -38 10 -38 18 0 11
77 -9 101 -19 23 -25 24 -188 27 -136 3 -171 6 -185 19 -22 20 -24 81 -2 111
15 22 44 30 44 12 0 -6 8 -5 20 2 11 7 20 16 20 20 0 4 -9 12 -20 18 -14 7
-20 7 -20 0z"/>
<path d="M1880 1399 c0 -5 5 -7 10 -4 6 3 10 8 10 11 0 2 -4 4 -10 4 -5 0 -10
-5 -10 -11z"/>
<path d="M449 1363 c-13 -16 -12 -17 4 -4 9 7 17 15 17 17 0 8 -8 3 -21 -13z"/>
<path d="M1108 1373 c6 -2 18 -2 25 0 6 3 1 5 -13 5 -14 0 -19 -2 -12 -5z"/>
<path d="M1345 1290 c10 -11 20 -20 23 -20 3 0 -3 9 -13 20 -10 11 -20 20 -23
20 -3 0 3 -9 13 -20z"/>
<path d="M756 1271 c-8 -12 3 -41 15 -41 5 0 9 -7 9 -15 0 -17 55 -21 65 -5 4
6 -7 24 -24 40 -29 30 -55 38 -65 21z"/>
<path d="M698 1231 c-23 -23 -14 -31 34 -31 43 0 45 2 21 30 -21 24 -32 24
-55 1z"/>
<path d="M954 1130 c0 -69 1 -97 3 -62 2 34 2 90 0 125 -2 34 -3 6 -3 -63z"/>
<path d="M1002 1128 l-2 -98 143 2 142 2 -137 3 -137 4 -4 92 -3 92 -2 -97z"/>
<path d="M1422 1125 c0 -16 2 -22 5 -12 2 9 2 23 0 30 -3 6 -5 -1 -5 -18z"/>
<path d="M1421 1064 c0 -11 3 -14 6 -6 3 7 2 16 -1 19 -3 4 -6 -2 -5 -13z"/>
<path d="M490 1045 c0 -8 5 -15 11 -15 7 0 31 -18 55 -40 l44 -40 152 2 153 2
-151 3 -151 4 -41 35 c-23 20 -42 42 -42 50 0 8 -7 14 -15 14 -8 0 -15 -7 -15
-15z"/>
<path d="M580 1043 c0 -5 4 -15 10 -23 11 -18 25 -7 17 15 -6 15 -27 21 -27 8z"/>
<path d="M640 990 c0 -5 9 -10 20 -10 11 0 20 5 20 10 0 6 -9 10 -20 10 -11 0
-20 -4 -20 -10z"/>
<path d="M730 990 c0 -5 9 -10 20 -10 11 0 20 5 20 10 0 6 -9 10 -20 10 -11 0
-20 -4 -20 -10z"/>
<path d="M810 990 c0 -5 9 -10 20 -10 11 0 20 5 20 10 0 6 -9 10 -20 10 -11 0
-20 -4 -20 -10z"/>
<path d="M933 985 c-3 -9 -3 -19 1 -22 3 -4 6 1 6 10 0 8 8 18 18 20 16 4 16
5 -1 6 -10 0 -20 -6 -24 -14z"/>
<path d="M1436 943 c-3 -3 -3 -10 0 -14 7 -12 34 -11 34 0 0 11 -26 22 -34 14z"/>
<path d="M791 884 c0 -11 3 -14 6 -6 3 7 2 16 -1 19 -3 4 -6 -2 -5 -13z"/>
<path d="M1506 891 c-3 -5 1 -12 10 -15 20 -8 29 -1 19 13 -8 13 -22 14 -29 2z"/>
<path d="M1580 846 c0 -19 19 -31 31 -19 5 5 0 14 -11 21 -17 10 -20 10 -20
-2z"/>
<path d="M1650 796 c0 -16 27 -29 35 -16 3 5 -4 14 -15 20 -16 8 -20 8 -20 -4z"/>
<path d="M370 790 c0 -5 5 -10 10 -10 6 0 10 5 10 10 0 6 -4 10 -10 10 -5 0
-10 -4 -10 -10z"/>
<path d="M1722 748 c6 -17 36 -34 45 -24 4 4 -1 14 -11 22 -24 17 -39 18 -34
2z"/>
<path d="M1459 607 c-22 -15 -39 -38 -49 -65 -13 -37 -13 -47 0 -84 41 -116
201 -119 245 -4 17 44 17 48 0 92 -31 81 -123 110 -196 61z m94 -50 c10 -11
16 -29 14 -39 -3 -12 6 -23 29 -37 19 -11 34 -25 34 -31 0 -13 -6 -13 -40 5
-20 10 -42 13 -70 9 -48 -8 -80 14 -80 55 1 66 69 89 113 38z"/>
<path d="M1471 546 c-16 -19 -11 -46 12 -60 25 -16 52 4 52 40 0 24 -5 30 -26
32 -14 2 -31 -4 -38 -12z"/>
<path d="M1220 609 c0 -5 5 -7 10 -4 6 3 10 8 10 11 0 2 -4 4 -10 4 -5 0 -10
-5 -10 -11z"/>
<path d="M925 596 c-43 -19 -66 -49 -72 -94 -10 -73 40 -132 112 -132 88 0
144 76 114 156 -24 64 -95 96 -154 70z m71 -24 c22 -14 45 -80 42 -118 l-3
-39 -67 -3 -68 -3 0 56 c0 30 5 55 10 55 6 0 10 8 10 18 0 35 45 55 76 34z"/>
<path d="M947 543 c-14 -13 -6 -23 18 -23 16 0 25 6 25 15 0 15 -31 21 -43 8z"/>
<path d="M400 560 c0 -5 5 -10 10 -10 6 0 10 5 10 10 0 6 -4 10 -10 10 -5 0
-10 -4 -10 -10z"/>
<path d="M795 560 c3 -5 8 -10 11 -10 2 0 4 5 4 10 0 6 -5 10 -11 10 -5 0 -7
-4 -4 -10z"/>
<path d="M450 546 c0 -2 7 -7 16 -10 8 -3 12 -2 9 4 -6 10 -25 14 -25 6z"/>
<path d="M395 529 c-11 -16 -1 -19 13 -3 7 8 8 14 3 14 -5 0 -13 -5 -16 -11z"/>
<path d="M475 510 c-3 -5 -1 -10 4 -10 6 0 11 5 11 10 0 6 -2 10 -4 10 -3 0
-8 -4 -11 -10z"/>
<path d="M438 503 c7 -3 16 -2 19 1 4 3 -2 6 -13 5 -11 0 -14 -3 -6 -6z"/>
<path d="M1310 490 c0 -5 5 -10 10 -10 6 0 10 5 10 10 0 6 -4 10 -10 10 -5 0
-10 -4 -10 -10z"/>
<path d="M940 310 c0 -5 5 -10 10 -10 6 0 10 5 10 10 0 6 -4 10 -10 10 -5 0
-10 -4 -10 -10z"/>
<path d="M805 280 c-3 -5 1 -10 9 -10 9 0 16 5 16 10 0 6 -4 10 -9 10 -6 0
-13 -4 -16 -10z"/>
</g>
</svg>
