<?xml version="1.0" standalone="no"?>
<!DOCTYPE svg PUBLIC "-//W3C//DTD SVG 20010904//EN"
 "http://www.w3.org/TR/2001/REC-SVG-20010904/DTD/svg10.dtd">
<svg version="1.0" xmlns="http://www.w3.org/2000/svg"
 width="259.000000pt" height="194.000000pt" viewBox="0 0 259.000000 194.000000"
 preserveAspectRatio="xMidYMid meet">

<g transform="translate(0.000000,194.000000) scale(0.100000,-0.100000)"
fill="#000000" stroke="none">
<path d="M0 970 l0 -970 603 1 c526 1 593 2 530 14 -205 37 -378 128 -523 274
-119 120 -195 248 -246 417 -26 83 -28 101 -28 264 0 163 2 181 28 264 52 171
163 350 282 455 142 126 341 219 519 244 17 2 -239 5 -567 6 l-598 1 0 -970z"/>
<path d="M1471 1924 c477 -86 821 -518 796 -999 -4 -60 -13 -138 -22 -173 -92
-380 -396 -668 -778 -737 -63 -12 4 -13 526 -14 l597 -1 0 970 0 970 -597 -1
c-540 -1 -591 -2 -522 -15z"/>
<path d="M1150 1604 c-166 -44 -308 -152 -398 -303 l-20 -34 106 -81 106 -82
25 51 c34 67 103 135 176 171 55 27 69 29 170 29 108 0 111 -1 176 -37 l66
-36 92 92 92 92 -46 33 c-60 43 -177 96 -243 110 -73 15 -236 13 -302 -5z"/>
<path d="M1320 970 l0 -120 170 0 c157 0 170 -1 170 -18 0 -33 -51 -122 -88
-152 -35 -29 -36 -30 -17 -44 11 -8 56 -42 99 -75 l79 -62 39 38 c101 98 171
322 153 488 l-7 65 -299 0 -299 0 0 -120z"/>
</g>
</svg>
