<svg version="1.1" id="Layer_1" xmlns="http://www.w3.org/2000/svg" xmlns:xlink="http://www.w3.org/1999/xlink" x="0px" y="0px"
	 width="100%" viewBox="0 0 640 640" enable-background="new 0 0 640 640" xml:space="preserve">
<path fill="#F5F5F5" opacity="1.000000" stroke="none" 
	d="
M363.000000,641.000000 
	C242.000015,641.000000 121.500046,641.000000 1.000049,641.000000 
	C1.000032,427.666718 1.000032,214.333450 1.000016,1.000134 
	C214.333237,1.000090 427.666473,1.000090 640.999756,1.000045 
	C640.999878,214.333191 640.999878,427.666382 640.999939,640.999756 
	C548.500000,641.000000 456.000000,641.000000 363.000000,641.000000 
M402.233032,612.437927 
	C402.243408,612.657715 402.253784,612.877441 402.298370,613.355774 
	C402.298370,613.355774 402.531982,613.471558 402.801880,613.850403 
	C403.518188,613.829224 404.234528,613.807983 405.711487,613.811768 
	C409.694427,612.039673 410.039978,611.447083 408.393066,609.443848 
	C408.393066,609.443848 408.534302,609.341370 409.227417,609.091370 
	C411.212036,605.666016 409.922180,602.446106 406.822693,601.545959 
	C404.142792,600.767700 400.820129,602.202881 397.781586,602.659546 
	C396.238770,602.699890 394.474792,600.778015 392.643982,600.712097 
	C388.151489,600.550415 383.628235,601.244080 379.200348,601.587219 
	C378.559143,600.135132 378.035126,598.948364 377.797211,598.409485 
	C374.984863,599.749939 371.983215,602.319702 370.602936,601.632568 
	C365.761078,599.222168 363.229523,601.889771 360.480591,604.846313 
	C357.302094,599.583191 351.919403,598.979126 349.171570,602.379028 
	C344.732880,601.717896 340.954132,601.155029 337.382660,600.623047 
	C337.382660,606.735718 337.382660,611.948486 337.382660,617.161194 
	C337.704041,617.178833 338.025391,617.196472 338.346771,617.214172 
	C338.751892,616.078979 339.157013,614.943787 339.537231,613.878418 
	C343.681183,613.452820 347.631592,613.047058 352.148346,612.583130 
	C352.148346,611.635681 351.785217,609.730652 352.251892,608.057007 
	C352.706512,606.426697 354.010193,605.033142 354.941071,603.535645 
	C355.832977,605.001587 357.308350,606.394653 357.502228,607.947754 
	C357.992737,611.876587 361.847168,616.751892 365.692047,617.551575 
	C371.027435,618.661377 373.363281,615.503723 374.658295,610.560913 
	C375.555176,611.286133 375.982239,611.846375 376.537292,612.040405 
	C378.271790,612.646790 380.054596,613.114807 381.818695,613.636475 
	C382.253876,611.986877 382.719025,610.344482 383.115601,608.685669 
	C383.492737,607.107971 383.798248,605.513123 383.981964,604.647888 
	C385.660461,607.710266 386.587219,611.245728 388.876160,613.097473 
	C391.568390,615.275513 394.786652,613.942261 397.130096,611.056824 
	C397.679840,610.379944 399.285675,610.560791 400.517090,610.539001 
	C400.517090,610.539001 400.722351,610.623596 400.179230,611.647339 
	C401.080353,611.871887 401.981476,612.096436 402.233032,612.437927 
M309.920105,164.801346 
	C308.259125,164.892120 306.598145,164.982895 304.316132,164.565247 
	C302.500580,164.474609 300.677490,164.229691 298.870697,164.318039 
	C285.950348,164.949890 273.031158,165.610275 260.115906,166.338104 
	C245.220871,167.177490 230.336990,168.262894 215.433014,168.861923 
	C211.688828,169.012421 207.886322,167.712204 204.063019,166.124054 
	C204.063019,160.208588 204.063019,154.293137 204.063019,148.377670 
	C203.596771,148.146194 203.130539,147.914703 202.664291,147.683228 
	C201.998398,148.941589 200.807861,150.179062 200.756729,151.461914 
	C200.525879,157.253876 200.617554,163.058685 199.988159,168.951584 
	C199.391800,168.928726 198.795456,168.905884 198.139694,167.962311 
	C198.126556,156.807465 198.138321,145.652496 198.092087,134.497787 
	C198.057297,126.103027 193.882980,121.549324 186.365784,121.594048 
	C178.338104,121.641808 173.932159,126.090836 173.873672,134.403198 
	C173.790482,146.223175 173.808441,158.043869 172.997238,170.094604 
	C169.593643,170.472321 166.170670,171.279114 162.791031,171.126450 
	C157.812698,170.901566 155.665070,172.871460 156.186676,177.752594 
	C156.667084,182.248169 155.425949,185.460861 149.467239,186.083282 
	C145.035172,185.940170 143.359528,187.682144 144.087769,192.394257 
	C146.187653,205.981735 147.903366,219.628571 149.446854,233.843811 
	C149.864044,235.041916 150.281235,236.240021 150.635910,237.873764 
	C150.639908,238.168015 150.685944,238.455536 150.438156,239.457520 
	C150.675064,245.251053 151.346313,251.065872 151.063339,256.833923 
	C150.356125,271.250183 149.191910,285.643677 148.256836,300.049286 
	C147.503784,311.650818 146.868469,323.260071 146.091156,334.859894 
	C144.492554,358.716003 142.823792,382.567413 141.204407,406.422150 
	C140.439346,417.691925 139.729767,428.965515 138.980408,440.236389 
	C137.769241,458.452606 136.577621,476.670227 135.299515,494.881775 
	C135.061890,498.267487 136.223709,499.626007 139.762680,499.705597 
	C147.897217,499.888550 156.033722,500.311005 164.149429,500.908203 
	C171.421417,501.443329 178.666641,502.342224 185.966522,503.945831 
	C186.219589,505.359344 186.472641,506.772888 186.515640,508.472595 
	C186.535812,508.744232 186.676224,508.920441 186.993027,509.680054 
	C187.674011,510.190216 188.354996,510.700378 189.221817,511.482147 
	C189.221817,511.482147 189.674179,511.517761 189.674179,511.517761 
	C189.674179,511.517761 189.977966,511.151917 190.708496,510.972015 
	C191.457291,510.916229 192.206100,510.860443 193.349503,511.376038 
	C194.574799,510.987610 195.800110,510.599182 197.751297,510.023346 
	C198.497910,509.989624 199.244507,509.955933 200.514069,510.508911 
	C204.348694,509.738831 208.183334,508.968750 212.663727,508.020569 
	C213.108521,508.003906 213.553314,507.987244 214.411285,508.501312 
	C216.266068,508.056885 218.120850,507.612488 220.634644,506.991119 
	C221.087677,506.965454 221.540710,506.939789 222.564377,507.529602 
	C241.804947,508.679047 261.041107,509.910706 280.287933,510.943909 
	C290.216003,511.476837 300.171051,511.508514 310.098877,512.045105 
	C317.517395,512.446106 324.901886,513.605591 332.320160,513.841797 
	C338.194397,514.028870 344.096954,513.326660 350.656738,512.972473 
	C351.101807,513.009644 351.546844,513.046814 352.117096,513.828369 
	C355.413849,514.875427 358.662292,516.620911 362.015442,516.852966 
	C380.036835,518.099915 398.088379,518.902100 416.121399,519.992798 
	C430.168427,520.842407 444.199524,521.964050 458.251160,522.712036 
	C459.422058,522.774353 460.695618,520.907654 461.994354,519.998413 
	C461.994354,519.998413 461.941193,519.920410 462.772614,519.949402 
	C463.510162,518.727539 464.773529,517.551208 464.884094,516.275024 
	C465.183655,512.815918 464.665222,509.267181 465.156433,505.852539 
	C465.359772,504.438629 467.226532,502.285553 468.479858,502.180817 
	C472.568634,501.839142 476.760498,501.992310 480.842712,502.508636 
	C485.418427,503.087433 488.426422,500.315033 487.735901,495.654572 
	C487.283875,492.603607 486.976501,489.531189 486.544342,485.974884 
	C488.642181,485.974884 490.265656,485.976715 491.889130,485.974396 
	C493.714386,485.971802 495.546753,486.067566 497.363617,485.941650 
	C502.845001,485.561829 504.838806,483.274719 505.027252,477.807373 
	C505.128906,474.857239 505.665344,471.922089 506.759766,468.823761 
	C510.041534,468.672882 511.720154,467.929077 511.120941,463.699951 
	C507.602570,438.869110 504.536072,413.974640 501.164337,389.122375 
	C500.054016,380.938538 498.488251,372.816528 497.213257,363.785706 
	C496.497131,352.329926 495.683655,340.879272 495.084534,329.417358 
	C493.703766,303.001587 492.375641,276.582825 491.123108,250.160660 
	C489.956818,225.556732 488.927612,200.946289 487.790192,176.340927 
	C487.723389,174.896393 487.229095,173.471619 487.053162,171.348206 
	C486.993195,170.887848 486.933228,170.427505 487.028870,169.139542 
	C486.953369,167.741714 486.877869,166.343887 486.907990,164.500320 
	C486.907990,164.500320 486.777313,164.061279 486.927155,163.257736 
	C486.543060,161.168900 486.158936,159.080048 485.732269,156.341202 
	C484.209778,156.329712 482.687256,156.318222 480.224670,156.161774 
	C477.709229,156.344604 475.193817,156.527420 472.021912,156.329834 
	C471.257446,156.237137 470.493011,156.144455 469.780823,155.191544 
	C469.288696,151.435776 468.796539,147.680008 468.253021,143.532227 
	C464.498016,143.918747 461.211334,144.175751 457.947571,144.606155 
	C436.024506,147.497208 414.101257,150.387421 392.187958,153.351257 
	C368.462280,156.560272 344.747375,159.849106 320.134125,163.027802 
	C317.005005,163.631104 313.875916,164.234390 309.920105,164.801346 
M254.760162,612.982910 
	C254.946838,612.956360 255.133530,612.929749 255.920319,613.304932 
	C257.529572,613.742676 259.126404,614.476990 260.751099,614.544800 
	C262.890289,614.634155 265.051331,614.199524 267.737946,614.683960 
	C267.937256,614.897339 268.136536,615.110718 268.517487,615.990234 
	C270.584259,619.307617 273.089752,618.458557 275.624115,616.681946 
	C277.276611,615.523499 278.849030,614.250916 281.276276,612.407471 
	C281.702881,611.529602 282.669586,609.540344 283.636292,607.551086 
	C284.039795,607.714661 284.443298,607.878235 284.846802,608.041809 
	C284.598083,610.108154 284.349365,612.174500 284.100616,614.240845 
	C284.562897,614.368835 285.025146,614.496765 285.487427,614.624756 
	C286.244873,613.263672 287.002319,611.902649 287.816254,610.440063 
	C290.928162,615.797180 292.722168,616.082886 296.125336,613.132568 
	C299.827576,613.825806 302.619995,614.348633 305.672394,614.920166 
	C306.653778,610.206177 307.457245,606.346924 308.260712,602.487671 
	C307.813843,602.340027 307.366974,602.192383 306.920105,602.044739 
	C305.929657,603.248291 305.163544,604.844849 303.898346,605.566956 
	C301.784332,606.773438 299.351349,607.421143 297.006592,608.321777 
	C295.206482,603.952209 292.578644,603.757874 288.434814,608.801697 
	C286.729156,605.412781 275.472870,604.187378 268.329010,606.774597 
	C268.431030,605.605103 268.519684,604.588928 268.608337,603.572815 
	C268.493835,603.535156 268.379303,603.497498 268.264801,603.459778 
	C267.459839,607.058411 266.654877,610.657043 265.849915,614.255676 
	C265.215118,614.141907 264.580322,614.028198 263.945496,613.914429 
	C263.613190,611.437256 263.280853,608.960083 262.766479,605.125854 
	C260.905579,605.774658 258.739502,606.529907 255.740662,607.120361 
	C255.458679,607.101318 255.176697,607.082214 254.350723,606.642090 
	C251.583145,606.701660 248.815567,606.761230 245.718170,606.827881 
	C245.409622,604.098511 243.335419,600.895508 239.194626,602.302734 
	C233.575272,604.212402 236.449966,610.071228 234.397598,613.800415 
	C234.793350,614.304810 235.189102,614.809204 235.584854,615.313660 
	C239.092941,613.961914 242.601028,612.610229 246.311951,611.180359 
	C247.738846,614.613892 250.219086,616.472534 254.760162,612.982910 
M320.740936,606.593506 
	C318.880249,605.222717 317.019531,603.851990 314.608887,602.076111 
	C313.727325,606.138855 312.879822,610.044434 312.018799,614.012512 
	C320.569794,614.772705 321.429932,614.089478 320.740936,606.593506 
M322.958588,615.547058 
	C322.390228,616.043457 321.821838,616.539856 321.065186,617.200745 
	C325.105927,617.897461 329.275940,612.852966 330.253174,605.273865 
	C328.943481,606.837585 327.633789,608.401306 326.320465,609.969360 
	C325.603607,608.467468 324.877502,606.946167 324.151398,605.424805 
	C323.783325,605.565491 323.415283,605.706116 323.047211,605.846741 
	C323.202698,608.876038 323.358185,611.905396 322.958588,615.547058 
z"/>
<path fill="#F08059" opacity="1.000000" stroke="none" 
	d="
M351.991913,513.083984 
	C351.546844,513.046814 351.101807,513.009644 349.989777,512.757751 
	C338.893188,511.759949 328.469513,510.884796 318.032806,510.211517 
	C289.672546,508.381836 261.306763,506.637695 232.643127,504.605865 
	C216.906296,503.240936 201.469513,502.129822 185.802383,500.894165 
	C185.361938,500.496155 185.151825,500.222717 185.262512,499.679291 
	C187.395477,499.279175 189.207428,499.039520 191.019821,499.036194 
	C207.006775,499.006958 222.993805,499.015564 238.980804,499.020721 
	C313.752716,499.044952 388.524597,499.071686 463.272034,499.556396 
	C462.812073,506.650360 462.376617,513.285400 461.941162,519.920410 
	C461.941193,519.920410 461.994354,519.998413 461.522278,519.947632 
	C452.426117,519.299316 443.801788,518.705261 435.177979,518.103516 
	C421.900848,517.177002 408.630341,516.141357 395.345520,515.343628 
	C380.901184,514.476257 366.443665,513.827881 351.991913,513.083984 
z"/>
<path fill="#F29B5F" opacity="1.000000" stroke="none" 
	d="
M486.933777,172.037659 
	C487.229095,173.471619 487.723389,174.896393 487.790192,176.340927 
	C488.927612,200.946289 489.956818,225.556732 491.123108,250.160660 
	C492.375641,276.582825 493.703766,303.001587 495.084534,329.417358 
	C495.683655,340.879272 496.497131,352.329926 497.129700,364.725922 
	C497.710480,378.749725 498.374817,391.833344 499.019592,405.391907 
	C499.718384,426.257324 500.436737,446.647766 501.168762,467.356659 
	C501.556366,468.150238 501.930267,468.625336 502.215332,469.549988 
	C502.116455,472.307281 501.867188,474.644989 502.150940,476.916077 
	C502.610992,480.598022 501.311401,482.524353 497.523010,482.698822 
	C493.081573,482.903290 488.643738,483.186249 484.165649,483.030243 
	C484.416992,481.084076 484.707031,479.542786 485.351807,477.934265 
	C487.186493,475.029816 488.876007,472.276611 490.060059,469.320923 
	C490.672668,467.791718 490.883911,465.756104 490.421875,464.203644 
	C488.708313,458.445831 486.939209,452.929504 491.966644,447.702301 
	C492.932159,446.698486 493.191132,444.043610 492.584045,442.681763 
	C490.794678,438.667725 488.379852,434.972015 493.492523,431.539703 
	C494.047577,431.167084 493.975250,429.672119 493.979706,428.696777 
	C494.015411,420.876892 494.029510,413.056580 493.965729,405.237061 
	C493.956635,404.124298 493.523254,403.007263 493.233887,401.905975 
	C492.506042,399.136353 491.528320,396.410278 491.071564,393.598389 
	C490.702362,391.325592 491.253082,388.899872 490.859680,386.635132 
	C489.770111,380.362793 489.173035,374.258759 491.661072,368.062378 
	C492.439453,366.123871 491.930054,363.444031 491.394806,361.253937 
	C490.555267,357.818878 488.717957,354.580750 488.215149,351.126434 
	C487.865204,348.722443 488.883972,346.050262 489.589783,343.583252 
	C490.162872,341.580109 492.091064,339.573578 491.836670,337.794769 
	C490.908051,331.301788 490.789398,324.846191 488.668396,318.260925 
	C486.619080,311.898163 489.714294,304.021515 489.759491,296.804932 
	C489.816406,287.710907 488.873688,278.614777 488.737152,269.513947 
	C488.633453,262.604126 485.551361,255.826843 488.386536,248.634216 
	C488.920258,247.280197 490.493683,241.547836 484.999390,240.597305 
	C485.000824,239.136414 485.002869,238.073944 485.397644,236.911270 
	C486.193878,235.320068 486.916656,233.835220 486.945587,232.336990 
	C487.069977,225.896179 486.990540,219.451416 486.990265,212.640137 
	C486.652985,211.174286 486.310822,210.076416 485.970642,208.567337 
	C485.646057,205.439514 485.319458,202.722916 485.214233,199.832703 
	C484.968323,199.104828 484.500977,198.550537 484.026672,197.580170 
	C484.019806,195.776962 484.019897,194.389816 484.407837,192.904297 
	C484.860596,188.536301 484.925507,184.266678 484.990723,179.623016 
	C484.989563,178.501007 484.988098,177.753021 485.250000,176.774078 
	C485.986816,175.041290 486.460297,173.539474 486.933777,172.037659 
z"/>
<path fill="#F19E5A" opacity="1.000000" stroke="none" 
	d="
M486.993469,171.692932 
	C486.460297,173.539474 485.986816,175.041290 484.979858,176.513489 
	C483.519928,175.330551 482.760834,173.413635 481.635712,173.167114 
	C478.266266,172.428818 474.753906,172.049103 471.296967,172.046692 
	C384.843842,171.986420 298.390717,171.992828 212.228180,171.707489 
	C215.617828,170.959686 218.705261,170.193787 221.817795,170.072510 
	C241.541885,169.304047 261.271515,168.678192 281.282562,168.284515 
	C284.487183,168.667114 287.758423,170.715332 290.418030,167.031189 
	C292.225098,167.016129 293.615326,167.016205 295.307434,167.301697 
	C301.214630,167.754868 307.254578,166.661041 312.317017,168.404922 
	C318.865845,170.660828 324.137634,167.257126 330.439514,166.989670 
	C332.912567,166.985611 334.949158,166.980240 337.446899,166.983337 
	C349.941803,166.833023 361.976837,166.730911 374.007751,166.450317 
	C375.683746,166.411240 377.339233,165.493713 379.376953,164.984314 
	C380.494659,164.983414 381.239655,164.981049 382.408020,164.996384 
	C388.739471,165.113495 394.653473,165.081863 400.553986,165.348816 
	C406.567841,165.620911 412.562531,166.375595 418.576691,166.562164 
	C423.137024,166.703629 428.271545,167.544434 432.156830,165.826553 
	C438.295013,163.112549 443.719727,162.460800 450.186737,164.339111 
	C455.796509,165.968475 461.950256,170.123657 467.809326,163.763214 
	C471.917999,168.761276 476.901764,170.174774 482.969910,168.317001 
	C484.005524,167.999924 485.559021,169.374222 486.873260,169.967148 
	C486.933228,170.427505 486.993195,170.887848 486.993469,171.692932 
z"/>
<path fill="#DD957F" opacity="1.000000" stroke="none" 
	d="
M184.941711,499.949280 
	C185.151825,500.222717 185.361938,500.496155 185.799744,501.238464 
	C185.992874,502.165100 185.958267,502.622864 185.923676,503.080627 
	C178.666641,502.342224 171.421417,501.443329 164.149429,500.908203 
	C156.033722,500.311005 147.897217,499.888550 139.762680,499.705597 
	C136.223709,499.626007 135.061890,498.267487 135.299515,494.881775 
	C136.577621,476.670227 137.769241,458.452606 138.980408,440.236389 
	C139.729767,428.965515 140.439346,417.691925 141.204407,406.422150 
	C142.823792,382.567413 144.492554,358.716003 146.091156,334.859894 
	C146.868469,323.260071 147.503784,311.650818 148.256836,300.049286 
	C149.191910,285.643677 150.356125,271.250183 151.063339,256.833923 
	C151.346313,251.065872 150.675064,245.251053 150.728790,239.427322 
	C151.662918,239.954132 152.306427,240.511124 152.959793,241.516220 
	C152.969742,250.542877 153.110031,259.124451 152.924652,267.699036 
	C152.781464,274.322327 152.351974,280.946289 151.835510,287.553192 
	C150.623993,303.051819 149.114990,318.528778 148.046890,334.036560 
	C147.113434,347.589569 146.638962,361.173798 145.917587,374.741913 
	C145.645035,379.868011 145.271103,384.989105 144.904877,390.109772 
	C143.606140,408.269470 142.279617,426.427155 140.987595,444.587341 
	C140.517502,451.194763 140.090454,457.805511 139.686752,464.417328 
	C139.101486,474.002899 138.496429,483.587921 138.024750,493.179321 
	C137.862671,496.475281 139.789841,498.010193 143.012238,498.005035 
	C147.007248,497.998657 151.002274,497.986511 155.339706,497.996002 
	C156.139404,497.995941 156.596680,497.976776 157.495239,497.972595 
	C163.676376,498.331055 169.418930,498.635376 175.155014,499.033142 
	C178.422714,499.259705 181.679825,499.638855 184.941711,499.949280 
z"/>
<path fill="#1E1E1E" opacity="1.000000" stroke="none" 
	d="
M400.405640,610.346985 
	C399.285675,610.560791 397.679840,610.379944 397.130096,611.056824 
	C394.786652,613.942261 391.568390,615.275513 388.876160,613.097473 
	C386.587219,611.245728 385.660461,607.710266 383.981964,604.647888 
	C383.798248,605.513123 383.492737,607.107971 383.115601,608.685669 
	C382.719025,610.344482 382.253876,611.986877 381.818695,613.636475 
	C380.054596,613.114807 378.271790,612.646790 376.537292,612.040405 
	C375.982239,611.846375 375.555176,611.286133 374.658295,610.560913 
	C373.363281,615.503723 371.027435,618.661377 365.692047,617.551575 
	C361.847168,616.751892 357.992737,611.876587 357.502228,607.947754 
	C357.308350,606.394653 355.832977,605.001587 354.941101,603.535645 
	C354.010193,605.033142 352.706512,606.426697 352.251892,608.057007 
	C351.785217,609.730652 352.148346,611.635681 352.148346,612.583130 
	C347.631592,613.047058 343.681183,613.452820 339.537231,613.878418 
	C339.157013,614.943787 338.751892,616.078979 338.346771,617.214172 
	C338.025391,617.196472 337.704041,617.178833 337.382660,617.161194 
	C337.382660,611.948486 337.382660,606.735718 337.382660,600.623047 
	C340.954132,601.155029 344.732880,601.717896 349.171570,602.379028 
	C351.919403,598.979126 357.302094,599.583191 360.480591,604.846313 
	C363.229523,601.889771 365.761078,599.222168 370.602936,601.632568 
	C371.983215,602.319702 374.984863,599.749939 377.797211,598.409485 
	C378.035126,598.948364 378.559143,600.135132 379.200348,601.587219 
	C383.628235,601.244080 388.151489,600.550415 392.643982,600.712097 
	C394.474792,600.778015 396.238770,602.699890 397.781586,602.659546 
	C400.820129,602.202881 404.142792,600.767700 406.822693,601.545959 
	C409.922180,602.446106 411.212036,605.666016 408.411926,609.138306 
	C405.199493,609.572510 402.802582,609.959778 400.405640,610.346985 
M342.512695,603.356689 
	C341.359497,605.011841 339.898499,606.559448 339.257751,608.393616 
	C339.085724,608.885986 341.322693,610.830139 342.620026,611.030212 
	C343.635132,611.186768 345.991180,609.398743 345.877502,608.957886 
	C345.382935,607.039246 344.202576,605.297302 342.512695,603.356689 
M368.125366,603.466675 
	C366.662201,604.652710 364.768127,605.602722 363.930481,607.131470 
	C363.551453,607.823120 364.986450,610.201965 366.132477,610.811646 
	C367.013367,611.280212 369.878052,610.183594 369.879944,609.773743 
	C369.889282,607.773438 369.233551,605.770081 368.125366,603.466675 
z"/>
<path fill="#382A14" opacity="1.000000" stroke="none" 
	d="
M173.783188,169.864258 
	C173.808441,158.043869 173.790482,146.223175 173.873672,134.403198 
	C173.932159,126.090836 178.338104,121.641808 186.365784,121.594048 
	C193.882980,121.549324 198.057297,126.103027 198.092087,134.497787 
	C198.138321,145.652496 198.126556,156.807465 198.066437,168.814758 
	C197.713089,175.438507 196.944809,181.238647 197.283340,186.973434 
	C197.659500,193.346252 195.176758,197.210220 188.876312,197.999054 
	C184.408371,198.558472 181.170746,194.818329 181.019043,188.728699 
	C180.870712,182.774551 180.860733,176.816971 180.864716,170.408447 
	C180.967438,164.849808 180.868729,159.737595 181.111023,154.641602 
	C181.172974,153.338806 182.313843,152.087311 182.959015,150.812241 
	C183.704193,152.043701 185.025818,153.243942 185.094498,154.512039 
	C185.387955,159.930267 185.311569,165.368546 185.297516,171.277832 
	C185.207825,177.895126 185.025436,184.041687 185.307892,190.166840 
	C185.367004,191.448730 187.235413,193.737045 188.102600,193.660660 
	C189.810135,193.510223 191.712265,192.315628 192.932190,190.996506 
	C193.784088,190.075348 193.877686,188.231339 193.891251,186.795563 
	C193.944504,181.157822 193.831741,175.518539 193.836288,169.421814 
	C193.898483,157.327072 193.970581,145.689819 193.882874,134.053772 
	C193.841476,128.559341 190.923569,125.529877 186.225739,125.672363 
	C181.159042,125.826035 178.051163,128.959305 178.038544,134.295975 
	C178.009857,146.429123 178.115143,158.562592 177.940216,170.992874 
	C176.404037,170.814636 175.093613,170.339447 173.783188,169.864258 
z"/>
<path fill="#F29B5F" opacity="1.000000" stroke="none" 
	d="
M486.951050,169.553345 
	C485.559021,169.374222 484.005524,167.999924 482.969910,168.317001 
	C476.901764,170.174774 471.917999,168.761276 467.809326,163.763214 
	C461.950256,170.123657 455.796509,165.968475 450.186737,164.339111 
	C443.719727,162.460800 438.295013,163.112549 432.156830,165.826553 
	C428.271545,167.544434 423.137024,166.703629 418.576691,166.562164 
	C412.562531,166.375595 406.567841,165.620911 400.553986,165.348816 
	C394.653473,165.081863 388.739471,165.113495 382.487488,164.624390 
	C383.700073,163.492676 385.231018,162.165222 386.816833,162.096069 
	C412.639282,160.969559 438.471313,160.062607 464.292633,158.913193 
	C467.114960,158.787537 469.884399,157.473236 472.678375,156.710266 
	C475.193817,156.527420 477.709229,156.344604 480.955322,156.442734 
	C483.048920,156.812866 484.411865,156.902039 485.774811,156.991211 
	C486.158936,159.080048 486.543060,161.168900 486.730957,163.747284 
	C486.378632,164.546387 486.467834,164.782791 486.802368,164.946060 
	C486.877869,166.343887 486.953369,167.741714 486.951050,169.553345 
z"/>
<path fill="#D6B27C" opacity="1.000000" stroke="none" 
	d="
M180.790009,170.860886 
	C180.860733,176.816971 180.870712,182.774551 181.019043,188.728699 
	C181.170746,194.818329 184.408371,198.558472 188.876312,197.999054 
	C195.176758,197.210220 197.659500,193.346252 197.283340,186.973434 
	C196.944809,181.238647 197.713089,175.438507 198.096130,169.275116 
	C198.795456,168.905884 199.391800,168.928726 200.506378,169.241699 
	C204.019028,171.187057 203.757767,168.746582 204.110626,167.078690 
	C207.886322,167.712204 211.688828,169.012421 215.433014,168.861923 
	C230.336990,168.262894 245.220871,167.177490 260.115906,166.338104 
	C273.031158,165.610275 285.950348,164.949890 298.870697,164.318039 
	C300.677490,164.229691 302.500580,164.474609 304.348694,165.098541 
	C301.256012,166.093307 298.130798,166.554779 295.005585,167.016266 
	C293.615326,167.016205 292.225098,167.016129 289.979309,167.014557 
	C286.415619,167.343811 283.707458,167.674545 280.999329,168.005280 
	C261.271515,168.678192 241.541885,169.304047 221.817795,170.072510 
	C218.705261,170.193787 215.617828,170.959686 211.825027,171.704239 
	C208.193237,172.869446 203.653687,171.410049 203.495087,176.944244 
	C198.992096,177.380539 200.207199,180.558441 200.022400,183.361053 
	C200.259262,188.090195 200.469925,192.458511 200.691376,197.050537 
	C197.181213,198.327530 193.598099,199.631073 189.759979,200.671295 
	C182.277374,199.474640 177.526108,195.850311 178.939072,186.388977 
	C179.202118,184.627594 179.000870,182.796890 179.020752,180.576202 
	C179.027618,178.368744 179.027618,176.583282 179.027618,174.550949 
	C177.828629,174.488007 177.053375,174.386658 176.283264,174.416901 
	C171.888992,174.589554 167.467621,174.545319 163.108871,175.042740 
	C155.848679,175.871292 160.750565,182.467773 158.335938,185.654251 
	C158.236908,185.784927 158.112961,185.896759 157.736938,186.017883 
	C157.297821,186.030029 157.122406,186.041656 156.526886,186.028839 
	C154.194550,186.013397 152.282333,186.022400 150.370117,186.031403 
	C155.425949,185.460861 156.667084,182.248169 156.186676,177.752594 
	C155.665070,172.871460 157.812698,170.901566 162.791031,171.126450 
	C166.170670,171.279114 169.593643,170.472321 173.390213,169.979431 
	C175.093613,170.339447 176.404037,170.814636 178.265472,171.058075 
	C179.474319,170.837860 180.132172,170.849365 180.790009,170.860886 
z"/>
<path fill="#484848" opacity="1.000000" stroke="none" 
	d="
M267.202972,613.990234 
	C265.051331,614.199524 262.890289,614.634155 260.751099,614.544800 
	C259.126404,614.476990 257.529572,613.742676 255.785141,612.811157 
	C257.305786,612.317383 258.961609,612.317383 260.127319,612.317383 
	C258.884949,610.558228 257.729187,608.921692 256.573425,607.285156 
	C258.739502,606.529907 260.905579,605.774658 262.766479,605.125854 
	C263.280853,608.960083 263.613190,611.437256 263.945496,613.914429 
	C264.580322,614.028198 265.215118,614.141907 265.849915,614.255676 
	C266.654877,610.657043 267.459839,607.058411 268.264801,603.459778 
	C268.379303,603.497498 268.493835,603.535156 268.608337,603.572815 
	C268.519684,604.588928 268.431030,605.605103 268.329010,606.774597 
	C275.472870,604.187378 286.729156,605.412781 288.434814,608.801697 
	C292.578644,603.757874 295.206482,603.952209 297.006592,608.321777 
	C299.351349,607.421143 301.784332,606.773438 303.898346,605.566956 
	C305.163544,604.844849 305.929657,603.248291 306.920105,602.044739 
	C307.366974,602.192383 307.813843,602.340027 308.260712,602.487671 
	C307.457245,606.346924 306.653778,610.206177 305.672394,614.920166 
	C302.619995,614.348633 299.827576,613.825806 296.125336,613.132568 
	C292.722168,616.082886 290.928162,615.797180 287.816254,610.440063 
	C287.002319,611.902649 286.244873,613.263672 285.487427,614.624756 
	C285.025146,614.496765 284.562897,614.368835 284.100616,614.240845 
	C284.349365,612.174500 284.598083,610.108154 284.846802,608.041809 
	C284.443298,607.878235 284.039795,607.714661 283.636292,607.551086 
	C282.669586,609.540344 281.702881,611.529602 281.276276,612.407471 
	C278.849030,614.250916 277.276611,615.523499 275.624115,616.681946 
	C273.089752,618.458557 270.584259,619.307617 268.833069,615.518799 
	C269.050690,614.143738 268.952698,613.239990 268.854736,612.336304 
	C268.304138,612.887634 267.753571,613.438904 267.202972,613.990234 
z"/>
<path fill="#D87483" opacity="1.000000" stroke="none" 
	d="
M321.027771,163.103134 
	C344.747375,159.849106 368.462280,156.560272 392.187958,153.351257 
	C414.101257,150.387421 436.024506,147.497208 457.947571,144.606155 
	C461.211334,144.175751 464.498016,143.918747 468.253021,143.532227 
	C468.796539,147.680008 469.288696,151.435776 469.501221,155.753418 
	C468.494598,156.528717 467.767639,156.742126 467.030334,156.626907 
	C467.003906,155.858810 466.987762,155.419357 466.982941,154.551941 
	C466.880829,147.198761 466.633240,146.562744 460.078491,147.071152 
	C449.714386,147.875031 439.371979,149.103592 429.068054,150.503311 
	C414.353699,152.502151 399.682373,154.817825 384.565002,156.992920 
	C377.486725,157.705017 370.809143,158.238541 364.195953,159.210419 
	C360.383362,159.770706 356.674927,161.039444 352.485321,161.998596 
	C341.714569,162.691452 331.378113,163.375046 321.032684,163.819504 
	C321.023743,163.580368 321.027771,163.103134 321.027771,163.103134 
z"/>
<path fill="#E86377" opacity="1.000000" stroke="none" 
	d="
M149.918671,186.057343 
	C152.282333,186.022400 154.194550,186.013397 156.366989,186.406097 
	C155.749130,203.001160 154.895203,219.195923 153.960663,235.386032 
	C153.850586,237.293167 153.297623,239.174713 152.949951,241.068130 
	C152.306427,240.511124 151.662918,239.954132 150.896698,239.066711 
	C150.685944,238.455536 150.639908,238.168015 150.750427,237.327515 
	C150.499939,235.604858 150.134949,234.428482 149.769958,233.252090 
	C147.903366,219.628571 146.187653,205.981735 144.087769,192.394257 
	C143.359528,187.682144 145.035172,185.940170 149.918671,186.057343 
z"/>
<path fill="#F8926C" opacity="1.000000" stroke="none" 
	d="
M321.041626,164.058640 
	C331.378113,163.375046 341.714569,162.691452 352.962677,162.011688 
	C374.735748,161.027786 395.595001,159.989578 416.459595,159.073166 
	C427.235962,158.599838 438.023285,158.378067 448.802063,157.952591 
	C450.551636,157.883530 452.282684,157.344772 454.393616,157.027527 
	C455.507507,157.021942 456.250092,157.011963 457.447937,157.012253 
	C460.949005,157.000198 463.994812,156.977875 467.040649,156.955551 
	C467.767639,156.742126 468.494598,156.528717 469.475067,156.183533 
	C470.493011,156.144455 471.257446,156.237137 472.350159,156.520050 
	C469.884399,157.473236 467.114960,158.787537 464.292633,158.913193 
	C438.471313,160.062607 412.639282,160.969559 386.816833,162.096069 
	C385.231018,162.165222 383.700073,163.492676 382.064148,164.606689 
	C381.239655,164.981049 380.494659,164.983414 379.087280,164.704620 
	C374.351654,164.615005 370.279724,164.929428 366.204926,164.972275 
	C357.929688,165.059296 349.650757,164.903717 341.378723,165.089111 
	C339.901062,165.122238 338.449402,166.316666 336.985748,166.974884 
	C334.949158,166.980240 332.912567,166.985611 330.156860,166.712799 
	C326.614777,165.952377 323.791809,165.470123 320.984100,164.755341 
	C320.999329,164.522797 321.041626,164.058640 321.041626,164.058640 
z"/>
<path fill="#FCE2D5" opacity="1.000000" stroke="none" 
	d="
M352.054504,513.456177 
	C366.443665,513.827881 380.901184,514.476257 395.345520,515.343628 
	C408.630341,516.141357 421.900848,517.177002 435.177979,518.103516 
	C443.801788,518.705261 452.426117,519.299316 461.485840,519.916992 
	C460.695618,520.907654 459.422058,522.774353 458.251160,522.712036 
	C444.199524,521.964050 430.168427,520.842407 416.121399,519.992798 
	C398.088379,518.902100 380.036835,518.099915 362.015442,516.852966 
	C358.662292,516.620911 355.413849,514.875427 352.054504,513.456177 
z"/>
<path fill="#FCE2D5" opacity="1.000000" stroke="none" 
	d="
M232.943192,504.859619 
	C261.306763,506.637695 289.672546,508.381836 318.032806,510.211517 
	C328.469513,510.884796 338.893188,511.759949 349.654877,512.781189 
	C344.096954,513.326660 338.194397,514.028870 332.320160,513.841797 
	C324.901886,513.605591 317.517395,512.446106 310.098877,512.045105 
	C300.171051,511.508514 290.216003,511.476837 280.287933,510.943909 
	C261.041107,509.910706 241.804947,508.679047 222.580917,506.980591 
	C226.046036,505.907593 229.494614,505.383606 232.943192,504.859619 
z"/>
<path fill="#D87483" opacity="1.000000" stroke="none" 
	d="
M499.039185,404.916931 
	C498.374817,391.833344 497.710480,378.749725 497.088440,365.166199 
	C498.488251,372.816528 500.054016,380.938538 501.164337,389.122375 
	C504.536072,413.974640 507.602570,438.869110 511.120941,463.699951 
	C511.720154,467.929077 510.041534,468.672882 506.008911,468.874573 
	C504.273438,468.983765 503.288818,469.042114 502.304199,469.100464 
	C501.930267,468.625336 501.556366,468.150238 501.560730,467.350769 
	C505.273010,466.822052 509.382935,466.974213 508.741211,462.089050 
	C506.341064,443.818451 503.624390,425.589111 500.923889,407.359467 
	C500.792389,406.471680 499.689636,405.727814 499.039185,404.916931 
z"/>
<path fill="#FCE2D5" opacity="1.000000" stroke="none" 
	d="
M502.215332,469.549988 
	C503.288818,469.042114 504.273438,468.983765 505.631836,468.952820 
	C505.665344,471.922089 505.128906,474.857239 505.027252,477.807373 
	C504.838806,483.274719 502.845001,485.561829 497.363617,485.941650 
	C495.546753,486.067566 493.714386,485.971802 491.889130,485.974396 
	C490.265656,485.976715 488.642181,485.974884 486.544342,485.974884 
	C486.976501,489.531189 487.283875,492.603607 487.735901,495.654572 
	C488.426422,500.315033 485.418427,503.087433 480.842712,502.508636 
	C476.760498,501.992310 472.568634,501.839142 468.479858,502.180817 
	C467.226532,502.285553 465.359772,504.438629 465.156433,505.852539 
	C464.665222,509.267181 465.183655,512.815918 464.884094,516.275024 
	C464.773529,517.551208 463.510162,518.727539 462.356873,519.934937 
	C462.376617,513.285400 462.812073,506.650360 463.709717,499.554199 
	C466.664185,499.079468 469.156464,499.055145 471.648712,499.054047 
	C483.711823,499.048767 483.974091,498.791901 484.075165,486.921387 
	C484.085052,485.759033 484.159729,484.597198 484.204346,483.435120 
	C488.643738,483.186249 493.081573,482.903290 497.523010,482.698822 
	C501.311401,482.524353 502.610992,480.598022 502.150940,476.916077 
	C501.867188,474.644989 502.116455,472.307281 502.215332,469.549988 
z"/>
<path fill="#E86377" opacity="1.000000" stroke="none" 
	d="
M232.643127,504.605835 
	C229.494614,505.383606 226.046036,505.907593 222.295593,506.672852 
	C221.540710,506.939789 221.087677,506.965454 219.913361,507.009644 
	C217.460770,507.342316 215.729446,507.656433 213.998108,507.970551 
	C213.553314,507.987244 213.108521,508.003906 211.922165,508.032471 
	C207.450775,508.670319 203.720947,509.296295 199.991119,509.922241 
	C199.244507,509.955933 198.497910,509.989624 197.036194,510.029755 
	C195.199020,510.292328 194.076965,510.548523 192.954895,510.804688 
	C192.206100,510.860443 191.457291,510.916229 190.103485,511.006165 
	C189.498489,511.040283 189.035965,511.210541 189.035980,511.210541 
	C188.354996,510.700378 187.674011,510.190216 186.976807,509.194244 
	C186.936127,508.510162 186.857819,508.336151 186.725693,508.186401 
	C186.472641,506.772888 186.219589,505.359344 185.945099,503.513245 
	C185.958267,502.622864 185.992874,502.165100 186.030090,501.363037 
	C201.469513,502.129822 216.906296,503.240936 232.643127,504.605835 
z"/>
<path fill="#484848" opacity="1.000000" stroke="none" 
	d="
M254.194504,612.975159 
	C250.219086,616.472534 247.738846,614.613892 246.311951,611.180359 
	C242.601028,612.610229 239.092941,613.961914 235.584854,615.313660 
	C235.189102,614.809204 234.793350,614.304810 234.397598,613.800415 
	C236.449966,610.071228 233.575272,604.212402 239.194626,602.302734 
	C243.335419,600.895508 245.409622,604.098511 245.718170,606.827881 
	C248.815567,606.761230 251.583145,606.701660 254.638214,607.252380 
	C255.960266,612.934570 250.747253,609.725159 249.293793,611.875183 
	C251.116302,612.284241 252.655396,612.629700 254.194504,612.975159 
M238.464813,607.013000 
	C238.244583,608.567505 238.024368,610.121948 237.804138,611.676453 
	C238.266495,611.997803 238.728836,612.319153 239.191193,612.640564 
	C240.422684,611.039246 241.858093,609.543762 242.773499,607.778503 
	C243.088257,607.171570 242.104477,605.891235 241.713913,604.918579 
	C240.713181,605.340515 239.712448,605.762512 238.464813,607.013000 
z"/>
<path fill="#F29B5F" opacity="1.000000" stroke="none" 
	d="
M320.968872,164.987885 
	C323.791809,165.470123 326.614777,165.952377 329.720367,166.711487 
	C324.137634,167.257126 318.865845,170.660828 312.317017,168.404922 
	C307.254578,166.661041 301.214630,167.754868 295.307434,167.301697 
	C298.130798,166.554779 301.256012,166.093307 304.659180,165.352737 
	C306.598145,164.982895 308.259125,164.892120 310.807190,164.890106 
	C314.785797,164.981873 317.877319,164.984879 320.968872,164.987885 
z"/>
<path fill="#484848" opacity="1.000000" stroke="none" 
	d="
M320.885284,606.934570 
	C321.429932,614.089478 320.569794,614.772705 312.018799,614.012512 
	C312.879822,610.044434 313.727325,606.138855 314.608887,602.076111 
	C317.019531,603.851990 318.880249,605.222717 320.885284,606.934570 
z"/>
<path fill="#484848" opacity="1.000000" stroke="none" 
	d="
M323.236145,615.240845 
	C323.358185,611.905396 323.202698,608.876038 323.047211,605.846741 
	C323.415283,605.706116 323.783325,605.565491 324.151398,605.424805 
	C324.877502,606.946167 325.603607,608.467468 326.320465,609.969360 
	C327.633789,608.401306 328.943481,606.837585 330.253174,605.273865 
	C329.275940,612.852966 325.105927,617.897461 321.065186,617.200745 
	C321.821838,616.539856 322.390228,616.043457 323.236145,615.240845 
z"/>
<path fill="#382A14" opacity="1.000000" stroke="none" 
	d="
M204.086823,166.601379 
	C203.757767,168.746582 204.019028,171.187057 200.808807,169.195343 
	C200.617554,163.058685 200.525879,157.253876 200.756729,151.461914 
	C200.807861,150.179062 201.998398,148.941589 202.664291,147.683228 
	C203.130539,147.914703 203.596771,148.146194 204.063019,148.377670 
	C204.063019,154.293137 204.063019,160.208588 204.086823,166.601379 
z"/>
<path fill="#FCE2D5" opacity="1.000000" stroke="none" 
	d="
M254.477325,612.979004 
	C252.655396,612.629700 251.116302,612.284241 249.293793,611.875183 
	C250.747253,609.725159 255.960266,612.934570 254.910202,607.462891 
	C255.176697,607.082214 255.458679,607.101318 256.157043,607.202759 
	C257.729187,608.921692 258.884949,610.558228 260.127319,612.317383 
	C258.961609,612.317383 257.305786,612.317383 255.485107,612.610291 
	C255.133530,612.929749 254.946838,612.956360 254.477325,612.979004 
z"/>
<path fill="#FCE2D5" opacity="1.000000" stroke="none" 
	d="
M200.252594,510.215576 
	C203.720947,509.296295 207.450775,508.670319 211.599289,508.121521 
	C208.183334,508.968750 204.348694,509.738831 200.252594,510.215576 
z"/>
<path fill="#D6B27C" opacity="1.000000" stroke="none" 
	d="
M320.984100,164.755341 
	C317.877319,164.984879 314.785797,164.981873 311.220520,164.908264 
	C313.875916,164.234390 317.005005,163.631104 320.580933,163.065460 
	C321.027771,163.103134 321.023743,163.580368 321.032684,163.819504 
	C321.041626,164.058640 320.999329,164.522797 320.984100,164.755341 
z"/>
<path fill="#484848" opacity="1.000000" stroke="none" 
	d="
M400.461365,610.442993 
	C402.802582,609.959778 405.199493,609.572510 408.065369,609.263306 
	C408.534302,609.341370 408.393066,609.443848 408.190491,609.660156 
	C406.080017,610.950073 404.172089,612.023621 402.264191,613.097229 
	C402.253784,612.877441 402.243408,612.657715 402.421936,612.041382 
	C401.981354,611.304443 401.351868,610.963989 400.722351,610.623596 
	C400.722351,610.623596 400.517090,610.539001 400.461365,610.442993 
z"/>
<path fill="#1E1E1E" opacity="1.000000" stroke="none" 
	d="
M402.281281,613.226501 
	C404.172089,612.023621 406.080017,610.950073 408.173096,609.574646 
	C410.039978,611.447083 409.694427,612.039673 405.075562,613.593994 
	C403.803741,613.408020 403.167847,613.439819 402.531982,613.471558 
	C402.531982,613.471558 402.298370,613.355774 402.281281,613.226501 
z"/>
<path fill="#F8926C" opacity="1.000000" stroke="none" 
	d="
M485.753540,156.666199 
	C484.411865,156.902039 483.048920,156.812866 481.425354,156.515213 
	C482.687256,156.318222 484.209778,156.329712 485.753540,156.666199 
z"/>
<path fill="#FCE2D5" opacity="1.000000" stroke="none" 
	d="
M214.204697,508.235931 
	C215.729446,507.656433 217.460770,507.342316 219.583862,507.098145 
	C218.120850,507.612488 216.266068,508.056885 214.204697,508.235931 
z"/>
<path fill="#FCE2D5" opacity="1.000000" stroke="none" 
	d="
M193.152191,511.090393 
	C194.076965,510.548523 195.199020,510.292328 196.673248,510.123474 
	C195.800110,510.599182 194.574799,510.987610 193.152191,511.090393 
z"/>
<path fill="#DD957F" opacity="1.000000" stroke="none" 
	d="
M149.608398,233.547943 
	C150.134949,234.428482 150.499939,235.604858 150.781677,237.109680 
	C150.281235,236.240021 149.864044,235.041916 149.608398,233.547943 
z"/>
<path fill="#484848" opacity="1.000000" stroke="none" 
	d="
M402.666931,613.661011 
	C403.167847,613.439819 403.803741,613.408020 404.695221,613.581482 
	C404.234528,613.807983 403.518188,613.829224 402.666931,613.661011 
z"/>
<path fill="#1E1E1E" opacity="1.000000" stroke="none" 
	d="
M400.450806,611.135498 
	C401.351868,610.963989 401.981354,611.304443 402.746735,611.982971 
	C401.981476,612.096436 401.080353,611.871887 400.450806,611.135498 
z"/>
<path fill="#FCE2D5" opacity="1.000000" stroke="none" 
	d="
M189.128891,511.346344 
	C189.035965,511.210541 189.498489,511.040283 189.738220,511.096100 
	C189.977966,511.151917 189.674179,511.517761 189.674179,511.517761 
	C189.674179,511.517761 189.221817,511.482147 189.128891,511.346344 
z"/>
<path fill="#DD957F" opacity="1.000000" stroke="none" 
	d="
M186.620667,508.329498 
	C186.857819,508.336151 186.936127,508.510162 186.948730,508.854828 
	C186.676224,508.920441 186.535812,508.744232 186.620667,508.329498 
z"/>
<path fill="#F8926C" opacity="1.000000" stroke="none" 
	d="
M486.855164,164.723190 
	C486.467834,164.782791 486.378632,164.546387 486.656006,164.149048 
	C486.777313,164.061279 486.907990,164.500320 486.855164,164.723190 
z"/>
<path fill="#F7B258" opacity="1.000000" stroke="none" 
	d="
M484.165649,483.030212 
	C484.159729,484.597198 484.085052,485.759033 484.075165,486.921387 
	C483.974091,498.791901 483.711823,499.048767 471.648712,499.054047 
	C469.156464,499.055145 466.664185,499.079468 463.734222,499.095276 
	C388.524597,499.071686 313.752716,499.044952 238.980804,499.020721 
	C222.993805,499.015564 207.006775,499.006958 191.019821,499.036194 
	C189.207428,499.039520 187.395477,499.279175 185.262512,499.679291 
	C181.679825,499.638855 178.422714,499.259705 175.155014,499.033142 
	C169.418930,498.635376 163.676376,498.331055 157.483826,497.543457 
	C157.344070,492.980774 157.947998,488.859070 157.904144,484.744324 
	C157.831848,477.958557 157.032928,471.175018 157.083130,464.394562 
	C157.244217,442.640442 157.727112,420.888916 157.941849,399.134949 
	C158.081406,384.998322 157.993454,370.859131 157.930511,356.721436 
	C157.924988,355.478088 157.347351,354.237305 157.036621,352.526978 
	C157.358719,296.711548 157.679672,241.364456 158.000626,186.017365 
	C158.112961,185.896759 158.236908,185.784927 158.335938,185.654251 
	C160.750565,182.467773 155.848679,175.871292 163.108871,175.042740 
	C167.467621,174.545319 171.888992,174.589554 176.283264,174.416901 
	C177.053375,174.386658 177.828629,174.488007 179.027618,174.550949 
	C179.027618,176.583282 179.027618,178.368744 178.632172,180.577423 
	C170.975937,182.276917 164.052704,191.561615 164.017883,200.308060 
	C163.956802,215.647385 164.000656,230.987091 164.000626,246.326645 
	C164.000580,266.821472 164.112549,287.317169 163.956741,307.810822 
	C163.869614,319.268433 163.093018,330.722351 163.079559,342.178467 
	C163.067383,352.550720 163.906158,362.922546 163.955063,373.296539 
	C164.087830,401.455505 164.293976,429.620605 163.805908,457.771698 
	C163.674698,465.338928 162.911942,472.508728 167.793610,478.979919 
	C168.623795,480.080383 168.786942,481.797791 168.952530,483.264679 
	C169.462372,487.781464 172.696747,489.529388 176.300751,488.747375 
	C180.189682,487.903534 182.404755,489.341614 185.196182,491.449615 
	C187.314774,493.049561 190.284241,493.904022 192.980377,494.236389 
	C195.107513,494.498627 197.402145,493.039551 199.609818,493.077515 
	C206.737198,493.200073 213.858200,493.902100 220.982758,493.919098 
	C227.272659,493.934113 233.566895,493.009766 239.854202,493.065399 
	C253.811554,493.188812 267.765015,493.878479 281.721497,493.928192 
	C291.676697,493.963654 301.632080,493.183594 311.591339,493.039185 
	C323.170563,492.871246 334.755219,492.907196 346.335236,493.045715 
	C350.963074,493.101074 355.588562,493.992737 360.208588,493.939148 
	C374.665863,493.771576 389.118774,493.201935 403.575989,493.066528 
	C409.529816,493.010742 415.504333,494.101288 421.445007,493.910400 
	C436.809082,493.416779 452.285675,493.606110 467.200378,488.945496 
	C468.729584,488.467651 470.663910,487.840332 471.440186,486.649811 
	C474.761810,481.555878 477.887238,476.317810 478.009827,469.899292 
	C478.295502,454.943115 478.990448,439.987305 478.935120,425.033539 
	C478.800873,388.749603 478.306183,352.467102 478.015289,316.183563 
	C477.918457,304.102753 478.000000,292.020538 478.000000,279.938965 
	C478.000000,267.024963 477.988892,254.110962 478.003754,241.196976 
	C478.014587,231.780869 477.797699,222.353668 478.197205,212.953293 
	C478.404694,208.070389 479.728485,203.234924 480.616852,197.969742 
	C479.555573,196.471573 478.118195,194.085388 476.330170,191.999863 
	C473.464935,188.657913 470.909729,183.813644 467.253265,182.648071 
	C459.996887,180.334946 452.108337,179.741989 444.425781,179.109802 
	C437.971130,178.578644 431.430420,179.184479 424.943115,178.916702 
	C422.050201,178.797287 419.219940,177.461609 416.316589,177.224533 
	C411.805267,176.856155 407.242065,176.690079 402.726166,176.925018 
	C397.533203,177.195129 392.376617,178.343475 387.188110,178.475235 
	C380.971985,178.633102 374.729919,178.257278 368.515747,177.854950 
	C363.222382,177.512207 358.159088,178.032623 352.591431,176.081528 
	C346.789886,174.048462 339.498871,176.301025 332.855957,176.614182 
	C330.620331,176.719574 328.374969,176.642670 326.134491,176.614532 
	C324.103058,176.589050 322.006531,176.174088 320.057190,176.548233 
	C317.394165,177.059372 314.862854,178.806107 312.241058,178.884384 
	C302.492218,179.175507 292.728760,179.068466 282.972260,178.968475 
	C278.814545,178.925858 274.429230,180.101227 271.128784,175.663666 
	C270.299561,174.548721 266.471161,174.705261 264.554901,175.525131 
	C256.562927,178.944534 248.229523,178.395248 240.059235,177.643600 
	C235.003159,177.178436 230.170654,174.426941 225.399445,178.591629 
	C224.596115,179.292831 222.809509,179.099045 221.513809,178.964996 
	C215.627090,178.356033 209.753464,177.620468 203.875137,176.930435 
	C203.653687,171.410049 208.193237,172.869446 211.534424,171.984192 
	C298.390717,171.992828 384.843842,171.986420 471.296967,172.046692 
	C474.753906,172.049103 478.266266,172.428818 481.635712,173.167114 
	C482.760834,173.413635 483.519928,175.330551 484.716492,176.744461 
	C484.988098,177.753021 484.989563,178.501007 484.706787,179.922729 
	C484.288361,184.731888 484.154175,188.867294 484.019989,193.002686 
	C484.019897,194.389816 484.019806,195.776962 484.040466,197.876221 
	C484.371796,199.060989 484.682312,199.533646 484.992828,200.006287 
	C485.319458,202.722916 485.646057,205.439514 485.619385,208.644714 
	C484.849335,210.421402 484.432556,211.709473 484.011688,213.466156 
	C484.340027,221.627014 484.672455,229.319244 485.004883,237.011475 
	C485.002869,238.073944 485.000824,239.136414 484.997131,241.066452 
	C484.996002,320.623199 484.996521,399.312347 484.997070,478.001526 
	C484.707031,479.542786 484.416992,481.084076 484.165649,483.030212 
z"/>
<path fill="#F29E55" opacity="1.000000" stroke="none" 
	d="
M485.351776,477.934265 
	C484.996521,399.312347 484.996002,320.623199 484.997742,241.464874 
	C490.493683,241.547836 488.920258,247.280197 488.386536,248.634216 
	C485.551361,255.826843 488.633453,262.604126 488.737152,269.513947 
	C488.873688,278.614777 489.816406,287.710907 489.759491,296.804932 
	C489.714294,304.021515 486.619080,311.898163 488.668396,318.260925 
	C490.789398,324.846191 490.908051,331.301788 491.836670,337.794769 
	C492.091064,339.573578 490.162872,341.580109 489.589783,343.583252 
	C488.883972,346.050262 487.865204,348.722443 488.215149,351.126434 
	C488.717957,354.580750 490.555267,357.818878 491.394806,361.253937 
	C491.930054,363.444031 492.439453,366.123871 491.661072,368.062378 
	C489.173035,374.258759 489.770111,380.362793 490.859680,386.635132 
	C491.253082,388.899872 490.702362,391.325592 491.071564,393.598389 
	C491.528320,396.410278 492.506042,399.136353 493.233887,401.905975 
	C493.523254,403.007263 493.956635,404.124298 493.965729,405.237061 
	C494.029510,413.056580 494.015411,420.876892 493.979706,428.696777 
	C493.975250,429.672119 494.047577,431.167084 493.492523,431.539703 
	C488.379852,434.972015 490.794678,438.667725 492.584045,442.681763 
	C493.191132,444.043610 492.932159,446.698486 491.966644,447.702301 
	C486.939209,452.929504 488.708313,458.445831 490.421875,464.203644 
	C490.883911,465.756104 490.672668,467.791718 490.060059,469.320923 
	C488.876007,472.276611 487.186493,475.029816 485.351776,477.934265 
M489.705444,340.101013 
	C489.518280,339.573669 489.331085,339.046326 489.143921,338.518982 
	C488.872375,338.642029 488.600861,338.765045 488.329315,338.888092 
	C488.646301,339.430908 488.963287,339.973724 489.705444,340.101013 
z"/>
<path fill="#EF5E6D" opacity="1.000000" stroke="none" 
	d="
M499.019592,405.391907 
	C499.689636,405.727814 500.792389,406.471680 500.923889,407.359467 
	C503.624390,425.589111 506.341064,443.818451 508.741211,462.089050 
	C509.382935,466.974213 505.273010,466.822052 501.547058,467.032288 
	C500.436737,446.647766 499.718384,426.257324 499.019592,405.391907 
z"/>
<path fill="#F29E55" opacity="1.000000" stroke="none" 
	d="
M485.397644,236.911270 
	C484.672455,229.319244 484.340027,221.627014 484.382751,213.466797 
	C485.500397,213.001892 486.242859,213.005005 486.985352,213.008118 
	C486.990540,219.451416 487.069977,225.896179 486.945587,232.336990 
	C486.916656,233.835220 486.193878,235.320068 485.397644,236.911270 
z"/>
<path fill="#F19E5A" opacity="1.000000" stroke="none" 
	d="
M484.407837,192.904297 
	C484.154175,188.867294 484.288361,184.731888 484.706482,180.296783 
	C484.925507,184.266678 484.860596,188.536301 484.407837,192.904297 
z"/>
<path fill="#F19E5A" opacity="1.000000" stroke="none" 
	d="
M486.990265,212.640137 
	C486.242859,213.005005 485.500397,213.001892 484.386841,212.998169 
	C484.432556,211.709473 484.849335,210.421402 485.617371,209.055939 
	C486.310822,210.076416 486.652985,211.174286 486.990265,212.640137 
z"/>
<path fill="#F19E5A" opacity="1.000000" stroke="none" 
	d="
M485.214233,199.832703 
	C484.682312,199.533646 484.371796,199.060989 484.047455,198.292297 
	C484.500977,198.550537 484.968323,199.104828 485.214233,199.832703 
z"/>
<path fill="#F29B5F" opacity="1.000000" stroke="none" 
	d="
M337.446899,166.983337 
	C338.449402,166.316666 339.901062,165.122238 341.378723,165.089111 
	C349.650757,164.903717 357.929688,165.059296 366.204926,164.972275 
	C370.279724,164.929428 374.351654,164.615005 378.714539,164.703156 
	C377.339233,165.493713 375.683746,166.411240 374.007751,166.450317 
	C361.976837,166.730911 349.941803,166.833023 337.446899,166.983337 
z"/>
<path fill="#F29B5F" opacity="1.000000" stroke="none" 
	d="
M281.282562,168.284500 
	C283.707458,167.674545 286.415619,167.343811 289.562500,167.029694 
	C287.758423,170.715332 284.487183,168.667114 281.282562,168.284500 
z"/>
<path fill="#F27D58" opacity="1.000000" stroke="none" 
	d="
M157.736938,186.017883 
	C157.679672,241.364456 157.358719,296.711548 156.687912,352.723022 
	C155.892105,355.409241 155.061584,357.430267 155.057251,359.453064 
	C154.978210,396.309753 154.998398,433.166595 154.997559,470.023438 
	C154.997360,479.341248 154.997375,488.659058 154.997284,497.976868 
	C151.002274,497.986511 147.007248,497.998657 143.012238,498.005035 
	C139.789841,498.010193 137.862671,496.475281 138.024750,493.179321 
	C138.496429,483.587921 139.101486,474.002899 139.686752,464.417328 
	C140.090454,457.805511 140.517502,451.194763 140.987595,444.587341 
	C142.279617,426.427155 143.606140,408.269470 144.904877,390.109772 
	C145.271103,384.989105 145.645035,379.868011 145.917587,374.741913 
	C146.638962,361.173798 147.113434,347.589569 148.046890,334.036560 
	C149.114990,318.528778 150.623993,303.051819 151.835510,287.553192 
	C152.351974,280.946289 152.781464,274.322327 152.924652,267.699036 
	C153.110031,259.124451 152.969742,250.542877 152.959808,241.516220 
	C153.297623,239.174713 153.850586,237.293167 153.960663,235.386032 
	C154.895203,219.195923 155.749130,203.001160 156.787109,186.430542 
	C157.122406,186.041656 157.297821,186.030029 157.736938,186.017883 
z"/>
<path fill="#EE854C" opacity="1.000000" stroke="none" 
	d="
M155.339706,497.996002 
	C154.997375,488.659058 154.997360,479.341248 154.997559,470.023438 
	C154.998398,433.166595 154.978210,396.309753 155.057251,359.453064 
	C155.061584,357.430267 155.892105,355.409241 156.686768,353.191345 
	C157.347351,354.237305 157.924988,355.478088 157.930511,356.721436 
	C157.993454,370.859131 158.081406,384.998322 157.941849,399.134949 
	C157.727112,420.888916 157.244217,442.640442 157.083130,464.394562 
	C157.032928,471.175018 157.831848,477.958557 157.904144,484.744324 
	C157.947998,488.859070 157.344070,492.980774 157.042542,497.528473 
	C156.596680,497.976776 156.139404,497.995941 155.339706,497.996002 
z"/>
<path fill="#F2EEE7" opacity="1.000000" stroke="none" 
	d="
M342.892029,603.423950 
	C344.202576,605.297302 345.382935,607.039246 345.877502,608.957886 
	C345.991180,609.398743 343.635132,611.186768 342.620026,611.030212 
	C341.322693,610.830139 339.085724,608.885986 339.257751,608.393616 
	C339.898499,606.559448 341.359497,605.011841 342.892029,603.423950 
z"/>
<path fill="#F2EEE7" opacity="1.000000" stroke="none" 
	d="
M368.469208,603.617188 
	C369.233551,605.770081 369.889282,607.773438 369.879944,609.773743 
	C369.878052,610.183594 367.013367,611.280212 366.132477,610.811646 
	C364.986450,610.201965 363.551453,607.823120 363.930481,607.131470 
	C364.768127,605.602722 366.662201,604.652710 368.469208,603.617188 
z"/>
<path fill="#F2EEE7" opacity="1.000000" stroke="none" 
	d="
M180.864716,170.408447 
	C180.132172,170.849365 179.474319,170.837860 178.491226,170.761139 
	C178.115143,158.562592 178.009857,146.429123 178.038544,134.295975 
	C178.051163,128.959305 181.159042,125.826035 186.225739,125.672363 
	C190.923569,125.529877 193.841476,128.559341 193.882874,134.053772 
	C193.970581,145.689819 193.898483,157.327072 193.441971,169.471985 
	C190.451355,170.253265 187.910721,170.526382 185.370071,170.799500 
	C185.311569,165.368546 185.387955,159.930267 185.094498,154.512039 
	C185.025818,153.243942 183.704193,152.043701 182.959015,150.812241 
	C182.313843,152.087311 181.172974,153.338806 181.111023,154.641602 
	C180.868729,159.737595 180.967438,164.849808 180.864716,170.408447 
z"/>
<path fill="#D6B27C" opacity="1.000000" stroke="none" 
	d="
M185.297516,171.277832 
	C187.910721,170.526382 190.451355,170.253265 193.386322,169.929993 
	C193.831741,175.518539 193.944504,181.157822 193.891251,186.795563 
	C193.877686,188.231339 193.784088,190.075348 192.932190,190.996506 
	C191.712265,192.315628 189.810135,193.510223 188.102600,193.660660 
	C187.235413,193.737045 185.367004,191.448730 185.307892,190.166840 
	C185.025436,184.041687 185.207825,177.895126 185.297516,171.277832 
z"/>
<path fill="#F0C054" opacity="1.000000" stroke="none" 
	d="
M190.014984,200.934616 
	C193.598099,199.631073 197.181213,198.327530 200.691376,197.050537 
	C200.469925,192.458511 200.259262,188.090195 200.403244,183.415222 
	C201.506729,184.754395 202.700577,186.342834 202.921768,188.056793 
	C203.610519,193.393631 204.829803,194.215591 209.864136,192.686691 
	C211.875366,192.075897 214.111755,192.026932 216.245773,192.026031 
	C289.901306,191.994797 363.556885,192.011566 437.212402,191.969406 
	C441.344025,191.967041 445.473419,191.439011 449.608215,191.343246 
	C450.608307,191.320068 451.944916,191.759766 452.580658,192.473267 
	C455.547607,195.803009 458.739227,199.051376 461.025696,202.828186 
	C462.636597,205.489059 463.299225,208.904816 463.686127,212.068985 
	C463.998901,214.626785 463.035339,217.312073 463.033844,219.941025 
	C462.991669,293.596558 462.725708,367.254150 463.266724,440.905731 
	C463.358185,453.358429 460.703033,464.898102 457.851379,476.634705 
	C456.853668,480.741089 451.108093,482.449615 448.958710,479.158875 
	C446.404541,475.248291 443.022614,474.969543 439.052673,474.971558 
	C362.730835,475.010010 286.408997,474.976990 210.087219,475.037933 
	C202.970306,475.043610 195.262024,472.966492 189.291428,481.166992 
	C185.253754,474.290161 181.784821,468.426270 178.389832,462.519867 
	C178.102539,462.020081 178.251099,461.231598 178.297882,460.584503 
	C178.512314,457.617798 178.968445,454.653717 178.969925,451.688568 
	C179.007980,375.200104 179.020081,298.711609 178.942352,222.223221 
	C178.938339,218.282730 178.326645,214.299454 177.588715,210.413818 
	C176.614014,205.281403 177.393661,204.425644 182.514496,204.835617 
	C185.593613,205.082138 189.596436,206.192413 190.014984,200.934616 
z"/>
<path fill="#F4B956" opacity="1.000000" stroke="none" 
	d="
M189.759979,200.671295 
	C189.596436,206.192413 185.593613,205.082138 182.514496,204.835617 
	C177.393661,204.425644 176.614014,205.281403 177.588715,210.413818 
	C178.326645,214.299454 178.938339,218.282730 178.942352,222.223221 
	C179.020081,298.711609 179.007980,375.200104 178.969925,451.688568 
	C178.968445,454.653717 178.512314,457.617798 178.297882,460.584503 
	C178.251099,461.231598 178.102539,462.020081 178.389832,462.519867 
	C181.784821,468.426270 185.253754,474.290161 189.291428,481.166992 
	C195.262024,472.966492 202.970306,475.043610 210.087219,475.037933 
	C286.408997,474.976990 362.730835,475.010010 439.052673,474.971558 
	C443.022614,474.969543 446.404541,475.248291 448.958710,479.158875 
	C451.108093,482.449615 456.853668,480.741089 457.851379,476.634705 
	C460.703033,464.898102 463.358185,453.358429 463.266724,440.905731 
	C462.725708,367.254150 462.991669,293.596558 463.033844,219.941025 
	C463.035339,217.312073 463.998901,214.626785 463.686127,212.068985 
	C463.299225,208.904816 462.636597,205.489059 461.025696,202.828186 
	C458.739227,199.051376 455.547607,195.803009 452.580658,192.473267 
	C451.944916,191.759766 450.608307,191.320068 449.608215,191.343246 
	C445.473419,191.439011 441.344025,191.967041 437.212402,191.969406 
	C363.556885,192.011566 289.901306,191.994797 216.245773,192.026031 
	C214.111755,192.026932 211.875366,192.075897 209.864136,192.686691 
	C204.829803,194.215591 203.610519,193.393631 202.921768,188.056793 
	C202.700577,186.342834 201.506729,184.754395 200.377045,183.054367 
	C200.207199,180.558441 198.992096,177.380539 203.495087,176.944244 
	C209.753464,177.620468 215.627090,178.356033 221.513809,178.964996 
	C222.809509,179.099045 224.596115,179.292831 225.399445,178.591629 
	C230.170654,174.426941 235.003159,177.178436 240.059235,177.643600 
	C248.229523,178.395248 256.562927,178.944534 264.554901,175.525131 
	C266.471161,174.705261 270.299561,174.548721 271.128784,175.663666 
	C274.429230,180.101227 278.814545,178.925858 282.972260,178.968475 
	C292.728760,179.068466 302.492218,179.175507 312.241058,178.884384 
	C314.862854,178.806107 317.394165,177.059372 320.057190,176.548233 
	C322.006531,176.174088 324.103058,176.589050 326.134491,176.614532 
	C328.374969,176.642670 330.620331,176.719574 332.855957,176.614182 
	C339.498871,176.301025 346.789886,174.048462 352.591431,176.081528 
	C358.159088,178.032623 363.222382,177.512207 368.515747,177.854950 
	C374.729919,178.257278 380.971985,178.633102 387.188110,178.475235 
	C392.376617,178.343475 397.533203,177.195129 402.726166,176.925018 
	C407.242065,176.690079 411.805267,176.856155 416.316589,177.224533 
	C419.219940,177.461609 422.050201,178.797287 424.943115,178.916702 
	C431.430420,179.184479 437.971130,178.578644 444.425781,179.109802 
	C452.108337,179.741989 459.996887,180.334946 467.253265,182.648071 
	C470.909729,183.813644 473.464935,188.657913 476.330170,191.999863 
	C478.118195,194.085388 479.555573,196.471573 480.616852,197.969742 
	C479.728485,203.234924 478.404694,208.070389 478.197205,212.953293 
	C477.797699,222.353668 478.014587,231.780869 478.003754,241.196976 
	C477.988892,254.110962 478.000000,267.024963 478.000000,279.938965 
	C478.000000,292.020538 477.918457,304.102753 478.015289,316.183563 
	C478.306183,352.467102 478.800873,388.749603 478.935120,425.033539 
	C478.990448,439.987305 478.295502,454.943115 478.009827,469.899292 
	C477.887238,476.317810 474.761810,481.555878 471.440186,486.649811 
	C470.663910,487.840332 468.729584,488.467651 467.200378,488.945496 
	C452.285675,493.606110 436.809082,493.416779 421.445007,493.910400 
	C415.504333,494.101288 409.529816,493.010742 403.575989,493.066528 
	C389.118774,493.201935 374.665863,493.771576 360.208588,493.939148 
	C355.588562,493.992737 350.963074,493.101074 346.335236,493.045715 
	C334.755219,492.907196 323.170563,492.871246 311.591339,493.039185 
	C301.632080,493.183594 291.676697,493.963654 281.721497,493.928192 
	C267.765015,493.878479 253.811554,493.188812 239.854202,493.065399 
	C233.566895,493.009766 227.272659,493.934113 220.982758,493.919098 
	C213.858200,493.902100 206.737198,493.200073 199.609818,493.077515 
	C197.402145,493.039551 195.107513,494.498627 192.980377,494.236389 
	C190.284241,493.904022 187.314774,493.049561 185.196182,491.449615 
	C182.404755,489.341614 180.189682,487.903534 176.300751,488.747375 
	C172.696747,489.529388 169.462372,487.781464 168.952530,483.264679 
	C168.786942,481.797791 168.623795,480.080383 167.793610,478.979919 
	C162.911942,472.508728 163.674698,465.338928 163.805908,457.771698 
	C164.293976,429.620605 164.087830,401.455505 163.955063,373.296539 
	C163.906158,362.922546 163.067383,352.550720 163.079559,342.178467 
	C163.093018,330.722351 163.869614,319.268433 163.956741,307.810822 
	C164.112549,287.317169 164.000580,266.821472 164.000626,246.326645 
	C164.000656,230.987091 163.956802,215.647385 164.017883,200.308060 
	C164.052704,191.561615 170.975937,182.276917 178.625305,180.999390 
	C179.000870,182.796890 179.202118,184.627594 178.939072,186.388977 
	C177.526108,195.850311 182.277374,199.474640 189.759979,200.671295 
z"/>
<path fill="#F5F5F5" opacity="1.000000" stroke="none" 
	d="
M267.470459,614.337097 
	C267.753571,613.438904 268.304138,612.887634 268.854736,612.336304 
	C268.952698,613.239990 269.050690,614.143738 268.742249,615.185791 
	C268.136536,615.110718 267.937256,614.897339 267.470459,614.337097 
z"/>
<path fill="#F35876" opacity="1.000000" stroke="none" 
	d="
M456.992676,157.001968 
	C456.250092,157.011963 455.507507,157.021942 454.093201,156.732697 
	C451.779907,156.287567 450.134308,155.981110 448.497314,156.021454 
	C436.875336,156.307846 425.248474,156.522018 413.636841,157.055511 
	C407.037811,157.358704 400.473419,158.490891 393.875549,158.708862 
	C390.941681,158.805801 387.244385,161.052979 384.992676,156.998169 
	C399.682373,154.817825 414.353699,152.502151 429.068054,150.503311 
	C439.371979,149.103592 449.714386,147.875031 460.078491,147.071152 
	C466.633240,146.562744 466.880829,147.198761 466.537048,154.557922 
	C463.098389,155.877014 459.297424,153.057495 456.992676,157.001968 
z"/>
<path fill="#EF5E6D" opacity="1.000000" stroke="none" 
	d="
M384.565002,156.992920 
	C387.244385,161.052979 390.941681,158.805801 393.875549,158.708862 
	C400.473419,158.490891 407.037811,157.358704 413.636841,157.055511 
	C425.248474,156.522018 436.875336,156.307846 448.497314,156.021454 
	C450.134308,155.981110 451.779907,156.287567 453.721893,156.728302 
	C452.282684,157.344772 450.551636,157.883530 448.802063,157.952591 
	C438.023285,158.378067 427.235962,158.599838 416.459595,159.073166 
	C395.595001,159.989578 374.735748,161.027786 353.396942,162.002426 
	C356.674927,161.039444 360.383362,159.770706 364.195953,159.210419 
	C370.809143,158.238541 377.486725,157.705017 384.565002,156.992920 
z"/>
<path fill="#EF5E6D" opacity="1.000000" stroke="none" 
	d="
M457.447937,157.012253 
	C459.297424,153.057495 463.098389,155.877014 466.525757,154.985901 
	C466.987762,155.419357 467.003906,155.858810 467.030334,156.626907 
	C463.994812,156.977875 460.949005,157.000198 457.447937,157.012253 
z"/>
<path fill="#F2EEE7" opacity="1.000000" stroke="none" 
	d="
M238.588257,606.598755 
	C239.712448,605.762512 240.713181,605.340515 241.713898,604.918579 
	C242.104477,605.891235 243.088257,607.171570 242.773499,607.778503 
	C241.858093,609.543762 240.422684,611.039246 239.191193,612.640564 
	C238.728836,612.319153 238.266495,611.997803 237.804138,611.676453 
	C238.024368,610.121948 238.244583,608.567505 238.588257,606.598755 
z"/>
<path fill="#F29B5F" opacity="1.000000" stroke="none" 
	d="
M489.492859,340.308777 
	C488.963287,339.973724 488.646301,339.430908 488.329315,338.888092 
	C488.600861,338.765045 488.872375,338.642029 489.143921,338.518982 
	C489.331085,339.046326 489.518280,339.573669 489.492859,340.308777 
z"/>
</svg>