<?xml version="1.0" standalone="no"?>
<!DOCTYPE svg PUBLIC "-//W3C//DTD SVG 20010904//EN"
 "http://www.w3.org/TR/2001/REC-SVG-20010904/DTD/svg10.dtd">
<svg version="1.0" xmlns="http://www.w3.org/2000/svg"
 width="237.000000pt" height="213.000000pt" viewBox="0 0 237.000000 213.000000"
 preserveAspectRatio="xMidYMid meet">

<g transform="translate(0.000000,213.000000) scale(0.100000,-0.100000)"
fill="#000000" stroke="none">
<path d="M300 1930 c0 -6 38 -10 94 -10 53 0 98 4 101 10 4 6 -30 10 -94 10
-61 0 -101 -4 -101 -10z"/>
<path d="M1123 1855 c-186 -51 -260 -184 -183 -330 17 -32 29 -59 28 -60 -2
-1 -23 -12 -46 -24 -95 -48 -168 -151 -193 -271 -17 -82 -6 -242 20 -312 31
-80 104 -157 183 -194 57 -26 73 -29 173 -29 104 0 114 2 177 33 95 47 141
113 154 225 13 111 -35 205 -114 223 -15 3 -39 9 -54 13 l-28 6 29 60 c32 69
100 136 157 156 63 22 171 17 226 -10 87 -42 143 -129 154 -240 l7 -61 -44 22
c-62 31 -161 31 -210 0 -51 -31 -63 -66 -54 -155 4 -39 8 -97 9 -127 1 -52 0
-55 -25 -58 -27 -3 -39 -23 -39 -64 0 -39 188 -15 266 33 39 24 44 15 44 -69
-1 -191 -182 -284 -524 -269 -250 11 -351 68 -378 216 -11 61 -12 61 -46 61
l-35 0 6 -67 c8 -98 23 -139 70 -190 47 -51 110 -86 200 -110 92 -26 406 -25
497 1 135 37 211 91 257 181 32 61 42 200 21 280 -13 49 -12 52 20 115 108
216 34 533 -144 612 l-43 19 36 32 c30 28 36 42 41 85 12 128 -75 220 -253
267 -76 19 -289 19 -362 0z m368 -103 c23 -9 23 -9 3 -16 -83 -26 -112 -165
-48 -230 19 -19 23 -27 13 -30 -8 -3 -30 -9 -49 -15 -51 -17 -124 -73 -160
-125 -38 -56 -77 -157 -86 -223 -6 -47 -5 -51 17 -56 13 -4 45 -7 70 -7 32 0
55 -7 73 -21 22 -17 26 -28 26 -73 0 -69 -29 -113 -95 -146 -43 -21 -63 -25
-145 -25 -53 0 -112 6 -134 14 -48 17 -112 73 -136 122 -27 52 -40 147 -30
217 25 176 135 270 327 280 l93 5 0 33 0 34 -94 0 -94 0 -23 36 c-29 48 -31
113 -3 151 25 34 96 71 161 83 56 11 279 5 314 -8z m157 -89 c6 -9 12 -36 12
-59 0 -34 -5 -47 -26 -63 -77 -61 -184 22 -140 108 27 51 120 59 154 14z m121
-682 c28 -20 31 -27 25 -55 -16 -76 -77 -152 -146 -180 -50 -21 -51 -21 -46
16 3 17 -1 63 -8 101 -15 80 -11 111 20 133 30 22 114 14 155 -15z"/>
<path d="M346 1831 c-3 -5 3 -11 14 -14 18 -5 20 -14 20 -101 0 -89 -1 -96
-20 -96 -11 0 -20 -4 -20 -10 0 -6 27 -10 61 -10 37 0 58 4 54 10 -3 6 -13 10
-21 10 -11 0 -14 21 -14 110 l0 110 -34 0 c-19 0 -37 -4 -40 -9z"/>
<path d="M285 1265 c-20 -25 -35 -48 -33 -51 8 -7 99 69 95 79 -8 24 -26 15
-62 -28z"/>
<path d="M212 1147 c-12 -13 -22 -30 -22 -39 0 -29 35 -59 80 -69 56 -13 70
-24 70 -60 0 -23 -6 -32 -27 -40 -39 -15 -75 0 -95 39 -25 51 -28 50 -28 -8 0
-45 2 -51 15 -40 11 9 22 9 49 -1 73 -26 140 38 105 100 -10 18 -33 32 -74 46
-62 21 -78 42 -55 70 13 16 67 20 88 6 7 -4 17 -21 22 -37 8 -28 8 -28 9 11
l1 40 -58 3 c-50 2 -61 0 -80 -21z"/>
<path d="M240 540 c0 -5 9 -10 20 -10 19 0 20 -7 20 -100 0 -93 -1 -100 -20
-100 -11 0 -20 -4 -20 -10 0 -6 28 -10 65 -10 37 0 65 4 65 10 0 6 -11 10 -25
10 -25 0 -25 1 -25 79 0 64 4 83 21 105 24 31 39 33 39 6 0 -14 7 -20 21 -20
15 0 20 5 17 23 -4 31 -62 37 -80 8 -16 -27 -28 -27 -28 -1 0 16 -7 20 -35 20
-19 0 -35 -4 -35 -10z"/>
</g>
</svg>
